G75*
%MOIN*%
%OFA0B0*%
%FSLAX24Y24*%
%IPPOS*%
%LPD*%
%AMOC8*
5,1,8,0,0,1.08239X$1,22.5*
%
%ADD10C,0.0050*%
%ADD11C,0.0080*%
%ADD12C,0.0060*%
%ADD13C,0.0120*%
%ADD14C,0.0100*%
D10*
X013311Y007125D02*
X013311Y007575D01*
X013536Y007575D01*
X013611Y007500D01*
X013611Y007350D01*
X013536Y007275D01*
X013311Y007275D01*
X013461Y007275D02*
X013611Y007125D01*
X013771Y007200D02*
X013771Y007350D01*
X013846Y007425D01*
X013996Y007425D01*
X014071Y007350D01*
X014071Y007275D01*
X013771Y007275D01*
X013771Y007200D02*
X013846Y007125D01*
X013996Y007125D01*
X014231Y007125D02*
X014457Y007125D01*
X014532Y007200D01*
X014457Y007275D01*
X014307Y007275D01*
X014231Y007350D01*
X014307Y007425D01*
X014532Y007425D01*
X014692Y007350D02*
X014767Y007425D01*
X014917Y007425D01*
X014992Y007350D01*
X014992Y007275D01*
X014692Y007275D01*
X014692Y007200D02*
X014692Y007350D01*
X014692Y007200D02*
X014767Y007125D01*
X014917Y007125D01*
X015227Y007200D02*
X015227Y007500D01*
X015152Y007425D02*
X015302Y007425D01*
X015227Y007200D02*
X015302Y007125D01*
X014917Y007875D02*
X014992Y007950D01*
X014917Y007875D02*
X014767Y007875D01*
X014692Y007950D01*
X014692Y008250D01*
X014767Y008325D01*
X014917Y008325D01*
X014992Y008250D01*
X014532Y008100D02*
X014532Y007950D01*
X014457Y007875D01*
X014307Y007875D01*
X014231Y007950D01*
X014231Y008100D01*
X014307Y008175D01*
X014457Y008175D01*
X014532Y008100D01*
X014071Y008025D02*
X014071Y007950D01*
X013996Y007875D01*
X013846Y007875D01*
X013771Y007950D01*
X013846Y008100D02*
X013996Y008100D01*
X014071Y008025D01*
X014071Y008250D02*
X013996Y008325D01*
X013846Y008325D01*
X013771Y008250D01*
X013771Y008175D01*
X013846Y008100D01*
X013611Y008100D02*
X013536Y008025D01*
X013311Y008025D01*
X013311Y007875D02*
X013311Y008325D01*
X013536Y008325D01*
X013611Y008250D01*
X013611Y008100D01*
X015082Y012164D02*
X015082Y012615D01*
X015308Y012615D01*
X015383Y012540D01*
X015383Y012390D01*
X015308Y012315D01*
X015082Y012315D01*
X015543Y012315D02*
X015693Y012465D01*
X015768Y012465D01*
X015926Y012390D02*
X015926Y012239D01*
X016001Y012164D01*
X016152Y012164D01*
X016227Y012239D01*
X016227Y012390D01*
X016152Y012465D01*
X016001Y012465D01*
X015926Y012390D01*
X015543Y012465D02*
X015543Y012164D01*
X016387Y012239D02*
X016462Y012164D01*
X016687Y012164D01*
X016687Y012089D02*
X016687Y012465D01*
X016462Y012465D01*
X016387Y012390D01*
X016387Y012239D01*
X016537Y012014D02*
X016612Y012014D01*
X016687Y012089D01*
X016689Y012914D02*
X016539Y012914D01*
X016464Y012989D01*
X016464Y013290D01*
X016539Y013365D01*
X016689Y013365D01*
X016764Y013290D01*
X016764Y012989D02*
X016689Y012914D01*
X016303Y012989D02*
X016303Y013140D01*
X016228Y013215D01*
X016078Y013215D01*
X016003Y013140D01*
X016003Y012989D01*
X016078Y012914D01*
X016228Y012914D01*
X016303Y012989D01*
X015843Y012989D02*
X015768Y012914D01*
X015618Y012914D01*
X015543Y012989D01*
X015618Y013140D02*
X015768Y013140D01*
X015843Y013065D01*
X015843Y012989D01*
X015618Y013140D02*
X015543Y013215D01*
X015543Y013290D01*
X015618Y013365D01*
X015768Y013365D01*
X015843Y013290D01*
X015383Y013290D02*
X015383Y013140D01*
X015308Y013065D01*
X015082Y013065D01*
X015082Y012914D02*
X015082Y013365D01*
X015308Y013365D01*
X015383Y013290D01*
D11*
X000180Y000474D02*
X040141Y000474D01*
X040141Y028229D01*
X000180Y028229D01*
X000180Y000474D01*
X000820Y002714D02*
X000890Y002784D01*
X000890Y002854D01*
X000820Y002924D01*
X000470Y002924D01*
X000470Y002854D02*
X000470Y002994D01*
X000680Y003174D02*
X000680Y003384D01*
X000750Y003454D01*
X000820Y003454D01*
X000890Y003384D01*
X000890Y003244D01*
X000820Y003174D01*
X000680Y003174D01*
X000540Y003314D01*
X000470Y003454D01*
X001080Y003424D02*
X001330Y003674D01*
X001080Y003924D01*
X001080Y004424D01*
X001330Y004674D01*
X001080Y004924D01*
X001080Y005424D01*
X001330Y005674D01*
X001080Y005924D01*
X001080Y006424D01*
X001330Y006674D01*
X002830Y006674D01*
X003080Y006424D01*
X003080Y005924D01*
X002830Y005674D01*
X003080Y005424D01*
X003080Y004924D01*
X002830Y004674D01*
X003080Y004424D01*
X003080Y003924D01*
X002830Y003674D01*
X003080Y003424D01*
X003080Y002924D01*
X002830Y002674D01*
X001330Y002674D01*
X001080Y002924D01*
X001080Y003424D01*
X003270Y003154D02*
X003410Y003014D01*
X003270Y003154D02*
X003690Y003154D01*
X003680Y003067D02*
X003680Y001167D01*
X003465Y001064D02*
X003185Y001064D01*
X003325Y001064D02*
X003325Y001484D01*
X003185Y001344D01*
X003680Y001167D02*
X003682Y001137D01*
X003687Y001107D01*
X003696Y001078D01*
X003709Y001051D01*
X003724Y001025D01*
X003743Y001001D01*
X003764Y000980D01*
X003788Y000961D01*
X003814Y000946D01*
X003841Y000933D01*
X003870Y000924D01*
X003900Y000919D01*
X003930Y000917D01*
X016430Y000917D01*
X016460Y000919D01*
X016490Y000924D01*
X016519Y000933D01*
X016546Y000946D01*
X016572Y000961D01*
X016596Y000980D01*
X016617Y001001D01*
X016636Y001025D01*
X016651Y001051D01*
X016664Y001078D01*
X016673Y001107D01*
X016678Y001137D01*
X016680Y001167D01*
X016680Y003067D01*
X016830Y003178D02*
X016830Y002897D01*
X017040Y002897D01*
X016970Y003038D01*
X016970Y003108D01*
X017040Y003178D01*
X017181Y003178D01*
X017251Y003108D01*
X017251Y002968D01*
X017181Y002897D01*
X017181Y002647D02*
X016830Y002647D01*
X016830Y002577D02*
X016830Y002717D01*
X017181Y002647D02*
X017251Y002577D01*
X017251Y002507D01*
X017181Y002437D01*
X016680Y003067D02*
X016678Y003097D01*
X016673Y003127D01*
X016664Y003156D01*
X016651Y003183D01*
X016636Y003209D01*
X016617Y003233D01*
X016596Y003254D01*
X016572Y003273D01*
X016546Y003288D01*
X016519Y003301D01*
X016490Y003310D01*
X016460Y003315D01*
X016430Y003317D01*
X003930Y003317D01*
X003690Y003294D02*
X003690Y003014D01*
X003680Y003067D02*
X003682Y003097D01*
X003687Y003127D01*
X003696Y003156D01*
X003709Y003183D01*
X003724Y003209D01*
X003743Y003233D01*
X003764Y003254D01*
X003788Y003273D01*
X003814Y003288D01*
X003841Y003301D01*
X003870Y003310D01*
X003900Y003315D01*
X003930Y003317D01*
X000890Y006284D02*
X000820Y006214D01*
X000750Y006214D01*
X000680Y006284D01*
X000680Y006424D01*
X000750Y006494D01*
X000820Y006494D01*
X000890Y006424D01*
X000890Y006284D01*
X000680Y006284D02*
X000610Y006214D01*
X000540Y006214D01*
X000470Y006284D01*
X000470Y006424D01*
X000540Y006494D01*
X000610Y006494D01*
X000680Y006424D01*
X000820Y007714D02*
X000890Y007784D01*
X000890Y007854D01*
X000820Y007924D01*
X000470Y007924D01*
X000470Y007854D02*
X000470Y007994D01*
X000470Y008174D02*
X000470Y008454D01*
X000540Y008454D01*
X000820Y008174D01*
X000890Y008174D01*
X001080Y007924D02*
X001080Y008424D01*
X001330Y008674D01*
X001080Y008924D01*
X001080Y009424D01*
X001330Y009674D01*
X001080Y009924D01*
X001080Y010424D01*
X001330Y010674D01*
X001080Y010924D01*
X001080Y011424D01*
X001330Y011674D01*
X001080Y011924D01*
X001080Y012424D01*
X001330Y012674D01*
X001080Y012924D01*
X001080Y013424D01*
X001330Y013674D01*
X001830Y013674D01*
X002080Y013424D01*
X002080Y012924D01*
X001830Y012674D01*
X002080Y012424D01*
X002080Y011924D01*
X001830Y011674D01*
X002080Y011424D01*
X002080Y010924D01*
X001830Y010674D01*
X002080Y010424D01*
X002080Y009924D01*
X001830Y009674D01*
X002080Y009424D01*
X002080Y008924D01*
X001830Y008674D01*
X002080Y008424D01*
X002080Y007924D01*
X001830Y007674D01*
X001330Y007674D01*
X001080Y007924D01*
X002270Y008104D02*
X002410Y007964D01*
X002270Y008104D02*
X002690Y008104D01*
X002690Y007964D02*
X002690Y008244D01*
X005310Y007145D02*
X005310Y009726D01*
X006710Y009726D01*
X006710Y007145D01*
X005310Y007145D01*
X006070Y008094D02*
X006420Y008094D01*
X006490Y008164D01*
X006490Y008304D01*
X006420Y008374D01*
X006070Y008374D01*
X006210Y008555D02*
X006070Y008695D01*
X006490Y008695D01*
X006490Y008555D02*
X006490Y008835D01*
X006420Y009015D02*
X006140Y009295D01*
X006420Y009295D01*
X006490Y009225D01*
X006490Y009085D01*
X006420Y009015D01*
X006140Y009015D01*
X006070Y009085D01*
X006070Y009225D01*
X006140Y009295D01*
X006696Y010291D02*
X005296Y010291D01*
X005296Y012871D01*
X006696Y012871D01*
X006696Y010291D01*
X006405Y011240D02*
X006055Y011240D01*
X006055Y011520D02*
X006405Y011520D01*
X006476Y011450D01*
X006476Y011310D01*
X006405Y011240D01*
X006476Y011700D02*
X006476Y011980D01*
X006476Y011840D02*
X006055Y011840D01*
X006195Y011700D01*
X006195Y012160D02*
X006055Y012301D01*
X006476Y012301D01*
X006476Y012441D02*
X006476Y012160D01*
X006320Y014703D02*
X004520Y014703D01*
X004520Y016103D01*
X006320Y016103D01*
X006320Y014703D01*
X007245Y014703D02*
X007245Y016103D01*
X009045Y016103D01*
X009045Y014703D01*
X007245Y014703D01*
X007422Y015011D02*
X007424Y015033D01*
X007430Y015055D01*
X007439Y015075D01*
X007452Y015093D01*
X007468Y015109D01*
X007486Y015122D01*
X007506Y015131D01*
X007528Y015137D01*
X007550Y015139D01*
X007572Y015137D01*
X007594Y015131D01*
X007614Y015122D01*
X007632Y015109D01*
X007648Y015093D01*
X007661Y015075D01*
X007670Y015055D01*
X007676Y015033D01*
X007678Y015011D01*
X007676Y014989D01*
X007670Y014967D01*
X007661Y014947D01*
X007648Y014929D01*
X007632Y014913D01*
X007614Y014900D01*
X007594Y014891D01*
X007572Y014885D01*
X007550Y014883D01*
X007528Y014885D01*
X007506Y014891D01*
X007486Y014900D01*
X007468Y014913D01*
X007452Y014929D01*
X007439Y014947D01*
X007430Y014967D01*
X007424Y014989D01*
X007422Y015011D01*
X007455Y015343D02*
X007595Y015343D01*
X007665Y015413D01*
X007665Y015763D01*
X007845Y015763D02*
X007845Y015553D01*
X007985Y015623D01*
X008056Y015623D01*
X008126Y015553D01*
X008126Y015413D01*
X008056Y015343D01*
X007915Y015343D01*
X007845Y015413D01*
X007845Y015763D02*
X008126Y015763D01*
X007385Y015763D02*
X007385Y015413D01*
X007455Y015343D01*
X005401Y015553D02*
X005120Y015553D01*
X005331Y015763D01*
X005331Y015343D01*
X004940Y015413D02*
X004940Y015763D01*
X004660Y015763D02*
X004660Y015413D01*
X004730Y015343D01*
X004870Y015343D01*
X004940Y015413D01*
X004697Y015011D02*
X004699Y015033D01*
X004705Y015055D01*
X004714Y015075D01*
X004727Y015093D01*
X004743Y015109D01*
X004761Y015122D01*
X004781Y015131D01*
X004803Y015137D01*
X004825Y015139D01*
X004847Y015137D01*
X004869Y015131D01*
X004889Y015122D01*
X004907Y015109D01*
X004923Y015093D01*
X004936Y015075D01*
X004945Y015055D01*
X004951Y015033D01*
X004953Y015011D01*
X004951Y014989D01*
X004945Y014967D01*
X004936Y014947D01*
X004923Y014929D01*
X004907Y014913D01*
X004889Y014900D01*
X004869Y014891D01*
X004847Y014885D01*
X004825Y014883D01*
X004803Y014885D01*
X004781Y014891D01*
X004761Y014900D01*
X004743Y014913D01*
X004727Y014929D01*
X004714Y014947D01*
X004705Y014967D01*
X004699Y014989D01*
X004697Y015011D01*
X002690Y014844D02*
X002690Y014564D01*
X002690Y014704D02*
X002270Y014704D01*
X002410Y014564D01*
X002080Y014524D02*
X002080Y015024D01*
X001830Y015274D01*
X002080Y015524D01*
X002080Y016024D01*
X001830Y016274D01*
X002080Y016524D01*
X002080Y017024D01*
X001830Y017274D01*
X002080Y017524D01*
X002080Y018024D01*
X001830Y018274D01*
X002080Y018524D01*
X002080Y019024D01*
X001830Y019274D01*
X002080Y019524D01*
X002080Y020024D01*
X001830Y020274D01*
X001330Y020274D01*
X001080Y020024D01*
X001080Y019524D01*
X001330Y019274D01*
X001080Y019024D01*
X001080Y018524D01*
X001330Y018274D01*
X001080Y018024D01*
X001080Y017524D01*
X001330Y017274D01*
X001080Y017024D01*
X001080Y016524D01*
X001330Y016274D01*
X001080Y016024D01*
X001080Y015524D01*
X001330Y015274D01*
X001080Y015024D01*
X001080Y014524D01*
X001330Y014274D01*
X001830Y014274D01*
X002080Y014524D01*
X000890Y014454D02*
X000890Y014384D01*
X000820Y014314D01*
X000890Y014454D02*
X000820Y014524D01*
X000470Y014524D01*
X000470Y014454D02*
X000470Y014594D01*
X000540Y014774D02*
X000610Y014774D01*
X000680Y014844D01*
X000680Y014984D01*
X000750Y015054D01*
X000820Y015054D01*
X000890Y014984D01*
X000890Y014844D01*
X000820Y014774D01*
X000750Y014774D01*
X000680Y014844D01*
X000680Y014984D02*
X000610Y015054D01*
X000540Y015054D01*
X000470Y014984D01*
X000470Y014844D01*
X000540Y014774D01*
X000470Y013244D02*
X000540Y013104D01*
X000680Y012964D01*
X000680Y013174D01*
X000750Y013244D01*
X000820Y013244D01*
X000890Y013174D01*
X000890Y013034D01*
X000820Y012964D01*
X000680Y012964D01*
X004545Y018878D02*
X004545Y020278D01*
X006345Y020278D01*
X006345Y018878D01*
X004545Y018878D01*
X004722Y019186D02*
X004724Y019208D01*
X004730Y019230D01*
X004739Y019250D01*
X004752Y019268D01*
X004768Y019284D01*
X004786Y019297D01*
X004806Y019306D01*
X004828Y019312D01*
X004850Y019314D01*
X004872Y019312D01*
X004894Y019306D01*
X004914Y019297D01*
X004932Y019284D01*
X004948Y019268D01*
X004961Y019250D01*
X004970Y019230D01*
X004976Y019208D01*
X004978Y019186D01*
X004976Y019164D01*
X004970Y019142D01*
X004961Y019122D01*
X004948Y019104D01*
X004932Y019088D01*
X004914Y019075D01*
X004894Y019066D01*
X004872Y019060D01*
X004850Y019058D01*
X004828Y019060D01*
X004806Y019066D01*
X004786Y019075D01*
X004768Y019088D01*
X004752Y019104D01*
X004739Y019122D01*
X004730Y019142D01*
X004724Y019164D01*
X004722Y019186D01*
X004755Y019518D02*
X004895Y019518D01*
X004965Y019588D01*
X004965Y019938D01*
X005145Y019868D02*
X005215Y019938D01*
X005356Y019938D01*
X005426Y019868D01*
X005426Y019798D01*
X005145Y019518D01*
X005426Y019518D01*
X004755Y019518D02*
X004685Y019588D01*
X004685Y019938D01*
X007170Y020303D02*
X007170Y018903D01*
X008970Y018903D01*
X008970Y020303D01*
X007170Y020303D01*
X007310Y019963D02*
X007310Y019613D01*
X007380Y019543D01*
X007520Y019543D01*
X007590Y019613D01*
X007590Y019963D01*
X007770Y019893D02*
X007840Y019963D01*
X007981Y019963D01*
X008051Y019893D01*
X008051Y019823D01*
X007981Y019753D01*
X008051Y019683D01*
X008051Y019613D01*
X007981Y019543D01*
X007840Y019543D01*
X007770Y019613D01*
X007910Y019753D02*
X007981Y019753D01*
X007347Y019211D02*
X007349Y019233D01*
X007355Y019255D01*
X007364Y019275D01*
X007377Y019293D01*
X007393Y019309D01*
X007411Y019322D01*
X007431Y019331D01*
X007453Y019337D01*
X007475Y019339D01*
X007497Y019337D01*
X007519Y019331D01*
X007539Y019322D01*
X007557Y019309D01*
X007573Y019293D01*
X007586Y019275D01*
X007595Y019255D01*
X007601Y019233D01*
X007603Y019211D01*
X007601Y019189D01*
X007595Y019167D01*
X007586Y019147D01*
X007573Y019129D01*
X007557Y019113D01*
X007539Y019100D01*
X007519Y019091D01*
X007497Y019085D01*
X007475Y019083D01*
X007453Y019085D01*
X007431Y019091D01*
X007411Y019100D01*
X007393Y019113D01*
X007377Y019129D01*
X007364Y019147D01*
X007355Y019167D01*
X007349Y019189D01*
X007347Y019211D01*
X012828Y020043D02*
X012898Y019973D01*
X013179Y019973D01*
X013249Y020043D01*
X013249Y020184D01*
X013179Y020254D01*
X013179Y020434D02*
X013249Y020504D01*
X013249Y020644D01*
X013179Y020714D01*
X013109Y020714D01*
X013038Y020644D01*
X013038Y020574D01*
X013038Y020644D02*
X012968Y020714D01*
X012898Y020714D01*
X012828Y020644D01*
X012828Y020504D01*
X012898Y020434D01*
X012898Y020254D02*
X012828Y020184D01*
X012828Y020043D01*
X013707Y020043D02*
X013777Y019973D01*
X014057Y019973D01*
X014127Y020043D01*
X014127Y020184D01*
X014057Y020254D01*
X014057Y020434D02*
X014127Y020504D01*
X014127Y020644D01*
X014057Y020714D01*
X013987Y020714D01*
X013917Y020644D01*
X013917Y020434D01*
X014057Y020434D01*
X013917Y020434D02*
X013777Y020574D01*
X013707Y020714D01*
X013777Y020254D02*
X013707Y020184D01*
X013707Y020043D01*
X014468Y020043D02*
X014538Y019973D01*
X014818Y019973D01*
X014888Y020043D01*
X014888Y020184D01*
X014818Y020254D01*
X014818Y020434D02*
X014888Y020434D01*
X014818Y020434D02*
X014538Y020714D01*
X014468Y020714D01*
X014468Y020434D01*
X014538Y020254D02*
X014468Y020184D01*
X014468Y020043D01*
X015898Y020105D02*
X015898Y019965D01*
X015968Y019895D01*
X016248Y019895D01*
X016318Y019965D01*
X016318Y020105D01*
X016248Y020175D01*
X016108Y020355D02*
X016108Y020635D01*
X016318Y020565D02*
X015898Y020565D01*
X016108Y020355D01*
X015968Y020175D02*
X015898Y020105D01*
X017382Y020094D02*
X017382Y020515D01*
X017593Y020515D01*
X017663Y020445D01*
X017663Y020305D01*
X017593Y020235D01*
X017382Y020235D01*
X017523Y020235D02*
X017663Y020094D01*
X017843Y020094D02*
X018123Y020375D01*
X018123Y020445D01*
X018053Y020515D01*
X017913Y020515D01*
X017843Y020445D01*
X017843Y020094D02*
X018123Y020094D01*
X018664Y018669D02*
X018874Y018669D01*
X018944Y018599D01*
X018944Y018459D01*
X018874Y018389D01*
X018664Y018389D01*
X018804Y018389D02*
X018944Y018249D01*
X019124Y018319D02*
X019194Y018249D01*
X019334Y018249D01*
X019404Y018319D01*
X019404Y018389D01*
X019334Y018459D01*
X019264Y018459D01*
X019334Y018459D02*
X019404Y018529D01*
X019404Y018599D01*
X019334Y018669D01*
X019194Y018669D01*
X019124Y018599D01*
X018664Y018669D02*
X018664Y018249D01*
X020531Y018725D02*
X020601Y018655D01*
X020741Y018655D01*
X020811Y018725D01*
X020991Y018655D02*
X021271Y018655D01*
X021131Y018655D02*
X021131Y019075D01*
X020991Y018935D01*
X020811Y019005D02*
X020741Y019075D01*
X020601Y019075D01*
X020531Y019005D01*
X020531Y018725D01*
X021452Y018725D02*
X021452Y018655D01*
X021452Y018725D02*
X021732Y019005D01*
X021732Y019075D01*
X021452Y019075D01*
X023265Y018323D02*
X023265Y018043D01*
X023336Y017973D01*
X023476Y017973D01*
X023546Y018043D01*
X023726Y017973D02*
X024006Y017973D01*
X023866Y017973D02*
X023866Y018393D01*
X023726Y018253D01*
X023546Y018323D02*
X023476Y018393D01*
X023336Y018393D01*
X023265Y018323D01*
X024186Y018323D02*
X024186Y018253D01*
X024256Y018183D01*
X024396Y018183D01*
X024466Y018113D01*
X024466Y018043D01*
X024396Y017973D01*
X024256Y017973D01*
X024186Y018043D01*
X024186Y018113D01*
X024256Y018183D01*
X024396Y018183D02*
X024466Y018253D01*
X024466Y018323D01*
X024396Y018393D01*
X024256Y018393D01*
X024186Y018323D01*
X026145Y016589D02*
X026145Y016309D01*
X026215Y016239D01*
X026355Y016239D01*
X026425Y016309D01*
X026605Y016239D02*
X026886Y016239D01*
X026746Y016239D02*
X026746Y016659D01*
X026605Y016519D01*
X026425Y016589D02*
X026355Y016659D01*
X026215Y016659D01*
X026145Y016589D01*
X027066Y016449D02*
X027276Y016449D01*
X027346Y016379D01*
X027346Y016309D01*
X027276Y016239D01*
X027136Y016239D01*
X027066Y016309D01*
X027066Y016449D01*
X027206Y016589D01*
X027346Y016659D01*
X024796Y015789D02*
X019364Y015789D01*
X019364Y010358D01*
X024796Y010358D01*
X024796Y015789D01*
X026445Y014645D02*
X026515Y014715D01*
X026585Y014715D01*
X026655Y014645D01*
X026725Y014715D01*
X026795Y014715D01*
X026865Y014645D01*
X026865Y014504D01*
X026795Y014434D01*
X026865Y014254D02*
X026865Y013974D01*
X026865Y014114D02*
X026445Y014114D01*
X026585Y013974D01*
X026515Y013794D02*
X026445Y013724D01*
X026445Y013584D01*
X026515Y013514D01*
X026795Y013514D01*
X026865Y013584D01*
X026865Y013724D01*
X026795Y013794D01*
X027295Y013724D02*
X027295Y013584D01*
X027365Y013514D01*
X027645Y013514D01*
X027715Y013584D01*
X027715Y013724D01*
X027645Y013794D01*
X027715Y013974D02*
X027715Y014254D01*
X027715Y014114D02*
X027295Y014114D01*
X027435Y013974D01*
X027365Y013794D02*
X027295Y013724D01*
X028145Y013646D02*
X028145Y013506D01*
X028215Y013436D01*
X028495Y013436D01*
X028565Y013506D01*
X028565Y013646D01*
X028495Y013716D01*
X028565Y013897D02*
X028565Y014177D01*
X028565Y014037D02*
X028145Y014037D01*
X028285Y013897D01*
X028215Y013716D02*
X028145Y013646D01*
X028145Y014357D02*
X028355Y014357D01*
X028285Y014497D01*
X028285Y014567D01*
X028355Y014637D01*
X028495Y014637D01*
X028565Y014567D01*
X028565Y014427D01*
X028495Y014357D01*
X028145Y014357D02*
X028145Y014637D01*
X027715Y014645D02*
X027295Y014645D01*
X027505Y014434D01*
X027505Y014715D01*
X026655Y014645D02*
X026655Y014574D01*
X026515Y014434D02*
X026445Y014504D01*
X026445Y014645D01*
X023703Y012084D02*
X023703Y011664D01*
X023703Y011804D02*
X023913Y011944D01*
X024087Y011874D02*
X024157Y011944D01*
X024367Y011944D01*
X024297Y011804D02*
X024157Y011804D01*
X024087Y011874D01*
X024087Y011664D02*
X024297Y011664D01*
X024367Y011734D01*
X024297Y011804D01*
X023913Y011664D02*
X023703Y011804D01*
X023523Y011944D02*
X023313Y011944D01*
X023243Y011874D01*
X023243Y011734D01*
X023313Y011664D01*
X023523Y011664D01*
X023063Y011734D02*
X023063Y011874D01*
X022993Y011944D01*
X022852Y011944D01*
X022782Y011874D01*
X022782Y011734D01*
X022852Y011664D01*
X022993Y011664D01*
X023063Y011734D01*
X022602Y011664D02*
X022462Y011804D01*
X022532Y011804D02*
X022322Y011804D01*
X022322Y011664D02*
X022322Y012084D01*
X022532Y012084D01*
X022602Y012014D01*
X022602Y011874D01*
X022532Y011804D01*
X021681Y011734D02*
X021611Y011664D01*
X021471Y011664D01*
X021401Y011734D01*
X021401Y012014D01*
X021471Y012084D01*
X021611Y012084D01*
X021681Y012014D01*
X021221Y011874D02*
X021151Y011944D01*
X021011Y011944D01*
X020941Y011874D01*
X020941Y011734D01*
X021011Y011664D01*
X021151Y011664D01*
X021221Y011734D01*
X021221Y011874D01*
X020761Y011804D02*
X020761Y011734D01*
X020691Y011664D01*
X020550Y011664D01*
X020480Y011734D01*
X020550Y011874D02*
X020691Y011874D01*
X020761Y011804D01*
X020761Y012014D02*
X020691Y012084D01*
X020550Y012084D01*
X020480Y012014D01*
X020480Y011944D01*
X020550Y011874D01*
X020300Y011874D02*
X020230Y011804D01*
X020020Y011804D01*
X020020Y011664D02*
X020020Y012084D01*
X020230Y012084D01*
X020300Y012014D01*
X020300Y011874D01*
X021825Y013499D02*
X021966Y013499D01*
X022036Y013569D01*
X022036Y013920D01*
X022216Y013780D02*
X022356Y013920D01*
X022356Y013499D01*
X022216Y013499D02*
X022496Y013499D01*
X021825Y013499D02*
X021755Y013569D01*
X021755Y013920D01*
X019560Y015789D02*
X019364Y015593D01*
X017359Y016364D02*
X017359Y016645D01*
X017289Y016715D01*
X017149Y016715D01*
X017079Y016645D01*
X017079Y016575D01*
X017149Y016504D01*
X017359Y016504D01*
X017359Y016364D02*
X017289Y016294D01*
X017149Y016294D01*
X017079Y016364D01*
X016898Y016364D02*
X016828Y016294D01*
X016688Y016294D01*
X016618Y016364D01*
X016618Y016645D01*
X016688Y016715D01*
X016828Y016715D01*
X016898Y016645D01*
X015180Y015448D02*
X015180Y018298D01*
X013180Y018298D01*
X013180Y015448D01*
X015180Y015448D01*
X015080Y015548D02*
X015080Y018198D01*
X013280Y018198D01*
X013280Y015548D01*
X015080Y015548D01*
X015196Y014234D02*
X015196Y014024D01*
X015336Y014094D01*
X015406Y014094D01*
X015476Y014024D01*
X015476Y013884D01*
X015406Y013814D01*
X015266Y013814D01*
X015196Y013884D01*
X015016Y013884D02*
X014946Y013814D01*
X014805Y013814D01*
X014735Y013884D01*
X014735Y014164D01*
X014805Y014234D01*
X014946Y014234D01*
X015016Y014164D01*
X015196Y014234D02*
X015476Y014234D01*
X016980Y012475D02*
X017120Y012475D01*
X017050Y012475D02*
X017050Y012125D01*
X016980Y012055D01*
X016910Y012055D01*
X016840Y012125D01*
X017300Y012055D02*
X017580Y012055D01*
X017440Y012055D02*
X017440Y012475D01*
X017300Y012335D01*
X016236Y011834D02*
X015896Y011834D01*
X014536Y011584D02*
X014036Y011834D01*
X014036Y011334D01*
X014536Y011584D01*
X013665Y011133D02*
X013665Y010853D01*
X013665Y010993D02*
X013245Y010993D01*
X013385Y010853D01*
X013385Y010673D02*
X013315Y010673D01*
X013245Y010603D01*
X013245Y010463D01*
X013315Y010393D01*
X013315Y010213D02*
X013245Y010143D01*
X013245Y010002D01*
X013315Y009932D01*
X013595Y009932D01*
X013665Y010002D01*
X013665Y010143D01*
X013595Y010213D01*
X013665Y010393D02*
X013385Y010673D01*
X013665Y010673D02*
X013665Y010393D01*
X011465Y009052D02*
X011465Y006472D01*
X010065Y006472D01*
X010065Y009052D01*
X011465Y009052D01*
X010846Y010295D02*
X009446Y010295D01*
X009446Y012875D01*
X010846Y012875D01*
X010846Y010295D01*
X010086Y010695D02*
X010086Y010835D01*
X010015Y010905D01*
X009665Y010905D01*
X009735Y011085D02*
X009665Y011155D01*
X009665Y011296D01*
X009735Y011366D01*
X009805Y011366D01*
X009875Y011296D01*
X009875Y011155D01*
X009805Y011085D01*
X009735Y011085D01*
X009875Y011155D02*
X009945Y011085D01*
X010015Y011085D01*
X010086Y011155D01*
X010086Y011296D01*
X010015Y011366D01*
X009945Y011366D01*
X009875Y011296D01*
X010086Y010695D02*
X010015Y010625D01*
X009665Y010625D01*
X010355Y007543D02*
X010284Y007473D01*
X010284Y007332D01*
X010355Y007262D01*
X010425Y007262D01*
X010495Y007332D01*
X010495Y007543D01*
X010635Y007543D02*
X010355Y007543D01*
X010635Y007543D02*
X010705Y007473D01*
X010705Y007332D01*
X010635Y007262D01*
X010635Y007082D02*
X010284Y007082D01*
X010284Y006802D02*
X010635Y006802D01*
X010705Y006872D01*
X010705Y007012D01*
X010635Y007082D01*
X014557Y006860D02*
X014977Y006860D01*
X014977Y006720D02*
X014977Y007000D01*
X015150Y006869D02*
X015150Y008081D01*
X015662Y008475D02*
X016638Y008475D01*
X017150Y008081D02*
X017150Y006869D01*
X016638Y006475D02*
X015650Y006475D01*
X014977Y006470D02*
X014977Y006330D01*
X014907Y006260D01*
X014767Y006330D02*
X014767Y006470D01*
X014837Y006540D01*
X014907Y006540D01*
X014977Y006470D01*
X014767Y006330D02*
X014697Y006260D01*
X014627Y006260D01*
X014557Y006330D01*
X014557Y006470D01*
X014627Y006540D01*
X014697Y006720D02*
X014557Y006860D01*
X015650Y007475D02*
X015652Y007519D01*
X015658Y007563D01*
X015668Y007606D01*
X015681Y007648D01*
X015698Y007689D01*
X015719Y007728D01*
X015743Y007765D01*
X015770Y007800D01*
X015800Y007832D01*
X015833Y007862D01*
X015869Y007888D01*
X015906Y007912D01*
X015946Y007931D01*
X015987Y007948D01*
X016030Y007960D01*
X016073Y007969D01*
X016117Y007974D01*
X016161Y007975D01*
X016205Y007972D01*
X016249Y007965D01*
X016292Y007954D01*
X016334Y007940D01*
X016374Y007922D01*
X016413Y007900D01*
X016449Y007876D01*
X016483Y007848D01*
X016515Y007817D01*
X016544Y007783D01*
X016570Y007747D01*
X016592Y007709D01*
X016611Y007669D01*
X016626Y007627D01*
X016638Y007585D01*
X016646Y007541D01*
X016650Y007497D01*
X016650Y007453D01*
X016646Y007409D01*
X016638Y007365D01*
X016626Y007323D01*
X016611Y007281D01*
X016592Y007241D01*
X016570Y007203D01*
X016544Y007167D01*
X016515Y007133D01*
X016483Y007102D01*
X016449Y007074D01*
X016413Y007050D01*
X016374Y007028D01*
X016334Y007010D01*
X016292Y006996D01*
X016249Y006985D01*
X016205Y006978D01*
X016161Y006975D01*
X016117Y006976D01*
X016073Y006981D01*
X016030Y006990D01*
X015987Y007002D01*
X015946Y007019D01*
X015906Y007038D01*
X015869Y007062D01*
X015833Y007088D01*
X015800Y007118D01*
X015770Y007150D01*
X015743Y007185D01*
X015719Y007222D01*
X015698Y007261D01*
X015681Y007302D01*
X015668Y007344D01*
X015658Y007387D01*
X015652Y007431D01*
X015650Y007475D01*
X017817Y008358D02*
X017887Y008288D01*
X018027Y008288D01*
X018097Y008358D01*
X018277Y008358D02*
X018277Y008428D01*
X018347Y008498D01*
X018487Y008498D01*
X018557Y008428D01*
X018557Y008358D01*
X018487Y008288D01*
X018347Y008288D01*
X018277Y008358D01*
X018347Y008498D02*
X018277Y008568D01*
X018277Y008638D01*
X018347Y008708D01*
X018487Y008708D01*
X018557Y008638D01*
X018557Y008568D01*
X018487Y008498D01*
X018097Y008638D02*
X018027Y008708D01*
X017887Y008708D01*
X017817Y008638D01*
X017817Y008358D01*
X016236Y009334D02*
X015896Y009334D01*
X021370Y006708D02*
X021440Y006778D01*
X021721Y006498D01*
X021791Y006568D01*
X021791Y006708D01*
X021721Y006778D01*
X021440Y006778D01*
X021370Y006708D02*
X021370Y006568D01*
X021440Y006498D01*
X021721Y006498D01*
X021791Y006318D02*
X021791Y006038D01*
X021791Y006178D02*
X021370Y006178D01*
X021510Y006038D01*
X021440Y005858D02*
X021370Y005788D01*
X021370Y005648D01*
X021440Y005577D01*
X021721Y005577D01*
X021791Y005648D01*
X021791Y005788D01*
X021721Y005858D01*
X022546Y005713D02*
X022546Y005573D01*
X022616Y005502D01*
X022896Y005502D01*
X022966Y005573D01*
X022966Y005713D01*
X022896Y005783D01*
X022966Y005963D02*
X022966Y006243D01*
X022966Y006103D02*
X022546Y006103D01*
X022686Y005963D01*
X022616Y005783D02*
X022546Y005713D01*
X022686Y006423D02*
X022546Y006563D01*
X022966Y006563D01*
X022966Y006423D02*
X022966Y006703D01*
X024590Y007756D02*
X024660Y007686D01*
X024940Y007686D01*
X025010Y007756D01*
X025010Y007896D01*
X024940Y007967D01*
X025010Y008147D02*
X025010Y008427D01*
X025010Y008287D02*
X024590Y008287D01*
X024730Y008147D01*
X024660Y007967D02*
X024590Y007896D01*
X024590Y007756D01*
X024660Y008607D02*
X024590Y008677D01*
X024590Y008817D01*
X024660Y008887D01*
X024730Y008887D01*
X025010Y008607D01*
X025010Y008887D01*
X025890Y007309D02*
X025960Y007309D01*
X026240Y007029D01*
X026310Y007029D01*
X026310Y006849D02*
X026170Y006708D01*
X026170Y006779D02*
X026170Y006568D01*
X026310Y006568D02*
X025890Y006568D01*
X025890Y006779D01*
X025960Y006849D01*
X026100Y006849D01*
X026170Y006779D01*
X025890Y007029D02*
X025890Y007309D01*
X026587Y006642D02*
X026337Y006392D01*
X026337Y005892D01*
X026587Y005642D01*
X027087Y005642D01*
X027337Y005892D01*
X027587Y005642D01*
X028087Y005642D01*
X028337Y005892D01*
X028587Y005642D01*
X029087Y005642D01*
X029337Y005892D01*
X029337Y006392D01*
X029087Y006642D01*
X028587Y006642D01*
X028337Y006392D01*
X028087Y006642D01*
X027587Y006642D01*
X027337Y006392D01*
X027087Y006642D01*
X026587Y006642D01*
X026017Y006352D02*
X026017Y005932D01*
X025877Y005932D02*
X026157Y005932D01*
X025877Y006212D02*
X026017Y006352D01*
X027578Y007484D02*
X027578Y007695D01*
X027648Y007765D01*
X027788Y007765D01*
X027858Y007695D01*
X027858Y007484D01*
X027998Y007484D02*
X027578Y007484D01*
X027858Y007625D02*
X027998Y007765D01*
X027928Y007945D02*
X027998Y008015D01*
X027998Y008155D01*
X027928Y008225D01*
X027858Y008225D01*
X027788Y008155D01*
X027788Y008015D01*
X027718Y007945D01*
X027648Y007945D01*
X027578Y008015D01*
X027578Y008155D01*
X027648Y008225D01*
X027718Y008225D01*
X027788Y008155D01*
X027788Y008015D02*
X027858Y007945D01*
X027928Y007945D01*
X028620Y009247D02*
X028760Y009247D01*
X028830Y009317D01*
X029010Y009247D02*
X029290Y009247D01*
X029150Y009247D02*
X029150Y009667D01*
X029010Y009527D01*
X028830Y009597D02*
X028760Y009667D01*
X028620Y009667D01*
X028550Y009597D01*
X028550Y009317D01*
X028620Y009247D01*
X029470Y009317D02*
X029540Y009247D01*
X029680Y009247D01*
X029751Y009317D01*
X029751Y009597D01*
X029680Y009667D01*
X029540Y009667D01*
X029470Y009597D01*
X029470Y009527D01*
X029540Y009457D01*
X029751Y009457D01*
X030279Y010413D02*
X030209Y010483D01*
X030209Y010763D01*
X030279Y010834D01*
X030419Y010834D01*
X030490Y010763D01*
X030490Y010483D01*
X030419Y010413D01*
X030279Y010413D01*
X030349Y010553D02*
X030490Y010413D01*
X030670Y010413D02*
X030950Y010413D01*
X030810Y010413D02*
X030810Y010834D01*
X030670Y010693D01*
X029808Y011493D02*
X029738Y011423D01*
X029598Y011423D01*
X029528Y011493D01*
X029808Y011773D01*
X029808Y011493D01*
X029528Y011493D02*
X029528Y011773D01*
X029598Y011843D01*
X029738Y011843D01*
X029808Y011773D01*
X029348Y011773D02*
X029278Y011843D01*
X029137Y011843D01*
X029067Y011773D01*
X028887Y011773D02*
X028817Y011843D01*
X028677Y011843D01*
X028607Y011773D01*
X028607Y011493D01*
X028677Y011423D01*
X028817Y011423D01*
X028887Y011493D01*
X029067Y011423D02*
X029348Y011703D01*
X029348Y011773D01*
X029348Y011423D02*
X029067Y011423D01*
X033561Y011615D02*
X033561Y011182D01*
X033620Y011300D02*
X033622Y011315D01*
X033627Y011328D01*
X033636Y011340D01*
X033647Y011350D01*
X033661Y011356D01*
X033675Y011359D01*
X033690Y011358D01*
X033704Y011353D01*
X033717Y011345D01*
X033727Y011335D01*
X033734Y011322D01*
X033738Y011307D01*
X033738Y011293D01*
X033734Y011278D01*
X033727Y011265D01*
X033717Y011255D01*
X033704Y011247D01*
X033690Y011242D01*
X033675Y011241D01*
X033661Y011244D01*
X033647Y011250D01*
X033636Y011260D01*
X033627Y011272D01*
X033622Y011285D01*
X033620Y011300D01*
X034349Y011182D02*
X034349Y011615D01*
X034303Y012009D02*
X034022Y012009D01*
X034303Y012290D01*
X034303Y012360D01*
X034233Y012430D01*
X034092Y012430D01*
X034022Y012360D01*
X033842Y012360D02*
X033842Y012079D01*
X033772Y012009D01*
X033562Y012009D01*
X033562Y012430D01*
X033772Y012430D01*
X033842Y012360D01*
X035022Y011283D02*
X035092Y011353D01*
X035372Y011073D01*
X035442Y011143D01*
X035442Y011283D01*
X035372Y011353D01*
X035092Y011353D01*
X035022Y011283D02*
X035022Y011143D01*
X035092Y011073D01*
X035372Y011073D01*
X035442Y010893D02*
X035442Y010613D01*
X035442Y010753D02*
X035022Y010753D01*
X035162Y010613D01*
X035092Y010433D02*
X035232Y010433D01*
X035302Y010363D01*
X035302Y010152D01*
X035442Y010152D02*
X035022Y010152D01*
X035022Y010363D01*
X035092Y010433D01*
X035302Y010293D02*
X035442Y010433D01*
X034449Y009665D02*
X034449Y009232D01*
X034451Y008787D02*
X034310Y008787D01*
X034240Y008717D01*
X034060Y008717D02*
X033990Y008787D01*
X033780Y008787D01*
X033780Y008367D01*
X033990Y008367D01*
X034060Y008437D01*
X034060Y008717D01*
X034240Y008437D02*
X034310Y008367D01*
X034451Y008367D01*
X034521Y008437D01*
X034521Y008507D01*
X034451Y008577D01*
X034381Y008577D01*
X034451Y008577D02*
X034521Y008647D01*
X034521Y008717D01*
X034451Y008787D01*
X033720Y009350D02*
X033722Y009365D01*
X033727Y009378D01*
X033736Y009390D01*
X033747Y009400D01*
X033761Y009406D01*
X033775Y009409D01*
X033790Y009408D01*
X033804Y009403D01*
X033817Y009395D01*
X033827Y009385D01*
X033834Y009372D01*
X033838Y009357D01*
X033838Y009343D01*
X033834Y009328D01*
X033827Y009315D01*
X033817Y009305D01*
X033804Y009297D01*
X033790Y009292D01*
X033775Y009291D01*
X033761Y009294D01*
X033747Y009300D01*
X033736Y009310D01*
X033727Y009322D01*
X033722Y009335D01*
X033720Y009350D01*
X033661Y009232D02*
X033661Y009665D01*
X035514Y008384D02*
X035724Y008384D01*
X035794Y008314D01*
X035794Y008174D01*
X035724Y008104D01*
X035514Y008104D01*
X035654Y008104D02*
X035794Y007964D01*
X035974Y007964D02*
X036254Y007964D01*
X036114Y007964D02*
X036114Y008384D01*
X035974Y008244D01*
X036435Y008314D02*
X036505Y008384D01*
X036645Y008384D01*
X036715Y008314D01*
X036715Y008244D01*
X036435Y007964D01*
X036715Y007964D01*
X037480Y008624D02*
X037730Y008374D01*
X039230Y008374D01*
X039480Y008624D01*
X039480Y009124D01*
X039230Y009374D01*
X039480Y009624D01*
X039480Y010124D01*
X039230Y010374D01*
X039480Y010624D01*
X039480Y011124D01*
X039230Y011374D01*
X039480Y011624D01*
X039480Y012124D01*
X039230Y012374D01*
X037730Y012374D01*
X037480Y012124D01*
X037480Y011624D01*
X037730Y011374D01*
X037480Y011124D01*
X037480Y010624D01*
X037730Y010374D01*
X037480Y010124D01*
X037480Y009624D01*
X037730Y009374D01*
X037480Y009124D01*
X037480Y008624D01*
X037362Y009064D02*
X036942Y009064D01*
X036942Y009275D01*
X037012Y009345D01*
X037152Y009345D01*
X037222Y009275D01*
X037222Y009064D01*
X037222Y009205D02*
X037362Y009345D01*
X037362Y009525D02*
X037362Y009805D01*
X037362Y009665D02*
X036942Y009665D01*
X037082Y009525D01*
X037082Y009985D02*
X036942Y010125D01*
X037362Y010125D01*
X037362Y009985D02*
X037362Y010265D01*
X037290Y011653D02*
X037290Y011933D01*
X037290Y011793D02*
X036870Y011793D01*
X037010Y011653D01*
X036349Y012249D02*
X036419Y012319D01*
X036419Y012599D01*
X036349Y012670D01*
X036208Y012670D01*
X036138Y012599D01*
X036138Y012529D01*
X036208Y012459D01*
X036419Y012459D01*
X036349Y012249D02*
X036208Y012249D01*
X036138Y012319D01*
X035958Y012249D02*
X035818Y012389D01*
X035888Y012389D02*
X035678Y012389D01*
X035678Y012249D02*
X035678Y012670D01*
X035888Y012670D01*
X035958Y012599D01*
X035958Y012459D01*
X035888Y012389D01*
X037480Y013724D02*
X037480Y014224D01*
X037730Y014474D01*
X037480Y014724D01*
X037480Y015224D01*
X037730Y015474D01*
X037480Y015724D01*
X037480Y016224D01*
X037730Y016474D01*
X037480Y016724D01*
X037480Y017224D01*
X037730Y017474D01*
X037480Y017724D01*
X037480Y018224D01*
X037730Y018474D01*
X037480Y018724D01*
X037480Y019224D01*
X037730Y019474D01*
X037480Y019724D01*
X037480Y020224D01*
X037730Y020474D01*
X037480Y020724D01*
X037480Y021224D01*
X037730Y021474D01*
X039230Y021474D01*
X039480Y021224D01*
X039480Y020724D01*
X039230Y020474D01*
X039480Y020224D01*
X039480Y019724D01*
X039230Y019474D01*
X039480Y019224D01*
X039480Y018724D01*
X039230Y018474D01*
X039480Y018224D01*
X039480Y017724D01*
X039230Y017474D01*
X039480Y017224D01*
X039480Y016724D01*
X039230Y016474D01*
X039480Y016224D01*
X039480Y015724D01*
X039230Y015474D01*
X039480Y015224D01*
X039480Y014724D01*
X039230Y014474D01*
X039480Y014224D01*
X039480Y013724D01*
X039230Y013474D01*
X037730Y013474D01*
X037480Y013724D01*
X038213Y012951D02*
X038283Y013021D01*
X038353Y013021D01*
X038423Y012951D01*
X038493Y013021D01*
X038563Y013021D01*
X038633Y012951D01*
X038633Y012811D01*
X038563Y012741D01*
X038423Y012881D02*
X038423Y012951D01*
X038213Y012951D02*
X038213Y012811D01*
X038283Y012741D01*
X038213Y012560D02*
X038213Y012420D01*
X038213Y012490D02*
X038563Y012490D01*
X038633Y012420D01*
X038633Y012350D01*
X038563Y012280D01*
X039810Y013593D02*
X039670Y013733D01*
X040090Y013733D01*
X040090Y013593D02*
X040090Y013873D01*
X040020Y014053D02*
X040090Y014123D01*
X040090Y014263D01*
X040020Y014333D01*
X039950Y014333D01*
X039880Y014263D01*
X039880Y014053D01*
X040020Y014053D01*
X039880Y014053D02*
X039740Y014193D01*
X039670Y014333D01*
X039740Y008733D02*
X039670Y008663D01*
X039670Y008523D01*
X039740Y008453D01*
X039810Y008453D01*
X039880Y008523D01*
X039880Y008663D01*
X039950Y008733D01*
X040020Y008733D01*
X040090Y008663D01*
X040090Y008523D01*
X040020Y008453D01*
X039950Y008453D01*
X039880Y008523D01*
X039880Y008663D02*
X039810Y008733D01*
X039740Y008733D01*
X038542Y006820D02*
X037715Y006820D01*
X036731Y006544D02*
X036731Y006190D01*
X035514Y007964D02*
X035514Y008384D01*
X034144Y006772D02*
X034004Y006702D01*
X033864Y006562D01*
X034074Y006562D01*
X034144Y006491D01*
X034144Y006421D01*
X034074Y006351D01*
X033934Y006351D01*
X033864Y006421D01*
X033864Y006562D01*
X033684Y006562D02*
X033614Y006491D01*
X033404Y006491D01*
X033404Y006351D02*
X033404Y006772D01*
X033614Y006772D01*
X033684Y006702D01*
X033684Y006562D01*
X033544Y006491D02*
X033684Y006351D01*
X033798Y004631D02*
X033798Y004210D01*
X033658Y004210D02*
X033938Y004210D01*
X033658Y004491D02*
X033798Y004631D01*
X033478Y004561D02*
X033478Y004421D01*
X033408Y004351D01*
X033197Y004351D01*
X033338Y004351D02*
X033478Y004210D01*
X033197Y004210D02*
X033197Y004631D01*
X033408Y004631D01*
X033478Y004561D01*
X032832Y003666D02*
X032582Y003478D01*
X032486Y003478D01*
X032582Y003478D02*
X032582Y003666D01*
X032582Y003478D02*
X032582Y003291D01*
X032582Y003478D02*
X032832Y003291D01*
X032832Y003478D01*
X032928Y003478D01*
X032832Y003478D02*
X032832Y003666D01*
X032707Y002914D02*
X032497Y002914D01*
X032497Y002493D01*
X032707Y002493D01*
X032777Y002564D01*
X032777Y002844D01*
X032707Y002914D01*
X032957Y002774D02*
X033097Y002914D01*
X033097Y002493D01*
X032957Y002493D02*
X033238Y002493D01*
X033330Y002099D02*
X032830Y002099D01*
X032580Y001849D01*
X032580Y001349D01*
X032830Y001099D01*
X033330Y001099D01*
X033580Y001349D01*
X033830Y001099D01*
X034330Y001099D01*
X034580Y001349D01*
X034830Y001099D01*
X035330Y001099D01*
X035580Y001349D01*
X035580Y001849D01*
X035330Y002099D01*
X034830Y002099D01*
X034580Y001849D01*
X034330Y002099D01*
X033830Y002099D01*
X033580Y001849D01*
X033330Y002099D01*
X032400Y001389D02*
X032120Y001389D01*
X032260Y001389D02*
X032260Y001809D01*
X032120Y001669D01*
X030728Y001530D02*
X030448Y001810D01*
X030378Y001810D01*
X030308Y001740D01*
X030308Y001600D01*
X030378Y001530D01*
X030378Y001350D02*
X030308Y001280D01*
X030308Y001140D01*
X030378Y001069D01*
X030658Y001069D01*
X030728Y001140D01*
X030728Y001280D01*
X030658Y001350D01*
X030728Y001530D02*
X030728Y001810D01*
X028656Y002067D02*
X027256Y002067D01*
X027256Y004647D01*
X028656Y004647D01*
X028656Y002067D01*
X027896Y002467D02*
X027896Y002607D01*
X027826Y002677D01*
X027475Y002677D01*
X027685Y002857D02*
X027685Y003067D01*
X027755Y003137D01*
X027826Y003137D01*
X027896Y003067D01*
X027896Y002927D01*
X027826Y002857D01*
X027685Y002857D01*
X027545Y002997D01*
X027475Y003137D01*
X027896Y002467D02*
X027826Y002397D01*
X027475Y002397D01*
X030308Y004842D02*
X030378Y004772D01*
X030659Y004772D01*
X030729Y004842D01*
X030729Y004982D01*
X030659Y005052D01*
X030729Y005232D02*
X030729Y005512D01*
X030729Y005372D02*
X030308Y005372D01*
X030449Y005232D01*
X030378Y005052D02*
X030308Y004982D01*
X030308Y004842D01*
X030118Y006045D02*
X030188Y006115D01*
X030188Y006395D01*
X030118Y006465D01*
X029978Y006465D01*
X029908Y006395D01*
X029908Y006325D01*
X029978Y006255D01*
X030188Y006255D01*
X030118Y006045D02*
X029978Y006045D01*
X029908Y006115D01*
X029658Y006115D02*
X029658Y006465D01*
X029588Y006465D02*
X029728Y006465D01*
X029658Y006115D02*
X029588Y006045D01*
X029518Y006045D01*
X029448Y006115D01*
X035910Y001843D02*
X036050Y001843D01*
X035980Y001843D02*
X035980Y001492D01*
X035910Y001422D01*
X035840Y001422D01*
X035770Y001492D01*
X036230Y001633D02*
X036510Y001633D01*
X036440Y001843D02*
X036440Y001422D01*
X036230Y001633D02*
X036440Y001843D01*
X037715Y003827D02*
X038542Y003827D01*
X038649Y004364D02*
X038929Y004784D01*
X039110Y004644D02*
X039250Y004784D01*
X039250Y004364D01*
X039110Y004364D02*
X039390Y004364D01*
X038929Y004364D02*
X038649Y004784D01*
X036731Y004457D02*
X036731Y004103D01*
X037010Y020753D02*
X036870Y020893D01*
X037290Y020893D01*
X037290Y020753D02*
X037290Y021033D01*
X038213Y021599D02*
X038213Y021739D01*
X038213Y021669D02*
X038563Y021669D01*
X038633Y021599D01*
X038633Y021529D01*
X038563Y021459D01*
X038633Y021919D02*
X038353Y022200D01*
X038283Y022200D01*
X038213Y022129D01*
X038213Y021989D01*
X038283Y021919D01*
X038633Y021919D02*
X038633Y022200D01*
X038662Y022943D02*
X038242Y022943D01*
X038242Y023153D01*
X038312Y023223D01*
X038452Y023223D01*
X038522Y023153D01*
X038522Y022943D01*
X038662Y023403D02*
X038242Y023403D01*
X038382Y023543D01*
X038242Y023684D01*
X038662Y023684D01*
X038592Y023864D02*
X038662Y023934D01*
X038662Y024074D01*
X038592Y024144D01*
X038312Y024144D01*
X038242Y024074D01*
X038242Y023934D01*
X038312Y023864D01*
X038592Y023864D01*
X038662Y024324D02*
X038242Y024324D01*
X038242Y024534D01*
X038312Y024604D01*
X038592Y024604D01*
X038662Y024534D01*
X038662Y024324D01*
X038662Y024784D02*
X038662Y025065D01*
X038662Y024925D02*
X038242Y024925D01*
X038382Y024784D01*
X037948Y025095D02*
X037948Y023195D01*
X037946Y023165D01*
X037941Y023135D01*
X037932Y023106D01*
X037919Y023079D01*
X037904Y023053D01*
X037885Y023029D01*
X037864Y023008D01*
X037840Y022989D01*
X037814Y022974D01*
X037787Y022961D01*
X037758Y022952D01*
X037728Y022947D01*
X037698Y022945D01*
X032198Y022945D01*
X032168Y022947D01*
X032138Y022952D01*
X032109Y022961D01*
X032082Y022974D01*
X032056Y022989D01*
X032032Y023008D01*
X032011Y023029D01*
X031992Y023053D01*
X031977Y023079D01*
X031964Y023106D01*
X031955Y023135D01*
X031950Y023165D01*
X031948Y023195D01*
X031948Y025095D01*
X031868Y025005D02*
X031868Y024935D01*
X031588Y024655D01*
X031588Y024585D01*
X031588Y025005D02*
X031868Y025005D01*
X031948Y025095D02*
X031950Y025125D01*
X031955Y025155D01*
X031964Y025184D01*
X031977Y025211D01*
X031992Y025237D01*
X032011Y025261D01*
X032032Y025282D01*
X032056Y025301D01*
X032082Y025316D01*
X032109Y025329D01*
X032138Y025338D01*
X032168Y025343D01*
X032198Y025345D01*
X037698Y025345D01*
X037728Y025343D01*
X037758Y025338D01*
X037787Y025329D01*
X037814Y025316D01*
X037840Y025301D01*
X037864Y025282D01*
X037885Y025261D01*
X037904Y025237D01*
X037919Y025211D01*
X037932Y025184D01*
X037941Y025155D01*
X037946Y025125D01*
X037948Y025095D01*
X038300Y025628D02*
X012974Y025628D01*
X012974Y027902D01*
X012999Y027941D02*
X038300Y027941D01*
X038300Y025628D01*
X031818Y023285D02*
X031538Y023285D01*
X031678Y023285D02*
X031678Y023705D01*
X031538Y023565D01*
X029188Y023658D02*
X028768Y023658D01*
X028908Y023518D01*
X028768Y023378D01*
X029188Y023378D01*
X028978Y023198D02*
X029048Y023127D01*
X029048Y022917D01*
X029188Y022917D02*
X028768Y022917D01*
X028768Y023127D01*
X028838Y023198D01*
X028978Y023198D01*
X028474Y023180D02*
X028474Y025080D01*
X028472Y025110D01*
X028467Y025140D01*
X028458Y025169D01*
X028445Y025196D01*
X028430Y025222D01*
X028411Y025246D01*
X028390Y025267D01*
X028366Y025286D01*
X028340Y025301D01*
X028313Y025314D01*
X028284Y025323D01*
X028254Y025328D01*
X028224Y025330D01*
X022724Y025330D01*
X022694Y025328D01*
X022664Y025323D01*
X022635Y025314D01*
X022608Y025301D01*
X022582Y025286D01*
X022558Y025267D01*
X022537Y025246D01*
X022518Y025222D01*
X022503Y025196D01*
X022490Y025169D01*
X022481Y025140D01*
X022476Y025110D01*
X022474Y025080D01*
X022474Y023180D01*
X022344Y023270D02*
X022064Y023270D01*
X022204Y023270D02*
X022204Y023691D01*
X022064Y023551D01*
X022474Y023180D02*
X022476Y023150D01*
X022481Y023120D01*
X022490Y023091D01*
X022503Y023064D01*
X022518Y023038D01*
X022537Y023014D01*
X022558Y022993D01*
X022582Y022974D01*
X022608Y022959D01*
X022635Y022946D01*
X022664Y022937D01*
X022694Y022932D01*
X022724Y022930D01*
X028224Y022930D01*
X028254Y022932D01*
X028284Y022937D01*
X028313Y022946D01*
X028340Y022959D01*
X028366Y022974D01*
X028390Y022993D01*
X028411Y023014D01*
X028430Y023038D01*
X028445Y023064D01*
X028458Y023091D01*
X028467Y023120D01*
X028472Y023150D01*
X028474Y023180D01*
X028838Y023838D02*
X029118Y023838D01*
X029188Y023908D01*
X029188Y024048D01*
X029118Y024118D01*
X028838Y024118D01*
X028768Y024048D01*
X028768Y023908D01*
X028838Y023838D01*
X028768Y024298D02*
X028768Y024509D01*
X028838Y024579D01*
X029118Y024579D01*
X029188Y024509D01*
X029188Y024298D01*
X028768Y024298D01*
X028838Y024759D02*
X028768Y024829D01*
X028768Y024969D01*
X028838Y025039D01*
X028908Y025039D01*
X029188Y024759D01*
X029188Y025039D01*
X022394Y024991D02*
X022394Y024921D01*
X022114Y024641D01*
X022114Y024570D01*
X022114Y024991D02*
X022394Y024991D01*
X019723Y025005D02*
X019723Y024865D01*
X019653Y024795D01*
X019653Y024615D02*
X019373Y024615D01*
X019303Y024544D01*
X019303Y024334D01*
X019723Y024334D01*
X019723Y024544D01*
X019653Y024615D01*
X019373Y024795D02*
X019303Y024865D01*
X019303Y025005D01*
X019373Y025075D01*
X019443Y025075D01*
X019513Y025005D01*
X019583Y025075D01*
X019653Y025075D01*
X019723Y025005D01*
X019513Y025005D02*
X019513Y024935D01*
X019061Y025097D02*
X019061Y023197D01*
X019303Y023163D02*
X019373Y023233D01*
X019513Y023233D01*
X019583Y023163D01*
X019583Y022953D01*
X019723Y022953D02*
X019303Y022953D01*
X019303Y023163D01*
X019303Y023414D02*
X019443Y023554D01*
X019303Y023694D01*
X019723Y023694D01*
X019653Y023874D02*
X019723Y023944D01*
X019723Y024084D01*
X019653Y024154D01*
X019373Y024154D01*
X019303Y024084D01*
X019303Y023944D01*
X019373Y023874D01*
X019653Y023874D01*
X019723Y023414D02*
X019303Y023414D01*
X019061Y023197D02*
X019059Y023167D01*
X019054Y023137D01*
X019045Y023108D01*
X019032Y023081D01*
X019017Y023055D01*
X018998Y023031D01*
X018977Y023010D01*
X018953Y022991D01*
X018927Y022976D01*
X018900Y022963D01*
X018871Y022954D01*
X018841Y022949D01*
X018811Y022947D01*
X013311Y022947D01*
X013281Y022949D01*
X013251Y022954D01*
X013222Y022963D01*
X013195Y022976D01*
X013169Y022991D01*
X013145Y023010D01*
X013124Y023031D01*
X013105Y023055D01*
X013090Y023081D01*
X013077Y023108D01*
X013068Y023137D01*
X013063Y023167D01*
X013061Y023197D01*
X013061Y025097D01*
X012981Y025007D02*
X012981Y024937D01*
X012701Y024657D01*
X012701Y024587D01*
X012701Y025007D02*
X012981Y025007D01*
X013061Y025097D02*
X013063Y025127D01*
X013068Y025157D01*
X013077Y025186D01*
X013090Y025213D01*
X013105Y025239D01*
X013124Y025263D01*
X013145Y025284D01*
X013169Y025303D01*
X013195Y025318D01*
X013222Y025331D01*
X013251Y025340D01*
X013281Y025345D01*
X013311Y025347D01*
X018811Y025347D01*
X018841Y025345D01*
X018871Y025340D01*
X018900Y025331D01*
X018927Y025318D01*
X018953Y025303D01*
X018977Y025284D01*
X018998Y025263D01*
X019017Y025239D01*
X019032Y025213D01*
X019045Y025186D01*
X019054Y025157D01*
X019059Y025127D01*
X019061Y025097D01*
X012931Y023287D02*
X012651Y023287D01*
X012603Y023225D02*
X000477Y023225D01*
X000477Y028067D01*
X012603Y028067D01*
X012603Y023225D01*
X012791Y023287D02*
X012791Y023707D01*
X012651Y023567D01*
X007007Y025399D02*
X006727Y025399D01*
X007007Y025679D01*
X007007Y025749D01*
X006937Y025819D01*
X006797Y025819D01*
X006727Y025749D01*
X006547Y025819D02*
X006267Y025399D01*
X006547Y025399D02*
X006267Y025819D01*
X000820Y019844D02*
X000750Y019844D01*
X000680Y019774D01*
X000680Y019564D01*
X000820Y019564D01*
X000890Y019634D01*
X000890Y019774D01*
X000820Y019844D01*
X000540Y019704D02*
X000680Y019564D01*
X000540Y019704D02*
X000470Y019844D01*
X013380Y017798D02*
X013382Y017829D01*
X013388Y017860D01*
X013398Y017890D01*
X013411Y017918D01*
X013428Y017945D01*
X013448Y017969D01*
X013471Y017991D01*
X013496Y018009D01*
X013524Y018024D01*
X013553Y018036D01*
X013583Y018044D01*
X013614Y018048D01*
X013646Y018048D01*
X013677Y018044D01*
X013707Y018036D01*
X013736Y018024D01*
X013764Y018009D01*
X013789Y017991D01*
X013812Y017969D01*
X013832Y017945D01*
X013849Y017918D01*
X013862Y017890D01*
X013872Y017860D01*
X013878Y017829D01*
X013880Y017798D01*
X013878Y017767D01*
X013872Y017736D01*
X013862Y017706D01*
X013849Y017678D01*
X013832Y017651D01*
X013812Y017627D01*
X013789Y017605D01*
X013764Y017587D01*
X013736Y017572D01*
X013707Y017560D01*
X013677Y017552D01*
X013646Y017548D01*
X013614Y017548D01*
X013583Y017552D01*
X013553Y017560D01*
X013524Y017572D01*
X013496Y017587D01*
X013471Y017605D01*
X013448Y017627D01*
X013428Y017651D01*
X013411Y017678D01*
X013398Y017706D01*
X013388Y017736D01*
X013382Y017767D01*
X013380Y017798D01*
X014320Y017568D02*
X014320Y017288D01*
X014320Y017108D02*
X014670Y017108D01*
X014740Y017038D01*
X014740Y016898D01*
X014670Y016828D01*
X014320Y016828D01*
X014670Y017288D02*
X014740Y017288D01*
X014670Y017288D02*
X014390Y017568D01*
X014320Y017568D01*
D12*
X014317Y025844D02*
X014430Y025844D01*
X014374Y025844D02*
X014374Y026071D01*
X014317Y026071D01*
X014374Y026184D02*
X014374Y026241D01*
X014317Y026319D02*
X014204Y026319D01*
X014147Y026376D01*
X014147Y026489D01*
X014204Y026546D01*
X014317Y026546D01*
X014374Y026489D01*
X014374Y026432D01*
X014147Y026432D01*
X014015Y026319D02*
X013902Y026319D01*
X013958Y026319D02*
X013958Y026659D01*
X013902Y026659D01*
X013916Y026758D02*
X013916Y027098D01*
X014086Y027098D01*
X014143Y027042D01*
X014143Y026928D01*
X014086Y026871D01*
X013916Y026871D01*
X013774Y026928D02*
X013774Y027042D01*
X013718Y027098D01*
X013604Y027098D01*
X013548Y027042D01*
X013548Y026928D01*
X013604Y026871D01*
X013718Y026871D01*
X013774Y026928D01*
X013406Y026928D02*
X013349Y026871D01*
X013236Y026871D01*
X013179Y026928D01*
X013179Y027155D01*
X013236Y027212D01*
X013349Y027212D01*
X013406Y027155D01*
X013604Y027436D02*
X013548Y027493D01*
X013604Y027436D02*
X013718Y027436D01*
X013774Y027493D01*
X013774Y027549D01*
X013718Y027606D01*
X013604Y027606D01*
X013548Y027663D01*
X013548Y027719D01*
X013604Y027776D01*
X013718Y027776D01*
X013774Y027719D01*
X013916Y027606D02*
X013973Y027663D01*
X014086Y027663D01*
X014143Y027606D01*
X014143Y027493D01*
X014086Y027436D01*
X013973Y027436D01*
X013916Y027493D01*
X013916Y027606D01*
X014284Y027719D02*
X014284Y027493D01*
X014341Y027436D01*
X014454Y027436D01*
X014511Y027493D01*
X014511Y027719D02*
X014454Y027776D01*
X014341Y027776D01*
X014284Y027719D01*
X014284Y027098D02*
X014284Y026928D01*
X014341Y026871D01*
X014511Y026871D01*
X014511Y026815D02*
X014454Y026758D01*
X014398Y026758D01*
X014511Y026815D02*
X014511Y027098D01*
X014653Y027098D02*
X014653Y026871D01*
X014653Y026985D02*
X014766Y027098D01*
X014823Y027098D01*
X014959Y027098D02*
X015016Y027098D01*
X015016Y026871D01*
X014959Y026871D02*
X015073Y026871D01*
X015205Y026928D02*
X015262Y026871D01*
X015432Y026871D01*
X015432Y026815D02*
X015432Y027098D01*
X015262Y027098D01*
X015205Y027042D01*
X015205Y026928D01*
X015318Y026758D02*
X015375Y026758D01*
X015432Y026815D01*
X015573Y026871D02*
X015573Y027212D01*
X015630Y027098D02*
X015743Y027098D01*
X015800Y027042D01*
X015800Y026871D01*
X015998Y026928D02*
X016055Y026871D01*
X015998Y026928D02*
X015998Y027155D01*
X015942Y027098D02*
X016055Y027098D01*
X015630Y027098D02*
X015573Y027042D01*
X015757Y027436D02*
X015984Y027606D01*
X015757Y027776D01*
X015616Y027606D02*
X015389Y027606D01*
X015248Y027776D02*
X015021Y027606D01*
X015248Y027436D01*
X015016Y027268D02*
X015016Y027212D01*
X014940Y026546D02*
X015111Y026546D01*
X015054Y026432D02*
X014940Y026432D01*
X014884Y026489D01*
X014940Y026546D01*
X015054Y026432D02*
X015111Y026376D01*
X015054Y026319D01*
X014884Y026319D01*
X014742Y026319D02*
X014572Y026319D01*
X014515Y026376D01*
X014572Y026432D01*
X014742Y026432D01*
X014742Y026489D02*
X014742Y026319D01*
X014742Y026489D02*
X014686Y026546D01*
X014572Y026546D01*
X014562Y026184D02*
X014562Y025844D01*
X014733Y025844D01*
X014789Y025901D01*
X014789Y026014D01*
X014733Y026071D01*
X014562Y026071D01*
X014931Y026071D02*
X014931Y025901D01*
X014987Y025844D01*
X015158Y025844D01*
X015158Y026071D01*
X015299Y026071D02*
X015412Y026071D01*
X015356Y026127D02*
X015356Y025901D01*
X015412Y025844D01*
X015545Y025844D02*
X015658Y025844D01*
X015601Y025844D02*
X015601Y026071D01*
X015545Y026071D01*
X015601Y026184D02*
X015601Y026241D01*
X015677Y026319D02*
X015620Y026376D01*
X015620Y026489D01*
X015677Y026546D01*
X015847Y026546D01*
X015847Y026659D02*
X015847Y026319D01*
X015677Y026319D01*
X015479Y026432D02*
X015252Y026432D01*
X015252Y026376D02*
X015252Y026489D01*
X015309Y026546D01*
X015422Y026546D01*
X015479Y026489D01*
X015479Y026432D01*
X015422Y026319D02*
X015309Y026319D01*
X015252Y026376D01*
X015790Y026014D02*
X015790Y025901D01*
X015847Y025844D01*
X015960Y025844D01*
X016017Y025901D01*
X016017Y026014D01*
X015960Y026071D01*
X015847Y026071D01*
X015790Y026014D01*
X016158Y026071D02*
X016329Y026071D01*
X016385Y026014D01*
X016385Y025844D01*
X016527Y026014D02*
X016754Y026014D01*
X016895Y025844D02*
X016895Y026184D01*
X017122Y025844D01*
X017122Y026184D01*
X017150Y026319D02*
X017094Y026376D01*
X017094Y026489D01*
X017150Y026546D01*
X017320Y026546D01*
X017320Y026659D02*
X017320Y026319D01*
X017150Y026319D01*
X016952Y026319D02*
X016952Y026489D01*
X016895Y026546D01*
X016725Y026546D01*
X016725Y026319D01*
X016584Y026376D02*
X016584Y026659D01*
X016357Y026659D02*
X016357Y026376D01*
X016414Y026319D01*
X016527Y026319D01*
X016584Y026376D01*
X016158Y026071D02*
X016158Y025844D01*
X017263Y025901D02*
X017320Y025844D01*
X017434Y025844D01*
X017490Y025901D01*
X017490Y026014D01*
X017434Y026071D01*
X017320Y026071D01*
X017263Y026014D01*
X017263Y025901D01*
X017632Y025844D02*
X017632Y026071D01*
X017802Y026071D01*
X017859Y026014D01*
X017859Y025844D01*
X018000Y025901D02*
X018057Y025844D01*
X018170Y025844D01*
X018227Y025901D01*
X018368Y025901D02*
X018425Y025844D01*
X018538Y025844D01*
X018595Y025901D01*
X018595Y026014D01*
X018538Y026071D01*
X018425Y026071D01*
X018368Y026014D01*
X018368Y025901D01*
X018227Y026127D02*
X018170Y026184D01*
X018057Y026184D01*
X018000Y026127D01*
X018000Y025901D01*
X017830Y026319D02*
X017830Y026546D01*
X017830Y026432D02*
X017944Y026546D01*
X018000Y026546D01*
X017689Y026489D02*
X017689Y026432D01*
X017462Y026432D01*
X017462Y026376D02*
X017462Y026489D01*
X017519Y026546D01*
X017632Y026546D01*
X017689Y026489D01*
X017632Y026319D02*
X017519Y026319D01*
X017462Y026376D01*
X017169Y026871D02*
X017283Y026985D01*
X017283Y027098D01*
X017169Y027212D01*
X017028Y027155D02*
X016971Y027212D01*
X016858Y027212D01*
X016801Y027155D01*
X016801Y026928D01*
X016858Y026871D01*
X016971Y026871D01*
X017028Y026928D01*
X016669Y026871D02*
X016556Y026985D01*
X016556Y027098D01*
X016669Y027212D01*
X016721Y027436D02*
X016608Y027549D01*
X016664Y027549D02*
X016494Y027549D01*
X016494Y027436D02*
X016494Y027776D01*
X016664Y027776D01*
X016721Y027719D01*
X016721Y027606D01*
X016664Y027549D01*
X016862Y027493D02*
X016919Y027549D01*
X017089Y027549D01*
X017089Y027606D02*
X017089Y027436D01*
X016919Y027436D01*
X016862Y027493D01*
X016919Y027663D02*
X017033Y027663D01*
X017089Y027606D01*
X017231Y027606D02*
X017287Y027663D01*
X017458Y027663D01*
X017401Y027549D02*
X017287Y027549D01*
X017231Y027606D01*
X017231Y027436D02*
X017401Y027436D01*
X017458Y027493D01*
X017401Y027549D01*
X017599Y027436D02*
X017769Y027436D01*
X017826Y027493D01*
X017826Y027606D01*
X017769Y027663D01*
X017599Y027663D01*
X017599Y027322D01*
X017783Y027155D02*
X017840Y027212D01*
X017953Y027212D01*
X018010Y027155D01*
X018010Y027098D01*
X017783Y026871D01*
X018010Y026871D01*
X018152Y026928D02*
X018378Y027155D01*
X018378Y026928D01*
X018322Y026871D01*
X018208Y026871D01*
X018152Y026928D01*
X018152Y027155D01*
X018208Y027212D01*
X018322Y027212D01*
X018378Y027155D01*
X018520Y027098D02*
X018633Y027212D01*
X018633Y026871D01*
X018520Y026871D02*
X018747Y026871D01*
X018888Y027042D02*
X019115Y027042D01*
X019058Y027212D02*
X018888Y027042D01*
X019058Y027212D02*
X019058Y026871D01*
X019044Y026546D02*
X018987Y026546D01*
X018874Y026432D01*
X018874Y026319D02*
X018874Y026546D01*
X018732Y026602D02*
X018676Y026659D01*
X018562Y026659D01*
X018505Y026602D01*
X018505Y026376D01*
X018562Y026319D01*
X018676Y026319D01*
X018732Y026376D01*
X018737Y026071D02*
X018793Y026071D01*
X018850Y026014D01*
X018907Y026071D01*
X018964Y026014D01*
X018964Y025844D01*
X018850Y025844D02*
X018850Y026014D01*
X018737Y026071D02*
X018737Y025844D01*
X019105Y025844D02*
X019105Y026071D01*
X019162Y026071D01*
X019218Y026014D01*
X019275Y026071D01*
X019332Y026014D01*
X019332Y025844D01*
X019218Y025844D02*
X019218Y026014D01*
X019473Y026014D02*
X019530Y026071D01*
X019643Y026071D01*
X019700Y026014D01*
X019700Y025957D01*
X019473Y025957D01*
X019473Y025901D02*
X019473Y026014D01*
X019473Y025901D02*
X019530Y025844D01*
X019643Y025844D01*
X019842Y025844D02*
X019842Y026071D01*
X019955Y026071D02*
X020012Y026071D01*
X019955Y026071D02*
X019842Y025957D01*
X020149Y025901D02*
X020205Y025844D01*
X020375Y025844D01*
X020517Y025844D02*
X020630Y025844D01*
X020574Y025844D02*
X020574Y026071D01*
X020517Y026071D01*
X020574Y026184D02*
X020574Y026241D01*
X020522Y026319D02*
X020635Y026546D01*
X020777Y026489D02*
X020777Y026376D01*
X020833Y026319D01*
X020947Y026319D01*
X021004Y026432D02*
X020777Y026432D01*
X020777Y026489D02*
X020833Y026546D01*
X020947Y026546D01*
X021004Y026489D01*
X021004Y026432D01*
X021131Y026184D02*
X021187Y026184D01*
X021187Y025844D01*
X021131Y025844D02*
X021244Y025844D01*
X021376Y026014D02*
X021603Y026014D01*
X021745Y026071D02*
X021801Y026014D01*
X021915Y026014D01*
X021971Y025957D01*
X021971Y025901D01*
X021915Y025844D01*
X021801Y025844D01*
X021745Y025901D01*
X021745Y026071D02*
X021745Y026127D01*
X021801Y026184D01*
X021915Y026184D01*
X021971Y026127D01*
X022113Y026184D02*
X022113Y025844D01*
X022113Y026014D02*
X022170Y026071D01*
X022283Y026071D01*
X022340Y026014D01*
X022340Y025844D01*
X022481Y025901D02*
X022538Y025957D01*
X022708Y025957D01*
X022708Y026014D02*
X022708Y025844D01*
X022538Y025844D01*
X022481Y025901D01*
X022538Y026071D02*
X022651Y026071D01*
X022708Y026014D01*
X022849Y025957D02*
X022963Y026071D01*
X023020Y026071D01*
X023156Y026014D02*
X023213Y026071D01*
X023327Y026071D01*
X023383Y026014D01*
X023383Y025957D01*
X023156Y025957D01*
X023156Y025901D02*
X023156Y026014D01*
X023156Y025901D02*
X023213Y025844D01*
X023327Y025844D01*
X023525Y025844D02*
X023525Y026071D01*
X023638Y026184D01*
X023752Y026071D01*
X023752Y025844D01*
X023893Y025844D02*
X024006Y025844D01*
X023950Y025844D02*
X023950Y026184D01*
X023893Y026184D01*
X023893Y026319D02*
X023950Y026376D01*
X023893Y026432D01*
X023780Y026432D01*
X023723Y026489D01*
X023780Y026546D01*
X023950Y026546D01*
X023893Y026319D02*
X023723Y026319D01*
X023582Y026319D02*
X023582Y026489D01*
X023525Y026546D01*
X023355Y026546D01*
X023355Y026319D01*
X023213Y026376D02*
X023213Y026489D01*
X023157Y026546D01*
X023043Y026546D01*
X022987Y026489D01*
X022987Y026376D01*
X023043Y026319D01*
X023157Y026319D01*
X023213Y026376D01*
X022845Y026319D02*
X022845Y026489D01*
X022788Y026546D01*
X022732Y026489D01*
X022732Y026319D01*
X022618Y026319D02*
X022618Y026546D01*
X022675Y026546D01*
X022732Y026489D01*
X022477Y026489D02*
X022477Y026319D01*
X022363Y026319D02*
X022363Y026489D01*
X022420Y026546D01*
X022477Y026489D01*
X022363Y026489D02*
X022307Y026546D01*
X022250Y026546D01*
X022250Y026319D01*
X022109Y026376D02*
X022109Y026489D01*
X022052Y026546D01*
X021938Y026546D01*
X021882Y026489D01*
X021882Y026376D01*
X021938Y026319D01*
X022052Y026319D01*
X022109Y026376D01*
X021740Y026376D02*
X021684Y026319D01*
X021570Y026319D01*
X021513Y026376D01*
X021513Y026602D01*
X021570Y026659D01*
X021684Y026659D01*
X021740Y026602D01*
X021830Y026871D02*
X021773Y026928D01*
X021830Y026985D01*
X022000Y026985D01*
X022000Y027042D02*
X022000Y026871D01*
X021830Y026871D01*
X021632Y026928D02*
X021632Y027155D01*
X021575Y027212D01*
X021405Y027212D01*
X021405Y026871D01*
X021575Y026871D01*
X021632Y026928D01*
X021830Y027098D02*
X021943Y027098D01*
X022000Y027042D01*
X022142Y027098D02*
X022255Y027098D01*
X022198Y027155D02*
X022198Y026928D01*
X022255Y026871D01*
X022387Y026928D02*
X022444Y026985D01*
X022614Y026985D01*
X022614Y027042D02*
X022614Y026871D01*
X022444Y026871D01*
X022387Y026928D01*
X022444Y027098D02*
X022557Y027098D01*
X022614Y027042D01*
X022694Y027436D02*
X022864Y027436D01*
X022921Y027493D01*
X022921Y027549D01*
X022864Y027606D01*
X022694Y027606D01*
X022694Y027436D02*
X022694Y027776D01*
X022864Y027776D01*
X022921Y027719D01*
X022921Y027663D01*
X022864Y027606D01*
X023062Y027606D02*
X023062Y027493D01*
X023119Y027436D01*
X023233Y027436D01*
X023289Y027493D01*
X023289Y027606D01*
X023233Y027663D01*
X023119Y027663D01*
X023062Y027606D01*
X023431Y027493D02*
X023487Y027549D01*
X023658Y027549D01*
X023658Y027606D02*
X023658Y027436D01*
X023487Y027436D01*
X023431Y027493D01*
X023487Y027663D02*
X023601Y027663D01*
X023658Y027606D01*
X023799Y027663D02*
X023799Y027436D01*
X023799Y027549D02*
X023912Y027663D01*
X023969Y027663D01*
X024106Y027606D02*
X024163Y027663D01*
X024333Y027663D01*
X024333Y027776D02*
X024333Y027436D01*
X024163Y027436D01*
X024106Y027493D01*
X024106Y027606D01*
X024167Y027098D02*
X024337Y027098D01*
X024394Y027042D01*
X024394Y026928D01*
X024337Y026871D01*
X024167Y026871D01*
X024167Y026758D02*
X024167Y027098D01*
X024031Y027098D02*
X023974Y027098D01*
X023860Y026985D01*
X023860Y027098D02*
X023860Y026871D01*
X023719Y026928D02*
X023719Y027042D01*
X023662Y027098D01*
X023549Y027098D01*
X023492Y027042D01*
X023492Y026928D01*
X023549Y026871D01*
X023662Y026871D01*
X023719Y026928D01*
X023351Y026928D02*
X023294Y026871D01*
X023180Y026871D01*
X023124Y026928D01*
X023124Y027155D01*
X023180Y027212D01*
X023294Y027212D01*
X023351Y027155D01*
X022198Y027436D02*
X022142Y027436D01*
X022142Y027493D01*
X022198Y027493D01*
X022198Y027436D01*
X022000Y027663D02*
X021887Y027436D01*
X021773Y027663D01*
X021632Y027606D02*
X021575Y027663D01*
X021462Y027663D01*
X021405Y027606D01*
X021405Y027493D01*
X021462Y027436D01*
X021575Y027436D01*
X021632Y027549D02*
X021405Y027549D01*
X021264Y027493D02*
X021264Y027719D01*
X021207Y027776D01*
X021037Y027776D01*
X021037Y027436D01*
X021207Y027436D01*
X021264Y027493D01*
X021632Y027549D02*
X021632Y027606D01*
X021268Y027098D02*
X021211Y027098D01*
X021098Y026985D01*
X021098Y027098D02*
X021098Y026871D01*
X020957Y026985D02*
X020957Y027042D01*
X020900Y027098D01*
X020786Y027098D01*
X020730Y027042D01*
X020730Y026928D01*
X020786Y026871D01*
X020900Y026871D01*
X020957Y026985D02*
X020730Y026985D01*
X020588Y027042D02*
X020532Y027098D01*
X020361Y027098D01*
X020361Y027212D02*
X020361Y026871D01*
X020532Y026871D01*
X020588Y026928D01*
X020588Y027042D01*
X020220Y027098D02*
X020220Y026815D01*
X020163Y026758D01*
X020107Y026758D01*
X020220Y026716D02*
X020220Y026659D01*
X020220Y026546D02*
X020220Y026319D01*
X020276Y026319D02*
X020163Y026319D01*
X020031Y026319D02*
X019974Y026376D01*
X019974Y026602D01*
X019917Y026546D02*
X020031Y026546D01*
X020163Y026546D02*
X020220Y026546D01*
X020408Y026546D02*
X020522Y026319D01*
X020375Y026071D02*
X020205Y026071D01*
X020149Y026014D01*
X020149Y025901D01*
X019776Y026319D02*
X019606Y026319D01*
X019549Y026376D01*
X019606Y026432D01*
X019776Y026432D01*
X019776Y026489D02*
X019776Y026319D01*
X019776Y026489D02*
X019719Y026546D01*
X019606Y026546D01*
X019408Y026489D02*
X019408Y026432D01*
X019181Y026432D01*
X019181Y026376D02*
X019181Y026489D01*
X019237Y026546D01*
X019351Y026546D01*
X019408Y026489D01*
X019351Y026319D02*
X019237Y026319D01*
X019181Y026376D01*
X019682Y026871D02*
X019795Y026871D01*
X019852Y026928D01*
X019993Y026928D02*
X020050Y026871D01*
X020220Y026871D01*
X019993Y026928D02*
X019993Y027098D01*
X019852Y027155D02*
X019795Y027212D01*
X019682Y027212D01*
X019625Y027155D01*
X019625Y026928D01*
X019682Y026871D01*
X019488Y027322D02*
X019431Y027322D01*
X019488Y027322D02*
X019545Y027379D01*
X019545Y027663D01*
X019318Y027663D02*
X019318Y027493D01*
X019375Y027436D01*
X019545Y027436D01*
X019181Y027663D02*
X019124Y027663D01*
X019011Y027549D01*
X019011Y027436D02*
X019011Y027663D01*
X018874Y027663D02*
X018817Y027663D01*
X018704Y027549D01*
X018704Y027436D02*
X018704Y027663D01*
X018563Y027606D02*
X018563Y027549D01*
X018336Y027549D01*
X018336Y027493D02*
X018336Y027606D01*
X018392Y027663D01*
X018506Y027663D01*
X018563Y027606D01*
X018506Y027436D02*
X018392Y027436D01*
X018336Y027493D01*
X018194Y027493D02*
X018194Y027606D01*
X018138Y027663D01*
X017967Y027663D01*
X017967Y027776D02*
X017967Y027436D01*
X018138Y027436D01*
X018194Y027493D01*
X020054Y027549D02*
X020225Y027549D01*
X020281Y027606D01*
X020281Y027719D01*
X020225Y027776D01*
X020054Y027776D01*
X020054Y027436D01*
X020423Y027436D02*
X020536Y027436D01*
X020480Y027436D02*
X020480Y027663D01*
X020423Y027663D01*
X020480Y027776D02*
X020480Y027833D01*
X020819Y026071D02*
X020933Y026071D01*
X020989Y026014D01*
X020989Y025844D01*
X020819Y025844D01*
X020762Y025901D01*
X020819Y025957D01*
X020989Y025957D01*
X022849Y025844D02*
X022849Y026071D01*
X023525Y026014D02*
X023752Y026014D01*
X024139Y026071D02*
X024195Y026071D01*
X024195Y025844D01*
X024139Y025844D02*
X024252Y025844D01*
X024384Y025844D02*
X024384Y026184D01*
X024460Y026319D02*
X024687Y026319D01*
X024828Y026319D02*
X024942Y026319D01*
X024885Y026319D02*
X024885Y026546D01*
X024828Y026546D01*
X024885Y026659D02*
X024885Y026716D01*
X024904Y026871D02*
X024904Y027098D01*
X024904Y026985D02*
X025017Y027098D01*
X025074Y027098D01*
X025268Y027098D02*
X025381Y027098D01*
X025438Y027042D01*
X025438Y026871D01*
X025268Y026871D01*
X025211Y026928D01*
X025268Y026985D01*
X025438Y026985D01*
X025579Y027098D02*
X025693Y027098D01*
X025636Y027155D02*
X025636Y026928D01*
X025693Y026871D01*
X025825Y026871D02*
X025938Y026871D01*
X025881Y026871D02*
X025881Y027098D01*
X025825Y027098D01*
X025881Y027212D02*
X025881Y027268D01*
X025948Y027436D02*
X026004Y027436D01*
X026004Y027493D01*
X025948Y027493D01*
X025948Y027436D01*
X025806Y027436D02*
X025579Y027436D01*
X025806Y027663D01*
X025806Y027719D01*
X025749Y027776D01*
X025636Y027776D01*
X025579Y027719D01*
X026132Y027719D02*
X026188Y027776D01*
X026302Y027776D01*
X026359Y027719D01*
X026359Y027663D01*
X026132Y027436D01*
X026359Y027436D01*
X026439Y027098D02*
X026609Y027098D01*
X026665Y027042D01*
X026665Y026871D01*
X026439Y026871D02*
X026439Y027098D01*
X026297Y027042D02*
X026297Y026928D01*
X026240Y026871D01*
X026127Y026871D01*
X026070Y026928D01*
X026070Y027042D01*
X026127Y027098D01*
X026240Y027098D01*
X026297Y027042D01*
X026235Y026546D02*
X026406Y026546D01*
X026349Y026432D02*
X026235Y026432D01*
X026179Y026489D01*
X026235Y026546D01*
X026349Y026432D02*
X026406Y026376D01*
X026349Y026319D01*
X026179Y026319D01*
X026150Y026184D02*
X026207Y026127D01*
X025980Y025901D01*
X026037Y025844D01*
X026150Y025844D01*
X026207Y025901D01*
X026207Y026127D01*
X026150Y026184D02*
X026037Y026184D01*
X025980Y026127D01*
X025980Y025901D01*
X025853Y025901D02*
X025853Y025844D01*
X025796Y025844D01*
X025796Y025901D01*
X025853Y025901D01*
X025655Y025901D02*
X025598Y025844D01*
X025484Y025844D01*
X025428Y025901D01*
X025541Y026014D02*
X025598Y026014D01*
X025655Y025957D01*
X025655Y025901D01*
X025598Y026014D02*
X025655Y026071D01*
X025655Y026127D01*
X025598Y026184D01*
X025484Y026184D01*
X025428Y026127D01*
X025499Y026319D02*
X025442Y026376D01*
X025442Y026489D01*
X025499Y026546D01*
X025612Y026546D01*
X025669Y026489D01*
X025669Y026432D01*
X025442Y026432D01*
X025499Y026319D02*
X025612Y026319D01*
X025810Y026319D02*
X025810Y026546D01*
X025981Y026546D01*
X026037Y026489D01*
X026037Y026319D01*
X026547Y026376D02*
X026547Y026489D01*
X026604Y026546D01*
X026717Y026546D01*
X026774Y026489D01*
X026774Y026432D01*
X026547Y026432D01*
X026547Y026376D02*
X026604Y026319D01*
X026717Y026319D01*
X026717Y026184D02*
X026717Y025901D01*
X026774Y025844D01*
X026887Y025844D01*
X026944Y025901D01*
X026944Y026184D01*
X027085Y026071D02*
X027255Y026071D01*
X027312Y026014D01*
X027312Y025844D01*
X027453Y025844D02*
X027624Y025844D01*
X027680Y025901D01*
X027680Y026014D01*
X027624Y026071D01*
X027453Y026071D01*
X027453Y025730D01*
X027085Y025844D02*
X027085Y026071D01*
X027822Y026014D02*
X027822Y025901D01*
X027878Y025844D01*
X027992Y025844D01*
X028049Y025901D01*
X028049Y026014D01*
X027992Y026071D01*
X027878Y026071D01*
X027822Y026014D01*
X028190Y025957D02*
X028303Y026071D01*
X028360Y026071D01*
X028497Y026071D02*
X028610Y026071D01*
X028554Y026127D02*
X028554Y025901D01*
X028610Y025844D01*
X028743Y025901D02*
X028743Y026014D01*
X028799Y026071D01*
X028913Y026071D01*
X028969Y026014D01*
X028969Y025957D01*
X028743Y025957D01*
X028743Y025901D02*
X028799Y025844D01*
X028913Y025844D01*
X029111Y025901D02*
X029111Y026014D01*
X029168Y026071D01*
X029338Y026071D01*
X029338Y026184D02*
X029338Y025844D01*
X029168Y025844D01*
X029111Y025901D01*
X028190Y025844D02*
X028190Y026071D01*
X028212Y026809D02*
X028212Y027150D01*
X028382Y027150D01*
X028439Y027093D01*
X028439Y026979D01*
X028382Y026923D01*
X028212Y026923D01*
X028080Y026923D02*
X028023Y026979D01*
X028023Y027206D01*
X027966Y027150D02*
X028080Y027150D01*
X027834Y027150D02*
X027721Y027150D01*
X027778Y027206D02*
X027778Y026979D01*
X027834Y026923D01*
X027579Y026923D02*
X027579Y027093D01*
X027523Y027150D01*
X027409Y027150D01*
X027353Y027093D01*
X027353Y027263D02*
X027353Y026923D01*
X028580Y026923D02*
X028580Y026979D01*
X028637Y026979D01*
X028637Y026923D01*
X028580Y026923D01*
X028580Y027093D02*
X028580Y027150D01*
X028637Y027150D01*
X028637Y027093D01*
X028580Y027093D01*
X028764Y026923D02*
X028991Y027263D01*
X029133Y026923D02*
X029360Y027263D01*
X029501Y027150D02*
X029501Y026979D01*
X029558Y026923D01*
X029614Y026979D01*
X029671Y026923D01*
X029728Y026979D01*
X029728Y027150D01*
X029869Y027150D02*
X029869Y026979D01*
X029926Y026923D01*
X029983Y026979D01*
X030039Y026923D01*
X030096Y026979D01*
X030096Y027150D01*
X030238Y027150D02*
X030238Y026979D01*
X030294Y026923D01*
X030351Y026979D01*
X030408Y026923D01*
X030465Y026979D01*
X030465Y027150D01*
X030606Y026979D02*
X030663Y026979D01*
X030663Y026923D01*
X030606Y026923D01*
X030606Y026979D01*
X030790Y026979D02*
X030790Y027206D01*
X030847Y027263D01*
X030960Y027263D01*
X031017Y027206D01*
X031158Y027150D02*
X031158Y026979D01*
X031215Y026923D01*
X031385Y026923D01*
X031385Y026866D02*
X031329Y026809D01*
X031272Y026809D01*
X031385Y026866D02*
X031385Y027150D01*
X031527Y027150D02*
X031697Y027150D01*
X031754Y027093D01*
X031754Y026979D01*
X031697Y026923D01*
X031527Y026923D01*
X031527Y027263D01*
X031895Y027093D02*
X031895Y026979D01*
X031952Y026923D01*
X032065Y026923D01*
X032122Y027036D02*
X031895Y027036D01*
X031895Y027093D02*
X031952Y027150D01*
X032065Y027150D01*
X032122Y027093D01*
X032122Y027036D01*
X032263Y027036D02*
X032377Y027150D01*
X032434Y027150D01*
X032263Y027150D02*
X032263Y026923D01*
X032570Y026923D02*
X032570Y027263D01*
X032740Y027263D01*
X032797Y027206D01*
X032797Y026979D01*
X032740Y026923D01*
X032570Y026923D01*
X032939Y026979D02*
X032995Y027036D01*
X033165Y027036D01*
X033165Y027093D02*
X033165Y026923D01*
X032995Y026923D01*
X032939Y026979D01*
X032995Y027150D02*
X033109Y027150D01*
X033165Y027093D01*
X033307Y027150D02*
X033420Y027150D01*
X033364Y027206D02*
X033364Y026979D01*
X033420Y026923D01*
X033552Y026979D02*
X033609Y027036D01*
X033779Y027036D01*
X033779Y027093D02*
X033779Y026923D01*
X033609Y026923D01*
X033552Y026979D01*
X033609Y027150D02*
X033723Y027150D01*
X033779Y027093D01*
X033921Y027093D02*
X034148Y027093D01*
X034289Y027036D02*
X034459Y027036D01*
X034516Y027093D01*
X034516Y027206D01*
X034459Y027263D01*
X034289Y027263D01*
X034289Y026923D01*
X034403Y027036D02*
X034516Y026923D01*
X034657Y026979D02*
X034714Y026923D01*
X034828Y026923D01*
X034884Y026979D01*
X034884Y027093D01*
X034828Y027150D01*
X034714Y027150D01*
X034657Y027093D01*
X034657Y026979D01*
X035026Y026923D02*
X035026Y027263D01*
X035026Y027150D02*
X035196Y027150D01*
X035253Y027093D01*
X035253Y026979D01*
X035196Y026923D01*
X035026Y026923D01*
X035394Y026979D02*
X035394Y027093D01*
X035451Y027150D01*
X035564Y027150D01*
X035621Y027093D01*
X035621Y026979D01*
X035564Y026923D01*
X035451Y026923D01*
X035394Y026979D01*
X035762Y027150D02*
X035876Y027150D01*
X035819Y027206D02*
X035819Y026979D01*
X035876Y026923D01*
X036008Y026923D02*
X036121Y026923D01*
X036065Y026923D02*
X036065Y027150D01*
X036008Y027150D01*
X036065Y027263D02*
X036065Y027320D01*
X036253Y027093D02*
X036253Y026979D01*
X036310Y026923D01*
X036480Y026923D01*
X036622Y026923D02*
X036792Y026923D01*
X036849Y026979D01*
X036792Y027036D01*
X036678Y027036D01*
X036622Y027093D01*
X036678Y027150D01*
X036849Y027150D01*
X036990Y026979D02*
X037047Y026979D01*
X037047Y026923D01*
X036990Y026923D01*
X036990Y026979D01*
X037174Y026979D02*
X037231Y026923D01*
X037401Y026923D01*
X037543Y026979D02*
X037599Y026923D01*
X037713Y026923D01*
X037769Y026979D01*
X037769Y027093D01*
X037713Y027150D01*
X037599Y027150D01*
X037543Y027093D01*
X037543Y026979D01*
X037401Y027150D02*
X037231Y027150D01*
X037174Y027093D01*
X037174Y026979D01*
X036480Y027150D02*
X036310Y027150D01*
X036253Y027093D01*
X037911Y027150D02*
X037911Y026923D01*
X038024Y026923D02*
X038024Y027093D01*
X038081Y027150D01*
X038138Y027093D01*
X038138Y026923D01*
X038024Y027093D02*
X037968Y027150D01*
X037911Y027150D01*
X031017Y026979D02*
X030960Y026923D01*
X030847Y026923D01*
X030790Y026979D01*
X025301Y026546D02*
X025130Y026546D01*
X025074Y026489D01*
X025074Y026376D01*
X025130Y026319D01*
X025301Y026319D01*
X024918Y026014D02*
X024918Y025957D01*
X024691Y025957D01*
X024691Y025901D02*
X024691Y026014D01*
X024748Y026071D01*
X024861Y026071D01*
X024918Y026014D01*
X024861Y025844D02*
X024748Y025844D01*
X024691Y025901D01*
X024554Y025844D02*
X024384Y025957D01*
X024554Y026071D01*
X024460Y026319D02*
X024460Y026659D01*
X024592Y026871D02*
X024536Y026928D01*
X024536Y027042D01*
X024592Y027098D01*
X024706Y027098D01*
X024763Y027042D01*
X024763Y026928D01*
X024706Y026871D01*
X024592Y026871D01*
X024956Y027436D02*
X025069Y027549D01*
X025069Y027776D01*
X024843Y027776D02*
X024843Y027549D01*
X024956Y027436D01*
X024195Y026241D02*
X024195Y026184D01*
X014180Y026071D02*
X014123Y026071D01*
X014010Y025957D01*
X014010Y025844D02*
X014010Y026071D01*
X013878Y026071D02*
X013764Y026071D01*
X013821Y026127D02*
X013821Y025901D01*
X013878Y025844D01*
X013632Y025844D02*
X013576Y025901D01*
X013576Y026127D01*
X013519Y026071D02*
X013632Y026071D01*
X013590Y026319D02*
X013533Y026376D01*
X013533Y026489D01*
X013590Y026546D01*
X013703Y026546D01*
X013760Y026489D01*
X013760Y026432D01*
X013533Y026432D01*
X013590Y026319D02*
X013703Y026319D01*
X013392Y026319D02*
X013278Y026432D01*
X013335Y026432D02*
X013165Y026432D01*
X013165Y026319D02*
X013165Y026659D01*
X013335Y026659D01*
X013392Y026602D01*
X013392Y026489D01*
X013335Y026432D01*
X013264Y026184D02*
X013377Y026071D01*
X013377Y025844D01*
X013377Y026014D02*
X013151Y026014D01*
X013151Y026071D02*
X013264Y026184D01*
X013151Y026071D02*
X013151Y025844D01*
X013179Y027436D02*
X013179Y027776D01*
X013349Y027776D01*
X013406Y027719D01*
X013406Y027606D01*
X013349Y027549D01*
X013179Y027549D01*
D13*
X026586Y007122D02*
X026586Y006982D01*
X026680Y007028D01*
X026726Y007028D01*
X026773Y006982D01*
X026773Y006888D01*
X026726Y006842D01*
X026633Y006842D01*
X026586Y006888D01*
X026586Y007122D02*
X026773Y007122D01*
X026955Y006888D02*
X027001Y006888D01*
X027001Y006842D01*
X026955Y006842D01*
X026955Y006888D01*
X027139Y006888D02*
X027326Y007075D01*
X027326Y006888D01*
X027279Y006842D01*
X027185Y006842D01*
X027139Y006888D01*
X027139Y007075D01*
X027185Y007122D01*
X027279Y007122D01*
X027326Y007075D01*
X027507Y007122D02*
X027507Y006935D01*
X027600Y006842D01*
X027694Y006935D01*
X027694Y007122D01*
X028340Y007090D02*
X028386Y007136D01*
X028480Y007136D01*
X028526Y007090D01*
X028526Y007043D01*
X028480Y006996D01*
X028526Y006949D01*
X028526Y006903D01*
X028480Y006856D01*
X028386Y006856D01*
X028340Y006903D01*
X028433Y006996D02*
X028480Y006996D01*
X028708Y006903D02*
X028755Y006903D01*
X028755Y006856D01*
X028708Y006856D01*
X028708Y006903D01*
X028892Y006903D02*
X028939Y006856D01*
X029032Y006856D01*
X029079Y006903D01*
X029079Y006949D01*
X029032Y006996D01*
X028985Y006996D01*
X029032Y006996D02*
X029079Y007043D01*
X029079Y007090D01*
X029032Y007136D01*
X028939Y007136D01*
X028892Y007090D01*
X029260Y007136D02*
X029260Y006949D01*
X029354Y006856D01*
X029447Y006949D01*
X029447Y007136D01*
D14*
X029983Y010159D02*
X027700Y010159D01*
X027700Y010946D01*
X029983Y010946D01*
X029983Y010159D01*
X019580Y015474D02*
X019582Y015494D01*
X019588Y015512D01*
X019597Y015530D01*
X019609Y015545D01*
X019624Y015557D01*
X019642Y015566D01*
X019660Y015572D01*
X019680Y015574D01*
X019700Y015572D01*
X019718Y015566D01*
X019736Y015557D01*
X019751Y015545D01*
X019763Y015530D01*
X019772Y015512D01*
X019778Y015494D01*
X019780Y015474D01*
X019778Y015454D01*
X019772Y015436D01*
X019763Y015418D01*
X019751Y015403D01*
X019736Y015391D01*
X019718Y015382D01*
X019700Y015376D01*
X019680Y015374D01*
X019660Y015376D01*
X019642Y015382D01*
X019624Y015391D01*
X019609Y015403D01*
X019597Y015418D01*
X019588Y015436D01*
X019582Y015454D01*
X019580Y015474D01*
M02*
