G75*
%MOIN*%
%OFA0B0*%
%FSLAX24Y24*%
%IPPOS*%
%LPD*%
%AMOC8*
5,1,8,0,0,1.08239X$1,22.5*
%
%ADD10C,0.0000*%
%ADD11C,0.0010*%
D10*
X000180Y000474D02*
X000180Y028220D01*
X040150Y028220D01*
X040150Y000474D01*
X000180Y000474D01*
X000629Y001474D02*
X000631Y001521D01*
X000637Y001567D01*
X000647Y001613D01*
X000660Y001658D01*
X000678Y001701D01*
X000699Y001743D01*
X000723Y001783D01*
X000751Y001820D01*
X000782Y001855D01*
X000816Y001888D01*
X000852Y001917D01*
X000891Y001943D01*
X000932Y001966D01*
X000975Y001985D01*
X001019Y002001D01*
X001064Y002013D01*
X001110Y002021D01*
X001157Y002025D01*
X001203Y002025D01*
X001250Y002021D01*
X001296Y002013D01*
X001341Y002001D01*
X001385Y001985D01*
X001428Y001966D01*
X001469Y001943D01*
X001508Y001917D01*
X001544Y001888D01*
X001578Y001855D01*
X001609Y001820D01*
X001637Y001783D01*
X001661Y001743D01*
X001682Y001701D01*
X001700Y001658D01*
X001713Y001613D01*
X001723Y001567D01*
X001729Y001521D01*
X001731Y001474D01*
X001729Y001427D01*
X001723Y001381D01*
X001713Y001335D01*
X001700Y001290D01*
X001682Y001247D01*
X001661Y001205D01*
X001637Y001165D01*
X001609Y001128D01*
X001578Y001093D01*
X001544Y001060D01*
X001508Y001031D01*
X001469Y001005D01*
X001428Y000982D01*
X001385Y000963D01*
X001341Y000947D01*
X001296Y000935D01*
X001250Y000927D01*
X001203Y000923D01*
X001157Y000923D01*
X001110Y000927D01*
X001064Y000935D01*
X001019Y000947D01*
X000975Y000963D01*
X000932Y000982D01*
X000891Y001005D01*
X000852Y001031D01*
X000816Y001060D01*
X000782Y001093D01*
X000751Y001128D01*
X000723Y001165D01*
X000699Y001205D01*
X000678Y001247D01*
X000660Y001290D01*
X000647Y001335D01*
X000637Y001381D01*
X000631Y001427D01*
X000629Y001474D01*
X000629Y021874D02*
X000631Y021921D01*
X000637Y021967D01*
X000647Y022013D01*
X000660Y022058D01*
X000678Y022101D01*
X000699Y022143D01*
X000723Y022183D01*
X000751Y022220D01*
X000782Y022255D01*
X000816Y022288D01*
X000852Y022317D01*
X000891Y022343D01*
X000932Y022366D01*
X000975Y022385D01*
X001019Y022401D01*
X001064Y022413D01*
X001110Y022421D01*
X001157Y022425D01*
X001203Y022425D01*
X001250Y022421D01*
X001296Y022413D01*
X001341Y022401D01*
X001385Y022385D01*
X001428Y022366D01*
X001469Y022343D01*
X001508Y022317D01*
X001544Y022288D01*
X001578Y022255D01*
X001609Y022220D01*
X001637Y022183D01*
X001661Y022143D01*
X001682Y022101D01*
X001700Y022058D01*
X001713Y022013D01*
X001723Y021967D01*
X001729Y021921D01*
X001731Y021874D01*
X001729Y021827D01*
X001723Y021781D01*
X001713Y021735D01*
X001700Y021690D01*
X001682Y021647D01*
X001661Y021605D01*
X001637Y021565D01*
X001609Y021528D01*
X001578Y021493D01*
X001544Y021460D01*
X001508Y021431D01*
X001469Y021405D01*
X001428Y021382D01*
X001385Y021363D01*
X001341Y021347D01*
X001296Y021335D01*
X001250Y021327D01*
X001203Y021323D01*
X001157Y021323D01*
X001110Y021327D01*
X001064Y021335D01*
X001019Y021347D01*
X000975Y021363D01*
X000932Y021382D01*
X000891Y021405D01*
X000852Y021431D01*
X000816Y021460D01*
X000782Y021493D01*
X000751Y021528D01*
X000723Y021565D01*
X000699Y021605D01*
X000678Y021647D01*
X000660Y021690D01*
X000647Y021735D01*
X000637Y021781D01*
X000631Y021827D01*
X000629Y021874D01*
X037853Y006190D02*
X037855Y006216D01*
X037861Y006242D01*
X037871Y006267D01*
X037884Y006290D01*
X037900Y006310D01*
X037920Y006328D01*
X037942Y006343D01*
X037965Y006355D01*
X037991Y006363D01*
X038017Y006367D01*
X038043Y006367D01*
X038069Y006363D01*
X038095Y006355D01*
X038119Y006343D01*
X038140Y006328D01*
X038160Y006310D01*
X038176Y006290D01*
X038189Y006267D01*
X038199Y006242D01*
X038205Y006216D01*
X038207Y006190D01*
X038205Y006164D01*
X038199Y006138D01*
X038189Y006113D01*
X038176Y006090D01*
X038160Y006070D01*
X038140Y006052D01*
X038118Y006037D01*
X038095Y006025D01*
X038069Y006017D01*
X038043Y006013D01*
X038017Y006013D01*
X037991Y006017D01*
X037965Y006025D01*
X037941Y006037D01*
X037920Y006052D01*
X037900Y006070D01*
X037884Y006090D01*
X037871Y006113D01*
X037861Y006138D01*
X037855Y006164D01*
X037853Y006190D01*
X037853Y004457D02*
X037855Y004483D01*
X037861Y004509D01*
X037871Y004534D01*
X037884Y004557D01*
X037900Y004577D01*
X037920Y004595D01*
X037942Y004610D01*
X037965Y004622D01*
X037991Y004630D01*
X038017Y004634D01*
X038043Y004634D01*
X038069Y004630D01*
X038095Y004622D01*
X038119Y004610D01*
X038140Y004595D01*
X038160Y004577D01*
X038176Y004557D01*
X038189Y004534D01*
X038199Y004509D01*
X038205Y004483D01*
X038207Y004457D01*
X038205Y004431D01*
X038199Y004405D01*
X038189Y004380D01*
X038176Y004357D01*
X038160Y004337D01*
X038140Y004319D01*
X038118Y004304D01*
X038095Y004292D01*
X038069Y004284D01*
X038043Y004280D01*
X038017Y004280D01*
X037991Y004284D01*
X037965Y004292D01*
X037941Y004304D01*
X037920Y004319D01*
X037900Y004337D01*
X037884Y004357D01*
X037871Y004380D01*
X037861Y004405D01*
X037855Y004431D01*
X037853Y004457D01*
X038604Y001474D02*
X038606Y001521D01*
X038612Y001567D01*
X038622Y001613D01*
X038635Y001658D01*
X038653Y001701D01*
X038674Y001743D01*
X038698Y001783D01*
X038726Y001820D01*
X038757Y001855D01*
X038791Y001888D01*
X038827Y001917D01*
X038866Y001943D01*
X038907Y001966D01*
X038950Y001985D01*
X038994Y002001D01*
X039039Y002013D01*
X039085Y002021D01*
X039132Y002025D01*
X039178Y002025D01*
X039225Y002021D01*
X039271Y002013D01*
X039316Y002001D01*
X039360Y001985D01*
X039403Y001966D01*
X039444Y001943D01*
X039483Y001917D01*
X039519Y001888D01*
X039553Y001855D01*
X039584Y001820D01*
X039612Y001783D01*
X039636Y001743D01*
X039657Y001701D01*
X039675Y001658D01*
X039688Y001613D01*
X039698Y001567D01*
X039704Y001521D01*
X039706Y001474D01*
X039704Y001427D01*
X039698Y001381D01*
X039688Y001335D01*
X039675Y001290D01*
X039657Y001247D01*
X039636Y001205D01*
X039612Y001165D01*
X039584Y001128D01*
X039553Y001093D01*
X039519Y001060D01*
X039483Y001031D01*
X039444Y001005D01*
X039403Y000982D01*
X039360Y000963D01*
X039316Y000947D01*
X039271Y000935D01*
X039225Y000927D01*
X039178Y000923D01*
X039132Y000923D01*
X039085Y000927D01*
X039039Y000935D01*
X038994Y000947D01*
X038950Y000963D01*
X038907Y000982D01*
X038866Y001005D01*
X038827Y001031D01*
X038791Y001060D01*
X038757Y001093D01*
X038726Y001128D01*
X038698Y001165D01*
X038674Y001205D01*
X038653Y001247D01*
X038635Y001290D01*
X038622Y001335D01*
X038612Y001381D01*
X038606Y001427D01*
X038604Y001474D01*
X038604Y027174D02*
X038606Y027221D01*
X038612Y027267D01*
X038622Y027313D01*
X038635Y027358D01*
X038653Y027401D01*
X038674Y027443D01*
X038698Y027483D01*
X038726Y027520D01*
X038757Y027555D01*
X038791Y027588D01*
X038827Y027617D01*
X038866Y027643D01*
X038907Y027666D01*
X038950Y027685D01*
X038994Y027701D01*
X039039Y027713D01*
X039085Y027721D01*
X039132Y027725D01*
X039178Y027725D01*
X039225Y027721D01*
X039271Y027713D01*
X039316Y027701D01*
X039360Y027685D01*
X039403Y027666D01*
X039444Y027643D01*
X039483Y027617D01*
X039519Y027588D01*
X039553Y027555D01*
X039584Y027520D01*
X039612Y027483D01*
X039636Y027443D01*
X039657Y027401D01*
X039675Y027358D01*
X039688Y027313D01*
X039698Y027267D01*
X039704Y027221D01*
X039706Y027174D01*
X039704Y027127D01*
X039698Y027081D01*
X039688Y027035D01*
X039675Y026990D01*
X039657Y026947D01*
X039636Y026905D01*
X039612Y026865D01*
X039584Y026828D01*
X039553Y026793D01*
X039519Y026760D01*
X039483Y026731D01*
X039444Y026705D01*
X039403Y026682D01*
X039360Y026663D01*
X039316Y026647D01*
X039271Y026635D01*
X039225Y026627D01*
X039178Y026623D01*
X039132Y026623D01*
X039085Y026627D01*
X039039Y026635D01*
X038994Y026647D01*
X038950Y026663D01*
X038907Y026682D01*
X038866Y026705D01*
X038827Y026731D01*
X038791Y026760D01*
X038757Y026793D01*
X038726Y026828D01*
X038698Y026865D01*
X038674Y026905D01*
X038653Y026947D01*
X038635Y026990D01*
X038622Y027035D01*
X038612Y027081D01*
X038606Y027127D01*
X038604Y027174D01*
D11*
X038755Y027174D02*
X039555Y027174D01*
X039155Y026774D02*
X039155Y027574D01*
X038765Y027174D02*
X038767Y027213D01*
X038773Y027251D01*
X038782Y027289D01*
X038796Y027325D01*
X038812Y027361D01*
X038833Y027394D01*
X038856Y027425D01*
X038883Y027453D01*
X038912Y027479D01*
X038943Y027502D01*
X038977Y027521D01*
X039013Y027537D01*
X039049Y027549D01*
X039087Y027558D01*
X039126Y027563D01*
X039165Y027564D01*
X039203Y027561D01*
X039242Y027554D01*
X039279Y027544D01*
X039315Y027529D01*
X039350Y027512D01*
X039383Y027491D01*
X039413Y027466D01*
X039441Y027439D01*
X039466Y027409D01*
X039488Y027377D01*
X039506Y027343D01*
X039521Y027307D01*
X039533Y027270D01*
X039541Y027232D01*
X039545Y027193D01*
X039545Y027155D01*
X039541Y027116D01*
X039533Y027078D01*
X039521Y027041D01*
X039506Y027005D01*
X039488Y026971D01*
X039466Y026939D01*
X039441Y026909D01*
X039413Y026882D01*
X039383Y026857D01*
X039350Y026836D01*
X039315Y026819D01*
X039279Y026804D01*
X039242Y026794D01*
X039203Y026787D01*
X039165Y026784D01*
X039126Y026785D01*
X039087Y026790D01*
X039049Y026799D01*
X039013Y026811D01*
X038977Y026827D01*
X038943Y026846D01*
X038912Y026869D01*
X038883Y026895D01*
X038856Y026923D01*
X038833Y026954D01*
X038812Y026987D01*
X038796Y027023D01*
X038782Y027059D01*
X038773Y027097D01*
X038767Y027135D01*
X038765Y027174D01*
X037058Y024645D02*
X037060Y024684D01*
X037066Y024722D01*
X037075Y024760D01*
X037089Y024796D01*
X037105Y024832D01*
X037126Y024865D01*
X037149Y024896D01*
X037176Y024924D01*
X037205Y024950D01*
X037236Y024973D01*
X037270Y024992D01*
X037306Y025008D01*
X037342Y025020D01*
X037380Y025029D01*
X037419Y025034D01*
X037458Y025035D01*
X037496Y025032D01*
X037535Y025025D01*
X037572Y025015D01*
X037608Y025000D01*
X037643Y024983D01*
X037676Y024962D01*
X037706Y024937D01*
X037734Y024910D01*
X037759Y024880D01*
X037781Y024848D01*
X037799Y024814D01*
X037814Y024778D01*
X037826Y024741D01*
X037834Y024703D01*
X037838Y024664D01*
X037838Y024626D01*
X037834Y024587D01*
X037826Y024549D01*
X037814Y024512D01*
X037799Y024476D01*
X037781Y024442D01*
X037759Y024410D01*
X037734Y024380D01*
X037706Y024353D01*
X037676Y024328D01*
X037643Y024307D01*
X037608Y024290D01*
X037572Y024275D01*
X037535Y024265D01*
X037496Y024258D01*
X037458Y024255D01*
X037419Y024256D01*
X037380Y024261D01*
X037342Y024270D01*
X037306Y024282D01*
X037270Y024298D01*
X037236Y024317D01*
X037205Y024340D01*
X037176Y024366D01*
X037149Y024394D01*
X037126Y024425D01*
X037105Y024458D01*
X037089Y024494D01*
X037075Y024530D01*
X037066Y024568D01*
X037060Y024606D01*
X037058Y024645D01*
X037048Y024245D02*
X037848Y025045D01*
X036058Y024645D02*
X036060Y024684D01*
X036066Y024722D01*
X036075Y024760D01*
X036089Y024796D01*
X036105Y024832D01*
X036126Y024865D01*
X036149Y024896D01*
X036176Y024924D01*
X036205Y024950D01*
X036236Y024973D01*
X036270Y024992D01*
X036306Y025008D01*
X036342Y025020D01*
X036380Y025029D01*
X036419Y025034D01*
X036458Y025035D01*
X036496Y025032D01*
X036535Y025025D01*
X036572Y025015D01*
X036608Y025000D01*
X036643Y024983D01*
X036676Y024962D01*
X036706Y024937D01*
X036734Y024910D01*
X036759Y024880D01*
X036781Y024848D01*
X036799Y024814D01*
X036814Y024778D01*
X036826Y024741D01*
X036834Y024703D01*
X036838Y024664D01*
X036838Y024626D01*
X036834Y024587D01*
X036826Y024549D01*
X036814Y024512D01*
X036799Y024476D01*
X036781Y024442D01*
X036759Y024410D01*
X036734Y024380D01*
X036706Y024353D01*
X036676Y024328D01*
X036643Y024307D01*
X036608Y024290D01*
X036572Y024275D01*
X036535Y024265D01*
X036496Y024258D01*
X036458Y024255D01*
X036419Y024256D01*
X036380Y024261D01*
X036342Y024270D01*
X036306Y024282D01*
X036270Y024298D01*
X036236Y024317D01*
X036205Y024340D01*
X036176Y024366D01*
X036149Y024394D01*
X036126Y024425D01*
X036105Y024458D01*
X036089Y024494D01*
X036075Y024530D01*
X036066Y024568D01*
X036060Y024606D01*
X036058Y024645D01*
X036048Y024245D02*
X036848Y025045D01*
X035058Y024645D02*
X035060Y024684D01*
X035066Y024722D01*
X035075Y024760D01*
X035089Y024796D01*
X035105Y024832D01*
X035126Y024865D01*
X035149Y024896D01*
X035176Y024924D01*
X035205Y024950D01*
X035236Y024973D01*
X035270Y024992D01*
X035306Y025008D01*
X035342Y025020D01*
X035380Y025029D01*
X035419Y025034D01*
X035458Y025035D01*
X035496Y025032D01*
X035535Y025025D01*
X035572Y025015D01*
X035608Y025000D01*
X035643Y024983D01*
X035676Y024962D01*
X035706Y024937D01*
X035734Y024910D01*
X035759Y024880D01*
X035781Y024848D01*
X035799Y024814D01*
X035814Y024778D01*
X035826Y024741D01*
X035834Y024703D01*
X035838Y024664D01*
X035838Y024626D01*
X035834Y024587D01*
X035826Y024549D01*
X035814Y024512D01*
X035799Y024476D01*
X035781Y024442D01*
X035759Y024410D01*
X035734Y024380D01*
X035706Y024353D01*
X035676Y024328D01*
X035643Y024307D01*
X035608Y024290D01*
X035572Y024275D01*
X035535Y024265D01*
X035496Y024258D01*
X035458Y024255D01*
X035419Y024256D01*
X035380Y024261D01*
X035342Y024270D01*
X035306Y024282D01*
X035270Y024298D01*
X035236Y024317D01*
X035205Y024340D01*
X035176Y024366D01*
X035149Y024394D01*
X035126Y024425D01*
X035105Y024458D01*
X035089Y024494D01*
X035075Y024530D01*
X035066Y024568D01*
X035060Y024606D01*
X035058Y024645D01*
X035048Y024245D02*
X035848Y025045D01*
X034058Y024645D02*
X034060Y024684D01*
X034066Y024722D01*
X034075Y024760D01*
X034089Y024796D01*
X034105Y024832D01*
X034126Y024865D01*
X034149Y024896D01*
X034176Y024924D01*
X034205Y024950D01*
X034236Y024973D01*
X034270Y024992D01*
X034306Y025008D01*
X034342Y025020D01*
X034380Y025029D01*
X034419Y025034D01*
X034458Y025035D01*
X034496Y025032D01*
X034535Y025025D01*
X034572Y025015D01*
X034608Y025000D01*
X034643Y024983D01*
X034676Y024962D01*
X034706Y024937D01*
X034734Y024910D01*
X034759Y024880D01*
X034781Y024848D01*
X034799Y024814D01*
X034814Y024778D01*
X034826Y024741D01*
X034834Y024703D01*
X034838Y024664D01*
X034838Y024626D01*
X034834Y024587D01*
X034826Y024549D01*
X034814Y024512D01*
X034799Y024476D01*
X034781Y024442D01*
X034759Y024410D01*
X034734Y024380D01*
X034706Y024353D01*
X034676Y024328D01*
X034643Y024307D01*
X034608Y024290D01*
X034572Y024275D01*
X034535Y024265D01*
X034496Y024258D01*
X034458Y024255D01*
X034419Y024256D01*
X034380Y024261D01*
X034342Y024270D01*
X034306Y024282D01*
X034270Y024298D01*
X034236Y024317D01*
X034205Y024340D01*
X034176Y024366D01*
X034149Y024394D01*
X034126Y024425D01*
X034105Y024458D01*
X034089Y024494D01*
X034075Y024530D01*
X034066Y024568D01*
X034060Y024606D01*
X034058Y024645D01*
X034048Y024245D02*
X034848Y025045D01*
X033058Y024645D02*
X033060Y024684D01*
X033066Y024722D01*
X033075Y024760D01*
X033089Y024796D01*
X033105Y024832D01*
X033126Y024865D01*
X033149Y024896D01*
X033176Y024924D01*
X033205Y024950D01*
X033236Y024973D01*
X033270Y024992D01*
X033306Y025008D01*
X033342Y025020D01*
X033380Y025029D01*
X033419Y025034D01*
X033458Y025035D01*
X033496Y025032D01*
X033535Y025025D01*
X033572Y025015D01*
X033608Y025000D01*
X033643Y024983D01*
X033676Y024962D01*
X033706Y024937D01*
X033734Y024910D01*
X033759Y024880D01*
X033781Y024848D01*
X033799Y024814D01*
X033814Y024778D01*
X033826Y024741D01*
X033834Y024703D01*
X033838Y024664D01*
X033838Y024626D01*
X033834Y024587D01*
X033826Y024549D01*
X033814Y024512D01*
X033799Y024476D01*
X033781Y024442D01*
X033759Y024410D01*
X033734Y024380D01*
X033706Y024353D01*
X033676Y024328D01*
X033643Y024307D01*
X033608Y024290D01*
X033572Y024275D01*
X033535Y024265D01*
X033496Y024258D01*
X033458Y024255D01*
X033419Y024256D01*
X033380Y024261D01*
X033342Y024270D01*
X033306Y024282D01*
X033270Y024298D01*
X033236Y024317D01*
X033205Y024340D01*
X033176Y024366D01*
X033149Y024394D01*
X033126Y024425D01*
X033105Y024458D01*
X033089Y024494D01*
X033075Y024530D01*
X033066Y024568D01*
X033060Y024606D01*
X033058Y024645D01*
X033048Y024245D02*
X033848Y025045D01*
X032058Y024645D02*
X032060Y024684D01*
X032066Y024722D01*
X032075Y024760D01*
X032089Y024796D01*
X032105Y024832D01*
X032126Y024865D01*
X032149Y024896D01*
X032176Y024924D01*
X032205Y024950D01*
X032236Y024973D01*
X032270Y024992D01*
X032306Y025008D01*
X032342Y025020D01*
X032380Y025029D01*
X032419Y025034D01*
X032458Y025035D01*
X032496Y025032D01*
X032535Y025025D01*
X032572Y025015D01*
X032608Y025000D01*
X032643Y024983D01*
X032676Y024962D01*
X032706Y024937D01*
X032734Y024910D01*
X032759Y024880D01*
X032781Y024848D01*
X032799Y024814D01*
X032814Y024778D01*
X032826Y024741D01*
X032834Y024703D01*
X032838Y024664D01*
X032838Y024626D01*
X032834Y024587D01*
X032826Y024549D01*
X032814Y024512D01*
X032799Y024476D01*
X032781Y024442D01*
X032759Y024410D01*
X032734Y024380D01*
X032706Y024353D01*
X032676Y024328D01*
X032643Y024307D01*
X032608Y024290D01*
X032572Y024275D01*
X032535Y024265D01*
X032496Y024258D01*
X032458Y024255D01*
X032419Y024256D01*
X032380Y024261D01*
X032342Y024270D01*
X032306Y024282D01*
X032270Y024298D01*
X032236Y024317D01*
X032205Y024340D01*
X032176Y024366D01*
X032149Y024394D01*
X032126Y024425D01*
X032105Y024458D01*
X032089Y024494D01*
X032075Y024530D01*
X032066Y024568D01*
X032060Y024606D01*
X032058Y024645D01*
X032048Y024245D02*
X032848Y025045D01*
X032058Y023645D02*
X032060Y023684D01*
X032066Y023722D01*
X032075Y023760D01*
X032089Y023796D01*
X032105Y023832D01*
X032126Y023865D01*
X032149Y023896D01*
X032176Y023924D01*
X032205Y023950D01*
X032236Y023973D01*
X032270Y023992D01*
X032306Y024008D01*
X032342Y024020D01*
X032380Y024029D01*
X032419Y024034D01*
X032458Y024035D01*
X032496Y024032D01*
X032535Y024025D01*
X032572Y024015D01*
X032608Y024000D01*
X032643Y023983D01*
X032676Y023962D01*
X032706Y023937D01*
X032734Y023910D01*
X032759Y023880D01*
X032781Y023848D01*
X032799Y023814D01*
X032814Y023778D01*
X032826Y023741D01*
X032834Y023703D01*
X032838Y023664D01*
X032838Y023626D01*
X032834Y023587D01*
X032826Y023549D01*
X032814Y023512D01*
X032799Y023476D01*
X032781Y023442D01*
X032759Y023410D01*
X032734Y023380D01*
X032706Y023353D01*
X032676Y023328D01*
X032643Y023307D01*
X032608Y023290D01*
X032572Y023275D01*
X032535Y023265D01*
X032496Y023258D01*
X032458Y023255D01*
X032419Y023256D01*
X032380Y023261D01*
X032342Y023270D01*
X032306Y023282D01*
X032270Y023298D01*
X032236Y023317D01*
X032205Y023340D01*
X032176Y023366D01*
X032149Y023394D01*
X032126Y023425D01*
X032105Y023458D01*
X032089Y023494D01*
X032075Y023530D01*
X032066Y023568D01*
X032060Y023606D01*
X032058Y023645D01*
X032048Y023245D02*
X032848Y024045D01*
X033058Y023645D02*
X033060Y023684D01*
X033066Y023722D01*
X033075Y023760D01*
X033089Y023796D01*
X033105Y023832D01*
X033126Y023865D01*
X033149Y023896D01*
X033176Y023924D01*
X033205Y023950D01*
X033236Y023973D01*
X033270Y023992D01*
X033306Y024008D01*
X033342Y024020D01*
X033380Y024029D01*
X033419Y024034D01*
X033458Y024035D01*
X033496Y024032D01*
X033535Y024025D01*
X033572Y024015D01*
X033608Y024000D01*
X033643Y023983D01*
X033676Y023962D01*
X033706Y023937D01*
X033734Y023910D01*
X033759Y023880D01*
X033781Y023848D01*
X033799Y023814D01*
X033814Y023778D01*
X033826Y023741D01*
X033834Y023703D01*
X033838Y023664D01*
X033838Y023626D01*
X033834Y023587D01*
X033826Y023549D01*
X033814Y023512D01*
X033799Y023476D01*
X033781Y023442D01*
X033759Y023410D01*
X033734Y023380D01*
X033706Y023353D01*
X033676Y023328D01*
X033643Y023307D01*
X033608Y023290D01*
X033572Y023275D01*
X033535Y023265D01*
X033496Y023258D01*
X033458Y023255D01*
X033419Y023256D01*
X033380Y023261D01*
X033342Y023270D01*
X033306Y023282D01*
X033270Y023298D01*
X033236Y023317D01*
X033205Y023340D01*
X033176Y023366D01*
X033149Y023394D01*
X033126Y023425D01*
X033105Y023458D01*
X033089Y023494D01*
X033075Y023530D01*
X033066Y023568D01*
X033060Y023606D01*
X033058Y023645D01*
X033048Y023245D02*
X033848Y024045D01*
X034058Y023645D02*
X034060Y023684D01*
X034066Y023722D01*
X034075Y023760D01*
X034089Y023796D01*
X034105Y023832D01*
X034126Y023865D01*
X034149Y023896D01*
X034176Y023924D01*
X034205Y023950D01*
X034236Y023973D01*
X034270Y023992D01*
X034306Y024008D01*
X034342Y024020D01*
X034380Y024029D01*
X034419Y024034D01*
X034458Y024035D01*
X034496Y024032D01*
X034535Y024025D01*
X034572Y024015D01*
X034608Y024000D01*
X034643Y023983D01*
X034676Y023962D01*
X034706Y023937D01*
X034734Y023910D01*
X034759Y023880D01*
X034781Y023848D01*
X034799Y023814D01*
X034814Y023778D01*
X034826Y023741D01*
X034834Y023703D01*
X034838Y023664D01*
X034838Y023626D01*
X034834Y023587D01*
X034826Y023549D01*
X034814Y023512D01*
X034799Y023476D01*
X034781Y023442D01*
X034759Y023410D01*
X034734Y023380D01*
X034706Y023353D01*
X034676Y023328D01*
X034643Y023307D01*
X034608Y023290D01*
X034572Y023275D01*
X034535Y023265D01*
X034496Y023258D01*
X034458Y023255D01*
X034419Y023256D01*
X034380Y023261D01*
X034342Y023270D01*
X034306Y023282D01*
X034270Y023298D01*
X034236Y023317D01*
X034205Y023340D01*
X034176Y023366D01*
X034149Y023394D01*
X034126Y023425D01*
X034105Y023458D01*
X034089Y023494D01*
X034075Y023530D01*
X034066Y023568D01*
X034060Y023606D01*
X034058Y023645D01*
X034048Y023245D02*
X034848Y024045D01*
X035058Y023645D02*
X035060Y023684D01*
X035066Y023722D01*
X035075Y023760D01*
X035089Y023796D01*
X035105Y023832D01*
X035126Y023865D01*
X035149Y023896D01*
X035176Y023924D01*
X035205Y023950D01*
X035236Y023973D01*
X035270Y023992D01*
X035306Y024008D01*
X035342Y024020D01*
X035380Y024029D01*
X035419Y024034D01*
X035458Y024035D01*
X035496Y024032D01*
X035535Y024025D01*
X035572Y024015D01*
X035608Y024000D01*
X035643Y023983D01*
X035676Y023962D01*
X035706Y023937D01*
X035734Y023910D01*
X035759Y023880D01*
X035781Y023848D01*
X035799Y023814D01*
X035814Y023778D01*
X035826Y023741D01*
X035834Y023703D01*
X035838Y023664D01*
X035838Y023626D01*
X035834Y023587D01*
X035826Y023549D01*
X035814Y023512D01*
X035799Y023476D01*
X035781Y023442D01*
X035759Y023410D01*
X035734Y023380D01*
X035706Y023353D01*
X035676Y023328D01*
X035643Y023307D01*
X035608Y023290D01*
X035572Y023275D01*
X035535Y023265D01*
X035496Y023258D01*
X035458Y023255D01*
X035419Y023256D01*
X035380Y023261D01*
X035342Y023270D01*
X035306Y023282D01*
X035270Y023298D01*
X035236Y023317D01*
X035205Y023340D01*
X035176Y023366D01*
X035149Y023394D01*
X035126Y023425D01*
X035105Y023458D01*
X035089Y023494D01*
X035075Y023530D01*
X035066Y023568D01*
X035060Y023606D01*
X035058Y023645D01*
X035048Y023245D02*
X035848Y024045D01*
X036058Y023645D02*
X036060Y023684D01*
X036066Y023722D01*
X036075Y023760D01*
X036089Y023796D01*
X036105Y023832D01*
X036126Y023865D01*
X036149Y023896D01*
X036176Y023924D01*
X036205Y023950D01*
X036236Y023973D01*
X036270Y023992D01*
X036306Y024008D01*
X036342Y024020D01*
X036380Y024029D01*
X036419Y024034D01*
X036458Y024035D01*
X036496Y024032D01*
X036535Y024025D01*
X036572Y024015D01*
X036608Y024000D01*
X036643Y023983D01*
X036676Y023962D01*
X036706Y023937D01*
X036734Y023910D01*
X036759Y023880D01*
X036781Y023848D01*
X036799Y023814D01*
X036814Y023778D01*
X036826Y023741D01*
X036834Y023703D01*
X036838Y023664D01*
X036838Y023626D01*
X036834Y023587D01*
X036826Y023549D01*
X036814Y023512D01*
X036799Y023476D01*
X036781Y023442D01*
X036759Y023410D01*
X036734Y023380D01*
X036706Y023353D01*
X036676Y023328D01*
X036643Y023307D01*
X036608Y023290D01*
X036572Y023275D01*
X036535Y023265D01*
X036496Y023258D01*
X036458Y023255D01*
X036419Y023256D01*
X036380Y023261D01*
X036342Y023270D01*
X036306Y023282D01*
X036270Y023298D01*
X036236Y023317D01*
X036205Y023340D01*
X036176Y023366D01*
X036149Y023394D01*
X036126Y023425D01*
X036105Y023458D01*
X036089Y023494D01*
X036075Y023530D01*
X036066Y023568D01*
X036060Y023606D01*
X036058Y023645D01*
X036048Y023245D02*
X036848Y024045D01*
X037058Y023645D02*
X037060Y023684D01*
X037066Y023722D01*
X037075Y023760D01*
X037089Y023796D01*
X037105Y023832D01*
X037126Y023865D01*
X037149Y023896D01*
X037176Y023924D01*
X037205Y023950D01*
X037236Y023973D01*
X037270Y023992D01*
X037306Y024008D01*
X037342Y024020D01*
X037380Y024029D01*
X037419Y024034D01*
X037458Y024035D01*
X037496Y024032D01*
X037535Y024025D01*
X037572Y024015D01*
X037608Y024000D01*
X037643Y023983D01*
X037676Y023962D01*
X037706Y023937D01*
X037734Y023910D01*
X037759Y023880D01*
X037781Y023848D01*
X037799Y023814D01*
X037814Y023778D01*
X037826Y023741D01*
X037834Y023703D01*
X037838Y023664D01*
X037838Y023626D01*
X037834Y023587D01*
X037826Y023549D01*
X037814Y023512D01*
X037799Y023476D01*
X037781Y023442D01*
X037759Y023410D01*
X037734Y023380D01*
X037706Y023353D01*
X037676Y023328D01*
X037643Y023307D01*
X037608Y023290D01*
X037572Y023275D01*
X037535Y023265D01*
X037496Y023258D01*
X037458Y023255D01*
X037419Y023256D01*
X037380Y023261D01*
X037342Y023270D01*
X037306Y023282D01*
X037270Y023298D01*
X037236Y023317D01*
X037205Y023340D01*
X037176Y023366D01*
X037149Y023394D01*
X037126Y023425D01*
X037105Y023458D01*
X037089Y023494D01*
X037075Y023530D01*
X037066Y023568D01*
X037060Y023606D01*
X037058Y023645D01*
X037048Y023245D02*
X037848Y024045D01*
X037590Y020974D02*
X037592Y021013D01*
X037598Y021051D01*
X037607Y021089D01*
X037621Y021125D01*
X037637Y021161D01*
X037658Y021194D01*
X037681Y021225D01*
X037708Y021253D01*
X037737Y021279D01*
X037768Y021302D01*
X037802Y021321D01*
X037838Y021337D01*
X037874Y021349D01*
X037912Y021358D01*
X037951Y021363D01*
X037990Y021364D01*
X038028Y021361D01*
X038067Y021354D01*
X038104Y021344D01*
X038140Y021329D01*
X038175Y021312D01*
X038208Y021291D01*
X038238Y021266D01*
X038266Y021239D01*
X038291Y021209D01*
X038313Y021177D01*
X038331Y021143D01*
X038346Y021107D01*
X038358Y021070D01*
X038366Y021032D01*
X038370Y020993D01*
X038370Y020955D01*
X038366Y020916D01*
X038358Y020878D01*
X038346Y020841D01*
X038331Y020805D01*
X038313Y020771D01*
X038291Y020739D01*
X038266Y020709D01*
X038238Y020682D01*
X038208Y020657D01*
X038175Y020636D01*
X038140Y020619D01*
X038104Y020604D01*
X038067Y020594D01*
X038028Y020587D01*
X037990Y020584D01*
X037951Y020585D01*
X037912Y020590D01*
X037874Y020599D01*
X037838Y020611D01*
X037802Y020627D01*
X037768Y020646D01*
X037737Y020669D01*
X037708Y020695D01*
X037681Y020723D01*
X037658Y020754D01*
X037637Y020787D01*
X037621Y020823D01*
X037607Y020859D01*
X037598Y020897D01*
X037592Y020935D01*
X037590Y020974D01*
X037580Y020574D02*
X038380Y021374D01*
X038590Y020974D02*
X038592Y021013D01*
X038598Y021051D01*
X038607Y021089D01*
X038621Y021125D01*
X038637Y021161D01*
X038658Y021194D01*
X038681Y021225D01*
X038708Y021253D01*
X038737Y021279D01*
X038768Y021302D01*
X038802Y021321D01*
X038838Y021337D01*
X038874Y021349D01*
X038912Y021358D01*
X038951Y021363D01*
X038990Y021364D01*
X039028Y021361D01*
X039067Y021354D01*
X039104Y021344D01*
X039140Y021329D01*
X039175Y021312D01*
X039208Y021291D01*
X039238Y021266D01*
X039266Y021239D01*
X039291Y021209D01*
X039313Y021177D01*
X039331Y021143D01*
X039346Y021107D01*
X039358Y021070D01*
X039366Y021032D01*
X039370Y020993D01*
X039370Y020955D01*
X039366Y020916D01*
X039358Y020878D01*
X039346Y020841D01*
X039331Y020805D01*
X039313Y020771D01*
X039291Y020739D01*
X039266Y020709D01*
X039238Y020682D01*
X039208Y020657D01*
X039175Y020636D01*
X039140Y020619D01*
X039104Y020604D01*
X039067Y020594D01*
X039028Y020587D01*
X038990Y020584D01*
X038951Y020585D01*
X038912Y020590D01*
X038874Y020599D01*
X038838Y020611D01*
X038802Y020627D01*
X038768Y020646D01*
X038737Y020669D01*
X038708Y020695D01*
X038681Y020723D01*
X038658Y020754D01*
X038637Y020787D01*
X038621Y020823D01*
X038607Y020859D01*
X038598Y020897D01*
X038592Y020935D01*
X038590Y020974D01*
X038580Y020574D02*
X039380Y021374D01*
X038590Y019974D02*
X038592Y020013D01*
X038598Y020051D01*
X038607Y020089D01*
X038621Y020125D01*
X038637Y020161D01*
X038658Y020194D01*
X038681Y020225D01*
X038708Y020253D01*
X038737Y020279D01*
X038768Y020302D01*
X038802Y020321D01*
X038838Y020337D01*
X038874Y020349D01*
X038912Y020358D01*
X038951Y020363D01*
X038990Y020364D01*
X039028Y020361D01*
X039067Y020354D01*
X039104Y020344D01*
X039140Y020329D01*
X039175Y020312D01*
X039208Y020291D01*
X039238Y020266D01*
X039266Y020239D01*
X039291Y020209D01*
X039313Y020177D01*
X039331Y020143D01*
X039346Y020107D01*
X039358Y020070D01*
X039366Y020032D01*
X039370Y019993D01*
X039370Y019955D01*
X039366Y019916D01*
X039358Y019878D01*
X039346Y019841D01*
X039331Y019805D01*
X039313Y019771D01*
X039291Y019739D01*
X039266Y019709D01*
X039238Y019682D01*
X039208Y019657D01*
X039175Y019636D01*
X039140Y019619D01*
X039104Y019604D01*
X039067Y019594D01*
X039028Y019587D01*
X038990Y019584D01*
X038951Y019585D01*
X038912Y019590D01*
X038874Y019599D01*
X038838Y019611D01*
X038802Y019627D01*
X038768Y019646D01*
X038737Y019669D01*
X038708Y019695D01*
X038681Y019723D01*
X038658Y019754D01*
X038637Y019787D01*
X038621Y019823D01*
X038607Y019859D01*
X038598Y019897D01*
X038592Y019935D01*
X038590Y019974D01*
X038580Y019574D02*
X039380Y020374D01*
X037590Y019974D02*
X037592Y020013D01*
X037598Y020051D01*
X037607Y020089D01*
X037621Y020125D01*
X037637Y020161D01*
X037658Y020194D01*
X037681Y020225D01*
X037708Y020253D01*
X037737Y020279D01*
X037768Y020302D01*
X037802Y020321D01*
X037838Y020337D01*
X037874Y020349D01*
X037912Y020358D01*
X037951Y020363D01*
X037990Y020364D01*
X038028Y020361D01*
X038067Y020354D01*
X038104Y020344D01*
X038140Y020329D01*
X038175Y020312D01*
X038208Y020291D01*
X038238Y020266D01*
X038266Y020239D01*
X038291Y020209D01*
X038313Y020177D01*
X038331Y020143D01*
X038346Y020107D01*
X038358Y020070D01*
X038366Y020032D01*
X038370Y019993D01*
X038370Y019955D01*
X038366Y019916D01*
X038358Y019878D01*
X038346Y019841D01*
X038331Y019805D01*
X038313Y019771D01*
X038291Y019739D01*
X038266Y019709D01*
X038238Y019682D01*
X038208Y019657D01*
X038175Y019636D01*
X038140Y019619D01*
X038104Y019604D01*
X038067Y019594D01*
X038028Y019587D01*
X037990Y019584D01*
X037951Y019585D01*
X037912Y019590D01*
X037874Y019599D01*
X037838Y019611D01*
X037802Y019627D01*
X037768Y019646D01*
X037737Y019669D01*
X037708Y019695D01*
X037681Y019723D01*
X037658Y019754D01*
X037637Y019787D01*
X037621Y019823D01*
X037607Y019859D01*
X037598Y019897D01*
X037592Y019935D01*
X037590Y019974D01*
X037580Y019574D02*
X038380Y020374D01*
X037590Y018974D02*
X037592Y019013D01*
X037598Y019051D01*
X037607Y019089D01*
X037621Y019125D01*
X037637Y019161D01*
X037658Y019194D01*
X037681Y019225D01*
X037708Y019253D01*
X037737Y019279D01*
X037768Y019302D01*
X037802Y019321D01*
X037838Y019337D01*
X037874Y019349D01*
X037912Y019358D01*
X037951Y019363D01*
X037990Y019364D01*
X038028Y019361D01*
X038067Y019354D01*
X038104Y019344D01*
X038140Y019329D01*
X038175Y019312D01*
X038208Y019291D01*
X038238Y019266D01*
X038266Y019239D01*
X038291Y019209D01*
X038313Y019177D01*
X038331Y019143D01*
X038346Y019107D01*
X038358Y019070D01*
X038366Y019032D01*
X038370Y018993D01*
X038370Y018955D01*
X038366Y018916D01*
X038358Y018878D01*
X038346Y018841D01*
X038331Y018805D01*
X038313Y018771D01*
X038291Y018739D01*
X038266Y018709D01*
X038238Y018682D01*
X038208Y018657D01*
X038175Y018636D01*
X038140Y018619D01*
X038104Y018604D01*
X038067Y018594D01*
X038028Y018587D01*
X037990Y018584D01*
X037951Y018585D01*
X037912Y018590D01*
X037874Y018599D01*
X037838Y018611D01*
X037802Y018627D01*
X037768Y018646D01*
X037737Y018669D01*
X037708Y018695D01*
X037681Y018723D01*
X037658Y018754D01*
X037637Y018787D01*
X037621Y018823D01*
X037607Y018859D01*
X037598Y018897D01*
X037592Y018935D01*
X037590Y018974D01*
X037580Y018574D02*
X038380Y019374D01*
X038590Y018974D02*
X038592Y019013D01*
X038598Y019051D01*
X038607Y019089D01*
X038621Y019125D01*
X038637Y019161D01*
X038658Y019194D01*
X038681Y019225D01*
X038708Y019253D01*
X038737Y019279D01*
X038768Y019302D01*
X038802Y019321D01*
X038838Y019337D01*
X038874Y019349D01*
X038912Y019358D01*
X038951Y019363D01*
X038990Y019364D01*
X039028Y019361D01*
X039067Y019354D01*
X039104Y019344D01*
X039140Y019329D01*
X039175Y019312D01*
X039208Y019291D01*
X039238Y019266D01*
X039266Y019239D01*
X039291Y019209D01*
X039313Y019177D01*
X039331Y019143D01*
X039346Y019107D01*
X039358Y019070D01*
X039366Y019032D01*
X039370Y018993D01*
X039370Y018955D01*
X039366Y018916D01*
X039358Y018878D01*
X039346Y018841D01*
X039331Y018805D01*
X039313Y018771D01*
X039291Y018739D01*
X039266Y018709D01*
X039238Y018682D01*
X039208Y018657D01*
X039175Y018636D01*
X039140Y018619D01*
X039104Y018604D01*
X039067Y018594D01*
X039028Y018587D01*
X038990Y018584D01*
X038951Y018585D01*
X038912Y018590D01*
X038874Y018599D01*
X038838Y018611D01*
X038802Y018627D01*
X038768Y018646D01*
X038737Y018669D01*
X038708Y018695D01*
X038681Y018723D01*
X038658Y018754D01*
X038637Y018787D01*
X038621Y018823D01*
X038607Y018859D01*
X038598Y018897D01*
X038592Y018935D01*
X038590Y018974D01*
X038580Y018574D02*
X039380Y019374D01*
X038590Y017974D02*
X038592Y018013D01*
X038598Y018051D01*
X038607Y018089D01*
X038621Y018125D01*
X038637Y018161D01*
X038658Y018194D01*
X038681Y018225D01*
X038708Y018253D01*
X038737Y018279D01*
X038768Y018302D01*
X038802Y018321D01*
X038838Y018337D01*
X038874Y018349D01*
X038912Y018358D01*
X038951Y018363D01*
X038990Y018364D01*
X039028Y018361D01*
X039067Y018354D01*
X039104Y018344D01*
X039140Y018329D01*
X039175Y018312D01*
X039208Y018291D01*
X039238Y018266D01*
X039266Y018239D01*
X039291Y018209D01*
X039313Y018177D01*
X039331Y018143D01*
X039346Y018107D01*
X039358Y018070D01*
X039366Y018032D01*
X039370Y017993D01*
X039370Y017955D01*
X039366Y017916D01*
X039358Y017878D01*
X039346Y017841D01*
X039331Y017805D01*
X039313Y017771D01*
X039291Y017739D01*
X039266Y017709D01*
X039238Y017682D01*
X039208Y017657D01*
X039175Y017636D01*
X039140Y017619D01*
X039104Y017604D01*
X039067Y017594D01*
X039028Y017587D01*
X038990Y017584D01*
X038951Y017585D01*
X038912Y017590D01*
X038874Y017599D01*
X038838Y017611D01*
X038802Y017627D01*
X038768Y017646D01*
X038737Y017669D01*
X038708Y017695D01*
X038681Y017723D01*
X038658Y017754D01*
X038637Y017787D01*
X038621Y017823D01*
X038607Y017859D01*
X038598Y017897D01*
X038592Y017935D01*
X038590Y017974D01*
X038580Y017574D02*
X039380Y018374D01*
X037590Y017974D02*
X037592Y018013D01*
X037598Y018051D01*
X037607Y018089D01*
X037621Y018125D01*
X037637Y018161D01*
X037658Y018194D01*
X037681Y018225D01*
X037708Y018253D01*
X037737Y018279D01*
X037768Y018302D01*
X037802Y018321D01*
X037838Y018337D01*
X037874Y018349D01*
X037912Y018358D01*
X037951Y018363D01*
X037990Y018364D01*
X038028Y018361D01*
X038067Y018354D01*
X038104Y018344D01*
X038140Y018329D01*
X038175Y018312D01*
X038208Y018291D01*
X038238Y018266D01*
X038266Y018239D01*
X038291Y018209D01*
X038313Y018177D01*
X038331Y018143D01*
X038346Y018107D01*
X038358Y018070D01*
X038366Y018032D01*
X038370Y017993D01*
X038370Y017955D01*
X038366Y017916D01*
X038358Y017878D01*
X038346Y017841D01*
X038331Y017805D01*
X038313Y017771D01*
X038291Y017739D01*
X038266Y017709D01*
X038238Y017682D01*
X038208Y017657D01*
X038175Y017636D01*
X038140Y017619D01*
X038104Y017604D01*
X038067Y017594D01*
X038028Y017587D01*
X037990Y017584D01*
X037951Y017585D01*
X037912Y017590D01*
X037874Y017599D01*
X037838Y017611D01*
X037802Y017627D01*
X037768Y017646D01*
X037737Y017669D01*
X037708Y017695D01*
X037681Y017723D01*
X037658Y017754D01*
X037637Y017787D01*
X037621Y017823D01*
X037607Y017859D01*
X037598Y017897D01*
X037592Y017935D01*
X037590Y017974D01*
X037580Y017574D02*
X038380Y018374D01*
X037590Y016974D02*
X037592Y017013D01*
X037598Y017051D01*
X037607Y017089D01*
X037621Y017125D01*
X037637Y017161D01*
X037658Y017194D01*
X037681Y017225D01*
X037708Y017253D01*
X037737Y017279D01*
X037768Y017302D01*
X037802Y017321D01*
X037838Y017337D01*
X037874Y017349D01*
X037912Y017358D01*
X037951Y017363D01*
X037990Y017364D01*
X038028Y017361D01*
X038067Y017354D01*
X038104Y017344D01*
X038140Y017329D01*
X038175Y017312D01*
X038208Y017291D01*
X038238Y017266D01*
X038266Y017239D01*
X038291Y017209D01*
X038313Y017177D01*
X038331Y017143D01*
X038346Y017107D01*
X038358Y017070D01*
X038366Y017032D01*
X038370Y016993D01*
X038370Y016955D01*
X038366Y016916D01*
X038358Y016878D01*
X038346Y016841D01*
X038331Y016805D01*
X038313Y016771D01*
X038291Y016739D01*
X038266Y016709D01*
X038238Y016682D01*
X038208Y016657D01*
X038175Y016636D01*
X038140Y016619D01*
X038104Y016604D01*
X038067Y016594D01*
X038028Y016587D01*
X037990Y016584D01*
X037951Y016585D01*
X037912Y016590D01*
X037874Y016599D01*
X037838Y016611D01*
X037802Y016627D01*
X037768Y016646D01*
X037737Y016669D01*
X037708Y016695D01*
X037681Y016723D01*
X037658Y016754D01*
X037637Y016787D01*
X037621Y016823D01*
X037607Y016859D01*
X037598Y016897D01*
X037592Y016935D01*
X037590Y016974D01*
X037580Y016574D02*
X038380Y017374D01*
X038590Y016974D02*
X038592Y017013D01*
X038598Y017051D01*
X038607Y017089D01*
X038621Y017125D01*
X038637Y017161D01*
X038658Y017194D01*
X038681Y017225D01*
X038708Y017253D01*
X038737Y017279D01*
X038768Y017302D01*
X038802Y017321D01*
X038838Y017337D01*
X038874Y017349D01*
X038912Y017358D01*
X038951Y017363D01*
X038990Y017364D01*
X039028Y017361D01*
X039067Y017354D01*
X039104Y017344D01*
X039140Y017329D01*
X039175Y017312D01*
X039208Y017291D01*
X039238Y017266D01*
X039266Y017239D01*
X039291Y017209D01*
X039313Y017177D01*
X039331Y017143D01*
X039346Y017107D01*
X039358Y017070D01*
X039366Y017032D01*
X039370Y016993D01*
X039370Y016955D01*
X039366Y016916D01*
X039358Y016878D01*
X039346Y016841D01*
X039331Y016805D01*
X039313Y016771D01*
X039291Y016739D01*
X039266Y016709D01*
X039238Y016682D01*
X039208Y016657D01*
X039175Y016636D01*
X039140Y016619D01*
X039104Y016604D01*
X039067Y016594D01*
X039028Y016587D01*
X038990Y016584D01*
X038951Y016585D01*
X038912Y016590D01*
X038874Y016599D01*
X038838Y016611D01*
X038802Y016627D01*
X038768Y016646D01*
X038737Y016669D01*
X038708Y016695D01*
X038681Y016723D01*
X038658Y016754D01*
X038637Y016787D01*
X038621Y016823D01*
X038607Y016859D01*
X038598Y016897D01*
X038592Y016935D01*
X038590Y016974D01*
X038580Y016574D02*
X039380Y017374D01*
X038590Y015974D02*
X038592Y016013D01*
X038598Y016051D01*
X038607Y016089D01*
X038621Y016125D01*
X038637Y016161D01*
X038658Y016194D01*
X038681Y016225D01*
X038708Y016253D01*
X038737Y016279D01*
X038768Y016302D01*
X038802Y016321D01*
X038838Y016337D01*
X038874Y016349D01*
X038912Y016358D01*
X038951Y016363D01*
X038990Y016364D01*
X039028Y016361D01*
X039067Y016354D01*
X039104Y016344D01*
X039140Y016329D01*
X039175Y016312D01*
X039208Y016291D01*
X039238Y016266D01*
X039266Y016239D01*
X039291Y016209D01*
X039313Y016177D01*
X039331Y016143D01*
X039346Y016107D01*
X039358Y016070D01*
X039366Y016032D01*
X039370Y015993D01*
X039370Y015955D01*
X039366Y015916D01*
X039358Y015878D01*
X039346Y015841D01*
X039331Y015805D01*
X039313Y015771D01*
X039291Y015739D01*
X039266Y015709D01*
X039238Y015682D01*
X039208Y015657D01*
X039175Y015636D01*
X039140Y015619D01*
X039104Y015604D01*
X039067Y015594D01*
X039028Y015587D01*
X038990Y015584D01*
X038951Y015585D01*
X038912Y015590D01*
X038874Y015599D01*
X038838Y015611D01*
X038802Y015627D01*
X038768Y015646D01*
X038737Y015669D01*
X038708Y015695D01*
X038681Y015723D01*
X038658Y015754D01*
X038637Y015787D01*
X038621Y015823D01*
X038607Y015859D01*
X038598Y015897D01*
X038592Y015935D01*
X038590Y015974D01*
X038580Y015574D02*
X039380Y016374D01*
X037590Y015974D02*
X037592Y016013D01*
X037598Y016051D01*
X037607Y016089D01*
X037621Y016125D01*
X037637Y016161D01*
X037658Y016194D01*
X037681Y016225D01*
X037708Y016253D01*
X037737Y016279D01*
X037768Y016302D01*
X037802Y016321D01*
X037838Y016337D01*
X037874Y016349D01*
X037912Y016358D01*
X037951Y016363D01*
X037990Y016364D01*
X038028Y016361D01*
X038067Y016354D01*
X038104Y016344D01*
X038140Y016329D01*
X038175Y016312D01*
X038208Y016291D01*
X038238Y016266D01*
X038266Y016239D01*
X038291Y016209D01*
X038313Y016177D01*
X038331Y016143D01*
X038346Y016107D01*
X038358Y016070D01*
X038366Y016032D01*
X038370Y015993D01*
X038370Y015955D01*
X038366Y015916D01*
X038358Y015878D01*
X038346Y015841D01*
X038331Y015805D01*
X038313Y015771D01*
X038291Y015739D01*
X038266Y015709D01*
X038238Y015682D01*
X038208Y015657D01*
X038175Y015636D01*
X038140Y015619D01*
X038104Y015604D01*
X038067Y015594D01*
X038028Y015587D01*
X037990Y015584D01*
X037951Y015585D01*
X037912Y015590D01*
X037874Y015599D01*
X037838Y015611D01*
X037802Y015627D01*
X037768Y015646D01*
X037737Y015669D01*
X037708Y015695D01*
X037681Y015723D01*
X037658Y015754D01*
X037637Y015787D01*
X037621Y015823D01*
X037607Y015859D01*
X037598Y015897D01*
X037592Y015935D01*
X037590Y015974D01*
X037580Y015574D02*
X038380Y016374D01*
X037590Y014974D02*
X037592Y015013D01*
X037598Y015051D01*
X037607Y015089D01*
X037621Y015125D01*
X037637Y015161D01*
X037658Y015194D01*
X037681Y015225D01*
X037708Y015253D01*
X037737Y015279D01*
X037768Y015302D01*
X037802Y015321D01*
X037838Y015337D01*
X037874Y015349D01*
X037912Y015358D01*
X037951Y015363D01*
X037990Y015364D01*
X038028Y015361D01*
X038067Y015354D01*
X038104Y015344D01*
X038140Y015329D01*
X038175Y015312D01*
X038208Y015291D01*
X038238Y015266D01*
X038266Y015239D01*
X038291Y015209D01*
X038313Y015177D01*
X038331Y015143D01*
X038346Y015107D01*
X038358Y015070D01*
X038366Y015032D01*
X038370Y014993D01*
X038370Y014955D01*
X038366Y014916D01*
X038358Y014878D01*
X038346Y014841D01*
X038331Y014805D01*
X038313Y014771D01*
X038291Y014739D01*
X038266Y014709D01*
X038238Y014682D01*
X038208Y014657D01*
X038175Y014636D01*
X038140Y014619D01*
X038104Y014604D01*
X038067Y014594D01*
X038028Y014587D01*
X037990Y014584D01*
X037951Y014585D01*
X037912Y014590D01*
X037874Y014599D01*
X037838Y014611D01*
X037802Y014627D01*
X037768Y014646D01*
X037737Y014669D01*
X037708Y014695D01*
X037681Y014723D01*
X037658Y014754D01*
X037637Y014787D01*
X037621Y014823D01*
X037607Y014859D01*
X037598Y014897D01*
X037592Y014935D01*
X037590Y014974D01*
X037580Y014574D02*
X038380Y015374D01*
X038590Y014974D02*
X038592Y015013D01*
X038598Y015051D01*
X038607Y015089D01*
X038621Y015125D01*
X038637Y015161D01*
X038658Y015194D01*
X038681Y015225D01*
X038708Y015253D01*
X038737Y015279D01*
X038768Y015302D01*
X038802Y015321D01*
X038838Y015337D01*
X038874Y015349D01*
X038912Y015358D01*
X038951Y015363D01*
X038990Y015364D01*
X039028Y015361D01*
X039067Y015354D01*
X039104Y015344D01*
X039140Y015329D01*
X039175Y015312D01*
X039208Y015291D01*
X039238Y015266D01*
X039266Y015239D01*
X039291Y015209D01*
X039313Y015177D01*
X039331Y015143D01*
X039346Y015107D01*
X039358Y015070D01*
X039366Y015032D01*
X039370Y014993D01*
X039370Y014955D01*
X039366Y014916D01*
X039358Y014878D01*
X039346Y014841D01*
X039331Y014805D01*
X039313Y014771D01*
X039291Y014739D01*
X039266Y014709D01*
X039238Y014682D01*
X039208Y014657D01*
X039175Y014636D01*
X039140Y014619D01*
X039104Y014604D01*
X039067Y014594D01*
X039028Y014587D01*
X038990Y014584D01*
X038951Y014585D01*
X038912Y014590D01*
X038874Y014599D01*
X038838Y014611D01*
X038802Y014627D01*
X038768Y014646D01*
X038737Y014669D01*
X038708Y014695D01*
X038681Y014723D01*
X038658Y014754D01*
X038637Y014787D01*
X038621Y014823D01*
X038607Y014859D01*
X038598Y014897D01*
X038592Y014935D01*
X038590Y014974D01*
X038580Y014574D02*
X039380Y015374D01*
X038590Y013974D02*
X038592Y014013D01*
X038598Y014051D01*
X038607Y014089D01*
X038621Y014125D01*
X038637Y014161D01*
X038658Y014194D01*
X038681Y014225D01*
X038708Y014253D01*
X038737Y014279D01*
X038768Y014302D01*
X038802Y014321D01*
X038838Y014337D01*
X038874Y014349D01*
X038912Y014358D01*
X038951Y014363D01*
X038990Y014364D01*
X039028Y014361D01*
X039067Y014354D01*
X039104Y014344D01*
X039140Y014329D01*
X039175Y014312D01*
X039208Y014291D01*
X039238Y014266D01*
X039266Y014239D01*
X039291Y014209D01*
X039313Y014177D01*
X039331Y014143D01*
X039346Y014107D01*
X039358Y014070D01*
X039366Y014032D01*
X039370Y013993D01*
X039370Y013955D01*
X039366Y013916D01*
X039358Y013878D01*
X039346Y013841D01*
X039331Y013805D01*
X039313Y013771D01*
X039291Y013739D01*
X039266Y013709D01*
X039238Y013682D01*
X039208Y013657D01*
X039175Y013636D01*
X039140Y013619D01*
X039104Y013604D01*
X039067Y013594D01*
X039028Y013587D01*
X038990Y013584D01*
X038951Y013585D01*
X038912Y013590D01*
X038874Y013599D01*
X038838Y013611D01*
X038802Y013627D01*
X038768Y013646D01*
X038737Y013669D01*
X038708Y013695D01*
X038681Y013723D01*
X038658Y013754D01*
X038637Y013787D01*
X038621Y013823D01*
X038607Y013859D01*
X038598Y013897D01*
X038592Y013935D01*
X038590Y013974D01*
X038580Y013574D02*
X039380Y014374D01*
X037590Y013974D02*
X037592Y014013D01*
X037598Y014051D01*
X037607Y014089D01*
X037621Y014125D01*
X037637Y014161D01*
X037658Y014194D01*
X037681Y014225D01*
X037708Y014253D01*
X037737Y014279D01*
X037768Y014302D01*
X037802Y014321D01*
X037838Y014337D01*
X037874Y014349D01*
X037912Y014358D01*
X037951Y014363D01*
X037990Y014364D01*
X038028Y014361D01*
X038067Y014354D01*
X038104Y014344D01*
X038140Y014329D01*
X038175Y014312D01*
X038208Y014291D01*
X038238Y014266D01*
X038266Y014239D01*
X038291Y014209D01*
X038313Y014177D01*
X038331Y014143D01*
X038346Y014107D01*
X038358Y014070D01*
X038366Y014032D01*
X038370Y013993D01*
X038370Y013955D01*
X038366Y013916D01*
X038358Y013878D01*
X038346Y013841D01*
X038331Y013805D01*
X038313Y013771D01*
X038291Y013739D01*
X038266Y013709D01*
X038238Y013682D01*
X038208Y013657D01*
X038175Y013636D01*
X038140Y013619D01*
X038104Y013604D01*
X038067Y013594D01*
X038028Y013587D01*
X037990Y013584D01*
X037951Y013585D01*
X037912Y013590D01*
X037874Y013599D01*
X037838Y013611D01*
X037802Y013627D01*
X037768Y013646D01*
X037737Y013669D01*
X037708Y013695D01*
X037681Y013723D01*
X037658Y013754D01*
X037637Y013787D01*
X037621Y013823D01*
X037607Y013859D01*
X037598Y013897D01*
X037592Y013935D01*
X037590Y013974D01*
X037580Y013574D02*
X038380Y014374D01*
X037590Y011874D02*
X037592Y011913D01*
X037598Y011951D01*
X037607Y011989D01*
X037621Y012025D01*
X037637Y012061D01*
X037658Y012094D01*
X037681Y012125D01*
X037708Y012153D01*
X037737Y012179D01*
X037768Y012202D01*
X037802Y012221D01*
X037838Y012237D01*
X037874Y012249D01*
X037912Y012258D01*
X037951Y012263D01*
X037990Y012264D01*
X038028Y012261D01*
X038067Y012254D01*
X038104Y012244D01*
X038140Y012229D01*
X038175Y012212D01*
X038208Y012191D01*
X038238Y012166D01*
X038266Y012139D01*
X038291Y012109D01*
X038313Y012077D01*
X038331Y012043D01*
X038346Y012007D01*
X038358Y011970D01*
X038366Y011932D01*
X038370Y011893D01*
X038370Y011855D01*
X038366Y011816D01*
X038358Y011778D01*
X038346Y011741D01*
X038331Y011705D01*
X038313Y011671D01*
X038291Y011639D01*
X038266Y011609D01*
X038238Y011582D01*
X038208Y011557D01*
X038175Y011536D01*
X038140Y011519D01*
X038104Y011504D01*
X038067Y011494D01*
X038028Y011487D01*
X037990Y011484D01*
X037951Y011485D01*
X037912Y011490D01*
X037874Y011499D01*
X037838Y011511D01*
X037802Y011527D01*
X037768Y011546D01*
X037737Y011569D01*
X037708Y011595D01*
X037681Y011623D01*
X037658Y011654D01*
X037637Y011687D01*
X037621Y011723D01*
X037607Y011759D01*
X037598Y011797D01*
X037592Y011835D01*
X037590Y011874D01*
X037580Y011474D02*
X038380Y012274D01*
X038590Y011874D02*
X038592Y011913D01*
X038598Y011951D01*
X038607Y011989D01*
X038621Y012025D01*
X038637Y012061D01*
X038658Y012094D01*
X038681Y012125D01*
X038708Y012153D01*
X038737Y012179D01*
X038768Y012202D01*
X038802Y012221D01*
X038838Y012237D01*
X038874Y012249D01*
X038912Y012258D01*
X038951Y012263D01*
X038990Y012264D01*
X039028Y012261D01*
X039067Y012254D01*
X039104Y012244D01*
X039140Y012229D01*
X039175Y012212D01*
X039208Y012191D01*
X039238Y012166D01*
X039266Y012139D01*
X039291Y012109D01*
X039313Y012077D01*
X039331Y012043D01*
X039346Y012007D01*
X039358Y011970D01*
X039366Y011932D01*
X039370Y011893D01*
X039370Y011855D01*
X039366Y011816D01*
X039358Y011778D01*
X039346Y011741D01*
X039331Y011705D01*
X039313Y011671D01*
X039291Y011639D01*
X039266Y011609D01*
X039238Y011582D01*
X039208Y011557D01*
X039175Y011536D01*
X039140Y011519D01*
X039104Y011504D01*
X039067Y011494D01*
X039028Y011487D01*
X038990Y011484D01*
X038951Y011485D01*
X038912Y011490D01*
X038874Y011499D01*
X038838Y011511D01*
X038802Y011527D01*
X038768Y011546D01*
X038737Y011569D01*
X038708Y011595D01*
X038681Y011623D01*
X038658Y011654D01*
X038637Y011687D01*
X038621Y011723D01*
X038607Y011759D01*
X038598Y011797D01*
X038592Y011835D01*
X038590Y011874D01*
X038580Y011474D02*
X039380Y012274D01*
X038590Y010874D02*
X038592Y010913D01*
X038598Y010951D01*
X038607Y010989D01*
X038621Y011025D01*
X038637Y011061D01*
X038658Y011094D01*
X038681Y011125D01*
X038708Y011153D01*
X038737Y011179D01*
X038768Y011202D01*
X038802Y011221D01*
X038838Y011237D01*
X038874Y011249D01*
X038912Y011258D01*
X038951Y011263D01*
X038990Y011264D01*
X039028Y011261D01*
X039067Y011254D01*
X039104Y011244D01*
X039140Y011229D01*
X039175Y011212D01*
X039208Y011191D01*
X039238Y011166D01*
X039266Y011139D01*
X039291Y011109D01*
X039313Y011077D01*
X039331Y011043D01*
X039346Y011007D01*
X039358Y010970D01*
X039366Y010932D01*
X039370Y010893D01*
X039370Y010855D01*
X039366Y010816D01*
X039358Y010778D01*
X039346Y010741D01*
X039331Y010705D01*
X039313Y010671D01*
X039291Y010639D01*
X039266Y010609D01*
X039238Y010582D01*
X039208Y010557D01*
X039175Y010536D01*
X039140Y010519D01*
X039104Y010504D01*
X039067Y010494D01*
X039028Y010487D01*
X038990Y010484D01*
X038951Y010485D01*
X038912Y010490D01*
X038874Y010499D01*
X038838Y010511D01*
X038802Y010527D01*
X038768Y010546D01*
X038737Y010569D01*
X038708Y010595D01*
X038681Y010623D01*
X038658Y010654D01*
X038637Y010687D01*
X038621Y010723D01*
X038607Y010759D01*
X038598Y010797D01*
X038592Y010835D01*
X038590Y010874D01*
X038580Y010474D02*
X039380Y011274D01*
X037590Y010874D02*
X037592Y010913D01*
X037598Y010951D01*
X037607Y010989D01*
X037621Y011025D01*
X037637Y011061D01*
X037658Y011094D01*
X037681Y011125D01*
X037708Y011153D01*
X037737Y011179D01*
X037768Y011202D01*
X037802Y011221D01*
X037838Y011237D01*
X037874Y011249D01*
X037912Y011258D01*
X037951Y011263D01*
X037990Y011264D01*
X038028Y011261D01*
X038067Y011254D01*
X038104Y011244D01*
X038140Y011229D01*
X038175Y011212D01*
X038208Y011191D01*
X038238Y011166D01*
X038266Y011139D01*
X038291Y011109D01*
X038313Y011077D01*
X038331Y011043D01*
X038346Y011007D01*
X038358Y010970D01*
X038366Y010932D01*
X038370Y010893D01*
X038370Y010855D01*
X038366Y010816D01*
X038358Y010778D01*
X038346Y010741D01*
X038331Y010705D01*
X038313Y010671D01*
X038291Y010639D01*
X038266Y010609D01*
X038238Y010582D01*
X038208Y010557D01*
X038175Y010536D01*
X038140Y010519D01*
X038104Y010504D01*
X038067Y010494D01*
X038028Y010487D01*
X037990Y010484D01*
X037951Y010485D01*
X037912Y010490D01*
X037874Y010499D01*
X037838Y010511D01*
X037802Y010527D01*
X037768Y010546D01*
X037737Y010569D01*
X037708Y010595D01*
X037681Y010623D01*
X037658Y010654D01*
X037637Y010687D01*
X037621Y010723D01*
X037607Y010759D01*
X037598Y010797D01*
X037592Y010835D01*
X037590Y010874D01*
X037580Y010474D02*
X038380Y011274D01*
X037590Y009874D02*
X037592Y009913D01*
X037598Y009951D01*
X037607Y009989D01*
X037621Y010025D01*
X037637Y010061D01*
X037658Y010094D01*
X037681Y010125D01*
X037708Y010153D01*
X037737Y010179D01*
X037768Y010202D01*
X037802Y010221D01*
X037838Y010237D01*
X037874Y010249D01*
X037912Y010258D01*
X037951Y010263D01*
X037990Y010264D01*
X038028Y010261D01*
X038067Y010254D01*
X038104Y010244D01*
X038140Y010229D01*
X038175Y010212D01*
X038208Y010191D01*
X038238Y010166D01*
X038266Y010139D01*
X038291Y010109D01*
X038313Y010077D01*
X038331Y010043D01*
X038346Y010007D01*
X038358Y009970D01*
X038366Y009932D01*
X038370Y009893D01*
X038370Y009855D01*
X038366Y009816D01*
X038358Y009778D01*
X038346Y009741D01*
X038331Y009705D01*
X038313Y009671D01*
X038291Y009639D01*
X038266Y009609D01*
X038238Y009582D01*
X038208Y009557D01*
X038175Y009536D01*
X038140Y009519D01*
X038104Y009504D01*
X038067Y009494D01*
X038028Y009487D01*
X037990Y009484D01*
X037951Y009485D01*
X037912Y009490D01*
X037874Y009499D01*
X037838Y009511D01*
X037802Y009527D01*
X037768Y009546D01*
X037737Y009569D01*
X037708Y009595D01*
X037681Y009623D01*
X037658Y009654D01*
X037637Y009687D01*
X037621Y009723D01*
X037607Y009759D01*
X037598Y009797D01*
X037592Y009835D01*
X037590Y009874D01*
X037580Y009474D02*
X038380Y010274D01*
X038590Y009874D02*
X038592Y009913D01*
X038598Y009951D01*
X038607Y009989D01*
X038621Y010025D01*
X038637Y010061D01*
X038658Y010094D01*
X038681Y010125D01*
X038708Y010153D01*
X038737Y010179D01*
X038768Y010202D01*
X038802Y010221D01*
X038838Y010237D01*
X038874Y010249D01*
X038912Y010258D01*
X038951Y010263D01*
X038990Y010264D01*
X039028Y010261D01*
X039067Y010254D01*
X039104Y010244D01*
X039140Y010229D01*
X039175Y010212D01*
X039208Y010191D01*
X039238Y010166D01*
X039266Y010139D01*
X039291Y010109D01*
X039313Y010077D01*
X039331Y010043D01*
X039346Y010007D01*
X039358Y009970D01*
X039366Y009932D01*
X039370Y009893D01*
X039370Y009855D01*
X039366Y009816D01*
X039358Y009778D01*
X039346Y009741D01*
X039331Y009705D01*
X039313Y009671D01*
X039291Y009639D01*
X039266Y009609D01*
X039238Y009582D01*
X039208Y009557D01*
X039175Y009536D01*
X039140Y009519D01*
X039104Y009504D01*
X039067Y009494D01*
X039028Y009487D01*
X038990Y009484D01*
X038951Y009485D01*
X038912Y009490D01*
X038874Y009499D01*
X038838Y009511D01*
X038802Y009527D01*
X038768Y009546D01*
X038737Y009569D01*
X038708Y009595D01*
X038681Y009623D01*
X038658Y009654D01*
X038637Y009687D01*
X038621Y009723D01*
X038607Y009759D01*
X038598Y009797D01*
X038592Y009835D01*
X038590Y009874D01*
X038580Y009474D02*
X039380Y010274D01*
X038590Y008874D02*
X038592Y008913D01*
X038598Y008951D01*
X038607Y008989D01*
X038621Y009025D01*
X038637Y009061D01*
X038658Y009094D01*
X038681Y009125D01*
X038708Y009153D01*
X038737Y009179D01*
X038768Y009202D01*
X038802Y009221D01*
X038838Y009237D01*
X038874Y009249D01*
X038912Y009258D01*
X038951Y009263D01*
X038990Y009264D01*
X039028Y009261D01*
X039067Y009254D01*
X039104Y009244D01*
X039140Y009229D01*
X039175Y009212D01*
X039208Y009191D01*
X039238Y009166D01*
X039266Y009139D01*
X039291Y009109D01*
X039313Y009077D01*
X039331Y009043D01*
X039346Y009007D01*
X039358Y008970D01*
X039366Y008932D01*
X039370Y008893D01*
X039370Y008855D01*
X039366Y008816D01*
X039358Y008778D01*
X039346Y008741D01*
X039331Y008705D01*
X039313Y008671D01*
X039291Y008639D01*
X039266Y008609D01*
X039238Y008582D01*
X039208Y008557D01*
X039175Y008536D01*
X039140Y008519D01*
X039104Y008504D01*
X039067Y008494D01*
X039028Y008487D01*
X038990Y008484D01*
X038951Y008485D01*
X038912Y008490D01*
X038874Y008499D01*
X038838Y008511D01*
X038802Y008527D01*
X038768Y008546D01*
X038737Y008569D01*
X038708Y008595D01*
X038681Y008623D01*
X038658Y008654D01*
X038637Y008687D01*
X038621Y008723D01*
X038607Y008759D01*
X038598Y008797D01*
X038592Y008835D01*
X038590Y008874D01*
X038580Y008474D02*
X039380Y009274D01*
X037590Y008874D02*
X037592Y008913D01*
X037598Y008951D01*
X037607Y008989D01*
X037621Y009025D01*
X037637Y009061D01*
X037658Y009094D01*
X037681Y009125D01*
X037708Y009153D01*
X037737Y009179D01*
X037768Y009202D01*
X037802Y009221D01*
X037838Y009237D01*
X037874Y009249D01*
X037912Y009258D01*
X037951Y009263D01*
X037990Y009264D01*
X038028Y009261D01*
X038067Y009254D01*
X038104Y009244D01*
X038140Y009229D01*
X038175Y009212D01*
X038208Y009191D01*
X038238Y009166D01*
X038266Y009139D01*
X038291Y009109D01*
X038313Y009077D01*
X038331Y009043D01*
X038346Y009007D01*
X038358Y008970D01*
X038366Y008932D01*
X038370Y008893D01*
X038370Y008855D01*
X038366Y008816D01*
X038358Y008778D01*
X038346Y008741D01*
X038331Y008705D01*
X038313Y008671D01*
X038291Y008639D01*
X038266Y008609D01*
X038238Y008582D01*
X038208Y008557D01*
X038175Y008536D01*
X038140Y008519D01*
X038104Y008504D01*
X038067Y008494D01*
X038028Y008487D01*
X037990Y008484D01*
X037951Y008485D01*
X037912Y008490D01*
X037874Y008499D01*
X037838Y008511D01*
X037802Y008527D01*
X037768Y008546D01*
X037737Y008569D01*
X037708Y008595D01*
X037681Y008623D01*
X037658Y008654D01*
X037637Y008687D01*
X037621Y008723D01*
X037607Y008759D01*
X037598Y008797D01*
X037592Y008835D01*
X037590Y008874D01*
X037580Y008474D02*
X038380Y009274D01*
X035619Y008499D02*
X034819Y009299D01*
X034819Y008499D02*
X035619Y009299D01*
X035147Y009168D02*
X034347Y009968D01*
X034347Y009168D02*
X035147Y009968D01*
X035619Y010499D02*
X034819Y011299D01*
X034819Y010499D02*
X035619Y011299D01*
X035108Y011294D02*
X034308Y012094D01*
X034308Y011294D02*
X035108Y012094D01*
X035147Y011924D02*
X034347Y012724D01*
X034347Y011924D02*
X035147Y012724D01*
X032930Y011228D02*
X033730Y010428D01*
X032930Y010428D02*
X033730Y011228D01*
X032667Y012081D02*
X031867Y012881D01*
X031867Y012081D02*
X032667Y012881D01*
X032194Y012436D02*
X031394Y013236D01*
X031394Y012436D02*
X032194Y013236D01*
X031564Y012790D02*
X030764Y013590D01*
X030764Y012790D02*
X031564Y013590D01*
X027982Y015310D02*
X027182Y016110D01*
X027182Y015310D02*
X027982Y016110D01*
X024989Y013105D02*
X024189Y013905D01*
X024189Y013105D02*
X024989Y013905D01*
X024045Y014404D02*
X023245Y015204D01*
X023245Y014404D02*
X024045Y015204D01*
X023415Y014483D02*
X022615Y015283D01*
X022615Y014483D02*
X023415Y015283D01*
X022391Y015074D02*
X021591Y015874D01*
X021591Y015074D02*
X022391Y015874D01*
X021486Y014326D02*
X020686Y015126D01*
X020686Y014326D02*
X021486Y015126D01*
X020934Y014719D02*
X020134Y015519D01*
X020134Y014719D02*
X020934Y015519D01*
X019280Y015374D02*
X018480Y016174D01*
X018480Y015374D02*
X019280Y016174D01*
X018780Y015274D02*
X017980Y016074D01*
X017980Y015274D02*
X018780Y016074D01*
X018280Y015446D02*
X017480Y016246D01*
X017480Y015446D02*
X018280Y016246D01*
X018611Y017357D02*
X017811Y018157D01*
X017811Y017357D02*
X018611Y018157D01*
X018021Y017357D02*
X017221Y018157D01*
X017221Y017357D02*
X018021Y018157D01*
X016879Y016727D02*
X016079Y017527D01*
X016079Y016727D02*
X016879Y017527D01*
X015147Y016570D02*
X014347Y017370D01*
X014347Y016570D02*
X015147Y017370D01*
X014202Y016530D02*
X013402Y017330D01*
X013402Y016530D02*
X014202Y017330D01*
X012430Y015743D02*
X011630Y016543D01*
X011630Y015743D02*
X012430Y016543D01*
X011997Y015349D02*
X011197Y016149D01*
X011197Y015349D02*
X011997Y016149D01*
X012142Y015440D02*
X012942Y014640D01*
X012142Y014640D02*
X012942Y015440D01*
X013048Y014417D02*
X013848Y013617D01*
X013048Y013617D02*
X013848Y014417D01*
X013048Y013669D02*
X013848Y012869D01*
X013048Y012869D02*
X013848Y013669D01*
X015528Y015795D02*
X016328Y014995D01*
X015528Y014995D02*
X016328Y015795D01*
X017575Y013708D02*
X018375Y012908D01*
X017575Y012908D02*
X018375Y013708D01*
X020056Y012803D02*
X020856Y012003D01*
X020056Y012003D02*
X020856Y012803D01*
X020489Y013236D02*
X021289Y012436D01*
X020489Y012436D02*
X021289Y013236D01*
X021040Y011976D02*
X021840Y011176D01*
X021040Y011176D02*
X021840Y011976D01*
X021512Y011464D02*
X022312Y010664D01*
X021512Y010664D02*
X022312Y011464D01*
X023874Y011503D02*
X024674Y010703D01*
X023874Y010703D02*
X024674Y011503D01*
X024950Y011176D02*
X024150Y011976D01*
X024150Y011176D02*
X024950Y011976D01*
X026483Y011052D02*
X026485Y011091D01*
X026491Y011129D01*
X026500Y011167D01*
X026514Y011203D01*
X026530Y011239D01*
X026551Y011272D01*
X026574Y011303D01*
X026601Y011331D01*
X026630Y011357D01*
X026661Y011380D01*
X026695Y011399D01*
X026731Y011415D01*
X026767Y011427D01*
X026805Y011436D01*
X026844Y011441D01*
X026883Y011442D01*
X026921Y011439D01*
X026960Y011432D01*
X026997Y011422D01*
X027033Y011407D01*
X027068Y011390D01*
X027101Y011369D01*
X027131Y011344D01*
X027159Y011317D01*
X027184Y011287D01*
X027206Y011255D01*
X027224Y011221D01*
X027239Y011185D01*
X027251Y011148D01*
X027259Y011110D01*
X027263Y011071D01*
X027263Y011033D01*
X027259Y010994D01*
X027251Y010956D01*
X027239Y010919D01*
X027224Y010883D01*
X027206Y010849D01*
X027184Y010817D01*
X027159Y010787D01*
X027131Y010760D01*
X027101Y010735D01*
X027068Y010714D01*
X027033Y010697D01*
X026997Y010682D01*
X026960Y010672D01*
X026921Y010665D01*
X026883Y010662D01*
X026844Y010663D01*
X026805Y010668D01*
X026767Y010677D01*
X026731Y010689D01*
X026695Y010705D01*
X026661Y010724D01*
X026630Y010747D01*
X026601Y010773D01*
X026574Y010801D01*
X026551Y010832D01*
X026530Y010865D01*
X026514Y010901D01*
X026500Y010937D01*
X026491Y010975D01*
X026485Y011013D01*
X026483Y011052D01*
X026473Y010652D02*
X027273Y011452D01*
X027772Y010952D02*
X028572Y010152D01*
X027772Y010152D02*
X028572Y010952D01*
X026483Y010052D02*
X026485Y010091D01*
X026491Y010129D01*
X026500Y010167D01*
X026514Y010203D01*
X026530Y010239D01*
X026551Y010272D01*
X026574Y010303D01*
X026601Y010331D01*
X026630Y010357D01*
X026661Y010380D01*
X026695Y010399D01*
X026731Y010415D01*
X026767Y010427D01*
X026805Y010436D01*
X026844Y010441D01*
X026883Y010442D01*
X026921Y010439D01*
X026960Y010432D01*
X026997Y010422D01*
X027033Y010407D01*
X027068Y010390D01*
X027101Y010369D01*
X027131Y010344D01*
X027159Y010317D01*
X027184Y010287D01*
X027206Y010255D01*
X027224Y010221D01*
X027239Y010185D01*
X027251Y010148D01*
X027259Y010110D01*
X027263Y010071D01*
X027263Y010033D01*
X027259Y009994D01*
X027251Y009956D01*
X027239Y009919D01*
X027224Y009883D01*
X027206Y009849D01*
X027184Y009817D01*
X027159Y009787D01*
X027131Y009760D01*
X027101Y009735D01*
X027068Y009714D01*
X027033Y009697D01*
X026997Y009682D01*
X026960Y009672D01*
X026921Y009665D01*
X026883Y009662D01*
X026844Y009663D01*
X026805Y009668D01*
X026767Y009677D01*
X026731Y009689D01*
X026695Y009705D01*
X026661Y009724D01*
X026630Y009747D01*
X026601Y009773D01*
X026574Y009801D01*
X026551Y009832D01*
X026530Y009865D01*
X026514Y009901D01*
X026500Y009937D01*
X026491Y009975D01*
X026485Y010013D01*
X026483Y010052D01*
X026473Y009652D02*
X027273Y010452D01*
X026289Y009995D02*
X025489Y010795D01*
X025489Y009995D02*
X026289Y010795D01*
X025777Y009719D02*
X024977Y010519D01*
X024977Y009719D02*
X025777Y010519D01*
X025056Y008000D02*
X025856Y007200D01*
X025056Y007200D02*
X025856Y008000D01*
X026447Y006142D02*
X026449Y006181D01*
X026455Y006219D01*
X026464Y006257D01*
X026478Y006293D01*
X026494Y006329D01*
X026515Y006362D01*
X026538Y006393D01*
X026565Y006421D01*
X026594Y006447D01*
X026625Y006470D01*
X026659Y006489D01*
X026695Y006505D01*
X026731Y006517D01*
X026769Y006526D01*
X026808Y006531D01*
X026847Y006532D01*
X026885Y006529D01*
X026924Y006522D01*
X026961Y006512D01*
X026997Y006497D01*
X027032Y006480D01*
X027065Y006459D01*
X027095Y006434D01*
X027123Y006407D01*
X027148Y006377D01*
X027170Y006345D01*
X027188Y006311D01*
X027203Y006275D01*
X027215Y006238D01*
X027223Y006200D01*
X027227Y006161D01*
X027227Y006123D01*
X027223Y006084D01*
X027215Y006046D01*
X027203Y006009D01*
X027188Y005973D01*
X027170Y005939D01*
X027148Y005907D01*
X027123Y005877D01*
X027095Y005850D01*
X027065Y005825D01*
X027032Y005804D01*
X026997Y005787D01*
X026961Y005772D01*
X026924Y005762D01*
X026885Y005755D01*
X026847Y005752D01*
X026808Y005753D01*
X026769Y005758D01*
X026731Y005767D01*
X026695Y005779D01*
X026659Y005795D01*
X026625Y005814D01*
X026594Y005837D01*
X026565Y005863D01*
X026538Y005891D01*
X026515Y005922D01*
X026494Y005955D01*
X026478Y005991D01*
X026464Y006027D01*
X026455Y006065D01*
X026449Y006103D01*
X026447Y006142D01*
X026437Y005742D02*
X027237Y006542D01*
X027447Y006142D02*
X027449Y006181D01*
X027455Y006219D01*
X027464Y006257D01*
X027478Y006293D01*
X027494Y006329D01*
X027515Y006362D01*
X027538Y006393D01*
X027565Y006421D01*
X027594Y006447D01*
X027625Y006470D01*
X027659Y006489D01*
X027695Y006505D01*
X027731Y006517D01*
X027769Y006526D01*
X027808Y006531D01*
X027847Y006532D01*
X027885Y006529D01*
X027924Y006522D01*
X027961Y006512D01*
X027997Y006497D01*
X028032Y006480D01*
X028065Y006459D01*
X028095Y006434D01*
X028123Y006407D01*
X028148Y006377D01*
X028170Y006345D01*
X028188Y006311D01*
X028203Y006275D01*
X028215Y006238D01*
X028223Y006200D01*
X028227Y006161D01*
X028227Y006123D01*
X028223Y006084D01*
X028215Y006046D01*
X028203Y006009D01*
X028188Y005973D01*
X028170Y005939D01*
X028148Y005907D01*
X028123Y005877D01*
X028095Y005850D01*
X028065Y005825D01*
X028032Y005804D01*
X027997Y005787D01*
X027961Y005772D01*
X027924Y005762D01*
X027885Y005755D01*
X027847Y005752D01*
X027808Y005753D01*
X027769Y005758D01*
X027731Y005767D01*
X027695Y005779D01*
X027659Y005795D01*
X027625Y005814D01*
X027594Y005837D01*
X027565Y005863D01*
X027538Y005891D01*
X027515Y005922D01*
X027494Y005955D01*
X027478Y005991D01*
X027464Y006027D01*
X027455Y006065D01*
X027449Y006103D01*
X027447Y006142D01*
X027437Y005742D02*
X028237Y006542D01*
X028447Y006142D02*
X028449Y006181D01*
X028455Y006219D01*
X028464Y006257D01*
X028478Y006293D01*
X028494Y006329D01*
X028515Y006362D01*
X028538Y006393D01*
X028565Y006421D01*
X028594Y006447D01*
X028625Y006470D01*
X028659Y006489D01*
X028695Y006505D01*
X028731Y006517D01*
X028769Y006526D01*
X028808Y006531D01*
X028847Y006532D01*
X028885Y006529D01*
X028924Y006522D01*
X028961Y006512D01*
X028997Y006497D01*
X029032Y006480D01*
X029065Y006459D01*
X029095Y006434D01*
X029123Y006407D01*
X029148Y006377D01*
X029170Y006345D01*
X029188Y006311D01*
X029203Y006275D01*
X029215Y006238D01*
X029223Y006200D01*
X029227Y006161D01*
X029227Y006123D01*
X029223Y006084D01*
X029215Y006046D01*
X029203Y006009D01*
X029188Y005973D01*
X029170Y005939D01*
X029148Y005907D01*
X029123Y005877D01*
X029095Y005850D01*
X029065Y005825D01*
X029032Y005804D01*
X028997Y005787D01*
X028961Y005772D01*
X028924Y005762D01*
X028885Y005755D01*
X028847Y005752D01*
X028808Y005753D01*
X028769Y005758D01*
X028731Y005767D01*
X028695Y005779D01*
X028659Y005795D01*
X028625Y005814D01*
X028594Y005837D01*
X028565Y005863D01*
X028538Y005891D01*
X028515Y005922D01*
X028494Y005955D01*
X028478Y005991D01*
X028464Y006027D01*
X028455Y006065D01*
X028449Y006103D01*
X028447Y006142D01*
X028437Y005742D02*
X029237Y006542D01*
X027851Y005480D02*
X028651Y004680D01*
X027851Y004680D02*
X028651Y005480D01*
X028060Y004680D02*
X027260Y005480D01*
X027260Y004680D02*
X028060Y005480D01*
X027851Y004889D02*
X028651Y004089D01*
X027851Y004089D02*
X028651Y004889D01*
X027851Y004377D02*
X028651Y003577D01*
X027851Y003577D02*
X028651Y004377D01*
X027470Y004680D02*
X026670Y005480D01*
X026670Y004680D02*
X027470Y005480D01*
X026879Y004680D02*
X026079Y005480D01*
X026079Y004680D02*
X026879Y005480D01*
X026289Y004680D02*
X025489Y005480D01*
X025489Y004680D02*
X026289Y005480D01*
X025698Y004680D02*
X024898Y005480D01*
X024898Y004680D02*
X025698Y005480D01*
X024898Y004968D02*
X025698Y004168D01*
X024898Y004168D02*
X025698Y004968D01*
X024898Y004417D02*
X025698Y003617D01*
X024898Y003617D02*
X025698Y004417D01*
X026315Y004377D02*
X027115Y003577D01*
X026315Y003577D02*
X027115Y004377D01*
X026315Y003787D02*
X027115Y002987D01*
X026315Y002987D02*
X027115Y003787D01*
X027851Y003275D02*
X028651Y002475D01*
X027851Y002475D02*
X028651Y003275D01*
X027851Y002685D02*
X028651Y001885D01*
X027851Y001885D02*
X028651Y002685D01*
X027851Y002133D02*
X028651Y001333D01*
X027851Y001333D02*
X028651Y002133D01*
X028060Y001333D02*
X027260Y002133D01*
X027260Y001333D02*
X028060Y002133D01*
X027430Y001333D02*
X026630Y002133D01*
X026630Y001333D02*
X027430Y002133D01*
X027155Y002357D02*
X026355Y003157D01*
X026355Y002357D02*
X027155Y003157D01*
X026000Y002133D02*
X026800Y001333D01*
X026000Y001333D02*
X026800Y002133D01*
X026249Y001333D02*
X025449Y002133D01*
X025449Y001333D02*
X026249Y002133D01*
X025698Y001924D02*
X024898Y002724D01*
X024898Y001924D02*
X025698Y002724D01*
X025698Y002515D02*
X024898Y003315D01*
X024898Y002515D02*
X025698Y003315D01*
X025698Y003066D02*
X024898Y003866D01*
X024898Y003066D02*
X025698Y003866D01*
X024898Y002133D02*
X025698Y001333D01*
X024898Y001333D02*
X025698Y002133D01*
X031985Y005559D02*
X032785Y004759D01*
X031985Y004759D02*
X032785Y005559D01*
X033257Y005546D02*
X032457Y006346D01*
X032457Y005546D02*
X033257Y006346D01*
X035567Y006464D02*
X036367Y005664D01*
X035567Y005664D02*
X036367Y006464D01*
X037630Y005790D02*
X038430Y006590D01*
X037630Y006590D01*
X038430Y005790D01*
X037630Y005790D01*
X038430Y004857D02*
X037630Y004057D01*
X037630Y004857D02*
X038430Y004857D01*
X037630Y004857D02*
X038430Y004057D01*
X037630Y004057D01*
X034690Y001599D02*
X034692Y001638D01*
X034698Y001676D01*
X034707Y001714D01*
X034721Y001750D01*
X034737Y001786D01*
X034758Y001819D01*
X034781Y001850D01*
X034808Y001878D01*
X034837Y001904D01*
X034868Y001927D01*
X034902Y001946D01*
X034938Y001962D01*
X034974Y001974D01*
X035012Y001983D01*
X035051Y001988D01*
X035090Y001989D01*
X035128Y001986D01*
X035167Y001979D01*
X035204Y001969D01*
X035240Y001954D01*
X035275Y001937D01*
X035308Y001916D01*
X035338Y001891D01*
X035366Y001864D01*
X035391Y001834D01*
X035413Y001802D01*
X035431Y001768D01*
X035446Y001732D01*
X035458Y001695D01*
X035466Y001657D01*
X035470Y001618D01*
X035470Y001580D01*
X035466Y001541D01*
X035458Y001503D01*
X035446Y001466D01*
X035431Y001430D01*
X035413Y001396D01*
X035391Y001364D01*
X035366Y001334D01*
X035338Y001307D01*
X035308Y001282D01*
X035275Y001261D01*
X035240Y001244D01*
X035204Y001229D01*
X035167Y001219D01*
X035128Y001212D01*
X035090Y001209D01*
X035051Y001210D01*
X035012Y001215D01*
X034974Y001224D01*
X034938Y001236D01*
X034902Y001252D01*
X034868Y001271D01*
X034837Y001294D01*
X034808Y001320D01*
X034781Y001348D01*
X034758Y001379D01*
X034737Y001412D01*
X034721Y001448D01*
X034707Y001484D01*
X034698Y001522D01*
X034692Y001560D01*
X034690Y001599D01*
X034680Y001199D02*
X035480Y001999D01*
X033690Y001599D02*
X033692Y001638D01*
X033698Y001676D01*
X033707Y001714D01*
X033721Y001750D01*
X033737Y001786D01*
X033758Y001819D01*
X033781Y001850D01*
X033808Y001878D01*
X033837Y001904D01*
X033868Y001927D01*
X033902Y001946D01*
X033938Y001962D01*
X033974Y001974D01*
X034012Y001983D01*
X034051Y001988D01*
X034090Y001989D01*
X034128Y001986D01*
X034167Y001979D01*
X034204Y001969D01*
X034240Y001954D01*
X034275Y001937D01*
X034308Y001916D01*
X034338Y001891D01*
X034366Y001864D01*
X034391Y001834D01*
X034413Y001802D01*
X034431Y001768D01*
X034446Y001732D01*
X034458Y001695D01*
X034466Y001657D01*
X034470Y001618D01*
X034470Y001580D01*
X034466Y001541D01*
X034458Y001503D01*
X034446Y001466D01*
X034431Y001430D01*
X034413Y001396D01*
X034391Y001364D01*
X034366Y001334D01*
X034338Y001307D01*
X034308Y001282D01*
X034275Y001261D01*
X034240Y001244D01*
X034204Y001229D01*
X034167Y001219D01*
X034128Y001212D01*
X034090Y001209D01*
X034051Y001210D01*
X034012Y001215D01*
X033974Y001224D01*
X033938Y001236D01*
X033902Y001252D01*
X033868Y001271D01*
X033837Y001294D01*
X033808Y001320D01*
X033781Y001348D01*
X033758Y001379D01*
X033737Y001412D01*
X033721Y001448D01*
X033707Y001484D01*
X033698Y001522D01*
X033692Y001560D01*
X033690Y001599D01*
X033680Y001199D02*
X034480Y001999D01*
X032690Y001599D02*
X032692Y001638D01*
X032698Y001676D01*
X032707Y001714D01*
X032721Y001750D01*
X032737Y001786D01*
X032758Y001819D01*
X032781Y001850D01*
X032808Y001878D01*
X032837Y001904D01*
X032868Y001927D01*
X032902Y001946D01*
X032938Y001962D01*
X032974Y001974D01*
X033012Y001983D01*
X033051Y001988D01*
X033090Y001989D01*
X033128Y001986D01*
X033167Y001979D01*
X033204Y001969D01*
X033240Y001954D01*
X033275Y001937D01*
X033308Y001916D01*
X033338Y001891D01*
X033366Y001864D01*
X033391Y001834D01*
X033413Y001802D01*
X033431Y001768D01*
X033446Y001732D01*
X033458Y001695D01*
X033466Y001657D01*
X033470Y001618D01*
X033470Y001580D01*
X033466Y001541D01*
X033458Y001503D01*
X033446Y001466D01*
X033431Y001430D01*
X033413Y001396D01*
X033391Y001364D01*
X033366Y001334D01*
X033338Y001307D01*
X033308Y001282D01*
X033275Y001261D01*
X033240Y001244D01*
X033204Y001229D01*
X033167Y001219D01*
X033128Y001212D01*
X033090Y001209D01*
X033051Y001210D01*
X033012Y001215D01*
X032974Y001224D01*
X032938Y001236D01*
X032902Y001252D01*
X032868Y001271D01*
X032837Y001294D01*
X032808Y001320D01*
X032781Y001348D01*
X032758Y001379D01*
X032737Y001412D01*
X032721Y001448D01*
X032707Y001484D01*
X032698Y001522D01*
X032692Y001560D01*
X032690Y001599D01*
X032680Y001199D02*
X033480Y001999D01*
X038755Y001474D02*
X039555Y001474D01*
X039155Y001074D02*
X039155Y001874D01*
X038765Y001474D02*
X038767Y001513D01*
X038773Y001551D01*
X038782Y001589D01*
X038796Y001625D01*
X038812Y001661D01*
X038833Y001694D01*
X038856Y001725D01*
X038883Y001753D01*
X038912Y001779D01*
X038943Y001802D01*
X038977Y001821D01*
X039013Y001837D01*
X039049Y001849D01*
X039087Y001858D01*
X039126Y001863D01*
X039165Y001864D01*
X039203Y001861D01*
X039242Y001854D01*
X039279Y001844D01*
X039315Y001829D01*
X039350Y001812D01*
X039383Y001791D01*
X039413Y001766D01*
X039441Y001739D01*
X039466Y001709D01*
X039488Y001677D01*
X039506Y001643D01*
X039521Y001607D01*
X039533Y001570D01*
X039541Y001532D01*
X039545Y001493D01*
X039545Y001455D01*
X039541Y001416D01*
X039533Y001378D01*
X039521Y001341D01*
X039506Y001305D01*
X039488Y001271D01*
X039466Y001239D01*
X039441Y001209D01*
X039413Y001182D01*
X039383Y001157D01*
X039350Y001136D01*
X039315Y001119D01*
X039279Y001104D01*
X039242Y001094D01*
X039203Y001087D01*
X039165Y001084D01*
X039126Y001085D01*
X039087Y001090D01*
X039049Y001099D01*
X039013Y001111D01*
X038977Y001127D01*
X038943Y001146D01*
X038912Y001169D01*
X038883Y001195D01*
X038856Y001223D01*
X038833Y001254D01*
X038812Y001287D01*
X038796Y001323D01*
X038782Y001359D01*
X038773Y001397D01*
X038767Y001435D01*
X038765Y001474D01*
X030777Y007987D02*
X029977Y008787D01*
X029977Y007987D02*
X030777Y008787D01*
X033087Y009181D02*
X033887Y008381D01*
X033087Y008381D02*
X033887Y009181D01*
X032863Y017396D02*
X032063Y018196D01*
X032063Y017396D02*
X032863Y018196D01*
X033048Y018551D02*
X033848Y017751D01*
X033048Y017751D02*
X033848Y018551D01*
X034071Y018984D02*
X034871Y018184D01*
X034071Y018184D02*
X034871Y018984D01*
X034859Y019417D02*
X035659Y018617D01*
X034859Y018617D02*
X035659Y019417D01*
X027584Y023630D02*
X027586Y023669D01*
X027592Y023707D01*
X027601Y023745D01*
X027615Y023781D01*
X027631Y023817D01*
X027652Y023850D01*
X027675Y023881D01*
X027702Y023909D01*
X027731Y023935D01*
X027762Y023958D01*
X027796Y023977D01*
X027832Y023993D01*
X027868Y024005D01*
X027906Y024014D01*
X027945Y024019D01*
X027984Y024020D01*
X028022Y024017D01*
X028061Y024010D01*
X028098Y024000D01*
X028134Y023985D01*
X028169Y023968D01*
X028202Y023947D01*
X028232Y023922D01*
X028260Y023895D01*
X028285Y023865D01*
X028307Y023833D01*
X028325Y023799D01*
X028340Y023763D01*
X028352Y023726D01*
X028360Y023688D01*
X028364Y023649D01*
X028364Y023611D01*
X028360Y023572D01*
X028352Y023534D01*
X028340Y023497D01*
X028325Y023461D01*
X028307Y023427D01*
X028285Y023395D01*
X028260Y023365D01*
X028232Y023338D01*
X028202Y023313D01*
X028169Y023292D01*
X028134Y023275D01*
X028098Y023260D01*
X028061Y023250D01*
X028022Y023243D01*
X027984Y023240D01*
X027945Y023241D01*
X027906Y023246D01*
X027868Y023255D01*
X027832Y023267D01*
X027796Y023283D01*
X027762Y023302D01*
X027731Y023325D01*
X027702Y023351D01*
X027675Y023379D01*
X027652Y023410D01*
X027631Y023443D01*
X027615Y023479D01*
X027601Y023515D01*
X027592Y023553D01*
X027586Y023591D01*
X027584Y023630D01*
X027574Y023230D02*
X028374Y024030D01*
X027584Y024630D02*
X027586Y024669D01*
X027592Y024707D01*
X027601Y024745D01*
X027615Y024781D01*
X027631Y024817D01*
X027652Y024850D01*
X027675Y024881D01*
X027702Y024909D01*
X027731Y024935D01*
X027762Y024958D01*
X027796Y024977D01*
X027832Y024993D01*
X027868Y025005D01*
X027906Y025014D01*
X027945Y025019D01*
X027984Y025020D01*
X028022Y025017D01*
X028061Y025010D01*
X028098Y025000D01*
X028134Y024985D01*
X028169Y024968D01*
X028202Y024947D01*
X028232Y024922D01*
X028260Y024895D01*
X028285Y024865D01*
X028307Y024833D01*
X028325Y024799D01*
X028340Y024763D01*
X028352Y024726D01*
X028360Y024688D01*
X028364Y024649D01*
X028364Y024611D01*
X028360Y024572D01*
X028352Y024534D01*
X028340Y024497D01*
X028325Y024461D01*
X028307Y024427D01*
X028285Y024395D01*
X028260Y024365D01*
X028232Y024338D01*
X028202Y024313D01*
X028169Y024292D01*
X028134Y024275D01*
X028098Y024260D01*
X028061Y024250D01*
X028022Y024243D01*
X027984Y024240D01*
X027945Y024241D01*
X027906Y024246D01*
X027868Y024255D01*
X027832Y024267D01*
X027796Y024283D01*
X027762Y024302D01*
X027731Y024325D01*
X027702Y024351D01*
X027675Y024379D01*
X027652Y024410D01*
X027631Y024443D01*
X027615Y024479D01*
X027601Y024515D01*
X027592Y024553D01*
X027586Y024591D01*
X027584Y024630D01*
X027574Y024230D02*
X028374Y025030D01*
X026584Y024630D02*
X026586Y024669D01*
X026592Y024707D01*
X026601Y024745D01*
X026615Y024781D01*
X026631Y024817D01*
X026652Y024850D01*
X026675Y024881D01*
X026702Y024909D01*
X026731Y024935D01*
X026762Y024958D01*
X026796Y024977D01*
X026832Y024993D01*
X026868Y025005D01*
X026906Y025014D01*
X026945Y025019D01*
X026984Y025020D01*
X027022Y025017D01*
X027061Y025010D01*
X027098Y025000D01*
X027134Y024985D01*
X027169Y024968D01*
X027202Y024947D01*
X027232Y024922D01*
X027260Y024895D01*
X027285Y024865D01*
X027307Y024833D01*
X027325Y024799D01*
X027340Y024763D01*
X027352Y024726D01*
X027360Y024688D01*
X027364Y024649D01*
X027364Y024611D01*
X027360Y024572D01*
X027352Y024534D01*
X027340Y024497D01*
X027325Y024461D01*
X027307Y024427D01*
X027285Y024395D01*
X027260Y024365D01*
X027232Y024338D01*
X027202Y024313D01*
X027169Y024292D01*
X027134Y024275D01*
X027098Y024260D01*
X027061Y024250D01*
X027022Y024243D01*
X026984Y024240D01*
X026945Y024241D01*
X026906Y024246D01*
X026868Y024255D01*
X026832Y024267D01*
X026796Y024283D01*
X026762Y024302D01*
X026731Y024325D01*
X026702Y024351D01*
X026675Y024379D01*
X026652Y024410D01*
X026631Y024443D01*
X026615Y024479D01*
X026601Y024515D01*
X026592Y024553D01*
X026586Y024591D01*
X026584Y024630D01*
X026574Y024230D02*
X027374Y025030D01*
X025584Y024630D02*
X025586Y024669D01*
X025592Y024707D01*
X025601Y024745D01*
X025615Y024781D01*
X025631Y024817D01*
X025652Y024850D01*
X025675Y024881D01*
X025702Y024909D01*
X025731Y024935D01*
X025762Y024958D01*
X025796Y024977D01*
X025832Y024993D01*
X025868Y025005D01*
X025906Y025014D01*
X025945Y025019D01*
X025984Y025020D01*
X026022Y025017D01*
X026061Y025010D01*
X026098Y025000D01*
X026134Y024985D01*
X026169Y024968D01*
X026202Y024947D01*
X026232Y024922D01*
X026260Y024895D01*
X026285Y024865D01*
X026307Y024833D01*
X026325Y024799D01*
X026340Y024763D01*
X026352Y024726D01*
X026360Y024688D01*
X026364Y024649D01*
X026364Y024611D01*
X026360Y024572D01*
X026352Y024534D01*
X026340Y024497D01*
X026325Y024461D01*
X026307Y024427D01*
X026285Y024395D01*
X026260Y024365D01*
X026232Y024338D01*
X026202Y024313D01*
X026169Y024292D01*
X026134Y024275D01*
X026098Y024260D01*
X026061Y024250D01*
X026022Y024243D01*
X025984Y024240D01*
X025945Y024241D01*
X025906Y024246D01*
X025868Y024255D01*
X025832Y024267D01*
X025796Y024283D01*
X025762Y024302D01*
X025731Y024325D01*
X025702Y024351D01*
X025675Y024379D01*
X025652Y024410D01*
X025631Y024443D01*
X025615Y024479D01*
X025601Y024515D01*
X025592Y024553D01*
X025586Y024591D01*
X025584Y024630D01*
X025574Y024230D02*
X026374Y025030D01*
X024584Y024630D02*
X024586Y024669D01*
X024592Y024707D01*
X024601Y024745D01*
X024615Y024781D01*
X024631Y024817D01*
X024652Y024850D01*
X024675Y024881D01*
X024702Y024909D01*
X024731Y024935D01*
X024762Y024958D01*
X024796Y024977D01*
X024832Y024993D01*
X024868Y025005D01*
X024906Y025014D01*
X024945Y025019D01*
X024984Y025020D01*
X025022Y025017D01*
X025061Y025010D01*
X025098Y025000D01*
X025134Y024985D01*
X025169Y024968D01*
X025202Y024947D01*
X025232Y024922D01*
X025260Y024895D01*
X025285Y024865D01*
X025307Y024833D01*
X025325Y024799D01*
X025340Y024763D01*
X025352Y024726D01*
X025360Y024688D01*
X025364Y024649D01*
X025364Y024611D01*
X025360Y024572D01*
X025352Y024534D01*
X025340Y024497D01*
X025325Y024461D01*
X025307Y024427D01*
X025285Y024395D01*
X025260Y024365D01*
X025232Y024338D01*
X025202Y024313D01*
X025169Y024292D01*
X025134Y024275D01*
X025098Y024260D01*
X025061Y024250D01*
X025022Y024243D01*
X024984Y024240D01*
X024945Y024241D01*
X024906Y024246D01*
X024868Y024255D01*
X024832Y024267D01*
X024796Y024283D01*
X024762Y024302D01*
X024731Y024325D01*
X024702Y024351D01*
X024675Y024379D01*
X024652Y024410D01*
X024631Y024443D01*
X024615Y024479D01*
X024601Y024515D01*
X024592Y024553D01*
X024586Y024591D01*
X024584Y024630D01*
X024574Y024230D02*
X025374Y025030D01*
X023584Y024630D02*
X023586Y024669D01*
X023592Y024707D01*
X023601Y024745D01*
X023615Y024781D01*
X023631Y024817D01*
X023652Y024850D01*
X023675Y024881D01*
X023702Y024909D01*
X023731Y024935D01*
X023762Y024958D01*
X023796Y024977D01*
X023832Y024993D01*
X023868Y025005D01*
X023906Y025014D01*
X023945Y025019D01*
X023984Y025020D01*
X024022Y025017D01*
X024061Y025010D01*
X024098Y025000D01*
X024134Y024985D01*
X024169Y024968D01*
X024202Y024947D01*
X024232Y024922D01*
X024260Y024895D01*
X024285Y024865D01*
X024307Y024833D01*
X024325Y024799D01*
X024340Y024763D01*
X024352Y024726D01*
X024360Y024688D01*
X024364Y024649D01*
X024364Y024611D01*
X024360Y024572D01*
X024352Y024534D01*
X024340Y024497D01*
X024325Y024461D01*
X024307Y024427D01*
X024285Y024395D01*
X024260Y024365D01*
X024232Y024338D01*
X024202Y024313D01*
X024169Y024292D01*
X024134Y024275D01*
X024098Y024260D01*
X024061Y024250D01*
X024022Y024243D01*
X023984Y024240D01*
X023945Y024241D01*
X023906Y024246D01*
X023868Y024255D01*
X023832Y024267D01*
X023796Y024283D01*
X023762Y024302D01*
X023731Y024325D01*
X023702Y024351D01*
X023675Y024379D01*
X023652Y024410D01*
X023631Y024443D01*
X023615Y024479D01*
X023601Y024515D01*
X023592Y024553D01*
X023586Y024591D01*
X023584Y024630D01*
X023574Y024230D02*
X024374Y025030D01*
X022584Y024630D02*
X022586Y024669D01*
X022592Y024707D01*
X022601Y024745D01*
X022615Y024781D01*
X022631Y024817D01*
X022652Y024850D01*
X022675Y024881D01*
X022702Y024909D01*
X022731Y024935D01*
X022762Y024958D01*
X022796Y024977D01*
X022832Y024993D01*
X022868Y025005D01*
X022906Y025014D01*
X022945Y025019D01*
X022984Y025020D01*
X023022Y025017D01*
X023061Y025010D01*
X023098Y025000D01*
X023134Y024985D01*
X023169Y024968D01*
X023202Y024947D01*
X023232Y024922D01*
X023260Y024895D01*
X023285Y024865D01*
X023307Y024833D01*
X023325Y024799D01*
X023340Y024763D01*
X023352Y024726D01*
X023360Y024688D01*
X023364Y024649D01*
X023364Y024611D01*
X023360Y024572D01*
X023352Y024534D01*
X023340Y024497D01*
X023325Y024461D01*
X023307Y024427D01*
X023285Y024395D01*
X023260Y024365D01*
X023232Y024338D01*
X023202Y024313D01*
X023169Y024292D01*
X023134Y024275D01*
X023098Y024260D01*
X023061Y024250D01*
X023022Y024243D01*
X022984Y024240D01*
X022945Y024241D01*
X022906Y024246D01*
X022868Y024255D01*
X022832Y024267D01*
X022796Y024283D01*
X022762Y024302D01*
X022731Y024325D01*
X022702Y024351D01*
X022675Y024379D01*
X022652Y024410D01*
X022631Y024443D01*
X022615Y024479D01*
X022601Y024515D01*
X022592Y024553D01*
X022586Y024591D01*
X022584Y024630D01*
X022574Y024230D02*
X023374Y025030D01*
X022584Y023630D02*
X022586Y023669D01*
X022592Y023707D01*
X022601Y023745D01*
X022615Y023781D01*
X022631Y023817D01*
X022652Y023850D01*
X022675Y023881D01*
X022702Y023909D01*
X022731Y023935D01*
X022762Y023958D01*
X022796Y023977D01*
X022832Y023993D01*
X022868Y024005D01*
X022906Y024014D01*
X022945Y024019D01*
X022984Y024020D01*
X023022Y024017D01*
X023061Y024010D01*
X023098Y024000D01*
X023134Y023985D01*
X023169Y023968D01*
X023202Y023947D01*
X023232Y023922D01*
X023260Y023895D01*
X023285Y023865D01*
X023307Y023833D01*
X023325Y023799D01*
X023340Y023763D01*
X023352Y023726D01*
X023360Y023688D01*
X023364Y023649D01*
X023364Y023611D01*
X023360Y023572D01*
X023352Y023534D01*
X023340Y023497D01*
X023325Y023461D01*
X023307Y023427D01*
X023285Y023395D01*
X023260Y023365D01*
X023232Y023338D01*
X023202Y023313D01*
X023169Y023292D01*
X023134Y023275D01*
X023098Y023260D01*
X023061Y023250D01*
X023022Y023243D01*
X022984Y023240D01*
X022945Y023241D01*
X022906Y023246D01*
X022868Y023255D01*
X022832Y023267D01*
X022796Y023283D01*
X022762Y023302D01*
X022731Y023325D01*
X022702Y023351D01*
X022675Y023379D01*
X022652Y023410D01*
X022631Y023443D01*
X022615Y023479D01*
X022601Y023515D01*
X022592Y023553D01*
X022586Y023591D01*
X022584Y023630D01*
X022574Y023230D02*
X023374Y024030D01*
X023584Y023630D02*
X023586Y023669D01*
X023592Y023707D01*
X023601Y023745D01*
X023615Y023781D01*
X023631Y023817D01*
X023652Y023850D01*
X023675Y023881D01*
X023702Y023909D01*
X023731Y023935D01*
X023762Y023958D01*
X023796Y023977D01*
X023832Y023993D01*
X023868Y024005D01*
X023906Y024014D01*
X023945Y024019D01*
X023984Y024020D01*
X024022Y024017D01*
X024061Y024010D01*
X024098Y024000D01*
X024134Y023985D01*
X024169Y023968D01*
X024202Y023947D01*
X024232Y023922D01*
X024260Y023895D01*
X024285Y023865D01*
X024307Y023833D01*
X024325Y023799D01*
X024340Y023763D01*
X024352Y023726D01*
X024360Y023688D01*
X024364Y023649D01*
X024364Y023611D01*
X024360Y023572D01*
X024352Y023534D01*
X024340Y023497D01*
X024325Y023461D01*
X024307Y023427D01*
X024285Y023395D01*
X024260Y023365D01*
X024232Y023338D01*
X024202Y023313D01*
X024169Y023292D01*
X024134Y023275D01*
X024098Y023260D01*
X024061Y023250D01*
X024022Y023243D01*
X023984Y023240D01*
X023945Y023241D01*
X023906Y023246D01*
X023868Y023255D01*
X023832Y023267D01*
X023796Y023283D01*
X023762Y023302D01*
X023731Y023325D01*
X023702Y023351D01*
X023675Y023379D01*
X023652Y023410D01*
X023631Y023443D01*
X023615Y023479D01*
X023601Y023515D01*
X023592Y023553D01*
X023586Y023591D01*
X023584Y023630D01*
X023574Y023230D02*
X024374Y024030D01*
X024584Y023630D02*
X024586Y023669D01*
X024592Y023707D01*
X024601Y023745D01*
X024615Y023781D01*
X024631Y023817D01*
X024652Y023850D01*
X024675Y023881D01*
X024702Y023909D01*
X024731Y023935D01*
X024762Y023958D01*
X024796Y023977D01*
X024832Y023993D01*
X024868Y024005D01*
X024906Y024014D01*
X024945Y024019D01*
X024984Y024020D01*
X025022Y024017D01*
X025061Y024010D01*
X025098Y024000D01*
X025134Y023985D01*
X025169Y023968D01*
X025202Y023947D01*
X025232Y023922D01*
X025260Y023895D01*
X025285Y023865D01*
X025307Y023833D01*
X025325Y023799D01*
X025340Y023763D01*
X025352Y023726D01*
X025360Y023688D01*
X025364Y023649D01*
X025364Y023611D01*
X025360Y023572D01*
X025352Y023534D01*
X025340Y023497D01*
X025325Y023461D01*
X025307Y023427D01*
X025285Y023395D01*
X025260Y023365D01*
X025232Y023338D01*
X025202Y023313D01*
X025169Y023292D01*
X025134Y023275D01*
X025098Y023260D01*
X025061Y023250D01*
X025022Y023243D01*
X024984Y023240D01*
X024945Y023241D01*
X024906Y023246D01*
X024868Y023255D01*
X024832Y023267D01*
X024796Y023283D01*
X024762Y023302D01*
X024731Y023325D01*
X024702Y023351D01*
X024675Y023379D01*
X024652Y023410D01*
X024631Y023443D01*
X024615Y023479D01*
X024601Y023515D01*
X024592Y023553D01*
X024586Y023591D01*
X024584Y023630D01*
X024574Y023230D02*
X025374Y024030D01*
X025584Y023630D02*
X025586Y023669D01*
X025592Y023707D01*
X025601Y023745D01*
X025615Y023781D01*
X025631Y023817D01*
X025652Y023850D01*
X025675Y023881D01*
X025702Y023909D01*
X025731Y023935D01*
X025762Y023958D01*
X025796Y023977D01*
X025832Y023993D01*
X025868Y024005D01*
X025906Y024014D01*
X025945Y024019D01*
X025984Y024020D01*
X026022Y024017D01*
X026061Y024010D01*
X026098Y024000D01*
X026134Y023985D01*
X026169Y023968D01*
X026202Y023947D01*
X026232Y023922D01*
X026260Y023895D01*
X026285Y023865D01*
X026307Y023833D01*
X026325Y023799D01*
X026340Y023763D01*
X026352Y023726D01*
X026360Y023688D01*
X026364Y023649D01*
X026364Y023611D01*
X026360Y023572D01*
X026352Y023534D01*
X026340Y023497D01*
X026325Y023461D01*
X026307Y023427D01*
X026285Y023395D01*
X026260Y023365D01*
X026232Y023338D01*
X026202Y023313D01*
X026169Y023292D01*
X026134Y023275D01*
X026098Y023260D01*
X026061Y023250D01*
X026022Y023243D01*
X025984Y023240D01*
X025945Y023241D01*
X025906Y023246D01*
X025868Y023255D01*
X025832Y023267D01*
X025796Y023283D01*
X025762Y023302D01*
X025731Y023325D01*
X025702Y023351D01*
X025675Y023379D01*
X025652Y023410D01*
X025631Y023443D01*
X025615Y023479D01*
X025601Y023515D01*
X025592Y023553D01*
X025586Y023591D01*
X025584Y023630D01*
X025574Y023230D02*
X026374Y024030D01*
X026584Y023630D02*
X026586Y023669D01*
X026592Y023707D01*
X026601Y023745D01*
X026615Y023781D01*
X026631Y023817D01*
X026652Y023850D01*
X026675Y023881D01*
X026702Y023909D01*
X026731Y023935D01*
X026762Y023958D01*
X026796Y023977D01*
X026832Y023993D01*
X026868Y024005D01*
X026906Y024014D01*
X026945Y024019D01*
X026984Y024020D01*
X027022Y024017D01*
X027061Y024010D01*
X027098Y024000D01*
X027134Y023985D01*
X027169Y023968D01*
X027202Y023947D01*
X027232Y023922D01*
X027260Y023895D01*
X027285Y023865D01*
X027307Y023833D01*
X027325Y023799D01*
X027340Y023763D01*
X027352Y023726D01*
X027360Y023688D01*
X027364Y023649D01*
X027364Y023611D01*
X027360Y023572D01*
X027352Y023534D01*
X027340Y023497D01*
X027325Y023461D01*
X027307Y023427D01*
X027285Y023395D01*
X027260Y023365D01*
X027232Y023338D01*
X027202Y023313D01*
X027169Y023292D01*
X027134Y023275D01*
X027098Y023260D01*
X027061Y023250D01*
X027022Y023243D01*
X026984Y023240D01*
X026945Y023241D01*
X026906Y023246D01*
X026868Y023255D01*
X026832Y023267D01*
X026796Y023283D01*
X026762Y023302D01*
X026731Y023325D01*
X026702Y023351D01*
X026675Y023379D01*
X026652Y023410D01*
X026631Y023443D01*
X026615Y023479D01*
X026601Y023515D01*
X026592Y023553D01*
X026586Y023591D01*
X026584Y023630D01*
X026574Y023230D02*
X027374Y024030D01*
X024819Y021897D02*
X025619Y021097D01*
X024819Y021097D02*
X025619Y021897D01*
X025410Y021464D02*
X026210Y020664D01*
X025410Y020664D02*
X026210Y021464D01*
X025922Y020913D02*
X026722Y020113D01*
X025922Y020113D02*
X026722Y020913D01*
X026434Y020519D02*
X027234Y019719D01*
X026434Y019719D02*
X027234Y020519D01*
X021564Y022515D02*
X020764Y023315D01*
X020764Y022515D02*
X021564Y023315D01*
X021210Y023144D02*
X020410Y023944D01*
X020410Y023144D02*
X021210Y023944D01*
X018171Y023647D02*
X018173Y023686D01*
X018179Y023724D01*
X018188Y023762D01*
X018202Y023798D01*
X018218Y023834D01*
X018239Y023867D01*
X018262Y023898D01*
X018289Y023926D01*
X018318Y023952D01*
X018349Y023975D01*
X018383Y023994D01*
X018419Y024010D01*
X018455Y024022D01*
X018493Y024031D01*
X018532Y024036D01*
X018571Y024037D01*
X018609Y024034D01*
X018648Y024027D01*
X018685Y024017D01*
X018721Y024002D01*
X018756Y023985D01*
X018789Y023964D01*
X018819Y023939D01*
X018847Y023912D01*
X018872Y023882D01*
X018894Y023850D01*
X018912Y023816D01*
X018927Y023780D01*
X018939Y023743D01*
X018947Y023705D01*
X018951Y023666D01*
X018951Y023628D01*
X018947Y023589D01*
X018939Y023551D01*
X018927Y023514D01*
X018912Y023478D01*
X018894Y023444D01*
X018872Y023412D01*
X018847Y023382D01*
X018819Y023355D01*
X018789Y023330D01*
X018756Y023309D01*
X018721Y023292D01*
X018685Y023277D01*
X018648Y023267D01*
X018609Y023260D01*
X018571Y023257D01*
X018532Y023258D01*
X018493Y023263D01*
X018455Y023272D01*
X018419Y023284D01*
X018383Y023300D01*
X018349Y023319D01*
X018318Y023342D01*
X018289Y023368D01*
X018262Y023396D01*
X018239Y023427D01*
X018218Y023460D01*
X018202Y023496D01*
X018188Y023532D01*
X018179Y023570D01*
X018173Y023608D01*
X018171Y023647D01*
X018161Y023247D02*
X018961Y024047D01*
X018171Y024647D02*
X018173Y024686D01*
X018179Y024724D01*
X018188Y024762D01*
X018202Y024798D01*
X018218Y024834D01*
X018239Y024867D01*
X018262Y024898D01*
X018289Y024926D01*
X018318Y024952D01*
X018349Y024975D01*
X018383Y024994D01*
X018419Y025010D01*
X018455Y025022D01*
X018493Y025031D01*
X018532Y025036D01*
X018571Y025037D01*
X018609Y025034D01*
X018648Y025027D01*
X018685Y025017D01*
X018721Y025002D01*
X018756Y024985D01*
X018789Y024964D01*
X018819Y024939D01*
X018847Y024912D01*
X018872Y024882D01*
X018894Y024850D01*
X018912Y024816D01*
X018927Y024780D01*
X018939Y024743D01*
X018947Y024705D01*
X018951Y024666D01*
X018951Y024628D01*
X018947Y024589D01*
X018939Y024551D01*
X018927Y024514D01*
X018912Y024478D01*
X018894Y024444D01*
X018872Y024412D01*
X018847Y024382D01*
X018819Y024355D01*
X018789Y024330D01*
X018756Y024309D01*
X018721Y024292D01*
X018685Y024277D01*
X018648Y024267D01*
X018609Y024260D01*
X018571Y024257D01*
X018532Y024258D01*
X018493Y024263D01*
X018455Y024272D01*
X018419Y024284D01*
X018383Y024300D01*
X018349Y024319D01*
X018318Y024342D01*
X018289Y024368D01*
X018262Y024396D01*
X018239Y024427D01*
X018218Y024460D01*
X018202Y024496D01*
X018188Y024532D01*
X018179Y024570D01*
X018173Y024608D01*
X018171Y024647D01*
X018161Y024247D02*
X018961Y025047D01*
X017171Y024647D02*
X017173Y024686D01*
X017179Y024724D01*
X017188Y024762D01*
X017202Y024798D01*
X017218Y024834D01*
X017239Y024867D01*
X017262Y024898D01*
X017289Y024926D01*
X017318Y024952D01*
X017349Y024975D01*
X017383Y024994D01*
X017419Y025010D01*
X017455Y025022D01*
X017493Y025031D01*
X017532Y025036D01*
X017571Y025037D01*
X017609Y025034D01*
X017648Y025027D01*
X017685Y025017D01*
X017721Y025002D01*
X017756Y024985D01*
X017789Y024964D01*
X017819Y024939D01*
X017847Y024912D01*
X017872Y024882D01*
X017894Y024850D01*
X017912Y024816D01*
X017927Y024780D01*
X017939Y024743D01*
X017947Y024705D01*
X017951Y024666D01*
X017951Y024628D01*
X017947Y024589D01*
X017939Y024551D01*
X017927Y024514D01*
X017912Y024478D01*
X017894Y024444D01*
X017872Y024412D01*
X017847Y024382D01*
X017819Y024355D01*
X017789Y024330D01*
X017756Y024309D01*
X017721Y024292D01*
X017685Y024277D01*
X017648Y024267D01*
X017609Y024260D01*
X017571Y024257D01*
X017532Y024258D01*
X017493Y024263D01*
X017455Y024272D01*
X017419Y024284D01*
X017383Y024300D01*
X017349Y024319D01*
X017318Y024342D01*
X017289Y024368D01*
X017262Y024396D01*
X017239Y024427D01*
X017218Y024460D01*
X017202Y024496D01*
X017188Y024532D01*
X017179Y024570D01*
X017173Y024608D01*
X017171Y024647D01*
X017161Y024247D02*
X017961Y025047D01*
X017171Y023647D02*
X017173Y023686D01*
X017179Y023724D01*
X017188Y023762D01*
X017202Y023798D01*
X017218Y023834D01*
X017239Y023867D01*
X017262Y023898D01*
X017289Y023926D01*
X017318Y023952D01*
X017349Y023975D01*
X017383Y023994D01*
X017419Y024010D01*
X017455Y024022D01*
X017493Y024031D01*
X017532Y024036D01*
X017571Y024037D01*
X017609Y024034D01*
X017648Y024027D01*
X017685Y024017D01*
X017721Y024002D01*
X017756Y023985D01*
X017789Y023964D01*
X017819Y023939D01*
X017847Y023912D01*
X017872Y023882D01*
X017894Y023850D01*
X017912Y023816D01*
X017927Y023780D01*
X017939Y023743D01*
X017947Y023705D01*
X017951Y023666D01*
X017951Y023628D01*
X017947Y023589D01*
X017939Y023551D01*
X017927Y023514D01*
X017912Y023478D01*
X017894Y023444D01*
X017872Y023412D01*
X017847Y023382D01*
X017819Y023355D01*
X017789Y023330D01*
X017756Y023309D01*
X017721Y023292D01*
X017685Y023277D01*
X017648Y023267D01*
X017609Y023260D01*
X017571Y023257D01*
X017532Y023258D01*
X017493Y023263D01*
X017455Y023272D01*
X017419Y023284D01*
X017383Y023300D01*
X017349Y023319D01*
X017318Y023342D01*
X017289Y023368D01*
X017262Y023396D01*
X017239Y023427D01*
X017218Y023460D01*
X017202Y023496D01*
X017188Y023532D01*
X017179Y023570D01*
X017173Y023608D01*
X017171Y023647D01*
X017161Y023247D02*
X017961Y024047D01*
X016171Y023647D02*
X016173Y023686D01*
X016179Y023724D01*
X016188Y023762D01*
X016202Y023798D01*
X016218Y023834D01*
X016239Y023867D01*
X016262Y023898D01*
X016289Y023926D01*
X016318Y023952D01*
X016349Y023975D01*
X016383Y023994D01*
X016419Y024010D01*
X016455Y024022D01*
X016493Y024031D01*
X016532Y024036D01*
X016571Y024037D01*
X016609Y024034D01*
X016648Y024027D01*
X016685Y024017D01*
X016721Y024002D01*
X016756Y023985D01*
X016789Y023964D01*
X016819Y023939D01*
X016847Y023912D01*
X016872Y023882D01*
X016894Y023850D01*
X016912Y023816D01*
X016927Y023780D01*
X016939Y023743D01*
X016947Y023705D01*
X016951Y023666D01*
X016951Y023628D01*
X016947Y023589D01*
X016939Y023551D01*
X016927Y023514D01*
X016912Y023478D01*
X016894Y023444D01*
X016872Y023412D01*
X016847Y023382D01*
X016819Y023355D01*
X016789Y023330D01*
X016756Y023309D01*
X016721Y023292D01*
X016685Y023277D01*
X016648Y023267D01*
X016609Y023260D01*
X016571Y023257D01*
X016532Y023258D01*
X016493Y023263D01*
X016455Y023272D01*
X016419Y023284D01*
X016383Y023300D01*
X016349Y023319D01*
X016318Y023342D01*
X016289Y023368D01*
X016262Y023396D01*
X016239Y023427D01*
X016218Y023460D01*
X016202Y023496D01*
X016188Y023532D01*
X016179Y023570D01*
X016173Y023608D01*
X016171Y023647D01*
X016161Y023247D02*
X016961Y024047D01*
X016171Y024647D02*
X016173Y024686D01*
X016179Y024724D01*
X016188Y024762D01*
X016202Y024798D01*
X016218Y024834D01*
X016239Y024867D01*
X016262Y024898D01*
X016289Y024926D01*
X016318Y024952D01*
X016349Y024975D01*
X016383Y024994D01*
X016419Y025010D01*
X016455Y025022D01*
X016493Y025031D01*
X016532Y025036D01*
X016571Y025037D01*
X016609Y025034D01*
X016648Y025027D01*
X016685Y025017D01*
X016721Y025002D01*
X016756Y024985D01*
X016789Y024964D01*
X016819Y024939D01*
X016847Y024912D01*
X016872Y024882D01*
X016894Y024850D01*
X016912Y024816D01*
X016927Y024780D01*
X016939Y024743D01*
X016947Y024705D01*
X016951Y024666D01*
X016951Y024628D01*
X016947Y024589D01*
X016939Y024551D01*
X016927Y024514D01*
X016912Y024478D01*
X016894Y024444D01*
X016872Y024412D01*
X016847Y024382D01*
X016819Y024355D01*
X016789Y024330D01*
X016756Y024309D01*
X016721Y024292D01*
X016685Y024277D01*
X016648Y024267D01*
X016609Y024260D01*
X016571Y024257D01*
X016532Y024258D01*
X016493Y024263D01*
X016455Y024272D01*
X016419Y024284D01*
X016383Y024300D01*
X016349Y024319D01*
X016318Y024342D01*
X016289Y024368D01*
X016262Y024396D01*
X016239Y024427D01*
X016218Y024460D01*
X016202Y024496D01*
X016188Y024532D01*
X016179Y024570D01*
X016173Y024608D01*
X016171Y024647D01*
X016161Y024247D02*
X016961Y025047D01*
X015171Y024647D02*
X015173Y024686D01*
X015179Y024724D01*
X015188Y024762D01*
X015202Y024798D01*
X015218Y024834D01*
X015239Y024867D01*
X015262Y024898D01*
X015289Y024926D01*
X015318Y024952D01*
X015349Y024975D01*
X015383Y024994D01*
X015419Y025010D01*
X015455Y025022D01*
X015493Y025031D01*
X015532Y025036D01*
X015571Y025037D01*
X015609Y025034D01*
X015648Y025027D01*
X015685Y025017D01*
X015721Y025002D01*
X015756Y024985D01*
X015789Y024964D01*
X015819Y024939D01*
X015847Y024912D01*
X015872Y024882D01*
X015894Y024850D01*
X015912Y024816D01*
X015927Y024780D01*
X015939Y024743D01*
X015947Y024705D01*
X015951Y024666D01*
X015951Y024628D01*
X015947Y024589D01*
X015939Y024551D01*
X015927Y024514D01*
X015912Y024478D01*
X015894Y024444D01*
X015872Y024412D01*
X015847Y024382D01*
X015819Y024355D01*
X015789Y024330D01*
X015756Y024309D01*
X015721Y024292D01*
X015685Y024277D01*
X015648Y024267D01*
X015609Y024260D01*
X015571Y024257D01*
X015532Y024258D01*
X015493Y024263D01*
X015455Y024272D01*
X015419Y024284D01*
X015383Y024300D01*
X015349Y024319D01*
X015318Y024342D01*
X015289Y024368D01*
X015262Y024396D01*
X015239Y024427D01*
X015218Y024460D01*
X015202Y024496D01*
X015188Y024532D01*
X015179Y024570D01*
X015173Y024608D01*
X015171Y024647D01*
X015161Y024247D02*
X015961Y025047D01*
X015171Y023647D02*
X015173Y023686D01*
X015179Y023724D01*
X015188Y023762D01*
X015202Y023798D01*
X015218Y023834D01*
X015239Y023867D01*
X015262Y023898D01*
X015289Y023926D01*
X015318Y023952D01*
X015349Y023975D01*
X015383Y023994D01*
X015419Y024010D01*
X015455Y024022D01*
X015493Y024031D01*
X015532Y024036D01*
X015571Y024037D01*
X015609Y024034D01*
X015648Y024027D01*
X015685Y024017D01*
X015721Y024002D01*
X015756Y023985D01*
X015789Y023964D01*
X015819Y023939D01*
X015847Y023912D01*
X015872Y023882D01*
X015894Y023850D01*
X015912Y023816D01*
X015927Y023780D01*
X015939Y023743D01*
X015947Y023705D01*
X015951Y023666D01*
X015951Y023628D01*
X015947Y023589D01*
X015939Y023551D01*
X015927Y023514D01*
X015912Y023478D01*
X015894Y023444D01*
X015872Y023412D01*
X015847Y023382D01*
X015819Y023355D01*
X015789Y023330D01*
X015756Y023309D01*
X015721Y023292D01*
X015685Y023277D01*
X015648Y023267D01*
X015609Y023260D01*
X015571Y023257D01*
X015532Y023258D01*
X015493Y023263D01*
X015455Y023272D01*
X015419Y023284D01*
X015383Y023300D01*
X015349Y023319D01*
X015318Y023342D01*
X015289Y023368D01*
X015262Y023396D01*
X015239Y023427D01*
X015218Y023460D01*
X015202Y023496D01*
X015188Y023532D01*
X015179Y023570D01*
X015173Y023608D01*
X015171Y023647D01*
X015161Y023247D02*
X015961Y024047D01*
X015292Y023354D02*
X016092Y022554D01*
X015292Y022554D02*
X016092Y023354D01*
X015174Y022527D02*
X015974Y021727D01*
X015174Y021727D02*
X015974Y022527D01*
X014832Y022003D02*
X014032Y022803D01*
X014032Y022003D02*
X014832Y022803D01*
X014171Y023647D02*
X014173Y023686D01*
X014179Y023724D01*
X014188Y023762D01*
X014202Y023798D01*
X014218Y023834D01*
X014239Y023867D01*
X014262Y023898D01*
X014289Y023926D01*
X014318Y023952D01*
X014349Y023975D01*
X014383Y023994D01*
X014419Y024010D01*
X014455Y024022D01*
X014493Y024031D01*
X014532Y024036D01*
X014571Y024037D01*
X014609Y024034D01*
X014648Y024027D01*
X014685Y024017D01*
X014721Y024002D01*
X014756Y023985D01*
X014789Y023964D01*
X014819Y023939D01*
X014847Y023912D01*
X014872Y023882D01*
X014894Y023850D01*
X014912Y023816D01*
X014927Y023780D01*
X014939Y023743D01*
X014947Y023705D01*
X014951Y023666D01*
X014951Y023628D01*
X014947Y023589D01*
X014939Y023551D01*
X014927Y023514D01*
X014912Y023478D01*
X014894Y023444D01*
X014872Y023412D01*
X014847Y023382D01*
X014819Y023355D01*
X014789Y023330D01*
X014756Y023309D01*
X014721Y023292D01*
X014685Y023277D01*
X014648Y023267D01*
X014609Y023260D01*
X014571Y023257D01*
X014532Y023258D01*
X014493Y023263D01*
X014455Y023272D01*
X014419Y023284D01*
X014383Y023300D01*
X014349Y023319D01*
X014318Y023342D01*
X014289Y023368D01*
X014262Y023396D01*
X014239Y023427D01*
X014218Y023460D01*
X014202Y023496D01*
X014188Y023532D01*
X014179Y023570D01*
X014173Y023608D01*
X014171Y023647D01*
X014161Y023247D02*
X014961Y024047D01*
X014171Y024647D02*
X014173Y024686D01*
X014179Y024724D01*
X014188Y024762D01*
X014202Y024798D01*
X014218Y024834D01*
X014239Y024867D01*
X014262Y024898D01*
X014289Y024926D01*
X014318Y024952D01*
X014349Y024975D01*
X014383Y024994D01*
X014419Y025010D01*
X014455Y025022D01*
X014493Y025031D01*
X014532Y025036D01*
X014571Y025037D01*
X014609Y025034D01*
X014648Y025027D01*
X014685Y025017D01*
X014721Y025002D01*
X014756Y024985D01*
X014789Y024964D01*
X014819Y024939D01*
X014847Y024912D01*
X014872Y024882D01*
X014894Y024850D01*
X014912Y024816D01*
X014927Y024780D01*
X014939Y024743D01*
X014947Y024705D01*
X014951Y024666D01*
X014951Y024628D01*
X014947Y024589D01*
X014939Y024551D01*
X014927Y024514D01*
X014912Y024478D01*
X014894Y024444D01*
X014872Y024412D01*
X014847Y024382D01*
X014819Y024355D01*
X014789Y024330D01*
X014756Y024309D01*
X014721Y024292D01*
X014685Y024277D01*
X014648Y024267D01*
X014609Y024260D01*
X014571Y024257D01*
X014532Y024258D01*
X014493Y024263D01*
X014455Y024272D01*
X014419Y024284D01*
X014383Y024300D01*
X014349Y024319D01*
X014318Y024342D01*
X014289Y024368D01*
X014262Y024396D01*
X014239Y024427D01*
X014218Y024460D01*
X014202Y024496D01*
X014188Y024532D01*
X014179Y024570D01*
X014173Y024608D01*
X014171Y024647D01*
X014161Y024247D02*
X014961Y025047D01*
X013171Y024647D02*
X013173Y024686D01*
X013179Y024724D01*
X013188Y024762D01*
X013202Y024798D01*
X013218Y024834D01*
X013239Y024867D01*
X013262Y024898D01*
X013289Y024926D01*
X013318Y024952D01*
X013349Y024975D01*
X013383Y024994D01*
X013419Y025010D01*
X013455Y025022D01*
X013493Y025031D01*
X013532Y025036D01*
X013571Y025037D01*
X013609Y025034D01*
X013648Y025027D01*
X013685Y025017D01*
X013721Y025002D01*
X013756Y024985D01*
X013789Y024964D01*
X013819Y024939D01*
X013847Y024912D01*
X013872Y024882D01*
X013894Y024850D01*
X013912Y024816D01*
X013927Y024780D01*
X013939Y024743D01*
X013947Y024705D01*
X013951Y024666D01*
X013951Y024628D01*
X013947Y024589D01*
X013939Y024551D01*
X013927Y024514D01*
X013912Y024478D01*
X013894Y024444D01*
X013872Y024412D01*
X013847Y024382D01*
X013819Y024355D01*
X013789Y024330D01*
X013756Y024309D01*
X013721Y024292D01*
X013685Y024277D01*
X013648Y024267D01*
X013609Y024260D01*
X013571Y024257D01*
X013532Y024258D01*
X013493Y024263D01*
X013455Y024272D01*
X013419Y024284D01*
X013383Y024300D01*
X013349Y024319D01*
X013318Y024342D01*
X013289Y024368D01*
X013262Y024396D01*
X013239Y024427D01*
X013218Y024460D01*
X013202Y024496D01*
X013188Y024532D01*
X013179Y024570D01*
X013173Y024608D01*
X013171Y024647D01*
X013161Y024247D02*
X013961Y025047D01*
X013171Y023647D02*
X013173Y023686D01*
X013179Y023724D01*
X013188Y023762D01*
X013202Y023798D01*
X013218Y023834D01*
X013239Y023867D01*
X013262Y023898D01*
X013289Y023926D01*
X013318Y023952D01*
X013349Y023975D01*
X013383Y023994D01*
X013419Y024010D01*
X013455Y024022D01*
X013493Y024031D01*
X013532Y024036D01*
X013571Y024037D01*
X013609Y024034D01*
X013648Y024027D01*
X013685Y024017D01*
X013721Y024002D01*
X013756Y023985D01*
X013789Y023964D01*
X013819Y023939D01*
X013847Y023912D01*
X013872Y023882D01*
X013894Y023850D01*
X013912Y023816D01*
X013927Y023780D01*
X013939Y023743D01*
X013947Y023705D01*
X013951Y023666D01*
X013951Y023628D01*
X013947Y023589D01*
X013939Y023551D01*
X013927Y023514D01*
X013912Y023478D01*
X013894Y023444D01*
X013872Y023412D01*
X013847Y023382D01*
X013819Y023355D01*
X013789Y023330D01*
X013756Y023309D01*
X013721Y023292D01*
X013685Y023277D01*
X013648Y023267D01*
X013609Y023260D01*
X013571Y023257D01*
X013532Y023258D01*
X013493Y023263D01*
X013455Y023272D01*
X013419Y023284D01*
X013383Y023300D01*
X013349Y023319D01*
X013318Y023342D01*
X013289Y023368D01*
X013262Y023396D01*
X013239Y023427D01*
X013218Y023460D01*
X013202Y023496D01*
X013188Y023532D01*
X013179Y023570D01*
X013173Y023608D01*
X013171Y023647D01*
X013161Y023247D02*
X013961Y024047D01*
X013126Y022803D02*
X013926Y022003D01*
X013126Y022003D02*
X013926Y022803D01*
X012536Y021307D02*
X013336Y020507D01*
X012536Y020507D02*
X013336Y021307D01*
X011071Y024327D02*
X011073Y024366D01*
X011079Y024404D01*
X011088Y024442D01*
X011102Y024478D01*
X011118Y024514D01*
X011139Y024547D01*
X011162Y024578D01*
X011189Y024606D01*
X011218Y024632D01*
X011249Y024655D01*
X011283Y024674D01*
X011319Y024690D01*
X011355Y024702D01*
X011393Y024711D01*
X011432Y024716D01*
X011471Y024717D01*
X011509Y024714D01*
X011548Y024707D01*
X011585Y024697D01*
X011621Y024682D01*
X011656Y024665D01*
X011689Y024644D01*
X011719Y024619D01*
X011747Y024592D01*
X011772Y024562D01*
X011794Y024530D01*
X011812Y024496D01*
X011827Y024460D01*
X011839Y024423D01*
X011847Y024385D01*
X011851Y024346D01*
X011851Y024308D01*
X011847Y024269D01*
X011839Y024231D01*
X011827Y024194D01*
X011812Y024158D01*
X011794Y024124D01*
X011772Y024092D01*
X011747Y024062D01*
X011719Y024035D01*
X011689Y024010D01*
X011656Y023989D01*
X011621Y023972D01*
X011585Y023957D01*
X011548Y023947D01*
X011509Y023940D01*
X011471Y023937D01*
X011432Y023938D01*
X011393Y023943D01*
X011355Y023952D01*
X011319Y023964D01*
X011283Y023980D01*
X011249Y023999D01*
X011218Y024022D01*
X011189Y024048D01*
X011162Y024076D01*
X011139Y024107D01*
X011118Y024140D01*
X011102Y024176D01*
X011088Y024212D01*
X011079Y024250D01*
X011073Y024288D01*
X011071Y024327D01*
X011061Y023927D02*
X011861Y024727D01*
X008331Y023768D02*
X008333Y023807D01*
X008339Y023845D01*
X008348Y023883D01*
X008362Y023919D01*
X008378Y023955D01*
X008399Y023988D01*
X008422Y024019D01*
X008449Y024047D01*
X008478Y024073D01*
X008509Y024096D01*
X008543Y024115D01*
X008579Y024131D01*
X008615Y024143D01*
X008653Y024152D01*
X008692Y024157D01*
X008731Y024158D01*
X008769Y024155D01*
X008808Y024148D01*
X008845Y024138D01*
X008881Y024123D01*
X008916Y024106D01*
X008949Y024085D01*
X008979Y024060D01*
X009007Y024033D01*
X009032Y024003D01*
X009054Y023971D01*
X009072Y023937D01*
X009087Y023901D01*
X009099Y023864D01*
X009107Y023826D01*
X009111Y023787D01*
X009111Y023749D01*
X009107Y023710D01*
X009099Y023672D01*
X009087Y023635D01*
X009072Y023599D01*
X009054Y023565D01*
X009032Y023533D01*
X009007Y023503D01*
X008979Y023476D01*
X008949Y023451D01*
X008916Y023430D01*
X008881Y023413D01*
X008845Y023398D01*
X008808Y023388D01*
X008769Y023381D01*
X008731Y023378D01*
X008692Y023379D01*
X008653Y023384D01*
X008615Y023393D01*
X008579Y023405D01*
X008543Y023421D01*
X008509Y023440D01*
X008478Y023463D01*
X008449Y023489D01*
X008422Y023517D01*
X008399Y023548D01*
X008378Y023581D01*
X008362Y023617D01*
X008348Y023653D01*
X008339Y023691D01*
X008333Y023729D01*
X008331Y023768D01*
X008321Y023368D02*
X009121Y024168D01*
X007784Y024886D02*
X007786Y024925D01*
X007792Y024963D01*
X007801Y025001D01*
X007815Y025037D01*
X007831Y025073D01*
X007852Y025106D01*
X007875Y025137D01*
X007902Y025165D01*
X007931Y025191D01*
X007962Y025214D01*
X007996Y025233D01*
X008032Y025249D01*
X008068Y025261D01*
X008106Y025270D01*
X008145Y025275D01*
X008184Y025276D01*
X008222Y025273D01*
X008261Y025266D01*
X008298Y025256D01*
X008334Y025241D01*
X008369Y025224D01*
X008402Y025203D01*
X008432Y025178D01*
X008460Y025151D01*
X008485Y025121D01*
X008507Y025089D01*
X008525Y025055D01*
X008540Y025019D01*
X008552Y024982D01*
X008560Y024944D01*
X008564Y024905D01*
X008564Y024867D01*
X008560Y024828D01*
X008552Y024790D01*
X008540Y024753D01*
X008525Y024717D01*
X008507Y024683D01*
X008485Y024651D01*
X008460Y024621D01*
X008432Y024594D01*
X008402Y024569D01*
X008369Y024548D01*
X008334Y024531D01*
X008298Y024516D01*
X008261Y024506D01*
X008222Y024499D01*
X008184Y024496D01*
X008145Y024497D01*
X008106Y024502D01*
X008068Y024511D01*
X008032Y024523D01*
X007996Y024539D01*
X007962Y024558D01*
X007931Y024581D01*
X007902Y024607D01*
X007875Y024635D01*
X007852Y024666D01*
X007831Y024699D01*
X007815Y024735D01*
X007801Y024771D01*
X007792Y024809D01*
X007786Y024847D01*
X007784Y024886D01*
X007774Y024486D02*
X008574Y025286D01*
X006693Y024886D02*
X006695Y024925D01*
X006701Y024963D01*
X006710Y025001D01*
X006724Y025037D01*
X006740Y025073D01*
X006761Y025106D01*
X006784Y025137D01*
X006811Y025165D01*
X006840Y025191D01*
X006871Y025214D01*
X006905Y025233D01*
X006941Y025249D01*
X006977Y025261D01*
X007015Y025270D01*
X007054Y025275D01*
X007093Y025276D01*
X007131Y025273D01*
X007170Y025266D01*
X007207Y025256D01*
X007243Y025241D01*
X007278Y025224D01*
X007311Y025203D01*
X007341Y025178D01*
X007369Y025151D01*
X007394Y025121D01*
X007416Y025089D01*
X007434Y025055D01*
X007449Y025019D01*
X007461Y024982D01*
X007469Y024944D01*
X007473Y024905D01*
X007473Y024867D01*
X007469Y024828D01*
X007461Y024790D01*
X007449Y024753D01*
X007434Y024717D01*
X007416Y024683D01*
X007394Y024651D01*
X007369Y024621D01*
X007341Y024594D01*
X007311Y024569D01*
X007278Y024548D01*
X007243Y024531D01*
X007207Y024516D01*
X007170Y024506D01*
X007131Y024499D01*
X007093Y024496D01*
X007054Y024497D01*
X007015Y024502D01*
X006977Y024511D01*
X006941Y024523D01*
X006905Y024539D01*
X006871Y024558D01*
X006840Y024581D01*
X006811Y024607D01*
X006784Y024635D01*
X006761Y024666D01*
X006740Y024699D01*
X006724Y024735D01*
X006710Y024771D01*
X006701Y024809D01*
X006695Y024847D01*
X006693Y024886D01*
X006683Y024486D02*
X007483Y025286D01*
X005607Y024886D02*
X005609Y024925D01*
X005615Y024963D01*
X005624Y025001D01*
X005638Y025037D01*
X005654Y025073D01*
X005675Y025106D01*
X005698Y025137D01*
X005725Y025165D01*
X005754Y025191D01*
X005785Y025214D01*
X005819Y025233D01*
X005855Y025249D01*
X005891Y025261D01*
X005929Y025270D01*
X005968Y025275D01*
X006007Y025276D01*
X006045Y025273D01*
X006084Y025266D01*
X006121Y025256D01*
X006157Y025241D01*
X006192Y025224D01*
X006225Y025203D01*
X006255Y025178D01*
X006283Y025151D01*
X006308Y025121D01*
X006330Y025089D01*
X006348Y025055D01*
X006363Y025019D01*
X006375Y024982D01*
X006383Y024944D01*
X006387Y024905D01*
X006387Y024867D01*
X006383Y024828D01*
X006375Y024790D01*
X006363Y024753D01*
X006348Y024717D01*
X006330Y024683D01*
X006308Y024651D01*
X006283Y024621D01*
X006255Y024594D01*
X006225Y024569D01*
X006192Y024548D01*
X006157Y024531D01*
X006121Y024516D01*
X006084Y024506D01*
X006045Y024499D01*
X006007Y024496D01*
X005968Y024497D01*
X005929Y024502D01*
X005891Y024511D01*
X005855Y024523D01*
X005819Y024539D01*
X005785Y024558D01*
X005754Y024581D01*
X005725Y024607D01*
X005698Y024635D01*
X005675Y024666D01*
X005654Y024699D01*
X005638Y024735D01*
X005624Y024771D01*
X005615Y024809D01*
X005609Y024847D01*
X005607Y024886D01*
X005597Y024486D02*
X006397Y025286D01*
X004516Y024886D02*
X004518Y024925D01*
X004524Y024963D01*
X004533Y025001D01*
X004547Y025037D01*
X004563Y025073D01*
X004584Y025106D01*
X004607Y025137D01*
X004634Y025165D01*
X004663Y025191D01*
X004694Y025214D01*
X004728Y025233D01*
X004764Y025249D01*
X004800Y025261D01*
X004838Y025270D01*
X004877Y025275D01*
X004916Y025276D01*
X004954Y025273D01*
X004993Y025266D01*
X005030Y025256D01*
X005066Y025241D01*
X005101Y025224D01*
X005134Y025203D01*
X005164Y025178D01*
X005192Y025151D01*
X005217Y025121D01*
X005239Y025089D01*
X005257Y025055D01*
X005272Y025019D01*
X005284Y024982D01*
X005292Y024944D01*
X005296Y024905D01*
X005296Y024867D01*
X005292Y024828D01*
X005284Y024790D01*
X005272Y024753D01*
X005257Y024717D01*
X005239Y024683D01*
X005217Y024651D01*
X005192Y024621D01*
X005164Y024594D01*
X005134Y024569D01*
X005101Y024548D01*
X005066Y024531D01*
X005030Y024516D01*
X004993Y024506D01*
X004954Y024499D01*
X004916Y024496D01*
X004877Y024497D01*
X004838Y024502D01*
X004800Y024511D01*
X004764Y024523D01*
X004728Y024539D01*
X004694Y024558D01*
X004663Y024581D01*
X004634Y024607D01*
X004607Y024635D01*
X004584Y024666D01*
X004563Y024699D01*
X004547Y024735D01*
X004533Y024771D01*
X004524Y024809D01*
X004518Y024847D01*
X004516Y024886D01*
X004506Y024486D02*
X005306Y025286D01*
X005059Y023768D02*
X005061Y023807D01*
X005067Y023845D01*
X005076Y023883D01*
X005090Y023919D01*
X005106Y023955D01*
X005127Y023988D01*
X005150Y024019D01*
X005177Y024047D01*
X005206Y024073D01*
X005237Y024096D01*
X005271Y024115D01*
X005307Y024131D01*
X005343Y024143D01*
X005381Y024152D01*
X005420Y024157D01*
X005459Y024158D01*
X005497Y024155D01*
X005536Y024148D01*
X005573Y024138D01*
X005609Y024123D01*
X005644Y024106D01*
X005677Y024085D01*
X005707Y024060D01*
X005735Y024033D01*
X005760Y024003D01*
X005782Y023971D01*
X005800Y023937D01*
X005815Y023901D01*
X005827Y023864D01*
X005835Y023826D01*
X005839Y023787D01*
X005839Y023749D01*
X005835Y023710D01*
X005827Y023672D01*
X005815Y023635D01*
X005800Y023599D01*
X005782Y023565D01*
X005760Y023533D01*
X005735Y023503D01*
X005707Y023476D01*
X005677Y023451D01*
X005644Y023430D01*
X005609Y023413D01*
X005573Y023398D01*
X005536Y023388D01*
X005497Y023381D01*
X005459Y023378D01*
X005420Y023379D01*
X005381Y023384D01*
X005343Y023393D01*
X005307Y023405D01*
X005271Y023421D01*
X005237Y023440D01*
X005206Y023463D01*
X005177Y023489D01*
X005150Y023517D01*
X005127Y023548D01*
X005106Y023581D01*
X005090Y023617D01*
X005076Y023653D01*
X005067Y023691D01*
X005061Y023729D01*
X005059Y023768D01*
X005049Y023368D02*
X005849Y024168D01*
X006150Y023768D02*
X006152Y023807D01*
X006158Y023845D01*
X006167Y023883D01*
X006181Y023919D01*
X006197Y023955D01*
X006218Y023988D01*
X006241Y024019D01*
X006268Y024047D01*
X006297Y024073D01*
X006328Y024096D01*
X006362Y024115D01*
X006398Y024131D01*
X006434Y024143D01*
X006472Y024152D01*
X006511Y024157D01*
X006550Y024158D01*
X006588Y024155D01*
X006627Y024148D01*
X006664Y024138D01*
X006700Y024123D01*
X006735Y024106D01*
X006768Y024085D01*
X006798Y024060D01*
X006826Y024033D01*
X006851Y024003D01*
X006873Y023971D01*
X006891Y023937D01*
X006906Y023901D01*
X006918Y023864D01*
X006926Y023826D01*
X006930Y023787D01*
X006930Y023749D01*
X006926Y023710D01*
X006918Y023672D01*
X006906Y023635D01*
X006891Y023599D01*
X006873Y023565D01*
X006851Y023533D01*
X006826Y023503D01*
X006798Y023476D01*
X006768Y023451D01*
X006735Y023430D01*
X006700Y023413D01*
X006664Y023398D01*
X006627Y023388D01*
X006588Y023381D01*
X006550Y023378D01*
X006511Y023379D01*
X006472Y023384D01*
X006434Y023393D01*
X006398Y023405D01*
X006362Y023421D01*
X006328Y023440D01*
X006297Y023463D01*
X006268Y023489D01*
X006241Y023517D01*
X006218Y023548D01*
X006197Y023581D01*
X006181Y023617D01*
X006167Y023653D01*
X006158Y023691D01*
X006152Y023729D01*
X006150Y023768D01*
X006140Y023368D02*
X006940Y024168D01*
X007240Y023768D02*
X007242Y023807D01*
X007248Y023845D01*
X007257Y023883D01*
X007271Y023919D01*
X007287Y023955D01*
X007308Y023988D01*
X007331Y024019D01*
X007358Y024047D01*
X007387Y024073D01*
X007418Y024096D01*
X007452Y024115D01*
X007488Y024131D01*
X007524Y024143D01*
X007562Y024152D01*
X007601Y024157D01*
X007640Y024158D01*
X007678Y024155D01*
X007717Y024148D01*
X007754Y024138D01*
X007790Y024123D01*
X007825Y024106D01*
X007858Y024085D01*
X007888Y024060D01*
X007916Y024033D01*
X007941Y024003D01*
X007963Y023971D01*
X007981Y023937D01*
X007996Y023901D01*
X008008Y023864D01*
X008016Y023826D01*
X008020Y023787D01*
X008020Y023749D01*
X008016Y023710D01*
X008008Y023672D01*
X007996Y023635D01*
X007981Y023599D01*
X007963Y023565D01*
X007941Y023533D01*
X007916Y023503D01*
X007888Y023476D01*
X007858Y023451D01*
X007825Y023430D01*
X007790Y023413D01*
X007754Y023398D01*
X007717Y023388D01*
X007678Y023381D01*
X007640Y023378D01*
X007601Y023379D01*
X007562Y023384D01*
X007524Y023393D01*
X007488Y023405D01*
X007452Y023421D01*
X007418Y023440D01*
X007387Y023463D01*
X007358Y023489D01*
X007331Y023517D01*
X007308Y023548D01*
X007287Y023581D01*
X007271Y023617D01*
X007257Y023653D01*
X007248Y023691D01*
X007242Y023729D01*
X007240Y023768D01*
X007230Y023368D02*
X008030Y024168D01*
X003969Y023768D02*
X003971Y023807D01*
X003977Y023845D01*
X003986Y023883D01*
X004000Y023919D01*
X004016Y023955D01*
X004037Y023988D01*
X004060Y024019D01*
X004087Y024047D01*
X004116Y024073D01*
X004147Y024096D01*
X004181Y024115D01*
X004217Y024131D01*
X004253Y024143D01*
X004291Y024152D01*
X004330Y024157D01*
X004369Y024158D01*
X004407Y024155D01*
X004446Y024148D01*
X004483Y024138D01*
X004519Y024123D01*
X004554Y024106D01*
X004587Y024085D01*
X004617Y024060D01*
X004645Y024033D01*
X004670Y024003D01*
X004692Y023971D01*
X004710Y023937D01*
X004725Y023901D01*
X004737Y023864D01*
X004745Y023826D01*
X004749Y023787D01*
X004749Y023749D01*
X004745Y023710D01*
X004737Y023672D01*
X004725Y023635D01*
X004710Y023599D01*
X004692Y023565D01*
X004670Y023533D01*
X004645Y023503D01*
X004617Y023476D01*
X004587Y023451D01*
X004554Y023430D01*
X004519Y023413D01*
X004483Y023398D01*
X004446Y023388D01*
X004407Y023381D01*
X004369Y023378D01*
X004330Y023379D01*
X004291Y023384D01*
X004253Y023393D01*
X004217Y023405D01*
X004181Y023421D01*
X004147Y023440D01*
X004116Y023463D01*
X004087Y023489D01*
X004060Y023517D01*
X004037Y023548D01*
X004016Y023581D01*
X004000Y023617D01*
X003986Y023653D01*
X003977Y023691D01*
X003971Y023729D01*
X003969Y023768D01*
X003959Y023368D02*
X004759Y024168D01*
X001229Y024327D02*
X001231Y024366D01*
X001237Y024404D01*
X001246Y024442D01*
X001260Y024478D01*
X001276Y024514D01*
X001297Y024547D01*
X001320Y024578D01*
X001347Y024606D01*
X001376Y024632D01*
X001407Y024655D01*
X001441Y024674D01*
X001477Y024690D01*
X001513Y024702D01*
X001551Y024711D01*
X001590Y024716D01*
X001629Y024717D01*
X001667Y024714D01*
X001706Y024707D01*
X001743Y024697D01*
X001779Y024682D01*
X001814Y024665D01*
X001847Y024644D01*
X001877Y024619D01*
X001905Y024592D01*
X001930Y024562D01*
X001952Y024530D01*
X001970Y024496D01*
X001985Y024460D01*
X001997Y024423D01*
X002005Y024385D01*
X002009Y024346D01*
X002009Y024308D01*
X002005Y024269D01*
X001997Y024231D01*
X001985Y024194D01*
X001970Y024158D01*
X001952Y024124D01*
X001930Y024092D01*
X001905Y024062D01*
X001877Y024035D01*
X001847Y024010D01*
X001814Y023989D01*
X001779Y023972D01*
X001743Y023957D01*
X001706Y023947D01*
X001667Y023940D01*
X001629Y023937D01*
X001590Y023938D01*
X001551Y023943D01*
X001513Y023952D01*
X001477Y023964D01*
X001441Y023980D01*
X001407Y023999D01*
X001376Y024022D01*
X001347Y024048D01*
X001320Y024076D01*
X001297Y024107D01*
X001276Y024140D01*
X001260Y024176D01*
X001246Y024212D01*
X001237Y024250D01*
X001231Y024288D01*
X001229Y024327D01*
X001219Y023927D02*
X002019Y024727D01*
X001580Y021874D02*
X000780Y021874D01*
X001180Y021474D02*
X001180Y022274D01*
X000790Y021874D02*
X000792Y021913D01*
X000798Y021951D01*
X000807Y021989D01*
X000821Y022025D01*
X000837Y022061D01*
X000858Y022094D01*
X000881Y022125D01*
X000908Y022153D01*
X000937Y022179D01*
X000968Y022202D01*
X001002Y022221D01*
X001038Y022237D01*
X001074Y022249D01*
X001112Y022258D01*
X001151Y022263D01*
X001190Y022264D01*
X001228Y022261D01*
X001267Y022254D01*
X001304Y022244D01*
X001340Y022229D01*
X001375Y022212D01*
X001408Y022191D01*
X001438Y022166D01*
X001466Y022139D01*
X001491Y022109D01*
X001513Y022077D01*
X001531Y022043D01*
X001546Y022007D01*
X001558Y021970D01*
X001566Y021932D01*
X001570Y021893D01*
X001570Y021855D01*
X001566Y021816D01*
X001558Y021778D01*
X001546Y021741D01*
X001531Y021705D01*
X001513Y021671D01*
X001491Y021639D01*
X001466Y021609D01*
X001438Y021582D01*
X001408Y021557D01*
X001375Y021536D01*
X001340Y021519D01*
X001304Y021504D01*
X001267Y021494D01*
X001228Y021487D01*
X001190Y021484D01*
X001151Y021485D01*
X001112Y021490D01*
X001074Y021499D01*
X001038Y021511D01*
X001002Y021527D01*
X000968Y021546D01*
X000937Y021569D01*
X000908Y021595D01*
X000881Y021623D01*
X000858Y021654D01*
X000837Y021687D01*
X000821Y021723D01*
X000807Y021759D01*
X000798Y021797D01*
X000792Y021835D01*
X000790Y021874D01*
X001190Y019774D02*
X001192Y019813D01*
X001198Y019851D01*
X001207Y019889D01*
X001221Y019925D01*
X001237Y019961D01*
X001258Y019994D01*
X001281Y020025D01*
X001308Y020053D01*
X001337Y020079D01*
X001368Y020102D01*
X001402Y020121D01*
X001438Y020137D01*
X001474Y020149D01*
X001512Y020158D01*
X001551Y020163D01*
X001590Y020164D01*
X001628Y020161D01*
X001667Y020154D01*
X001704Y020144D01*
X001740Y020129D01*
X001775Y020112D01*
X001808Y020091D01*
X001838Y020066D01*
X001866Y020039D01*
X001891Y020009D01*
X001913Y019977D01*
X001931Y019943D01*
X001946Y019907D01*
X001958Y019870D01*
X001966Y019832D01*
X001970Y019793D01*
X001970Y019755D01*
X001966Y019716D01*
X001958Y019678D01*
X001946Y019641D01*
X001931Y019605D01*
X001913Y019571D01*
X001891Y019539D01*
X001866Y019509D01*
X001838Y019482D01*
X001808Y019457D01*
X001775Y019436D01*
X001740Y019419D01*
X001704Y019404D01*
X001667Y019394D01*
X001628Y019387D01*
X001590Y019384D01*
X001551Y019385D01*
X001512Y019390D01*
X001474Y019399D01*
X001438Y019411D01*
X001402Y019427D01*
X001368Y019446D01*
X001337Y019469D01*
X001308Y019495D01*
X001281Y019523D01*
X001258Y019554D01*
X001237Y019587D01*
X001221Y019623D01*
X001207Y019659D01*
X001198Y019697D01*
X001192Y019735D01*
X001190Y019774D01*
X001180Y019374D02*
X001980Y020174D01*
X001190Y018774D02*
X001192Y018813D01*
X001198Y018851D01*
X001207Y018889D01*
X001221Y018925D01*
X001237Y018961D01*
X001258Y018994D01*
X001281Y019025D01*
X001308Y019053D01*
X001337Y019079D01*
X001368Y019102D01*
X001402Y019121D01*
X001438Y019137D01*
X001474Y019149D01*
X001512Y019158D01*
X001551Y019163D01*
X001590Y019164D01*
X001628Y019161D01*
X001667Y019154D01*
X001704Y019144D01*
X001740Y019129D01*
X001775Y019112D01*
X001808Y019091D01*
X001838Y019066D01*
X001866Y019039D01*
X001891Y019009D01*
X001913Y018977D01*
X001931Y018943D01*
X001946Y018907D01*
X001958Y018870D01*
X001966Y018832D01*
X001970Y018793D01*
X001970Y018755D01*
X001966Y018716D01*
X001958Y018678D01*
X001946Y018641D01*
X001931Y018605D01*
X001913Y018571D01*
X001891Y018539D01*
X001866Y018509D01*
X001838Y018482D01*
X001808Y018457D01*
X001775Y018436D01*
X001740Y018419D01*
X001704Y018404D01*
X001667Y018394D01*
X001628Y018387D01*
X001590Y018384D01*
X001551Y018385D01*
X001512Y018390D01*
X001474Y018399D01*
X001438Y018411D01*
X001402Y018427D01*
X001368Y018446D01*
X001337Y018469D01*
X001308Y018495D01*
X001281Y018523D01*
X001258Y018554D01*
X001237Y018587D01*
X001221Y018623D01*
X001207Y018659D01*
X001198Y018697D01*
X001192Y018735D01*
X001190Y018774D01*
X001180Y018374D02*
X001980Y019174D01*
X001190Y017774D02*
X001192Y017813D01*
X001198Y017851D01*
X001207Y017889D01*
X001221Y017925D01*
X001237Y017961D01*
X001258Y017994D01*
X001281Y018025D01*
X001308Y018053D01*
X001337Y018079D01*
X001368Y018102D01*
X001402Y018121D01*
X001438Y018137D01*
X001474Y018149D01*
X001512Y018158D01*
X001551Y018163D01*
X001590Y018164D01*
X001628Y018161D01*
X001667Y018154D01*
X001704Y018144D01*
X001740Y018129D01*
X001775Y018112D01*
X001808Y018091D01*
X001838Y018066D01*
X001866Y018039D01*
X001891Y018009D01*
X001913Y017977D01*
X001931Y017943D01*
X001946Y017907D01*
X001958Y017870D01*
X001966Y017832D01*
X001970Y017793D01*
X001970Y017755D01*
X001966Y017716D01*
X001958Y017678D01*
X001946Y017641D01*
X001931Y017605D01*
X001913Y017571D01*
X001891Y017539D01*
X001866Y017509D01*
X001838Y017482D01*
X001808Y017457D01*
X001775Y017436D01*
X001740Y017419D01*
X001704Y017404D01*
X001667Y017394D01*
X001628Y017387D01*
X001590Y017384D01*
X001551Y017385D01*
X001512Y017390D01*
X001474Y017399D01*
X001438Y017411D01*
X001402Y017427D01*
X001368Y017446D01*
X001337Y017469D01*
X001308Y017495D01*
X001281Y017523D01*
X001258Y017554D01*
X001237Y017587D01*
X001221Y017623D01*
X001207Y017659D01*
X001198Y017697D01*
X001192Y017735D01*
X001190Y017774D01*
X001180Y017374D02*
X001980Y018174D01*
X001190Y016774D02*
X001192Y016813D01*
X001198Y016851D01*
X001207Y016889D01*
X001221Y016925D01*
X001237Y016961D01*
X001258Y016994D01*
X001281Y017025D01*
X001308Y017053D01*
X001337Y017079D01*
X001368Y017102D01*
X001402Y017121D01*
X001438Y017137D01*
X001474Y017149D01*
X001512Y017158D01*
X001551Y017163D01*
X001590Y017164D01*
X001628Y017161D01*
X001667Y017154D01*
X001704Y017144D01*
X001740Y017129D01*
X001775Y017112D01*
X001808Y017091D01*
X001838Y017066D01*
X001866Y017039D01*
X001891Y017009D01*
X001913Y016977D01*
X001931Y016943D01*
X001946Y016907D01*
X001958Y016870D01*
X001966Y016832D01*
X001970Y016793D01*
X001970Y016755D01*
X001966Y016716D01*
X001958Y016678D01*
X001946Y016641D01*
X001931Y016605D01*
X001913Y016571D01*
X001891Y016539D01*
X001866Y016509D01*
X001838Y016482D01*
X001808Y016457D01*
X001775Y016436D01*
X001740Y016419D01*
X001704Y016404D01*
X001667Y016394D01*
X001628Y016387D01*
X001590Y016384D01*
X001551Y016385D01*
X001512Y016390D01*
X001474Y016399D01*
X001438Y016411D01*
X001402Y016427D01*
X001368Y016446D01*
X001337Y016469D01*
X001308Y016495D01*
X001281Y016523D01*
X001258Y016554D01*
X001237Y016587D01*
X001221Y016623D01*
X001207Y016659D01*
X001198Y016697D01*
X001192Y016735D01*
X001190Y016774D01*
X001180Y016374D02*
X001980Y017174D01*
X001190Y015774D02*
X001192Y015813D01*
X001198Y015851D01*
X001207Y015889D01*
X001221Y015925D01*
X001237Y015961D01*
X001258Y015994D01*
X001281Y016025D01*
X001308Y016053D01*
X001337Y016079D01*
X001368Y016102D01*
X001402Y016121D01*
X001438Y016137D01*
X001474Y016149D01*
X001512Y016158D01*
X001551Y016163D01*
X001590Y016164D01*
X001628Y016161D01*
X001667Y016154D01*
X001704Y016144D01*
X001740Y016129D01*
X001775Y016112D01*
X001808Y016091D01*
X001838Y016066D01*
X001866Y016039D01*
X001891Y016009D01*
X001913Y015977D01*
X001931Y015943D01*
X001946Y015907D01*
X001958Y015870D01*
X001966Y015832D01*
X001970Y015793D01*
X001970Y015755D01*
X001966Y015716D01*
X001958Y015678D01*
X001946Y015641D01*
X001931Y015605D01*
X001913Y015571D01*
X001891Y015539D01*
X001866Y015509D01*
X001838Y015482D01*
X001808Y015457D01*
X001775Y015436D01*
X001740Y015419D01*
X001704Y015404D01*
X001667Y015394D01*
X001628Y015387D01*
X001590Y015384D01*
X001551Y015385D01*
X001512Y015390D01*
X001474Y015399D01*
X001438Y015411D01*
X001402Y015427D01*
X001368Y015446D01*
X001337Y015469D01*
X001308Y015495D01*
X001281Y015523D01*
X001258Y015554D01*
X001237Y015587D01*
X001221Y015623D01*
X001207Y015659D01*
X001198Y015697D01*
X001192Y015735D01*
X001190Y015774D01*
X001180Y015374D02*
X001980Y016174D01*
X001190Y014774D02*
X001192Y014813D01*
X001198Y014851D01*
X001207Y014889D01*
X001221Y014925D01*
X001237Y014961D01*
X001258Y014994D01*
X001281Y015025D01*
X001308Y015053D01*
X001337Y015079D01*
X001368Y015102D01*
X001402Y015121D01*
X001438Y015137D01*
X001474Y015149D01*
X001512Y015158D01*
X001551Y015163D01*
X001590Y015164D01*
X001628Y015161D01*
X001667Y015154D01*
X001704Y015144D01*
X001740Y015129D01*
X001775Y015112D01*
X001808Y015091D01*
X001838Y015066D01*
X001866Y015039D01*
X001891Y015009D01*
X001913Y014977D01*
X001931Y014943D01*
X001946Y014907D01*
X001958Y014870D01*
X001966Y014832D01*
X001970Y014793D01*
X001970Y014755D01*
X001966Y014716D01*
X001958Y014678D01*
X001946Y014641D01*
X001931Y014605D01*
X001913Y014571D01*
X001891Y014539D01*
X001866Y014509D01*
X001838Y014482D01*
X001808Y014457D01*
X001775Y014436D01*
X001740Y014419D01*
X001704Y014404D01*
X001667Y014394D01*
X001628Y014387D01*
X001590Y014384D01*
X001551Y014385D01*
X001512Y014390D01*
X001474Y014399D01*
X001438Y014411D01*
X001402Y014427D01*
X001368Y014446D01*
X001337Y014469D01*
X001308Y014495D01*
X001281Y014523D01*
X001258Y014554D01*
X001237Y014587D01*
X001221Y014623D01*
X001207Y014659D01*
X001198Y014697D01*
X001192Y014735D01*
X001190Y014774D01*
X001180Y014374D02*
X001980Y015174D01*
X003796Y014732D02*
X004596Y013932D01*
X003796Y013932D02*
X004596Y014732D01*
X006473Y014732D02*
X007273Y013932D01*
X006473Y013932D02*
X007273Y014732D01*
X004281Y012200D02*
X003481Y013000D01*
X003481Y012200D02*
X004281Y013000D01*
X001190Y013174D02*
X001192Y013213D01*
X001198Y013251D01*
X001207Y013289D01*
X001221Y013325D01*
X001237Y013361D01*
X001258Y013394D01*
X001281Y013425D01*
X001308Y013453D01*
X001337Y013479D01*
X001368Y013502D01*
X001402Y013521D01*
X001438Y013537D01*
X001474Y013549D01*
X001512Y013558D01*
X001551Y013563D01*
X001590Y013564D01*
X001628Y013561D01*
X001667Y013554D01*
X001704Y013544D01*
X001740Y013529D01*
X001775Y013512D01*
X001808Y013491D01*
X001838Y013466D01*
X001866Y013439D01*
X001891Y013409D01*
X001913Y013377D01*
X001931Y013343D01*
X001946Y013307D01*
X001958Y013270D01*
X001966Y013232D01*
X001970Y013193D01*
X001970Y013155D01*
X001966Y013116D01*
X001958Y013078D01*
X001946Y013041D01*
X001931Y013005D01*
X001913Y012971D01*
X001891Y012939D01*
X001866Y012909D01*
X001838Y012882D01*
X001808Y012857D01*
X001775Y012836D01*
X001740Y012819D01*
X001704Y012804D01*
X001667Y012794D01*
X001628Y012787D01*
X001590Y012784D01*
X001551Y012785D01*
X001512Y012790D01*
X001474Y012799D01*
X001438Y012811D01*
X001402Y012827D01*
X001368Y012846D01*
X001337Y012869D01*
X001308Y012895D01*
X001281Y012923D01*
X001258Y012954D01*
X001237Y012987D01*
X001221Y013023D01*
X001207Y013059D01*
X001198Y013097D01*
X001192Y013135D01*
X001190Y013174D01*
X001180Y012774D02*
X001980Y013574D01*
X001190Y012174D02*
X001192Y012213D01*
X001198Y012251D01*
X001207Y012289D01*
X001221Y012325D01*
X001237Y012361D01*
X001258Y012394D01*
X001281Y012425D01*
X001308Y012453D01*
X001337Y012479D01*
X001368Y012502D01*
X001402Y012521D01*
X001438Y012537D01*
X001474Y012549D01*
X001512Y012558D01*
X001551Y012563D01*
X001590Y012564D01*
X001628Y012561D01*
X001667Y012554D01*
X001704Y012544D01*
X001740Y012529D01*
X001775Y012512D01*
X001808Y012491D01*
X001838Y012466D01*
X001866Y012439D01*
X001891Y012409D01*
X001913Y012377D01*
X001931Y012343D01*
X001946Y012307D01*
X001958Y012270D01*
X001966Y012232D01*
X001970Y012193D01*
X001970Y012155D01*
X001966Y012116D01*
X001958Y012078D01*
X001946Y012041D01*
X001931Y012005D01*
X001913Y011971D01*
X001891Y011939D01*
X001866Y011909D01*
X001838Y011882D01*
X001808Y011857D01*
X001775Y011836D01*
X001740Y011819D01*
X001704Y011804D01*
X001667Y011794D01*
X001628Y011787D01*
X001590Y011784D01*
X001551Y011785D01*
X001512Y011790D01*
X001474Y011799D01*
X001438Y011811D01*
X001402Y011827D01*
X001368Y011846D01*
X001337Y011869D01*
X001308Y011895D01*
X001281Y011923D01*
X001258Y011954D01*
X001237Y011987D01*
X001221Y012023D01*
X001207Y012059D01*
X001198Y012097D01*
X001192Y012135D01*
X001190Y012174D01*
X001180Y011774D02*
X001980Y012574D01*
X001190Y011174D02*
X001192Y011213D01*
X001198Y011251D01*
X001207Y011289D01*
X001221Y011325D01*
X001237Y011361D01*
X001258Y011394D01*
X001281Y011425D01*
X001308Y011453D01*
X001337Y011479D01*
X001368Y011502D01*
X001402Y011521D01*
X001438Y011537D01*
X001474Y011549D01*
X001512Y011558D01*
X001551Y011563D01*
X001590Y011564D01*
X001628Y011561D01*
X001667Y011554D01*
X001704Y011544D01*
X001740Y011529D01*
X001775Y011512D01*
X001808Y011491D01*
X001838Y011466D01*
X001866Y011439D01*
X001891Y011409D01*
X001913Y011377D01*
X001931Y011343D01*
X001946Y011307D01*
X001958Y011270D01*
X001966Y011232D01*
X001970Y011193D01*
X001970Y011155D01*
X001966Y011116D01*
X001958Y011078D01*
X001946Y011041D01*
X001931Y011005D01*
X001913Y010971D01*
X001891Y010939D01*
X001866Y010909D01*
X001838Y010882D01*
X001808Y010857D01*
X001775Y010836D01*
X001740Y010819D01*
X001704Y010804D01*
X001667Y010794D01*
X001628Y010787D01*
X001590Y010784D01*
X001551Y010785D01*
X001512Y010790D01*
X001474Y010799D01*
X001438Y010811D01*
X001402Y010827D01*
X001368Y010846D01*
X001337Y010869D01*
X001308Y010895D01*
X001281Y010923D01*
X001258Y010954D01*
X001237Y010987D01*
X001221Y011023D01*
X001207Y011059D01*
X001198Y011097D01*
X001192Y011135D01*
X001190Y011174D01*
X001180Y010774D02*
X001980Y011574D01*
X001190Y010174D02*
X001192Y010213D01*
X001198Y010251D01*
X001207Y010289D01*
X001221Y010325D01*
X001237Y010361D01*
X001258Y010394D01*
X001281Y010425D01*
X001308Y010453D01*
X001337Y010479D01*
X001368Y010502D01*
X001402Y010521D01*
X001438Y010537D01*
X001474Y010549D01*
X001512Y010558D01*
X001551Y010563D01*
X001590Y010564D01*
X001628Y010561D01*
X001667Y010554D01*
X001704Y010544D01*
X001740Y010529D01*
X001775Y010512D01*
X001808Y010491D01*
X001838Y010466D01*
X001866Y010439D01*
X001891Y010409D01*
X001913Y010377D01*
X001931Y010343D01*
X001946Y010307D01*
X001958Y010270D01*
X001966Y010232D01*
X001970Y010193D01*
X001970Y010155D01*
X001966Y010116D01*
X001958Y010078D01*
X001946Y010041D01*
X001931Y010005D01*
X001913Y009971D01*
X001891Y009939D01*
X001866Y009909D01*
X001838Y009882D01*
X001808Y009857D01*
X001775Y009836D01*
X001740Y009819D01*
X001704Y009804D01*
X001667Y009794D01*
X001628Y009787D01*
X001590Y009784D01*
X001551Y009785D01*
X001512Y009790D01*
X001474Y009799D01*
X001438Y009811D01*
X001402Y009827D01*
X001368Y009846D01*
X001337Y009869D01*
X001308Y009895D01*
X001281Y009923D01*
X001258Y009954D01*
X001237Y009987D01*
X001221Y010023D01*
X001207Y010059D01*
X001198Y010097D01*
X001192Y010135D01*
X001190Y010174D01*
X001180Y009774D02*
X001980Y010574D01*
X001190Y009174D02*
X001192Y009213D01*
X001198Y009251D01*
X001207Y009289D01*
X001221Y009325D01*
X001237Y009361D01*
X001258Y009394D01*
X001281Y009425D01*
X001308Y009453D01*
X001337Y009479D01*
X001368Y009502D01*
X001402Y009521D01*
X001438Y009537D01*
X001474Y009549D01*
X001512Y009558D01*
X001551Y009563D01*
X001590Y009564D01*
X001628Y009561D01*
X001667Y009554D01*
X001704Y009544D01*
X001740Y009529D01*
X001775Y009512D01*
X001808Y009491D01*
X001838Y009466D01*
X001866Y009439D01*
X001891Y009409D01*
X001913Y009377D01*
X001931Y009343D01*
X001946Y009307D01*
X001958Y009270D01*
X001966Y009232D01*
X001970Y009193D01*
X001970Y009155D01*
X001966Y009116D01*
X001958Y009078D01*
X001946Y009041D01*
X001931Y009005D01*
X001913Y008971D01*
X001891Y008939D01*
X001866Y008909D01*
X001838Y008882D01*
X001808Y008857D01*
X001775Y008836D01*
X001740Y008819D01*
X001704Y008804D01*
X001667Y008794D01*
X001628Y008787D01*
X001590Y008784D01*
X001551Y008785D01*
X001512Y008790D01*
X001474Y008799D01*
X001438Y008811D01*
X001402Y008827D01*
X001368Y008846D01*
X001337Y008869D01*
X001308Y008895D01*
X001281Y008923D01*
X001258Y008954D01*
X001237Y008987D01*
X001221Y009023D01*
X001207Y009059D01*
X001198Y009097D01*
X001192Y009135D01*
X001190Y009174D01*
X001180Y008774D02*
X001980Y009574D01*
X001190Y008174D02*
X001192Y008213D01*
X001198Y008251D01*
X001207Y008289D01*
X001221Y008325D01*
X001237Y008361D01*
X001258Y008394D01*
X001281Y008425D01*
X001308Y008453D01*
X001337Y008479D01*
X001368Y008502D01*
X001402Y008521D01*
X001438Y008537D01*
X001474Y008549D01*
X001512Y008558D01*
X001551Y008563D01*
X001590Y008564D01*
X001628Y008561D01*
X001667Y008554D01*
X001704Y008544D01*
X001740Y008529D01*
X001775Y008512D01*
X001808Y008491D01*
X001838Y008466D01*
X001866Y008439D01*
X001891Y008409D01*
X001913Y008377D01*
X001931Y008343D01*
X001946Y008307D01*
X001958Y008270D01*
X001966Y008232D01*
X001970Y008193D01*
X001970Y008155D01*
X001966Y008116D01*
X001958Y008078D01*
X001946Y008041D01*
X001931Y008005D01*
X001913Y007971D01*
X001891Y007939D01*
X001866Y007909D01*
X001838Y007882D01*
X001808Y007857D01*
X001775Y007836D01*
X001740Y007819D01*
X001704Y007804D01*
X001667Y007794D01*
X001628Y007787D01*
X001590Y007784D01*
X001551Y007785D01*
X001512Y007790D01*
X001474Y007799D01*
X001438Y007811D01*
X001402Y007827D01*
X001368Y007846D01*
X001337Y007869D01*
X001308Y007895D01*
X001281Y007923D01*
X001258Y007954D01*
X001237Y007987D01*
X001221Y008023D01*
X001207Y008059D01*
X001198Y008097D01*
X001192Y008135D01*
X001190Y008174D01*
X001180Y007774D02*
X001980Y008574D01*
X001190Y006174D02*
X001192Y006213D01*
X001198Y006251D01*
X001207Y006289D01*
X001221Y006325D01*
X001237Y006361D01*
X001258Y006394D01*
X001281Y006425D01*
X001308Y006453D01*
X001337Y006479D01*
X001368Y006502D01*
X001402Y006521D01*
X001438Y006537D01*
X001474Y006549D01*
X001512Y006558D01*
X001551Y006563D01*
X001590Y006564D01*
X001628Y006561D01*
X001667Y006554D01*
X001704Y006544D01*
X001740Y006529D01*
X001775Y006512D01*
X001808Y006491D01*
X001838Y006466D01*
X001866Y006439D01*
X001891Y006409D01*
X001913Y006377D01*
X001931Y006343D01*
X001946Y006307D01*
X001958Y006270D01*
X001966Y006232D01*
X001970Y006193D01*
X001970Y006155D01*
X001966Y006116D01*
X001958Y006078D01*
X001946Y006041D01*
X001931Y006005D01*
X001913Y005971D01*
X001891Y005939D01*
X001866Y005909D01*
X001838Y005882D01*
X001808Y005857D01*
X001775Y005836D01*
X001740Y005819D01*
X001704Y005804D01*
X001667Y005794D01*
X001628Y005787D01*
X001590Y005784D01*
X001551Y005785D01*
X001512Y005790D01*
X001474Y005799D01*
X001438Y005811D01*
X001402Y005827D01*
X001368Y005846D01*
X001337Y005869D01*
X001308Y005895D01*
X001281Y005923D01*
X001258Y005954D01*
X001237Y005987D01*
X001221Y006023D01*
X001207Y006059D01*
X001198Y006097D01*
X001192Y006135D01*
X001190Y006174D01*
X001180Y005774D02*
X001980Y006574D01*
X002190Y006174D02*
X002192Y006213D01*
X002198Y006251D01*
X002207Y006289D01*
X002221Y006325D01*
X002237Y006361D01*
X002258Y006394D01*
X002281Y006425D01*
X002308Y006453D01*
X002337Y006479D01*
X002368Y006502D01*
X002402Y006521D01*
X002438Y006537D01*
X002474Y006549D01*
X002512Y006558D01*
X002551Y006563D01*
X002590Y006564D01*
X002628Y006561D01*
X002667Y006554D01*
X002704Y006544D01*
X002740Y006529D01*
X002775Y006512D01*
X002808Y006491D01*
X002838Y006466D01*
X002866Y006439D01*
X002891Y006409D01*
X002913Y006377D01*
X002931Y006343D01*
X002946Y006307D01*
X002958Y006270D01*
X002966Y006232D01*
X002970Y006193D01*
X002970Y006155D01*
X002966Y006116D01*
X002958Y006078D01*
X002946Y006041D01*
X002931Y006005D01*
X002913Y005971D01*
X002891Y005939D01*
X002866Y005909D01*
X002838Y005882D01*
X002808Y005857D01*
X002775Y005836D01*
X002740Y005819D01*
X002704Y005804D01*
X002667Y005794D01*
X002628Y005787D01*
X002590Y005784D01*
X002551Y005785D01*
X002512Y005790D01*
X002474Y005799D01*
X002438Y005811D01*
X002402Y005827D01*
X002368Y005846D01*
X002337Y005869D01*
X002308Y005895D01*
X002281Y005923D01*
X002258Y005954D01*
X002237Y005987D01*
X002221Y006023D01*
X002207Y006059D01*
X002198Y006097D01*
X002192Y006135D01*
X002190Y006174D01*
X002180Y005774D02*
X002980Y006574D01*
X002190Y005174D02*
X002192Y005213D01*
X002198Y005251D01*
X002207Y005289D01*
X002221Y005325D01*
X002237Y005361D01*
X002258Y005394D01*
X002281Y005425D01*
X002308Y005453D01*
X002337Y005479D01*
X002368Y005502D01*
X002402Y005521D01*
X002438Y005537D01*
X002474Y005549D01*
X002512Y005558D01*
X002551Y005563D01*
X002590Y005564D01*
X002628Y005561D01*
X002667Y005554D01*
X002704Y005544D01*
X002740Y005529D01*
X002775Y005512D01*
X002808Y005491D01*
X002838Y005466D01*
X002866Y005439D01*
X002891Y005409D01*
X002913Y005377D01*
X002931Y005343D01*
X002946Y005307D01*
X002958Y005270D01*
X002966Y005232D01*
X002970Y005193D01*
X002970Y005155D01*
X002966Y005116D01*
X002958Y005078D01*
X002946Y005041D01*
X002931Y005005D01*
X002913Y004971D01*
X002891Y004939D01*
X002866Y004909D01*
X002838Y004882D01*
X002808Y004857D01*
X002775Y004836D01*
X002740Y004819D01*
X002704Y004804D01*
X002667Y004794D01*
X002628Y004787D01*
X002590Y004784D01*
X002551Y004785D01*
X002512Y004790D01*
X002474Y004799D01*
X002438Y004811D01*
X002402Y004827D01*
X002368Y004846D01*
X002337Y004869D01*
X002308Y004895D01*
X002281Y004923D01*
X002258Y004954D01*
X002237Y004987D01*
X002221Y005023D01*
X002207Y005059D01*
X002198Y005097D01*
X002192Y005135D01*
X002190Y005174D01*
X002180Y004774D02*
X002980Y005574D01*
X001190Y005174D02*
X001192Y005213D01*
X001198Y005251D01*
X001207Y005289D01*
X001221Y005325D01*
X001237Y005361D01*
X001258Y005394D01*
X001281Y005425D01*
X001308Y005453D01*
X001337Y005479D01*
X001368Y005502D01*
X001402Y005521D01*
X001438Y005537D01*
X001474Y005549D01*
X001512Y005558D01*
X001551Y005563D01*
X001590Y005564D01*
X001628Y005561D01*
X001667Y005554D01*
X001704Y005544D01*
X001740Y005529D01*
X001775Y005512D01*
X001808Y005491D01*
X001838Y005466D01*
X001866Y005439D01*
X001891Y005409D01*
X001913Y005377D01*
X001931Y005343D01*
X001946Y005307D01*
X001958Y005270D01*
X001966Y005232D01*
X001970Y005193D01*
X001970Y005155D01*
X001966Y005116D01*
X001958Y005078D01*
X001946Y005041D01*
X001931Y005005D01*
X001913Y004971D01*
X001891Y004939D01*
X001866Y004909D01*
X001838Y004882D01*
X001808Y004857D01*
X001775Y004836D01*
X001740Y004819D01*
X001704Y004804D01*
X001667Y004794D01*
X001628Y004787D01*
X001590Y004784D01*
X001551Y004785D01*
X001512Y004790D01*
X001474Y004799D01*
X001438Y004811D01*
X001402Y004827D01*
X001368Y004846D01*
X001337Y004869D01*
X001308Y004895D01*
X001281Y004923D01*
X001258Y004954D01*
X001237Y004987D01*
X001221Y005023D01*
X001207Y005059D01*
X001198Y005097D01*
X001192Y005135D01*
X001190Y005174D01*
X001180Y004774D02*
X001980Y005574D01*
X001190Y004174D02*
X001192Y004213D01*
X001198Y004251D01*
X001207Y004289D01*
X001221Y004325D01*
X001237Y004361D01*
X001258Y004394D01*
X001281Y004425D01*
X001308Y004453D01*
X001337Y004479D01*
X001368Y004502D01*
X001402Y004521D01*
X001438Y004537D01*
X001474Y004549D01*
X001512Y004558D01*
X001551Y004563D01*
X001590Y004564D01*
X001628Y004561D01*
X001667Y004554D01*
X001704Y004544D01*
X001740Y004529D01*
X001775Y004512D01*
X001808Y004491D01*
X001838Y004466D01*
X001866Y004439D01*
X001891Y004409D01*
X001913Y004377D01*
X001931Y004343D01*
X001946Y004307D01*
X001958Y004270D01*
X001966Y004232D01*
X001970Y004193D01*
X001970Y004155D01*
X001966Y004116D01*
X001958Y004078D01*
X001946Y004041D01*
X001931Y004005D01*
X001913Y003971D01*
X001891Y003939D01*
X001866Y003909D01*
X001838Y003882D01*
X001808Y003857D01*
X001775Y003836D01*
X001740Y003819D01*
X001704Y003804D01*
X001667Y003794D01*
X001628Y003787D01*
X001590Y003784D01*
X001551Y003785D01*
X001512Y003790D01*
X001474Y003799D01*
X001438Y003811D01*
X001402Y003827D01*
X001368Y003846D01*
X001337Y003869D01*
X001308Y003895D01*
X001281Y003923D01*
X001258Y003954D01*
X001237Y003987D01*
X001221Y004023D01*
X001207Y004059D01*
X001198Y004097D01*
X001192Y004135D01*
X001190Y004174D01*
X001180Y003774D02*
X001980Y004574D01*
X002190Y004174D02*
X002192Y004213D01*
X002198Y004251D01*
X002207Y004289D01*
X002221Y004325D01*
X002237Y004361D01*
X002258Y004394D01*
X002281Y004425D01*
X002308Y004453D01*
X002337Y004479D01*
X002368Y004502D01*
X002402Y004521D01*
X002438Y004537D01*
X002474Y004549D01*
X002512Y004558D01*
X002551Y004563D01*
X002590Y004564D01*
X002628Y004561D01*
X002667Y004554D01*
X002704Y004544D01*
X002740Y004529D01*
X002775Y004512D01*
X002808Y004491D01*
X002838Y004466D01*
X002866Y004439D01*
X002891Y004409D01*
X002913Y004377D01*
X002931Y004343D01*
X002946Y004307D01*
X002958Y004270D01*
X002966Y004232D01*
X002970Y004193D01*
X002970Y004155D01*
X002966Y004116D01*
X002958Y004078D01*
X002946Y004041D01*
X002931Y004005D01*
X002913Y003971D01*
X002891Y003939D01*
X002866Y003909D01*
X002838Y003882D01*
X002808Y003857D01*
X002775Y003836D01*
X002740Y003819D01*
X002704Y003804D01*
X002667Y003794D01*
X002628Y003787D01*
X002590Y003784D01*
X002551Y003785D01*
X002512Y003790D01*
X002474Y003799D01*
X002438Y003811D01*
X002402Y003827D01*
X002368Y003846D01*
X002337Y003869D01*
X002308Y003895D01*
X002281Y003923D01*
X002258Y003954D01*
X002237Y003987D01*
X002221Y004023D01*
X002207Y004059D01*
X002198Y004097D01*
X002192Y004135D01*
X002190Y004174D01*
X002180Y003774D02*
X002980Y004574D01*
X002190Y003174D02*
X002192Y003213D01*
X002198Y003251D01*
X002207Y003289D01*
X002221Y003325D01*
X002237Y003361D01*
X002258Y003394D01*
X002281Y003425D01*
X002308Y003453D01*
X002337Y003479D01*
X002368Y003502D01*
X002402Y003521D01*
X002438Y003537D01*
X002474Y003549D01*
X002512Y003558D01*
X002551Y003563D01*
X002590Y003564D01*
X002628Y003561D01*
X002667Y003554D01*
X002704Y003544D01*
X002740Y003529D01*
X002775Y003512D01*
X002808Y003491D01*
X002838Y003466D01*
X002866Y003439D01*
X002891Y003409D01*
X002913Y003377D01*
X002931Y003343D01*
X002946Y003307D01*
X002958Y003270D01*
X002966Y003232D01*
X002970Y003193D01*
X002970Y003155D01*
X002966Y003116D01*
X002958Y003078D01*
X002946Y003041D01*
X002931Y003005D01*
X002913Y002971D01*
X002891Y002939D01*
X002866Y002909D01*
X002838Y002882D01*
X002808Y002857D01*
X002775Y002836D01*
X002740Y002819D01*
X002704Y002804D01*
X002667Y002794D01*
X002628Y002787D01*
X002590Y002784D01*
X002551Y002785D01*
X002512Y002790D01*
X002474Y002799D01*
X002438Y002811D01*
X002402Y002827D01*
X002368Y002846D01*
X002337Y002869D01*
X002308Y002895D01*
X002281Y002923D01*
X002258Y002954D01*
X002237Y002987D01*
X002221Y003023D01*
X002207Y003059D01*
X002198Y003097D01*
X002192Y003135D01*
X002190Y003174D01*
X002180Y002774D02*
X002980Y003574D01*
X003790Y002617D02*
X003792Y002656D01*
X003798Y002694D01*
X003807Y002732D01*
X003821Y002768D01*
X003837Y002804D01*
X003858Y002837D01*
X003881Y002868D01*
X003908Y002896D01*
X003937Y002922D01*
X003968Y002945D01*
X004002Y002964D01*
X004038Y002980D01*
X004074Y002992D01*
X004112Y003001D01*
X004151Y003006D01*
X004190Y003007D01*
X004228Y003004D01*
X004267Y002997D01*
X004304Y002987D01*
X004340Y002972D01*
X004375Y002955D01*
X004408Y002934D01*
X004438Y002909D01*
X004466Y002882D01*
X004491Y002852D01*
X004513Y002820D01*
X004531Y002786D01*
X004546Y002750D01*
X004558Y002713D01*
X004566Y002675D01*
X004570Y002636D01*
X004570Y002598D01*
X004566Y002559D01*
X004558Y002521D01*
X004546Y002484D01*
X004531Y002448D01*
X004513Y002414D01*
X004491Y002382D01*
X004466Y002352D01*
X004438Y002325D01*
X004408Y002300D01*
X004375Y002279D01*
X004340Y002262D01*
X004304Y002247D01*
X004267Y002237D01*
X004228Y002230D01*
X004190Y002227D01*
X004151Y002228D01*
X004112Y002233D01*
X004074Y002242D01*
X004038Y002254D01*
X004002Y002270D01*
X003968Y002289D01*
X003937Y002312D01*
X003908Y002338D01*
X003881Y002366D01*
X003858Y002397D01*
X003837Y002430D01*
X003821Y002466D01*
X003807Y002502D01*
X003798Y002540D01*
X003792Y002578D01*
X003790Y002617D01*
X003780Y002217D02*
X004580Y003017D01*
X004790Y002617D02*
X004792Y002656D01*
X004798Y002694D01*
X004807Y002732D01*
X004821Y002768D01*
X004837Y002804D01*
X004858Y002837D01*
X004881Y002868D01*
X004908Y002896D01*
X004937Y002922D01*
X004968Y002945D01*
X005002Y002964D01*
X005038Y002980D01*
X005074Y002992D01*
X005112Y003001D01*
X005151Y003006D01*
X005190Y003007D01*
X005228Y003004D01*
X005267Y002997D01*
X005304Y002987D01*
X005340Y002972D01*
X005375Y002955D01*
X005408Y002934D01*
X005438Y002909D01*
X005466Y002882D01*
X005491Y002852D01*
X005513Y002820D01*
X005531Y002786D01*
X005546Y002750D01*
X005558Y002713D01*
X005566Y002675D01*
X005570Y002636D01*
X005570Y002598D01*
X005566Y002559D01*
X005558Y002521D01*
X005546Y002484D01*
X005531Y002448D01*
X005513Y002414D01*
X005491Y002382D01*
X005466Y002352D01*
X005438Y002325D01*
X005408Y002300D01*
X005375Y002279D01*
X005340Y002262D01*
X005304Y002247D01*
X005267Y002237D01*
X005228Y002230D01*
X005190Y002227D01*
X005151Y002228D01*
X005112Y002233D01*
X005074Y002242D01*
X005038Y002254D01*
X005002Y002270D01*
X004968Y002289D01*
X004937Y002312D01*
X004908Y002338D01*
X004881Y002366D01*
X004858Y002397D01*
X004837Y002430D01*
X004821Y002466D01*
X004807Y002502D01*
X004798Y002540D01*
X004792Y002578D01*
X004790Y002617D01*
X004780Y002217D02*
X005580Y003017D01*
X005790Y002617D02*
X005792Y002656D01*
X005798Y002694D01*
X005807Y002732D01*
X005821Y002768D01*
X005837Y002804D01*
X005858Y002837D01*
X005881Y002868D01*
X005908Y002896D01*
X005937Y002922D01*
X005968Y002945D01*
X006002Y002964D01*
X006038Y002980D01*
X006074Y002992D01*
X006112Y003001D01*
X006151Y003006D01*
X006190Y003007D01*
X006228Y003004D01*
X006267Y002997D01*
X006304Y002987D01*
X006340Y002972D01*
X006375Y002955D01*
X006408Y002934D01*
X006438Y002909D01*
X006466Y002882D01*
X006491Y002852D01*
X006513Y002820D01*
X006531Y002786D01*
X006546Y002750D01*
X006558Y002713D01*
X006566Y002675D01*
X006570Y002636D01*
X006570Y002598D01*
X006566Y002559D01*
X006558Y002521D01*
X006546Y002484D01*
X006531Y002448D01*
X006513Y002414D01*
X006491Y002382D01*
X006466Y002352D01*
X006438Y002325D01*
X006408Y002300D01*
X006375Y002279D01*
X006340Y002262D01*
X006304Y002247D01*
X006267Y002237D01*
X006228Y002230D01*
X006190Y002227D01*
X006151Y002228D01*
X006112Y002233D01*
X006074Y002242D01*
X006038Y002254D01*
X006002Y002270D01*
X005968Y002289D01*
X005937Y002312D01*
X005908Y002338D01*
X005881Y002366D01*
X005858Y002397D01*
X005837Y002430D01*
X005821Y002466D01*
X005807Y002502D01*
X005798Y002540D01*
X005792Y002578D01*
X005790Y002617D01*
X005780Y002217D02*
X006580Y003017D01*
X006790Y002617D02*
X006792Y002656D01*
X006798Y002694D01*
X006807Y002732D01*
X006821Y002768D01*
X006837Y002804D01*
X006858Y002837D01*
X006881Y002868D01*
X006908Y002896D01*
X006937Y002922D01*
X006968Y002945D01*
X007002Y002964D01*
X007038Y002980D01*
X007074Y002992D01*
X007112Y003001D01*
X007151Y003006D01*
X007190Y003007D01*
X007228Y003004D01*
X007267Y002997D01*
X007304Y002987D01*
X007340Y002972D01*
X007375Y002955D01*
X007408Y002934D01*
X007438Y002909D01*
X007466Y002882D01*
X007491Y002852D01*
X007513Y002820D01*
X007531Y002786D01*
X007546Y002750D01*
X007558Y002713D01*
X007566Y002675D01*
X007570Y002636D01*
X007570Y002598D01*
X007566Y002559D01*
X007558Y002521D01*
X007546Y002484D01*
X007531Y002448D01*
X007513Y002414D01*
X007491Y002382D01*
X007466Y002352D01*
X007438Y002325D01*
X007408Y002300D01*
X007375Y002279D01*
X007340Y002262D01*
X007304Y002247D01*
X007267Y002237D01*
X007228Y002230D01*
X007190Y002227D01*
X007151Y002228D01*
X007112Y002233D01*
X007074Y002242D01*
X007038Y002254D01*
X007002Y002270D01*
X006968Y002289D01*
X006937Y002312D01*
X006908Y002338D01*
X006881Y002366D01*
X006858Y002397D01*
X006837Y002430D01*
X006821Y002466D01*
X006807Y002502D01*
X006798Y002540D01*
X006792Y002578D01*
X006790Y002617D01*
X006780Y002217D02*
X007580Y003017D01*
X007790Y002617D02*
X007792Y002656D01*
X007798Y002694D01*
X007807Y002732D01*
X007821Y002768D01*
X007837Y002804D01*
X007858Y002837D01*
X007881Y002868D01*
X007908Y002896D01*
X007937Y002922D01*
X007968Y002945D01*
X008002Y002964D01*
X008038Y002980D01*
X008074Y002992D01*
X008112Y003001D01*
X008151Y003006D01*
X008190Y003007D01*
X008228Y003004D01*
X008267Y002997D01*
X008304Y002987D01*
X008340Y002972D01*
X008375Y002955D01*
X008408Y002934D01*
X008438Y002909D01*
X008466Y002882D01*
X008491Y002852D01*
X008513Y002820D01*
X008531Y002786D01*
X008546Y002750D01*
X008558Y002713D01*
X008566Y002675D01*
X008570Y002636D01*
X008570Y002598D01*
X008566Y002559D01*
X008558Y002521D01*
X008546Y002484D01*
X008531Y002448D01*
X008513Y002414D01*
X008491Y002382D01*
X008466Y002352D01*
X008438Y002325D01*
X008408Y002300D01*
X008375Y002279D01*
X008340Y002262D01*
X008304Y002247D01*
X008267Y002237D01*
X008228Y002230D01*
X008190Y002227D01*
X008151Y002228D01*
X008112Y002233D01*
X008074Y002242D01*
X008038Y002254D01*
X008002Y002270D01*
X007968Y002289D01*
X007937Y002312D01*
X007908Y002338D01*
X007881Y002366D01*
X007858Y002397D01*
X007837Y002430D01*
X007821Y002466D01*
X007807Y002502D01*
X007798Y002540D01*
X007792Y002578D01*
X007790Y002617D01*
X007780Y002217D02*
X008580Y003017D01*
X008790Y002617D02*
X008792Y002656D01*
X008798Y002694D01*
X008807Y002732D01*
X008821Y002768D01*
X008837Y002804D01*
X008858Y002837D01*
X008881Y002868D01*
X008908Y002896D01*
X008937Y002922D01*
X008968Y002945D01*
X009002Y002964D01*
X009038Y002980D01*
X009074Y002992D01*
X009112Y003001D01*
X009151Y003006D01*
X009190Y003007D01*
X009228Y003004D01*
X009267Y002997D01*
X009304Y002987D01*
X009340Y002972D01*
X009375Y002955D01*
X009408Y002934D01*
X009438Y002909D01*
X009466Y002882D01*
X009491Y002852D01*
X009513Y002820D01*
X009531Y002786D01*
X009546Y002750D01*
X009558Y002713D01*
X009566Y002675D01*
X009570Y002636D01*
X009570Y002598D01*
X009566Y002559D01*
X009558Y002521D01*
X009546Y002484D01*
X009531Y002448D01*
X009513Y002414D01*
X009491Y002382D01*
X009466Y002352D01*
X009438Y002325D01*
X009408Y002300D01*
X009375Y002279D01*
X009340Y002262D01*
X009304Y002247D01*
X009267Y002237D01*
X009228Y002230D01*
X009190Y002227D01*
X009151Y002228D01*
X009112Y002233D01*
X009074Y002242D01*
X009038Y002254D01*
X009002Y002270D01*
X008968Y002289D01*
X008937Y002312D01*
X008908Y002338D01*
X008881Y002366D01*
X008858Y002397D01*
X008837Y002430D01*
X008821Y002466D01*
X008807Y002502D01*
X008798Y002540D01*
X008792Y002578D01*
X008790Y002617D01*
X008780Y002217D02*
X009580Y003017D01*
X009790Y002617D02*
X009792Y002656D01*
X009798Y002694D01*
X009807Y002732D01*
X009821Y002768D01*
X009837Y002804D01*
X009858Y002837D01*
X009881Y002868D01*
X009908Y002896D01*
X009937Y002922D01*
X009968Y002945D01*
X010002Y002964D01*
X010038Y002980D01*
X010074Y002992D01*
X010112Y003001D01*
X010151Y003006D01*
X010190Y003007D01*
X010228Y003004D01*
X010267Y002997D01*
X010304Y002987D01*
X010340Y002972D01*
X010375Y002955D01*
X010408Y002934D01*
X010438Y002909D01*
X010466Y002882D01*
X010491Y002852D01*
X010513Y002820D01*
X010531Y002786D01*
X010546Y002750D01*
X010558Y002713D01*
X010566Y002675D01*
X010570Y002636D01*
X010570Y002598D01*
X010566Y002559D01*
X010558Y002521D01*
X010546Y002484D01*
X010531Y002448D01*
X010513Y002414D01*
X010491Y002382D01*
X010466Y002352D01*
X010438Y002325D01*
X010408Y002300D01*
X010375Y002279D01*
X010340Y002262D01*
X010304Y002247D01*
X010267Y002237D01*
X010228Y002230D01*
X010190Y002227D01*
X010151Y002228D01*
X010112Y002233D01*
X010074Y002242D01*
X010038Y002254D01*
X010002Y002270D01*
X009968Y002289D01*
X009937Y002312D01*
X009908Y002338D01*
X009881Y002366D01*
X009858Y002397D01*
X009837Y002430D01*
X009821Y002466D01*
X009807Y002502D01*
X009798Y002540D01*
X009792Y002578D01*
X009790Y002617D01*
X009780Y002217D02*
X010580Y003017D01*
X010790Y002617D02*
X010792Y002656D01*
X010798Y002694D01*
X010807Y002732D01*
X010821Y002768D01*
X010837Y002804D01*
X010858Y002837D01*
X010881Y002868D01*
X010908Y002896D01*
X010937Y002922D01*
X010968Y002945D01*
X011002Y002964D01*
X011038Y002980D01*
X011074Y002992D01*
X011112Y003001D01*
X011151Y003006D01*
X011190Y003007D01*
X011228Y003004D01*
X011267Y002997D01*
X011304Y002987D01*
X011340Y002972D01*
X011375Y002955D01*
X011408Y002934D01*
X011438Y002909D01*
X011466Y002882D01*
X011491Y002852D01*
X011513Y002820D01*
X011531Y002786D01*
X011546Y002750D01*
X011558Y002713D01*
X011566Y002675D01*
X011570Y002636D01*
X011570Y002598D01*
X011566Y002559D01*
X011558Y002521D01*
X011546Y002484D01*
X011531Y002448D01*
X011513Y002414D01*
X011491Y002382D01*
X011466Y002352D01*
X011438Y002325D01*
X011408Y002300D01*
X011375Y002279D01*
X011340Y002262D01*
X011304Y002247D01*
X011267Y002237D01*
X011228Y002230D01*
X011190Y002227D01*
X011151Y002228D01*
X011112Y002233D01*
X011074Y002242D01*
X011038Y002254D01*
X011002Y002270D01*
X010968Y002289D01*
X010937Y002312D01*
X010908Y002338D01*
X010881Y002366D01*
X010858Y002397D01*
X010837Y002430D01*
X010821Y002466D01*
X010807Y002502D01*
X010798Y002540D01*
X010792Y002578D01*
X010790Y002617D01*
X010780Y002217D02*
X011580Y003017D01*
X011790Y002617D02*
X011792Y002656D01*
X011798Y002694D01*
X011807Y002732D01*
X011821Y002768D01*
X011837Y002804D01*
X011858Y002837D01*
X011881Y002868D01*
X011908Y002896D01*
X011937Y002922D01*
X011968Y002945D01*
X012002Y002964D01*
X012038Y002980D01*
X012074Y002992D01*
X012112Y003001D01*
X012151Y003006D01*
X012190Y003007D01*
X012228Y003004D01*
X012267Y002997D01*
X012304Y002987D01*
X012340Y002972D01*
X012375Y002955D01*
X012408Y002934D01*
X012438Y002909D01*
X012466Y002882D01*
X012491Y002852D01*
X012513Y002820D01*
X012531Y002786D01*
X012546Y002750D01*
X012558Y002713D01*
X012566Y002675D01*
X012570Y002636D01*
X012570Y002598D01*
X012566Y002559D01*
X012558Y002521D01*
X012546Y002484D01*
X012531Y002448D01*
X012513Y002414D01*
X012491Y002382D01*
X012466Y002352D01*
X012438Y002325D01*
X012408Y002300D01*
X012375Y002279D01*
X012340Y002262D01*
X012304Y002247D01*
X012267Y002237D01*
X012228Y002230D01*
X012190Y002227D01*
X012151Y002228D01*
X012112Y002233D01*
X012074Y002242D01*
X012038Y002254D01*
X012002Y002270D01*
X011968Y002289D01*
X011937Y002312D01*
X011908Y002338D01*
X011881Y002366D01*
X011858Y002397D01*
X011837Y002430D01*
X011821Y002466D01*
X011807Y002502D01*
X011798Y002540D01*
X011792Y002578D01*
X011790Y002617D01*
X011780Y002217D02*
X012580Y003017D01*
X012790Y002617D02*
X012792Y002656D01*
X012798Y002694D01*
X012807Y002732D01*
X012821Y002768D01*
X012837Y002804D01*
X012858Y002837D01*
X012881Y002868D01*
X012908Y002896D01*
X012937Y002922D01*
X012968Y002945D01*
X013002Y002964D01*
X013038Y002980D01*
X013074Y002992D01*
X013112Y003001D01*
X013151Y003006D01*
X013190Y003007D01*
X013228Y003004D01*
X013267Y002997D01*
X013304Y002987D01*
X013340Y002972D01*
X013375Y002955D01*
X013408Y002934D01*
X013438Y002909D01*
X013466Y002882D01*
X013491Y002852D01*
X013513Y002820D01*
X013531Y002786D01*
X013546Y002750D01*
X013558Y002713D01*
X013566Y002675D01*
X013570Y002636D01*
X013570Y002598D01*
X013566Y002559D01*
X013558Y002521D01*
X013546Y002484D01*
X013531Y002448D01*
X013513Y002414D01*
X013491Y002382D01*
X013466Y002352D01*
X013438Y002325D01*
X013408Y002300D01*
X013375Y002279D01*
X013340Y002262D01*
X013304Y002247D01*
X013267Y002237D01*
X013228Y002230D01*
X013190Y002227D01*
X013151Y002228D01*
X013112Y002233D01*
X013074Y002242D01*
X013038Y002254D01*
X013002Y002270D01*
X012968Y002289D01*
X012937Y002312D01*
X012908Y002338D01*
X012881Y002366D01*
X012858Y002397D01*
X012837Y002430D01*
X012821Y002466D01*
X012807Y002502D01*
X012798Y002540D01*
X012792Y002578D01*
X012790Y002617D01*
X012780Y002217D02*
X013580Y003017D01*
X013790Y002617D02*
X013792Y002656D01*
X013798Y002694D01*
X013807Y002732D01*
X013821Y002768D01*
X013837Y002804D01*
X013858Y002837D01*
X013881Y002868D01*
X013908Y002896D01*
X013937Y002922D01*
X013968Y002945D01*
X014002Y002964D01*
X014038Y002980D01*
X014074Y002992D01*
X014112Y003001D01*
X014151Y003006D01*
X014190Y003007D01*
X014228Y003004D01*
X014267Y002997D01*
X014304Y002987D01*
X014340Y002972D01*
X014375Y002955D01*
X014408Y002934D01*
X014438Y002909D01*
X014466Y002882D01*
X014491Y002852D01*
X014513Y002820D01*
X014531Y002786D01*
X014546Y002750D01*
X014558Y002713D01*
X014566Y002675D01*
X014570Y002636D01*
X014570Y002598D01*
X014566Y002559D01*
X014558Y002521D01*
X014546Y002484D01*
X014531Y002448D01*
X014513Y002414D01*
X014491Y002382D01*
X014466Y002352D01*
X014438Y002325D01*
X014408Y002300D01*
X014375Y002279D01*
X014340Y002262D01*
X014304Y002247D01*
X014267Y002237D01*
X014228Y002230D01*
X014190Y002227D01*
X014151Y002228D01*
X014112Y002233D01*
X014074Y002242D01*
X014038Y002254D01*
X014002Y002270D01*
X013968Y002289D01*
X013937Y002312D01*
X013908Y002338D01*
X013881Y002366D01*
X013858Y002397D01*
X013837Y002430D01*
X013821Y002466D01*
X013807Y002502D01*
X013798Y002540D01*
X013792Y002578D01*
X013790Y002617D01*
X013780Y002217D02*
X014580Y003017D01*
X014790Y002617D02*
X014792Y002656D01*
X014798Y002694D01*
X014807Y002732D01*
X014821Y002768D01*
X014837Y002804D01*
X014858Y002837D01*
X014881Y002868D01*
X014908Y002896D01*
X014937Y002922D01*
X014968Y002945D01*
X015002Y002964D01*
X015038Y002980D01*
X015074Y002992D01*
X015112Y003001D01*
X015151Y003006D01*
X015190Y003007D01*
X015228Y003004D01*
X015267Y002997D01*
X015304Y002987D01*
X015340Y002972D01*
X015375Y002955D01*
X015408Y002934D01*
X015438Y002909D01*
X015466Y002882D01*
X015491Y002852D01*
X015513Y002820D01*
X015531Y002786D01*
X015546Y002750D01*
X015558Y002713D01*
X015566Y002675D01*
X015570Y002636D01*
X015570Y002598D01*
X015566Y002559D01*
X015558Y002521D01*
X015546Y002484D01*
X015531Y002448D01*
X015513Y002414D01*
X015491Y002382D01*
X015466Y002352D01*
X015438Y002325D01*
X015408Y002300D01*
X015375Y002279D01*
X015340Y002262D01*
X015304Y002247D01*
X015267Y002237D01*
X015228Y002230D01*
X015190Y002227D01*
X015151Y002228D01*
X015112Y002233D01*
X015074Y002242D01*
X015038Y002254D01*
X015002Y002270D01*
X014968Y002289D01*
X014937Y002312D01*
X014908Y002338D01*
X014881Y002366D01*
X014858Y002397D01*
X014837Y002430D01*
X014821Y002466D01*
X014807Y002502D01*
X014798Y002540D01*
X014792Y002578D01*
X014790Y002617D01*
X014780Y002217D02*
X015580Y003017D01*
X015790Y002617D02*
X015792Y002656D01*
X015798Y002694D01*
X015807Y002732D01*
X015821Y002768D01*
X015837Y002804D01*
X015858Y002837D01*
X015881Y002868D01*
X015908Y002896D01*
X015937Y002922D01*
X015968Y002945D01*
X016002Y002964D01*
X016038Y002980D01*
X016074Y002992D01*
X016112Y003001D01*
X016151Y003006D01*
X016190Y003007D01*
X016228Y003004D01*
X016267Y002997D01*
X016304Y002987D01*
X016340Y002972D01*
X016375Y002955D01*
X016408Y002934D01*
X016438Y002909D01*
X016466Y002882D01*
X016491Y002852D01*
X016513Y002820D01*
X016531Y002786D01*
X016546Y002750D01*
X016558Y002713D01*
X016566Y002675D01*
X016570Y002636D01*
X016570Y002598D01*
X016566Y002559D01*
X016558Y002521D01*
X016546Y002484D01*
X016531Y002448D01*
X016513Y002414D01*
X016491Y002382D01*
X016466Y002352D01*
X016438Y002325D01*
X016408Y002300D01*
X016375Y002279D01*
X016340Y002262D01*
X016304Y002247D01*
X016267Y002237D01*
X016228Y002230D01*
X016190Y002227D01*
X016151Y002228D01*
X016112Y002233D01*
X016074Y002242D01*
X016038Y002254D01*
X016002Y002270D01*
X015968Y002289D01*
X015937Y002312D01*
X015908Y002338D01*
X015881Y002366D01*
X015858Y002397D01*
X015837Y002430D01*
X015821Y002466D01*
X015807Y002502D01*
X015798Y002540D01*
X015792Y002578D01*
X015790Y002617D01*
X015780Y002217D02*
X016580Y003017D01*
X016709Y002173D02*
X017509Y001373D01*
X016709Y001373D02*
X017509Y002173D01*
X015790Y001617D02*
X015792Y001656D01*
X015798Y001694D01*
X015807Y001732D01*
X015821Y001768D01*
X015837Y001804D01*
X015858Y001837D01*
X015881Y001868D01*
X015908Y001896D01*
X015937Y001922D01*
X015968Y001945D01*
X016002Y001964D01*
X016038Y001980D01*
X016074Y001992D01*
X016112Y002001D01*
X016151Y002006D01*
X016190Y002007D01*
X016228Y002004D01*
X016267Y001997D01*
X016304Y001987D01*
X016340Y001972D01*
X016375Y001955D01*
X016408Y001934D01*
X016438Y001909D01*
X016466Y001882D01*
X016491Y001852D01*
X016513Y001820D01*
X016531Y001786D01*
X016546Y001750D01*
X016558Y001713D01*
X016566Y001675D01*
X016570Y001636D01*
X016570Y001598D01*
X016566Y001559D01*
X016558Y001521D01*
X016546Y001484D01*
X016531Y001448D01*
X016513Y001414D01*
X016491Y001382D01*
X016466Y001352D01*
X016438Y001325D01*
X016408Y001300D01*
X016375Y001279D01*
X016340Y001262D01*
X016304Y001247D01*
X016267Y001237D01*
X016228Y001230D01*
X016190Y001227D01*
X016151Y001228D01*
X016112Y001233D01*
X016074Y001242D01*
X016038Y001254D01*
X016002Y001270D01*
X015968Y001289D01*
X015937Y001312D01*
X015908Y001338D01*
X015881Y001366D01*
X015858Y001397D01*
X015837Y001430D01*
X015821Y001466D01*
X015807Y001502D01*
X015798Y001540D01*
X015792Y001578D01*
X015790Y001617D01*
X015780Y001217D02*
X016580Y002017D01*
X014790Y001617D02*
X014792Y001656D01*
X014798Y001694D01*
X014807Y001732D01*
X014821Y001768D01*
X014837Y001804D01*
X014858Y001837D01*
X014881Y001868D01*
X014908Y001896D01*
X014937Y001922D01*
X014968Y001945D01*
X015002Y001964D01*
X015038Y001980D01*
X015074Y001992D01*
X015112Y002001D01*
X015151Y002006D01*
X015190Y002007D01*
X015228Y002004D01*
X015267Y001997D01*
X015304Y001987D01*
X015340Y001972D01*
X015375Y001955D01*
X015408Y001934D01*
X015438Y001909D01*
X015466Y001882D01*
X015491Y001852D01*
X015513Y001820D01*
X015531Y001786D01*
X015546Y001750D01*
X015558Y001713D01*
X015566Y001675D01*
X015570Y001636D01*
X015570Y001598D01*
X015566Y001559D01*
X015558Y001521D01*
X015546Y001484D01*
X015531Y001448D01*
X015513Y001414D01*
X015491Y001382D01*
X015466Y001352D01*
X015438Y001325D01*
X015408Y001300D01*
X015375Y001279D01*
X015340Y001262D01*
X015304Y001247D01*
X015267Y001237D01*
X015228Y001230D01*
X015190Y001227D01*
X015151Y001228D01*
X015112Y001233D01*
X015074Y001242D01*
X015038Y001254D01*
X015002Y001270D01*
X014968Y001289D01*
X014937Y001312D01*
X014908Y001338D01*
X014881Y001366D01*
X014858Y001397D01*
X014837Y001430D01*
X014821Y001466D01*
X014807Y001502D01*
X014798Y001540D01*
X014792Y001578D01*
X014790Y001617D01*
X014780Y001217D02*
X015580Y002017D01*
X013790Y001617D02*
X013792Y001656D01*
X013798Y001694D01*
X013807Y001732D01*
X013821Y001768D01*
X013837Y001804D01*
X013858Y001837D01*
X013881Y001868D01*
X013908Y001896D01*
X013937Y001922D01*
X013968Y001945D01*
X014002Y001964D01*
X014038Y001980D01*
X014074Y001992D01*
X014112Y002001D01*
X014151Y002006D01*
X014190Y002007D01*
X014228Y002004D01*
X014267Y001997D01*
X014304Y001987D01*
X014340Y001972D01*
X014375Y001955D01*
X014408Y001934D01*
X014438Y001909D01*
X014466Y001882D01*
X014491Y001852D01*
X014513Y001820D01*
X014531Y001786D01*
X014546Y001750D01*
X014558Y001713D01*
X014566Y001675D01*
X014570Y001636D01*
X014570Y001598D01*
X014566Y001559D01*
X014558Y001521D01*
X014546Y001484D01*
X014531Y001448D01*
X014513Y001414D01*
X014491Y001382D01*
X014466Y001352D01*
X014438Y001325D01*
X014408Y001300D01*
X014375Y001279D01*
X014340Y001262D01*
X014304Y001247D01*
X014267Y001237D01*
X014228Y001230D01*
X014190Y001227D01*
X014151Y001228D01*
X014112Y001233D01*
X014074Y001242D01*
X014038Y001254D01*
X014002Y001270D01*
X013968Y001289D01*
X013937Y001312D01*
X013908Y001338D01*
X013881Y001366D01*
X013858Y001397D01*
X013837Y001430D01*
X013821Y001466D01*
X013807Y001502D01*
X013798Y001540D01*
X013792Y001578D01*
X013790Y001617D01*
X013780Y001217D02*
X014580Y002017D01*
X012790Y001617D02*
X012792Y001656D01*
X012798Y001694D01*
X012807Y001732D01*
X012821Y001768D01*
X012837Y001804D01*
X012858Y001837D01*
X012881Y001868D01*
X012908Y001896D01*
X012937Y001922D01*
X012968Y001945D01*
X013002Y001964D01*
X013038Y001980D01*
X013074Y001992D01*
X013112Y002001D01*
X013151Y002006D01*
X013190Y002007D01*
X013228Y002004D01*
X013267Y001997D01*
X013304Y001987D01*
X013340Y001972D01*
X013375Y001955D01*
X013408Y001934D01*
X013438Y001909D01*
X013466Y001882D01*
X013491Y001852D01*
X013513Y001820D01*
X013531Y001786D01*
X013546Y001750D01*
X013558Y001713D01*
X013566Y001675D01*
X013570Y001636D01*
X013570Y001598D01*
X013566Y001559D01*
X013558Y001521D01*
X013546Y001484D01*
X013531Y001448D01*
X013513Y001414D01*
X013491Y001382D01*
X013466Y001352D01*
X013438Y001325D01*
X013408Y001300D01*
X013375Y001279D01*
X013340Y001262D01*
X013304Y001247D01*
X013267Y001237D01*
X013228Y001230D01*
X013190Y001227D01*
X013151Y001228D01*
X013112Y001233D01*
X013074Y001242D01*
X013038Y001254D01*
X013002Y001270D01*
X012968Y001289D01*
X012937Y001312D01*
X012908Y001338D01*
X012881Y001366D01*
X012858Y001397D01*
X012837Y001430D01*
X012821Y001466D01*
X012807Y001502D01*
X012798Y001540D01*
X012792Y001578D01*
X012790Y001617D01*
X012780Y001217D02*
X013580Y002017D01*
X011790Y001617D02*
X011792Y001656D01*
X011798Y001694D01*
X011807Y001732D01*
X011821Y001768D01*
X011837Y001804D01*
X011858Y001837D01*
X011881Y001868D01*
X011908Y001896D01*
X011937Y001922D01*
X011968Y001945D01*
X012002Y001964D01*
X012038Y001980D01*
X012074Y001992D01*
X012112Y002001D01*
X012151Y002006D01*
X012190Y002007D01*
X012228Y002004D01*
X012267Y001997D01*
X012304Y001987D01*
X012340Y001972D01*
X012375Y001955D01*
X012408Y001934D01*
X012438Y001909D01*
X012466Y001882D01*
X012491Y001852D01*
X012513Y001820D01*
X012531Y001786D01*
X012546Y001750D01*
X012558Y001713D01*
X012566Y001675D01*
X012570Y001636D01*
X012570Y001598D01*
X012566Y001559D01*
X012558Y001521D01*
X012546Y001484D01*
X012531Y001448D01*
X012513Y001414D01*
X012491Y001382D01*
X012466Y001352D01*
X012438Y001325D01*
X012408Y001300D01*
X012375Y001279D01*
X012340Y001262D01*
X012304Y001247D01*
X012267Y001237D01*
X012228Y001230D01*
X012190Y001227D01*
X012151Y001228D01*
X012112Y001233D01*
X012074Y001242D01*
X012038Y001254D01*
X012002Y001270D01*
X011968Y001289D01*
X011937Y001312D01*
X011908Y001338D01*
X011881Y001366D01*
X011858Y001397D01*
X011837Y001430D01*
X011821Y001466D01*
X011807Y001502D01*
X011798Y001540D01*
X011792Y001578D01*
X011790Y001617D01*
X011780Y001217D02*
X012580Y002017D01*
X010790Y001617D02*
X010792Y001656D01*
X010798Y001694D01*
X010807Y001732D01*
X010821Y001768D01*
X010837Y001804D01*
X010858Y001837D01*
X010881Y001868D01*
X010908Y001896D01*
X010937Y001922D01*
X010968Y001945D01*
X011002Y001964D01*
X011038Y001980D01*
X011074Y001992D01*
X011112Y002001D01*
X011151Y002006D01*
X011190Y002007D01*
X011228Y002004D01*
X011267Y001997D01*
X011304Y001987D01*
X011340Y001972D01*
X011375Y001955D01*
X011408Y001934D01*
X011438Y001909D01*
X011466Y001882D01*
X011491Y001852D01*
X011513Y001820D01*
X011531Y001786D01*
X011546Y001750D01*
X011558Y001713D01*
X011566Y001675D01*
X011570Y001636D01*
X011570Y001598D01*
X011566Y001559D01*
X011558Y001521D01*
X011546Y001484D01*
X011531Y001448D01*
X011513Y001414D01*
X011491Y001382D01*
X011466Y001352D01*
X011438Y001325D01*
X011408Y001300D01*
X011375Y001279D01*
X011340Y001262D01*
X011304Y001247D01*
X011267Y001237D01*
X011228Y001230D01*
X011190Y001227D01*
X011151Y001228D01*
X011112Y001233D01*
X011074Y001242D01*
X011038Y001254D01*
X011002Y001270D01*
X010968Y001289D01*
X010937Y001312D01*
X010908Y001338D01*
X010881Y001366D01*
X010858Y001397D01*
X010837Y001430D01*
X010821Y001466D01*
X010807Y001502D01*
X010798Y001540D01*
X010792Y001578D01*
X010790Y001617D01*
X010780Y001217D02*
X011580Y002017D01*
X009790Y001617D02*
X009792Y001656D01*
X009798Y001694D01*
X009807Y001732D01*
X009821Y001768D01*
X009837Y001804D01*
X009858Y001837D01*
X009881Y001868D01*
X009908Y001896D01*
X009937Y001922D01*
X009968Y001945D01*
X010002Y001964D01*
X010038Y001980D01*
X010074Y001992D01*
X010112Y002001D01*
X010151Y002006D01*
X010190Y002007D01*
X010228Y002004D01*
X010267Y001997D01*
X010304Y001987D01*
X010340Y001972D01*
X010375Y001955D01*
X010408Y001934D01*
X010438Y001909D01*
X010466Y001882D01*
X010491Y001852D01*
X010513Y001820D01*
X010531Y001786D01*
X010546Y001750D01*
X010558Y001713D01*
X010566Y001675D01*
X010570Y001636D01*
X010570Y001598D01*
X010566Y001559D01*
X010558Y001521D01*
X010546Y001484D01*
X010531Y001448D01*
X010513Y001414D01*
X010491Y001382D01*
X010466Y001352D01*
X010438Y001325D01*
X010408Y001300D01*
X010375Y001279D01*
X010340Y001262D01*
X010304Y001247D01*
X010267Y001237D01*
X010228Y001230D01*
X010190Y001227D01*
X010151Y001228D01*
X010112Y001233D01*
X010074Y001242D01*
X010038Y001254D01*
X010002Y001270D01*
X009968Y001289D01*
X009937Y001312D01*
X009908Y001338D01*
X009881Y001366D01*
X009858Y001397D01*
X009837Y001430D01*
X009821Y001466D01*
X009807Y001502D01*
X009798Y001540D01*
X009792Y001578D01*
X009790Y001617D01*
X009780Y001217D02*
X010580Y002017D01*
X008790Y001617D02*
X008792Y001656D01*
X008798Y001694D01*
X008807Y001732D01*
X008821Y001768D01*
X008837Y001804D01*
X008858Y001837D01*
X008881Y001868D01*
X008908Y001896D01*
X008937Y001922D01*
X008968Y001945D01*
X009002Y001964D01*
X009038Y001980D01*
X009074Y001992D01*
X009112Y002001D01*
X009151Y002006D01*
X009190Y002007D01*
X009228Y002004D01*
X009267Y001997D01*
X009304Y001987D01*
X009340Y001972D01*
X009375Y001955D01*
X009408Y001934D01*
X009438Y001909D01*
X009466Y001882D01*
X009491Y001852D01*
X009513Y001820D01*
X009531Y001786D01*
X009546Y001750D01*
X009558Y001713D01*
X009566Y001675D01*
X009570Y001636D01*
X009570Y001598D01*
X009566Y001559D01*
X009558Y001521D01*
X009546Y001484D01*
X009531Y001448D01*
X009513Y001414D01*
X009491Y001382D01*
X009466Y001352D01*
X009438Y001325D01*
X009408Y001300D01*
X009375Y001279D01*
X009340Y001262D01*
X009304Y001247D01*
X009267Y001237D01*
X009228Y001230D01*
X009190Y001227D01*
X009151Y001228D01*
X009112Y001233D01*
X009074Y001242D01*
X009038Y001254D01*
X009002Y001270D01*
X008968Y001289D01*
X008937Y001312D01*
X008908Y001338D01*
X008881Y001366D01*
X008858Y001397D01*
X008837Y001430D01*
X008821Y001466D01*
X008807Y001502D01*
X008798Y001540D01*
X008792Y001578D01*
X008790Y001617D01*
X008780Y001217D02*
X009580Y002017D01*
X007790Y001617D02*
X007792Y001656D01*
X007798Y001694D01*
X007807Y001732D01*
X007821Y001768D01*
X007837Y001804D01*
X007858Y001837D01*
X007881Y001868D01*
X007908Y001896D01*
X007937Y001922D01*
X007968Y001945D01*
X008002Y001964D01*
X008038Y001980D01*
X008074Y001992D01*
X008112Y002001D01*
X008151Y002006D01*
X008190Y002007D01*
X008228Y002004D01*
X008267Y001997D01*
X008304Y001987D01*
X008340Y001972D01*
X008375Y001955D01*
X008408Y001934D01*
X008438Y001909D01*
X008466Y001882D01*
X008491Y001852D01*
X008513Y001820D01*
X008531Y001786D01*
X008546Y001750D01*
X008558Y001713D01*
X008566Y001675D01*
X008570Y001636D01*
X008570Y001598D01*
X008566Y001559D01*
X008558Y001521D01*
X008546Y001484D01*
X008531Y001448D01*
X008513Y001414D01*
X008491Y001382D01*
X008466Y001352D01*
X008438Y001325D01*
X008408Y001300D01*
X008375Y001279D01*
X008340Y001262D01*
X008304Y001247D01*
X008267Y001237D01*
X008228Y001230D01*
X008190Y001227D01*
X008151Y001228D01*
X008112Y001233D01*
X008074Y001242D01*
X008038Y001254D01*
X008002Y001270D01*
X007968Y001289D01*
X007937Y001312D01*
X007908Y001338D01*
X007881Y001366D01*
X007858Y001397D01*
X007837Y001430D01*
X007821Y001466D01*
X007807Y001502D01*
X007798Y001540D01*
X007792Y001578D01*
X007790Y001617D01*
X007780Y001217D02*
X008580Y002017D01*
X006790Y001617D02*
X006792Y001656D01*
X006798Y001694D01*
X006807Y001732D01*
X006821Y001768D01*
X006837Y001804D01*
X006858Y001837D01*
X006881Y001868D01*
X006908Y001896D01*
X006937Y001922D01*
X006968Y001945D01*
X007002Y001964D01*
X007038Y001980D01*
X007074Y001992D01*
X007112Y002001D01*
X007151Y002006D01*
X007190Y002007D01*
X007228Y002004D01*
X007267Y001997D01*
X007304Y001987D01*
X007340Y001972D01*
X007375Y001955D01*
X007408Y001934D01*
X007438Y001909D01*
X007466Y001882D01*
X007491Y001852D01*
X007513Y001820D01*
X007531Y001786D01*
X007546Y001750D01*
X007558Y001713D01*
X007566Y001675D01*
X007570Y001636D01*
X007570Y001598D01*
X007566Y001559D01*
X007558Y001521D01*
X007546Y001484D01*
X007531Y001448D01*
X007513Y001414D01*
X007491Y001382D01*
X007466Y001352D01*
X007438Y001325D01*
X007408Y001300D01*
X007375Y001279D01*
X007340Y001262D01*
X007304Y001247D01*
X007267Y001237D01*
X007228Y001230D01*
X007190Y001227D01*
X007151Y001228D01*
X007112Y001233D01*
X007074Y001242D01*
X007038Y001254D01*
X007002Y001270D01*
X006968Y001289D01*
X006937Y001312D01*
X006908Y001338D01*
X006881Y001366D01*
X006858Y001397D01*
X006837Y001430D01*
X006821Y001466D01*
X006807Y001502D01*
X006798Y001540D01*
X006792Y001578D01*
X006790Y001617D01*
X006780Y001217D02*
X007580Y002017D01*
X005790Y001617D02*
X005792Y001656D01*
X005798Y001694D01*
X005807Y001732D01*
X005821Y001768D01*
X005837Y001804D01*
X005858Y001837D01*
X005881Y001868D01*
X005908Y001896D01*
X005937Y001922D01*
X005968Y001945D01*
X006002Y001964D01*
X006038Y001980D01*
X006074Y001992D01*
X006112Y002001D01*
X006151Y002006D01*
X006190Y002007D01*
X006228Y002004D01*
X006267Y001997D01*
X006304Y001987D01*
X006340Y001972D01*
X006375Y001955D01*
X006408Y001934D01*
X006438Y001909D01*
X006466Y001882D01*
X006491Y001852D01*
X006513Y001820D01*
X006531Y001786D01*
X006546Y001750D01*
X006558Y001713D01*
X006566Y001675D01*
X006570Y001636D01*
X006570Y001598D01*
X006566Y001559D01*
X006558Y001521D01*
X006546Y001484D01*
X006531Y001448D01*
X006513Y001414D01*
X006491Y001382D01*
X006466Y001352D01*
X006438Y001325D01*
X006408Y001300D01*
X006375Y001279D01*
X006340Y001262D01*
X006304Y001247D01*
X006267Y001237D01*
X006228Y001230D01*
X006190Y001227D01*
X006151Y001228D01*
X006112Y001233D01*
X006074Y001242D01*
X006038Y001254D01*
X006002Y001270D01*
X005968Y001289D01*
X005937Y001312D01*
X005908Y001338D01*
X005881Y001366D01*
X005858Y001397D01*
X005837Y001430D01*
X005821Y001466D01*
X005807Y001502D01*
X005798Y001540D01*
X005792Y001578D01*
X005790Y001617D01*
X005780Y001217D02*
X006580Y002017D01*
X004790Y001617D02*
X004792Y001656D01*
X004798Y001694D01*
X004807Y001732D01*
X004821Y001768D01*
X004837Y001804D01*
X004858Y001837D01*
X004881Y001868D01*
X004908Y001896D01*
X004937Y001922D01*
X004968Y001945D01*
X005002Y001964D01*
X005038Y001980D01*
X005074Y001992D01*
X005112Y002001D01*
X005151Y002006D01*
X005190Y002007D01*
X005228Y002004D01*
X005267Y001997D01*
X005304Y001987D01*
X005340Y001972D01*
X005375Y001955D01*
X005408Y001934D01*
X005438Y001909D01*
X005466Y001882D01*
X005491Y001852D01*
X005513Y001820D01*
X005531Y001786D01*
X005546Y001750D01*
X005558Y001713D01*
X005566Y001675D01*
X005570Y001636D01*
X005570Y001598D01*
X005566Y001559D01*
X005558Y001521D01*
X005546Y001484D01*
X005531Y001448D01*
X005513Y001414D01*
X005491Y001382D01*
X005466Y001352D01*
X005438Y001325D01*
X005408Y001300D01*
X005375Y001279D01*
X005340Y001262D01*
X005304Y001247D01*
X005267Y001237D01*
X005228Y001230D01*
X005190Y001227D01*
X005151Y001228D01*
X005112Y001233D01*
X005074Y001242D01*
X005038Y001254D01*
X005002Y001270D01*
X004968Y001289D01*
X004937Y001312D01*
X004908Y001338D01*
X004881Y001366D01*
X004858Y001397D01*
X004837Y001430D01*
X004821Y001466D01*
X004807Y001502D01*
X004798Y001540D01*
X004792Y001578D01*
X004790Y001617D01*
X004780Y001217D02*
X005580Y002017D01*
X003790Y001617D02*
X003792Y001656D01*
X003798Y001694D01*
X003807Y001732D01*
X003821Y001768D01*
X003837Y001804D01*
X003858Y001837D01*
X003881Y001868D01*
X003908Y001896D01*
X003937Y001922D01*
X003968Y001945D01*
X004002Y001964D01*
X004038Y001980D01*
X004074Y001992D01*
X004112Y002001D01*
X004151Y002006D01*
X004190Y002007D01*
X004228Y002004D01*
X004267Y001997D01*
X004304Y001987D01*
X004340Y001972D01*
X004375Y001955D01*
X004408Y001934D01*
X004438Y001909D01*
X004466Y001882D01*
X004491Y001852D01*
X004513Y001820D01*
X004531Y001786D01*
X004546Y001750D01*
X004558Y001713D01*
X004566Y001675D01*
X004570Y001636D01*
X004570Y001598D01*
X004566Y001559D01*
X004558Y001521D01*
X004546Y001484D01*
X004531Y001448D01*
X004513Y001414D01*
X004491Y001382D01*
X004466Y001352D01*
X004438Y001325D01*
X004408Y001300D01*
X004375Y001279D01*
X004340Y001262D01*
X004304Y001247D01*
X004267Y001237D01*
X004228Y001230D01*
X004190Y001227D01*
X004151Y001228D01*
X004112Y001233D01*
X004074Y001242D01*
X004038Y001254D01*
X004002Y001270D01*
X003968Y001289D01*
X003937Y001312D01*
X003908Y001338D01*
X003881Y001366D01*
X003858Y001397D01*
X003837Y001430D01*
X003821Y001466D01*
X003807Y001502D01*
X003798Y001540D01*
X003792Y001578D01*
X003790Y001617D01*
X003780Y001217D02*
X004580Y002017D01*
X001190Y003174D02*
X001192Y003213D01*
X001198Y003251D01*
X001207Y003289D01*
X001221Y003325D01*
X001237Y003361D01*
X001258Y003394D01*
X001281Y003425D01*
X001308Y003453D01*
X001337Y003479D01*
X001368Y003502D01*
X001402Y003521D01*
X001438Y003537D01*
X001474Y003549D01*
X001512Y003558D01*
X001551Y003563D01*
X001590Y003564D01*
X001628Y003561D01*
X001667Y003554D01*
X001704Y003544D01*
X001740Y003529D01*
X001775Y003512D01*
X001808Y003491D01*
X001838Y003466D01*
X001866Y003439D01*
X001891Y003409D01*
X001913Y003377D01*
X001931Y003343D01*
X001946Y003307D01*
X001958Y003270D01*
X001966Y003232D01*
X001970Y003193D01*
X001970Y003155D01*
X001966Y003116D01*
X001958Y003078D01*
X001946Y003041D01*
X001931Y003005D01*
X001913Y002971D01*
X001891Y002939D01*
X001866Y002909D01*
X001838Y002882D01*
X001808Y002857D01*
X001775Y002836D01*
X001740Y002819D01*
X001704Y002804D01*
X001667Y002794D01*
X001628Y002787D01*
X001590Y002784D01*
X001551Y002785D01*
X001512Y002790D01*
X001474Y002799D01*
X001438Y002811D01*
X001402Y002827D01*
X001368Y002846D01*
X001337Y002869D01*
X001308Y002895D01*
X001281Y002923D01*
X001258Y002954D01*
X001237Y002987D01*
X001221Y003023D01*
X001207Y003059D01*
X001198Y003097D01*
X001192Y003135D01*
X001190Y003174D01*
X001180Y002774D02*
X001980Y003574D01*
X001580Y001474D02*
X000780Y001474D01*
X001180Y001074D02*
X001180Y001874D01*
X000790Y001474D02*
X000792Y001513D01*
X000798Y001551D01*
X000807Y001589D01*
X000821Y001625D01*
X000837Y001661D01*
X000858Y001694D01*
X000881Y001725D01*
X000908Y001753D01*
X000937Y001779D01*
X000968Y001802D01*
X001002Y001821D01*
X001038Y001837D01*
X001074Y001849D01*
X001112Y001858D01*
X001151Y001863D01*
X001190Y001864D01*
X001228Y001861D01*
X001267Y001854D01*
X001304Y001844D01*
X001340Y001829D01*
X001375Y001812D01*
X001408Y001791D01*
X001438Y001766D01*
X001466Y001739D01*
X001491Y001709D01*
X001513Y001677D01*
X001531Y001643D01*
X001546Y001607D01*
X001558Y001570D01*
X001566Y001532D01*
X001570Y001493D01*
X001570Y001455D01*
X001566Y001416D01*
X001558Y001378D01*
X001546Y001341D01*
X001531Y001305D01*
X001513Y001271D01*
X001491Y001239D01*
X001466Y001209D01*
X001438Y001182D01*
X001408Y001157D01*
X001375Y001136D01*
X001340Y001119D01*
X001304Y001104D01*
X001267Y001094D01*
X001228Y001087D01*
X001190Y001084D01*
X001151Y001085D01*
X001112Y001090D01*
X001074Y001099D01*
X001038Y001111D01*
X001002Y001127D01*
X000968Y001146D01*
X000937Y001169D01*
X000908Y001195D01*
X000881Y001223D01*
X000858Y001254D01*
X000837Y001287D01*
X000821Y001323D01*
X000807Y001359D01*
X000798Y001397D01*
X000792Y001435D01*
X000790Y001474D01*
X006276Y005126D02*
X007076Y004326D01*
X006276Y004326D02*
X007076Y005126D01*
X005777Y006924D02*
X004977Y007724D01*
X004977Y006924D02*
X005777Y007724D01*
X006210Y008735D02*
X005410Y009535D01*
X005410Y008735D02*
X006210Y009535D01*
X006525Y009916D02*
X005725Y010716D01*
X005725Y009916D02*
X006525Y010716D01*
X008284Y009929D02*
X009084Y009129D01*
X008284Y009129D02*
X009084Y009929D01*
X009426Y009929D02*
X010226Y009129D01*
X009426Y009129D02*
X010226Y009929D01*
X010252Y010204D02*
X011052Y009404D01*
X010252Y009404D02*
X011052Y010204D01*
X011827Y010992D02*
X012627Y010192D01*
X011827Y010192D02*
X012627Y010992D01*
X013717Y010007D02*
X014517Y009207D01*
X013717Y009207D02*
X014517Y010007D01*
X017575Y011464D02*
X018375Y010664D01*
X017575Y010664D02*
X018375Y011464D01*
X020843Y009732D02*
X021643Y008932D01*
X020843Y008932D02*
X021643Y009732D01*
X021079Y009220D02*
X021879Y008420D01*
X021079Y008420D02*
X021879Y009220D01*
X019911Y008263D02*
X019111Y009063D01*
X019111Y008263D02*
X019911Y009063D01*
X019438Y007948D02*
X018638Y008748D01*
X018638Y007948D02*
X019438Y008748D01*
X021709Y007645D02*
X022509Y006845D01*
X021709Y006845D02*
X022509Y007645D01*
X013218Y006373D02*
X012418Y007173D01*
X012418Y006373D02*
X013218Y007173D01*
X011171Y012200D02*
X010371Y013000D01*
X010371Y012200D02*
X011171Y013000D01*
X011407Y017042D02*
X010607Y017842D01*
X010607Y017042D02*
X011407Y017842D01*
X011013Y017515D02*
X010213Y018315D01*
X010213Y017515D02*
X011013Y018315D01*
X008195Y017528D02*
X007395Y018328D01*
X007395Y017528D02*
X008195Y018328D01*
X007588Y017515D02*
X006788Y018315D01*
X006788Y017515D02*
X007588Y018315D01*
X005595Y017528D02*
X004795Y018328D01*
X004795Y017528D02*
X005595Y018328D01*
X005068Y017515D02*
X004268Y018315D01*
X004268Y017515D02*
X005068Y018315D01*
M02*
