G75*
%MOIN*%
%OFA0B0*%
%FSLAX24Y24*%
%IPPOS*%
%LPD*%
%AMOC8*
5,1,8,0,0,1.08239X$1,22.5*
%
%ADD10R,0.0472X0.1339*%
%ADD11R,0.0354X0.0118*%
%ADD12R,0.0118X0.0354*%
%ADD13R,0.1000X0.2000*%
%ADD14R,0.1000X0.0500*%
%ADD15R,0.0591X0.0512*%
%ADD16C,0.0560*%
%ADD17OC8,0.0560*%
%ADD18R,0.0512X0.0591*%
%ADD19C,0.0600*%
%ADD20R,0.0984X0.0197*%
%ADD21R,0.0984X0.0787*%
%ADD22R,0.0591X0.0827*%
%ADD23R,0.1100X0.0300*%
%ADD24OC8,0.0600*%
%ADD25R,0.0157X0.0315*%
%ADD26R,0.0250X0.0600*%
%ADD27R,0.0740X0.0740*%
%ADD28C,0.0740*%
%ADD29C,0.2000*%
%ADD30R,0.0490X0.0120*%
%ADD31R,0.0300X0.0600*%
%ADD32C,0.0520*%
%ADD33C,0.0100*%
%ADD34C,0.0240*%
%ADD35C,0.0500*%
%ADD36OC8,0.0396*%
%ADD37R,0.0396X0.0396*%
%ADD38C,0.0120*%
%ADD39C,0.1000*%
%ADD40C,0.0160*%
%ADD41C,0.0760*%
D10*
X001597Y008663D03*
D11*
X018911Y010711D03*
X018911Y010908D03*
X018911Y011105D03*
X018911Y011302D03*
X018911Y011499D03*
X018911Y011696D03*
X018911Y011892D03*
X018911Y012089D03*
X018911Y012286D03*
X018911Y012483D03*
X018911Y012680D03*
X018911Y012877D03*
X018911Y013074D03*
X018911Y013270D03*
X018911Y013467D03*
X018911Y013664D03*
X018911Y013861D03*
X018911Y014058D03*
X018911Y014255D03*
X018911Y014452D03*
X018911Y014648D03*
X018911Y014845D03*
X018911Y015042D03*
X018911Y015239D03*
X018911Y015436D03*
X025249Y015436D03*
X025249Y015239D03*
X025249Y015042D03*
X025249Y014845D03*
X025249Y014648D03*
X025249Y014452D03*
X025249Y014255D03*
X025249Y014058D03*
X025249Y013861D03*
X025249Y013664D03*
X025249Y013467D03*
X025249Y013270D03*
X025249Y013074D03*
X025249Y012877D03*
X025249Y012680D03*
X025249Y012483D03*
X025249Y012286D03*
X025249Y012089D03*
X025249Y011892D03*
X025249Y011696D03*
X025249Y011499D03*
X025249Y011302D03*
X025249Y011105D03*
X025249Y010908D03*
X025249Y010711D03*
D12*
X024442Y009904D03*
X024245Y009904D03*
X024049Y009904D03*
X023852Y009904D03*
X023655Y009904D03*
X023458Y009904D03*
X023261Y009904D03*
X023064Y009904D03*
X022867Y009904D03*
X022671Y009904D03*
X022474Y009904D03*
X022277Y009904D03*
X022080Y009904D03*
X021883Y009904D03*
X021686Y009904D03*
X021489Y009904D03*
X021293Y009904D03*
X021096Y009904D03*
X020899Y009904D03*
X020702Y009904D03*
X020505Y009904D03*
X020308Y009904D03*
X020111Y009904D03*
X019915Y009904D03*
X019718Y009904D03*
X019718Y016243D03*
X019915Y016243D03*
X020111Y016243D03*
X020308Y016243D03*
X020505Y016243D03*
X020702Y016243D03*
X020899Y016243D03*
X021096Y016243D03*
X021293Y016243D03*
X021489Y016243D03*
X021686Y016243D03*
X021883Y016243D03*
X022080Y016243D03*
X022277Y016243D03*
X022474Y016243D03*
X022671Y016243D03*
X022867Y016243D03*
X023064Y016243D03*
X023261Y016243D03*
X023458Y016243D03*
X023655Y016243D03*
X023852Y016243D03*
X024049Y016243D03*
X024245Y016243D03*
X024442Y016243D03*
D13*
X009505Y007774D03*
X007270Y008424D03*
X007255Y011569D03*
X008886Y011597D03*
X026696Y003369D03*
D14*
X029215Y003369D03*
X029215Y004273D03*
X029235Y002445D03*
X012044Y006850D03*
X012025Y007774D03*
X012025Y008678D03*
X011425Y010673D03*
X011405Y011597D03*
X011405Y012501D03*
X004716Y012493D03*
X004736Y011569D03*
X004736Y010665D03*
X004730Y009347D03*
X004750Y008424D03*
X004750Y007520D03*
D15*
X014105Y010325D03*
X014105Y011073D03*
X021556Y008018D03*
X021556Y007270D03*
X022706Y007270D03*
X022706Y008018D03*
X025475Y008153D03*
X026297Y008432D03*
X026297Y007684D03*
X027119Y007669D03*
X027119Y008417D03*
X025475Y008902D03*
X026705Y012400D03*
X026705Y013148D03*
X027505Y013148D03*
X027505Y012400D03*
X028305Y012400D03*
X028305Y013148D03*
X030499Y004416D03*
X030499Y003747D03*
X030499Y002935D03*
X030499Y002265D03*
X016071Y018760D03*
X016071Y019508D03*
X014680Y019548D03*
X014680Y018800D03*
X013880Y018800D03*
X013880Y019548D03*
X013080Y019548D03*
X013080Y018800D03*
D16*
X004180Y001617D03*
D17*
X005180Y001617D03*
X005180Y002617D03*
X004180Y002617D03*
X006180Y002617D03*
X007180Y002617D03*
X008180Y002617D03*
X009180Y002617D03*
X010180Y002617D03*
X011180Y002617D03*
X012180Y002617D03*
X013180Y002617D03*
X014180Y002617D03*
X015180Y002617D03*
X016180Y002617D03*
X016180Y001617D03*
X015180Y001617D03*
X014180Y001617D03*
X013180Y001617D03*
X012180Y001617D03*
X011180Y001617D03*
X010180Y001617D03*
X009180Y001617D03*
X008180Y001617D03*
X007180Y001617D03*
X006180Y001617D03*
X022974Y023630D03*
X023974Y023630D03*
X024974Y023630D03*
X025974Y023630D03*
X026974Y023630D03*
X027974Y023630D03*
X027974Y024630D03*
X026974Y024630D03*
X025974Y024630D03*
X024974Y024630D03*
X023974Y024630D03*
X022974Y024630D03*
X018561Y024647D03*
X017561Y024647D03*
X017561Y023647D03*
X018561Y023647D03*
X016561Y023647D03*
X015561Y023647D03*
X015561Y024647D03*
X016561Y024647D03*
X014561Y024647D03*
X013561Y024647D03*
X013561Y023647D03*
X014561Y023647D03*
X032448Y023645D03*
X033448Y023645D03*
X033448Y024645D03*
X032448Y024645D03*
X034448Y024645D03*
X035448Y024645D03*
X036448Y024645D03*
X037448Y024645D03*
X037448Y023645D03*
X036448Y023645D03*
X035448Y023645D03*
X034448Y023645D03*
D18*
X026979Y015699D03*
X026231Y015699D03*
X022840Y018181D03*
X022092Y018181D03*
X022113Y018942D03*
X022861Y018942D03*
X018654Y016549D03*
X017906Y016549D03*
X015490Y014774D03*
X014742Y014774D03*
X017542Y018539D03*
X018290Y018539D03*
X018190Y019677D03*
X017442Y019677D03*
X027598Y011574D03*
X028267Y011574D03*
X028171Y009476D03*
X027501Y009476D03*
X033429Y005909D03*
X034177Y005909D03*
X034202Y005170D03*
X033454Y005170D03*
X035806Y008899D03*
X036554Y008899D03*
X036529Y009924D03*
X035781Y009924D03*
X035781Y010899D03*
X036529Y010899D03*
X036483Y011834D03*
X035735Y011834D03*
X019437Y009169D03*
X018689Y009169D03*
D19*
X026837Y006442D02*
X026837Y005842D01*
X027837Y005842D02*
X027837Y006442D01*
X028837Y006442D02*
X028837Y005842D01*
X033080Y001899D02*
X033080Y001299D01*
X034080Y001299D02*
X034080Y001899D01*
X035080Y001899D02*
X035080Y001299D01*
X001880Y008174D02*
X001280Y008174D01*
X001280Y009174D02*
X001880Y009174D01*
X001880Y010174D02*
X001280Y010174D01*
X001280Y011174D02*
X001880Y011174D01*
X001880Y012174D02*
X001280Y012174D01*
X001280Y013174D02*
X001880Y013174D01*
X001880Y014774D02*
X001280Y014774D01*
X001280Y015774D02*
X001880Y015774D01*
X001880Y016774D02*
X001280Y016774D01*
X001280Y017774D02*
X001880Y017774D01*
X001880Y018774D02*
X001280Y018774D01*
X001280Y019774D02*
X001880Y019774D01*
D20*
X037046Y005953D03*
X037046Y005639D03*
X037046Y005324D03*
X037046Y005009D03*
X037046Y004694D03*
D21*
X037046Y003552D03*
X039211Y003552D03*
X039211Y007095D03*
X037046Y007095D03*
D22*
X033416Y003478D03*
X031998Y003478D03*
D23*
X016866Y009584D03*
X016866Y010084D03*
X016866Y010584D03*
X016866Y011084D03*
X016866Y011584D03*
X015266Y011584D03*
X015266Y011084D03*
X015266Y010584D03*
X015266Y010084D03*
X015266Y009584D03*
D24*
X002580Y006174D03*
X001580Y006174D03*
X001580Y005174D03*
X002580Y005174D03*
X002580Y004174D03*
X001580Y004174D03*
X001580Y003174D03*
X002580Y003174D03*
X037980Y008874D03*
X038980Y008874D03*
X038980Y009874D03*
X038980Y010874D03*
X038980Y011874D03*
X037980Y011874D03*
X037980Y010874D03*
X037980Y009874D03*
X037980Y013974D03*
X037980Y014974D03*
X038980Y014974D03*
X038980Y013974D03*
X038980Y015974D03*
X038980Y016974D03*
X038980Y017974D03*
X038980Y018974D03*
X037980Y018974D03*
X037980Y017974D03*
X037980Y016974D03*
X037980Y015974D03*
X037980Y019974D03*
X037980Y020974D03*
X038980Y020974D03*
X038980Y019974D03*
D25*
X034211Y011714D03*
X033955Y011714D03*
X033699Y011714D03*
X033699Y011084D03*
X033955Y011084D03*
X034211Y011084D03*
X034311Y009764D03*
X034055Y009764D03*
X033799Y009764D03*
X033799Y009134D03*
X034055Y009134D03*
X034311Y009134D03*
D26*
X008895Y014342D03*
X008395Y014342D03*
X007895Y014342D03*
X007395Y014342D03*
X006170Y014342D03*
X005670Y014342D03*
X005170Y014342D03*
X004670Y014342D03*
X004670Y016464D03*
X005170Y016464D03*
X005670Y016464D03*
X006170Y016464D03*
X007395Y016464D03*
X007895Y016464D03*
X008395Y016464D03*
X008895Y016464D03*
X008820Y018542D03*
X008320Y018542D03*
X007820Y018542D03*
X007320Y018542D03*
X006195Y018517D03*
X005695Y018517D03*
X005195Y018517D03*
X004695Y018517D03*
X004695Y020639D03*
X005195Y020639D03*
X005695Y020639D03*
X006195Y020639D03*
X007320Y020664D03*
X007820Y020664D03*
X008320Y020664D03*
X008820Y020664D03*
D27*
X004359Y023768D03*
D28*
X005449Y023768D03*
X006540Y023768D03*
X007630Y023768D03*
X008721Y023768D03*
X008174Y024886D03*
X007083Y024886D03*
X005997Y024886D03*
X004906Y024886D03*
D29*
X001619Y024327D03*
X011461Y024327D03*
D30*
X012880Y017998D03*
X012880Y017748D03*
X012880Y017498D03*
X012880Y017248D03*
X012880Y016998D03*
X012880Y016748D03*
X012880Y016498D03*
X012880Y016248D03*
X012880Y015998D03*
X012880Y015748D03*
X015480Y015748D03*
X015480Y015998D03*
X015480Y016248D03*
X015480Y016498D03*
X015480Y016748D03*
X015480Y016998D03*
X015480Y017248D03*
X015480Y017498D03*
X015480Y017748D03*
X015480Y017998D03*
D31*
X015400Y008475D03*
X016900Y008475D03*
X016900Y006475D03*
X015400Y006475D03*
D32*
X026873Y010052D03*
X026873Y011052D03*
D33*
X026873Y011696D01*
X027598Y011696D01*
X027598Y011574D01*
X026873Y011696D02*
X025249Y011696D01*
X025249Y011499D02*
X026311Y011499D01*
X026311Y010052D01*
X026873Y010052D01*
X026873Y009607D02*
X024944Y009607D01*
X024944Y010513D01*
X024274Y010513D01*
X024274Y011103D01*
X025249Y011105D01*
X025249Y010908D02*
X025889Y010907D01*
X025889Y010395D01*
X025377Y010119D02*
X025377Y010711D01*
X025249Y010711D01*
X024708Y010277D02*
X023881Y010277D01*
X023881Y011576D01*
X024550Y011576D01*
X024786Y011300D01*
X025249Y011302D01*
X024708Y010277D02*
X024708Y009371D01*
X026086Y009371D01*
X026086Y008432D01*
X026297Y008432D01*
X026873Y008417D02*
X026873Y009607D01*
X026873Y008417D02*
X027119Y008417D01*
X026361Y007684D02*
X026297Y007684D01*
X026361Y007684D02*
X026361Y007146D01*
X027109Y007146D02*
X027109Y007669D01*
X027119Y007669D01*
X024550Y008902D02*
X024442Y009295D01*
X024442Y009904D01*
X024245Y009904D02*
X024235Y002009D01*
X024235Y001773D01*
X017109Y001773D01*
X015180Y002127D02*
X015180Y002617D01*
X014668Y002206D02*
X014180Y001617D01*
X013645Y002127D02*
X013180Y001617D01*
X013645Y002127D02*
X013645Y004411D01*
X023645Y004411D01*
X023655Y009904D01*
X023852Y009904D02*
X023841Y004174D01*
X014668Y004174D01*
X014668Y002206D01*
X015180Y002127D02*
X024038Y002127D01*
X024049Y009904D01*
X023458Y009904D02*
X023448Y004647D01*
X013408Y004647D01*
X013408Y003190D01*
X008172Y003190D01*
X008180Y002617D01*
X007180Y002617D02*
X007188Y003466D01*
X013211Y003466D01*
X013211Y004883D01*
X023251Y004883D01*
X023261Y009904D01*
X022277Y009904D02*
X022267Y008033D01*
X022706Y008018D01*
X021873Y007915D02*
X021556Y008018D01*
X021873Y007915D02*
X021883Y009904D01*
X021686Y009904D02*
X021676Y008820D01*
X021479Y008820D01*
X021479Y009332D02*
X021243Y009332D01*
X021479Y009332D02*
X021489Y009904D01*
X021293Y009904D02*
X021282Y010316D01*
X021912Y010316D01*
X021912Y011064D01*
X021440Y010710D02*
X021440Y011576D01*
X020889Y012127D02*
X020899Y009904D01*
X021096Y009904D02*
X021086Y010710D01*
X021440Y010710D01*
X022080Y009904D02*
X022070Y007245D01*
X022030Y007285D01*
X022706Y007270D01*
X022109Y007270D01*
X022109Y007245D01*
X022109Y007270D02*
X021556Y007270D01*
X019915Y005789D02*
X019915Y009904D01*
X020111Y009904D02*
X020111Y005567D01*
X003171Y005567D01*
X002580Y005174D01*
X003487Y005355D02*
X020308Y005355D01*
X020308Y009904D01*
X020505Y009904D02*
X020505Y005119D01*
X003802Y005119D01*
X002580Y003174D01*
X002581Y004174D02*
X003487Y005355D01*
X003487Y005789D02*
X019915Y005789D01*
X017700Y006025D02*
X017700Y009214D01*
X018251Y009883D01*
X019156Y009883D01*
X019708Y010513D01*
X019718Y016243D01*
X019718Y016549D01*
X018654Y016549D01*
X018093Y016655D02*
X017906Y016655D01*
X017906Y016549D01*
X018093Y016655D02*
X018093Y017757D01*
X018211Y017757D01*
X017621Y017757D02*
X017280Y017757D01*
X017280Y017796D01*
X017280Y018474D01*
X017542Y018474D01*
X017542Y018539D01*
X017280Y017757D02*
X017280Y014845D01*
X018911Y014845D01*
X018911Y014648D02*
X017080Y014648D01*
X017080Y019674D01*
X017442Y019674D01*
X017442Y019677D01*
X017427Y022944D01*
X016561Y023647D01*
X016880Y023033D02*
X016086Y023033D01*
X016086Y024647D01*
X016561Y024647D01*
X015692Y023647D02*
X015692Y022954D01*
X015574Y022127D02*
X015101Y022127D01*
X015101Y024647D01*
X014561Y024647D01*
X014038Y024647D02*
X014038Y022403D01*
X014432Y022403D01*
X013526Y022403D02*
X013526Y023568D01*
X013561Y023647D01*
X013561Y024647D02*
X014038Y024647D01*
X015561Y023647D02*
X015692Y023647D01*
X016880Y023033D02*
X016880Y017481D01*
X015928Y017481D01*
X015928Y017245D01*
X015480Y017245D01*
X015480Y017248D01*
X015480Y016998D02*
X016519Y016998D01*
X016519Y017285D01*
X016479Y017127D01*
X016519Y016998D02*
X016680Y016998D01*
X016680Y014255D01*
X018911Y014255D01*
X018911Y014452D02*
X016880Y014452D01*
X016880Y017481D01*
X016610Y017748D02*
X016610Y019474D01*
X016307Y019474D01*
X016071Y019508D01*
X016071Y018760D02*
X015480Y017998D01*
X015480Y017748D02*
X016610Y017748D01*
X016480Y016748D02*
X015480Y016748D01*
X014747Y016748D01*
X014747Y016970D01*
X014680Y017498D02*
X014668Y018859D01*
X014680Y018800D02*
X014680Y017498D01*
X015480Y017498D01*
X016480Y016748D02*
X016480Y014058D01*
X018911Y014058D01*
X018911Y013861D02*
X016280Y013861D01*
X016280Y016474D01*
X015480Y016474D01*
X015480Y016497D01*
X014235Y016497D01*
X013802Y016930D01*
X013880Y017498D02*
X013880Y018800D01*
X013880Y019548D02*
X014680Y019548D01*
X013080Y019548D02*
X013080Y019474D01*
X012480Y019474D01*
X012480Y017748D01*
X012880Y017748D01*
X012880Y017498D02*
X013880Y017498D01*
X012880Y017248D02*
X012280Y017248D01*
X012280Y022874D01*
X010180Y022874D01*
X010180Y025674D01*
X005449Y025674D01*
X005449Y023768D01*
X005997Y022874D02*
X005997Y024886D01*
X007083Y024886D02*
X007083Y025474D01*
X009980Y025474D01*
X009980Y022674D01*
X012080Y022674D01*
X012080Y016998D01*
X012880Y016998D01*
X012880Y016748D02*
X011880Y016748D01*
X011880Y022474D01*
X009780Y022474D01*
X009780Y023074D01*
X006540Y023074D01*
X006540Y023768D01*
X005997Y022874D02*
X009580Y022874D01*
X009580Y022274D01*
X011680Y022274D01*
X011680Y016498D01*
X012880Y016498D01*
X012880Y016248D02*
X012345Y016248D01*
X012030Y016143D01*
X012424Y015985D02*
X012424Y015749D01*
X011597Y015749D01*
X012424Y015985D02*
X012880Y015985D01*
X012880Y015998D01*
X015480Y015998D01*
X015480Y016248D01*
X015928Y016248D01*
X015928Y015395D01*
X015480Y015748D02*
X015480Y014774D01*
X015490Y014774D01*
X014742Y014774D02*
X014471Y015001D01*
X012897Y015001D01*
X012542Y015001D01*
X012542Y015040D01*
X012897Y015001D02*
X012880Y015748D01*
X014314Y014647D02*
X011007Y014647D01*
X011007Y017442D01*
X010613Y017915D02*
X010613Y014411D01*
X014078Y014411D01*
X014078Y012285D01*
X018911Y012285D01*
X018911Y012286D01*
X018911Y012089D02*
X018911Y012088D01*
X013841Y012088D01*
X013841Y013663D01*
X005180Y013663D01*
X005180Y014342D01*
X005170Y014342D01*
X004670Y014342D02*
X004660Y014332D01*
X004196Y014332D01*
X003881Y012600D02*
X004716Y012493D01*
X006873Y014332D02*
X006883Y014342D01*
X007395Y014342D01*
X007895Y014342D02*
X007897Y014342D01*
X007897Y013899D01*
X013015Y013899D01*
X013448Y014017D01*
X013448Y013269D02*
X013448Y011891D01*
X018911Y011891D01*
X018911Y011892D01*
X018911Y011696D02*
X017380Y011696D01*
X017380Y011674D01*
X016905Y011674D01*
X016866Y011584D01*
X016905Y011174D02*
X016866Y011084D01*
X016905Y011174D02*
X017601Y011174D01*
X017601Y011499D01*
X018911Y011499D01*
X018911Y011302D02*
X018133Y011300D01*
X017975Y011064D01*
X018380Y011105D02*
X018380Y010674D01*
X016905Y010674D01*
X016866Y010584D01*
X016905Y010174D02*
X016866Y010084D01*
X017385Y010001D01*
X017780Y010474D01*
X018580Y010474D01*
X018580Y010908D01*
X018911Y010908D01*
X018911Y011105D02*
X018380Y011105D01*
X018960Y010237D02*
X019393Y010670D01*
X019393Y012678D01*
X018911Y012680D01*
X018911Y012877D02*
X018369Y012877D01*
X018369Y013074D01*
X018369Y013270D01*
X017975Y013270D01*
X017975Y013308D01*
X018369Y013270D02*
X018369Y013663D01*
X018911Y013663D01*
X018911Y013664D01*
X018911Y013270D02*
X018369Y013270D01*
X018369Y013074D02*
X018911Y013074D01*
X018911Y012483D02*
X014904Y012483D01*
X014747Y012481D01*
X014314Y012481D01*
X014314Y014647D01*
X015480Y016497D02*
X015480Y016498D01*
X017880Y015846D02*
X017880Y015042D01*
X018911Y015042D01*
X018911Y015239D02*
X018380Y015239D01*
X018380Y015674D01*
X018880Y015774D02*
X018880Y015436D01*
X018911Y015436D01*
X019904Y016243D02*
X019904Y024647D01*
X022974Y024647D01*
X022974Y024630D01*
X022974Y023630D02*
X022974Y022521D01*
X020692Y022521D01*
X020692Y016243D01*
X020702Y016243D01*
X020505Y016243D02*
X020495Y016243D01*
X020495Y022915D01*
X021164Y022915D01*
X020810Y023544D02*
X020298Y023544D01*
X020298Y016243D01*
X020308Y016243D01*
X020111Y016243D02*
X020101Y016243D01*
X020101Y024135D01*
X025974Y024135D01*
X025974Y023630D01*
X025219Y021497D02*
X020928Y021497D01*
X020928Y016694D01*
X021293Y016694D01*
X021293Y016243D01*
X021489Y016243D02*
X021489Y016930D01*
X021164Y016930D01*
X021164Y021064D01*
X025810Y021064D01*
X026322Y020513D02*
X021361Y020513D01*
X021361Y017166D01*
X021686Y017166D01*
X021686Y016243D01*
X021883Y016243D02*
X021883Y017363D01*
X021558Y017363D01*
X021558Y020119D01*
X026834Y020119D01*
X024471Y019017D02*
X035259Y019017D01*
X034471Y018584D02*
X024393Y018584D01*
X022867Y017059D01*
X022867Y016243D01*
X023054Y016243D02*
X023054Y016930D01*
X024314Y018190D01*
X033408Y018190D01*
X033448Y018151D01*
X032463Y017796D02*
X024274Y017796D01*
X023261Y016783D01*
X023261Y016243D01*
X023064Y016243D02*
X023054Y016243D01*
X022671Y016243D02*
X022671Y017216D01*
X024471Y019017D01*
X022861Y018942D02*
X022861Y018142D01*
X022840Y018181D01*
X022778Y018024D01*
X022306Y017481D01*
X022267Y017481D01*
X022267Y017442D01*
X022277Y017442D01*
X022277Y016243D01*
X022267Y016243D01*
X022267Y015513D01*
X021991Y015513D01*
X021991Y015474D01*
X022080Y016243D02*
X022080Y018024D01*
X022092Y018181D01*
X022113Y018220D01*
X022113Y018942D01*
X023852Y016974D02*
X035780Y016974D01*
X035780Y020974D01*
X037980Y020974D01*
X037980Y019974D02*
X035980Y019974D01*
X035980Y016774D01*
X024049Y016774D01*
X024049Y016243D01*
X024245Y016243D02*
X024245Y016574D01*
X036180Y016574D01*
X036180Y018974D01*
X037980Y018974D01*
X037980Y017974D02*
X036371Y017974D01*
X036371Y016400D01*
X024786Y016379D01*
X024442Y016243D01*
X023852Y016243D02*
X023852Y016974D01*
X023655Y016243D02*
X023645Y014804D01*
X023448Y015395D02*
X023015Y014883D01*
X023448Y015395D02*
X023458Y016243D01*
X022474Y016243D02*
X022463Y016243D01*
X022463Y012521D01*
X022277Y012521D01*
X022277Y009904D01*
X020702Y009904D02*
X020692Y012088D01*
X020456Y012403D01*
X020889Y012127D02*
X020889Y012836D01*
X021086Y014726D02*
X021096Y014726D01*
X021096Y016243D01*
X020899Y016243D02*
X020899Y015119D01*
X020534Y015119D01*
X019915Y016243D02*
X019904Y016243D01*
X024589Y013505D02*
X024880Y013505D01*
X024880Y013674D01*
X025249Y013674D01*
X025249Y013664D01*
X025249Y013467D02*
X025680Y013467D01*
X025680Y013674D01*
X028780Y013674D01*
X028780Y012474D01*
X028305Y012474D01*
X028305Y012400D01*
X026705Y012374D02*
X026705Y012400D01*
X026705Y012374D02*
X025880Y012374D01*
X025880Y013074D01*
X025249Y013074D01*
X025249Y013270D02*
X024880Y013270D01*
X024880Y013505D01*
X025249Y013270D02*
X026705Y013270D01*
X026705Y013148D01*
X025249Y013861D02*
X030456Y013859D01*
X030456Y012481D01*
X032267Y012481D01*
X031794Y012836D02*
X030731Y012836D01*
X030731Y014056D01*
X025249Y014058D01*
X025249Y014255D02*
X031164Y014253D01*
X031164Y013190D01*
X032660Y014450D02*
X032660Y010080D01*
X033802Y010080D01*
X035781Y010080D01*
X035781Y009924D01*
X036529Y009924D02*
X037980Y009924D01*
X037980Y009874D01*
X037980Y010874D02*
X037980Y010899D01*
X036529Y010899D01*
X035781Y010899D02*
X035219Y010899D01*
X035141Y010899D01*
X034211Y010899D01*
X034211Y011084D01*
X033999Y011084D02*
X033999Y010434D01*
X039511Y010434D01*
X037980Y011874D02*
X036483Y011834D01*
X035735Y011834D02*
X035656Y012088D01*
X034747Y012088D01*
X034747Y012324D01*
X034747Y012088D02*
X033684Y012088D01*
X033684Y011714D01*
X033699Y011714D01*
X033955Y011714D02*
X033955Y011084D01*
X033999Y011084D01*
X033699Y011084D02*
X033585Y011084D01*
X033330Y010828D01*
X033802Y010080D02*
X033802Y009764D01*
X033799Y009764D01*
X034055Y009764D02*
X034055Y009134D01*
X034038Y009134D01*
X034038Y008111D01*
X034311Y008899D02*
X034311Y009134D01*
X034311Y008899D02*
X035219Y008899D01*
X035806Y008899D01*
X036554Y008899D02*
X036580Y008899D01*
X036580Y008874D01*
X037980Y008874D01*
X034747Y009568D02*
X034551Y009764D01*
X034311Y009764D01*
X033799Y009134D02*
X033799Y009093D01*
X033487Y008781D01*
X033429Y005909D02*
X032857Y005946D01*
X032385Y005159D02*
X033454Y005170D01*
X034202Y005170D02*
X034202Y005009D01*
X037046Y005009D01*
X037046Y005324D02*
X034668Y005324D01*
X034668Y005710D01*
X034177Y005710D01*
X034177Y005909D01*
X034550Y004647D02*
X033416Y003478D01*
X033408Y003478D01*
X034550Y004647D02*
X037046Y004647D01*
X037046Y004694D01*
X037046Y005953D02*
X035967Y005953D01*
X035967Y006064D01*
X028605Y005316D02*
X028605Y004582D01*
X028595Y004572D01*
X028595Y003973D01*
X028605Y003963D01*
X028605Y003721D01*
X028595Y003711D01*
X028576Y003677D01*
X028565Y003638D01*
X028565Y003419D01*
X028605Y003419D01*
X028605Y003319D01*
X028565Y003319D01*
X028565Y003099D01*
X028576Y003061D01*
X028595Y003027D01*
X028605Y003017D01*
X028605Y001379D01*
X025062Y001379D01*
X025062Y005316D01*
X028605Y005316D01*
X028605Y005300D02*
X025062Y005300D01*
X025062Y005202D02*
X028605Y005202D01*
X028605Y005103D02*
X025062Y005103D01*
X025062Y005005D02*
X028605Y005005D01*
X028605Y004906D02*
X025062Y004906D01*
X025062Y004808D02*
X028605Y004808D01*
X028605Y004709D02*
X025062Y004709D01*
X025062Y004611D02*
X028605Y004611D01*
X028595Y004512D02*
X027240Y004512D01*
X027254Y004508D02*
X027215Y004519D01*
X026746Y004519D01*
X026746Y003419D01*
X026646Y003419D01*
X026646Y004519D01*
X026176Y004519D01*
X026138Y004508D01*
X026104Y004489D01*
X026076Y004461D01*
X026056Y004427D01*
X026046Y004388D01*
X026046Y003419D01*
X026646Y003419D01*
X026646Y003319D01*
X026046Y003319D01*
X026046Y002349D01*
X026056Y002311D01*
X026076Y002277D01*
X026104Y002249D01*
X026138Y002229D01*
X026176Y002219D01*
X026646Y002219D01*
X026646Y003319D01*
X026746Y003319D01*
X026746Y003419D01*
X027346Y003419D01*
X027346Y004388D01*
X027336Y004427D01*
X027316Y004461D01*
X027288Y004489D01*
X027254Y004508D01*
X027339Y004414D02*
X028595Y004414D01*
X028595Y004315D02*
X027346Y004315D01*
X027346Y004217D02*
X028595Y004217D01*
X028595Y004118D02*
X027346Y004118D01*
X027346Y004020D02*
X028595Y004020D01*
X028605Y003921D02*
X027346Y003921D01*
X027346Y003823D02*
X028605Y003823D01*
X028605Y003724D02*
X027346Y003724D01*
X027346Y003626D02*
X028565Y003626D01*
X028565Y003527D02*
X027346Y003527D01*
X027346Y003429D02*
X028565Y003429D01*
X028605Y003330D02*
X026746Y003330D01*
X026746Y003319D02*
X027346Y003319D01*
X027346Y002349D01*
X027336Y002311D01*
X027316Y002277D01*
X027288Y002249D01*
X027254Y002229D01*
X027215Y002219D01*
X026746Y002219D01*
X026746Y003319D01*
X026746Y003232D02*
X026646Y003232D01*
X026646Y003330D02*
X025062Y003330D01*
X025062Y003232D02*
X026046Y003232D01*
X026046Y003133D02*
X025062Y003133D01*
X025062Y003035D02*
X026046Y003035D01*
X026046Y002936D02*
X025062Y002936D01*
X025062Y002838D02*
X026046Y002838D01*
X026046Y002739D02*
X025062Y002739D01*
X025062Y002641D02*
X026046Y002641D01*
X026046Y002542D02*
X025062Y002542D01*
X025062Y002444D02*
X026046Y002444D01*
X026047Y002345D02*
X025062Y002345D01*
X025062Y002247D02*
X026107Y002247D01*
X026646Y002247D02*
X026746Y002247D01*
X026746Y002345D02*
X026646Y002345D01*
X026646Y002444D02*
X026746Y002444D01*
X026746Y002542D02*
X026646Y002542D01*
X026646Y002641D02*
X026746Y002641D01*
X026746Y002739D02*
X026646Y002739D01*
X026646Y002838D02*
X026746Y002838D01*
X026746Y002936D02*
X026646Y002936D01*
X026646Y003035D02*
X026746Y003035D01*
X026746Y003133D02*
X026646Y003133D01*
X026646Y003429D02*
X026746Y003429D01*
X026746Y003527D02*
X026646Y003527D01*
X026646Y003626D02*
X026746Y003626D01*
X026746Y003724D02*
X026646Y003724D01*
X026646Y003823D02*
X026746Y003823D01*
X026746Y003921D02*
X026646Y003921D01*
X026646Y004020D02*
X026746Y004020D01*
X026746Y004118D02*
X026646Y004118D01*
X026646Y004217D02*
X026746Y004217D01*
X026746Y004315D02*
X026646Y004315D01*
X026646Y004414D02*
X026746Y004414D01*
X026746Y004512D02*
X026646Y004512D01*
X026151Y004512D02*
X025062Y004512D01*
X025062Y004414D02*
X026052Y004414D01*
X026046Y004315D02*
X025062Y004315D01*
X025062Y004217D02*
X026046Y004217D01*
X026046Y004118D02*
X025062Y004118D01*
X025062Y004020D02*
X026046Y004020D01*
X026046Y003921D02*
X025062Y003921D01*
X025062Y003823D02*
X026046Y003823D01*
X026046Y003724D02*
X025062Y003724D01*
X025062Y003626D02*
X026046Y003626D01*
X026046Y003527D02*
X025062Y003527D01*
X025062Y003429D02*
X026046Y003429D01*
X027346Y003232D02*
X028565Y003232D01*
X028565Y003133D02*
X027346Y003133D01*
X027346Y003035D02*
X028591Y003035D01*
X028605Y002936D02*
X027346Y002936D01*
X027346Y002838D02*
X028605Y002838D01*
X028605Y002739D02*
X027346Y002739D01*
X027346Y002641D02*
X028605Y002641D01*
X028605Y002542D02*
X027346Y002542D01*
X027346Y002444D02*
X028605Y002444D01*
X028605Y002345D02*
X027345Y002345D01*
X027284Y002247D02*
X028605Y002247D01*
X028605Y002148D02*
X025062Y002148D01*
X025062Y002050D02*
X028605Y002050D01*
X028605Y001951D02*
X025062Y001951D01*
X025062Y001853D02*
X028605Y001853D01*
X028605Y001754D02*
X025062Y001754D01*
X025062Y001656D02*
X028605Y001656D01*
X028605Y001557D02*
X025062Y001557D01*
X025062Y001459D02*
X028605Y001459D01*
X019038Y008348D02*
X018689Y009169D01*
X019393Y009135D02*
X019437Y009169D01*
X019393Y009135D02*
X019718Y009904D01*
X018960Y010237D02*
X018054Y010237D01*
X017461Y009572D01*
X016866Y009584D01*
X016866Y008475D01*
X016900Y008475D01*
X016900Y006475D01*
X017700Y006025D02*
X013605Y006025D01*
X013605Y011576D01*
X015266Y011584D01*
X014078Y011576D01*
X014105Y011073D01*
X014105Y010325D02*
X014105Y010124D01*
X014105Y009619D01*
X014117Y009607D01*
X014105Y010124D02*
X015266Y010084D01*
X015266Y009584D01*
X015266Y009529D01*
X015456Y009529D01*
X015456Y008475D01*
X015400Y008475D01*
X015400Y006475D01*
X012818Y006773D02*
X012044Y006850D01*
X015266Y010084D02*
X015266Y010584D01*
X015266Y011084D01*
X016991Y009529D02*
X017461Y009572D01*
X012227Y010592D02*
X011425Y010673D01*
X005810Y009135D02*
X004730Y009347D01*
X002708Y006174D02*
X003487Y005789D01*
X002708Y006174D02*
X002580Y006174D01*
X002580Y004174D02*
X002581Y004174D01*
X006676Y004726D02*
X006676Y002285D01*
X007180Y001617D01*
X025249Y014452D02*
X032660Y014450D01*
X034211Y011714D02*
X034688Y011714D01*
X034708Y011694D01*
X037305Y014648D02*
X037980Y013974D01*
X037305Y014648D02*
X025249Y014648D01*
X025249Y014845D02*
X037852Y014845D01*
X037980Y014974D01*
X037049Y015042D02*
X037049Y015974D01*
X037980Y015974D01*
X037980Y016974D02*
X036859Y016974D01*
X036859Y015239D01*
X025249Y015239D01*
X025249Y015436D02*
X025249Y015699D01*
X026243Y015710D01*
X026243Y016143D01*
X036597Y016143D01*
X036597Y017481D01*
X039511Y017481D01*
X037049Y015042D02*
X025249Y015042D01*
X025249Y015699D02*
X026231Y015699D01*
X026979Y015710D02*
X026979Y015699D01*
X026979Y015710D02*
X027582Y015710D01*
X013080Y018800D02*
X012880Y018698D01*
X012880Y017998D01*
X007795Y017928D02*
X007795Y018542D01*
X007820Y018542D01*
X007320Y018542D02*
X007320Y018047D01*
X007188Y017915D01*
X005195Y017928D02*
X005195Y018517D01*
X004695Y018517D02*
X004695Y017941D01*
X004668Y017915D01*
D34*
X000810Y005198D02*
X000810Y002617D01*
X003566Y002617D01*
X003566Y001064D01*
X024747Y001064D01*
X024747Y006142D01*
X026837Y006142D01*
X027837Y006142D02*
X027838Y007146D01*
X027109Y007146D01*
X026361Y007146D01*
X024550Y007146D01*
X024550Y008902D01*
X025475Y008902D01*
X025475Y008153D02*
X025456Y008153D01*
X025456Y007600D01*
X028171Y009476D02*
X028171Y010354D01*
X028290Y010629D02*
X028267Y011574D01*
X028305Y012400D02*
X027505Y012400D01*
X027505Y013148D02*
X026705Y013148D01*
X027505Y013148D02*
X028305Y013148D01*
X028305Y012400D02*
X029826Y012403D01*
X030377Y012127D01*
X030377Y008387D01*
X031834Y008111D02*
X034038Y008111D01*
X039511Y008111D01*
X039511Y010434D01*
X039511Y017481D01*
X039511Y025985D01*
X037448Y025985D01*
X027975Y025985D01*
X018561Y025985D01*
X012975Y025985D01*
X012975Y021615D01*
X015416Y021615D01*
X015416Y018859D01*
X014668Y018859D01*
X013880Y019548D02*
X012936Y020907D01*
X008820Y020664D02*
X008820Y021528D01*
X008320Y020664D02*
X008320Y020128D01*
X007995Y020028D01*
X008045Y019978D01*
X007820Y020178D01*
X007820Y020664D01*
X007320Y020664D02*
X007295Y020664D01*
X007295Y021628D01*
X006195Y021628D02*
X006195Y020639D01*
X005695Y020639D02*
X005695Y020128D01*
X005195Y020128D01*
X005195Y019928D01*
X005195Y020128D02*
X005195Y020639D01*
X004695Y020639D02*
X004695Y021628D01*
X005695Y020728D02*
X005695Y020639D01*
X008045Y019978D02*
X008095Y019928D01*
X007395Y017228D02*
X007395Y016464D01*
X007895Y016464D02*
X007895Y015828D01*
X008095Y015728D01*
X008095Y015828D01*
X008395Y015828D01*
X008395Y016464D01*
X008895Y016464D02*
X008895Y017228D01*
X006195Y017228D02*
X006195Y016464D01*
X006170Y016464D01*
X005670Y016464D02*
X005670Y015728D01*
X005298Y015767D01*
X005170Y015728D02*
X005513Y015767D01*
X005170Y015728D02*
X005170Y016464D01*
X004670Y016464D02*
X004670Y017328D01*
X005095Y017228D01*
X018190Y019674D02*
X018190Y019677D01*
X018290Y019677D01*
X018290Y018539D01*
X018290Y018574D01*
X018780Y018574D01*
X018780Y016549D01*
X018654Y016549D01*
X022149Y018745D02*
X022113Y018942D01*
X022149Y018745D02*
X022149Y019529D01*
X027974Y019529D01*
X027974Y023630D01*
X027974Y024630D01*
X027975Y024630D01*
X027975Y025985D01*
X037448Y025985D02*
X037448Y024645D01*
X037448Y023645D01*
X018561Y023647D02*
X018480Y023647D01*
X018480Y019674D01*
X018190Y019674D01*
X018561Y023647D02*
X018561Y024647D01*
X018561Y025985D01*
X019393Y009135D02*
X019511Y008663D01*
X026696Y003369D02*
X029078Y003369D01*
X029078Y003387D01*
X029215Y003387D01*
X029215Y003369D01*
X029215Y003348D01*
X030499Y003348D01*
X030499Y002935D01*
X030499Y003348D02*
X030499Y003747D01*
X030499Y004416D02*
X029215Y004416D01*
X029215Y004273D01*
X029235Y004411D02*
X029235Y006142D01*
X031834Y006142D01*
X031834Y008111D01*
X029235Y006142D02*
X028837Y006142D01*
X031998Y003478D02*
X031998Y002265D01*
X030499Y002265D01*
X029239Y002266D01*
X029235Y002445D01*
X029235Y001046D01*
X025456Y001064D01*
X024747Y001064D01*
X005180Y002617D02*
X005141Y002600D01*
X004235Y002600D01*
X004944Y002617D01*
X004180Y002617D01*
X003566Y002617D01*
X001580Y005174D02*
X001580Y005198D01*
X000810Y005198D01*
X001580Y005174D02*
X001580Y006174D01*
D35*
X000652Y006852D02*
X003211Y006852D01*
X003448Y006300D01*
X009511Y006300D01*
X009505Y007774D01*
X012025Y007774D01*
X012025Y008678D02*
X012030Y009408D01*
X010259Y009411D01*
X010259Y009922D01*
X008330Y009922D01*
X008330Y006930D01*
X004747Y006930D01*
X004747Y007403D01*
X004750Y007520D01*
X003881Y007521D01*
X002345Y007521D01*
X002345Y008151D01*
X001580Y008174D01*
X000652Y006852D02*
X000652Y010159D01*
X001580Y010174D01*
X001580Y011174D02*
X003645Y010631D01*
X003645Y008426D01*
X004944Y008424D01*
X004750Y008424D01*
X004944Y008424D02*
X007270Y008424D01*
X008330Y009922D02*
X005771Y009922D01*
X005771Y010670D01*
X004736Y010665D01*
X004736Y011569D02*
X003645Y011576D01*
X001580Y012174D01*
X001580Y013174D02*
X001850Y013252D01*
X003881Y013269D01*
X008886Y013269D01*
X008886Y011597D01*
X011405Y011597D01*
X011405Y012501D02*
X012897Y012481D01*
X012897Y009411D01*
X012030Y009408D01*
X007255Y011569D02*
X004736Y011569D01*
X001580Y014674D02*
X001580Y014774D01*
X002857Y015040D01*
X002857Y015028D01*
X008095Y015028D01*
X008095Y015728D01*
X005557Y015767D02*
X005513Y015767D01*
X005298Y015767D01*
X005557Y015774D02*
X005557Y015767D01*
X005557Y015774D02*
X001580Y015774D01*
X001580Y016774D02*
X004095Y017128D01*
X004095Y019228D01*
X008095Y019228D01*
X008095Y019928D01*
X005595Y019928D02*
X005195Y019928D01*
X003295Y019928D01*
X003295Y018228D01*
X001580Y017874D01*
X001580Y017774D01*
X029215Y004416D02*
X029235Y004411D01*
D36*
X028251Y004489D03*
X028251Y003977D03*
X028251Y002875D03*
X028251Y002285D03*
X028251Y001733D03*
X027660Y001733D03*
X027030Y001733D03*
X026400Y001733D03*
X025849Y001733D03*
X025298Y001733D03*
X025298Y002324D03*
X025298Y002915D03*
X025298Y003466D03*
X025298Y004017D03*
X025298Y004568D03*
X025298Y005080D03*
X025889Y005080D03*
X026479Y005080D03*
X027070Y005080D03*
X027660Y005080D03*
X028251Y005080D03*
X026715Y003977D03*
X026715Y003387D03*
X026755Y002757D03*
X032385Y005159D03*
X032857Y005946D03*
X035967Y006064D03*
X035219Y008899D03*
X034747Y009568D03*
X033487Y008781D03*
X033330Y010828D03*
X034708Y011694D03*
X034747Y012324D03*
X035219Y010899D03*
X032267Y012481D03*
X031794Y012836D03*
X031164Y013190D03*
X028172Y010552D03*
X025889Y010395D03*
X025377Y010119D03*
X024274Y011103D03*
X024550Y011576D03*
X021912Y011064D03*
X021440Y011576D03*
X020456Y012403D03*
X020889Y012836D03*
X021086Y014726D03*
X020534Y015119D03*
X021991Y015474D03*
X023015Y014883D03*
X023645Y014804D03*
X024589Y013505D03*
X027582Y015710D03*
X032463Y017796D03*
X033448Y018151D03*
X034471Y018584D03*
X035259Y019017D03*
X026834Y020119D03*
X026322Y020513D03*
X025810Y021064D03*
X025219Y021497D03*
X021164Y022915D03*
X020810Y023544D03*
X015692Y022954D03*
X015574Y022127D03*
X014432Y022403D03*
X013526Y022403D03*
X012936Y020907D03*
X010613Y017915D03*
X011007Y017442D03*
X012030Y016143D03*
X011597Y015749D03*
X012542Y015040D03*
X013448Y014017D03*
X013448Y013269D03*
X015928Y015395D03*
X016479Y017127D03*
X017621Y017757D03*
X018211Y017757D03*
X017880Y015846D03*
X018380Y015674D03*
X018880Y015774D03*
X017975Y013308D03*
X017975Y011064D03*
X019511Y008663D03*
X019038Y008348D03*
X021243Y009332D03*
X021479Y008820D03*
X022109Y007245D03*
X025456Y007600D03*
X030377Y008387D03*
X017109Y001773D03*
X012818Y006773D03*
X014117Y009607D03*
X012227Y010592D03*
X006873Y014332D03*
X004196Y014332D03*
X003881Y012600D03*
X005810Y009135D03*
X006676Y004726D03*
X013802Y016930D03*
X014747Y016970D03*
X007795Y017928D03*
X007188Y017915D03*
X005195Y017928D03*
X004668Y017915D03*
D37*
X010771Y012600D03*
X010652Y009804D03*
X009826Y009529D03*
X008684Y009529D03*
X006125Y010316D03*
X005377Y007324D03*
D38*
X026873Y010052D02*
X027070Y009868D01*
X027501Y009476D01*
X028171Y010354D02*
X028172Y010552D01*
X028290Y010629D01*
D39*
X009695Y017228D02*
X009695Y021628D01*
X008795Y021628D01*
X007295Y021628D01*
X006195Y021628D01*
X004695Y021628D01*
X003895Y021528D01*
X002553Y020837D01*
X001580Y019774D01*
X001580Y018774D01*
D40*
X008820Y021528D02*
X008795Y021628D01*
D41*
X008895Y017228D02*
X007395Y017228D01*
X006195Y017228D01*
X005095Y017228D01*
X008895Y017228D02*
X009695Y017228D01*
M02*
