G75*
%MOIN*%
%OFA0B0*%
%FSLAX24Y24*%
%IPPOS*%
%LPD*%
%AMOC8*
5,1,8,0,0,1.08239X$1,22.5*
%
%ADD10C,0.0160*%
%ADD11C,0.0060*%
%ADD12C,0.0080*%
D10*
X000180Y000474D02*
X000180Y028229D01*
X040141Y028229D01*
X040141Y000474D01*
X000180Y000474D01*
D11*
X023851Y025730D02*
X023851Y026071D01*
X023681Y026071D01*
X023625Y026014D01*
X023625Y025901D01*
X023681Y025844D01*
X023851Y025844D01*
X023993Y025844D02*
X023993Y026014D01*
X024050Y026071D01*
X024220Y026071D01*
X024220Y025844D01*
X024361Y025901D02*
X024361Y026184D01*
X024588Y026184D02*
X024588Y025901D01*
X024531Y025844D01*
X024418Y025844D01*
X024361Y025901D01*
X024588Y026319D02*
X024701Y026319D01*
X024758Y026376D01*
X024758Y026489D01*
X024701Y026546D01*
X024588Y026546D01*
X024531Y026489D01*
X024531Y026432D01*
X024758Y026432D01*
X024899Y026376D02*
X024956Y026432D01*
X025069Y026432D01*
X025126Y026489D01*
X025069Y026546D01*
X024899Y026546D01*
X024899Y026376D02*
X024956Y026319D01*
X025126Y026319D01*
X025155Y026184D02*
X025098Y026127D01*
X025325Y025901D01*
X025268Y025844D01*
X025155Y025844D01*
X025098Y025901D01*
X025098Y026127D01*
X025155Y026184D02*
X025268Y026184D01*
X025325Y026127D01*
X025325Y025901D01*
X025452Y025901D02*
X025452Y025844D01*
X025509Y025844D01*
X025509Y025901D01*
X025452Y025901D01*
X025650Y025901D02*
X025707Y025844D01*
X025820Y025844D01*
X025877Y025901D01*
X025764Y026014D02*
X025707Y026014D01*
X025650Y025957D01*
X025650Y025901D01*
X025707Y026014D02*
X025650Y026071D01*
X025650Y026127D01*
X025707Y026184D01*
X025820Y026184D01*
X025877Y026127D01*
X025806Y026319D02*
X025863Y026376D01*
X025863Y026489D01*
X025806Y026546D01*
X025693Y026546D01*
X025636Y026489D01*
X025636Y026432D01*
X025863Y026432D01*
X025806Y026319D02*
X025693Y026319D01*
X025495Y026319D02*
X025495Y026546D01*
X025324Y026546D01*
X025268Y026489D01*
X025268Y026319D01*
X025178Y026871D02*
X025064Y026871D01*
X025008Y026928D01*
X025008Y027042D01*
X025064Y027098D01*
X025178Y027098D01*
X025235Y027042D01*
X025235Y026928D01*
X025178Y026871D01*
X025367Y026871D02*
X025480Y026871D01*
X025423Y026871D02*
X025423Y027098D01*
X025480Y027098D01*
X025423Y027212D02*
X025423Y027268D01*
X025357Y027436D02*
X025301Y027436D01*
X025301Y027493D01*
X025357Y027493D01*
X025357Y027436D01*
X025499Y027436D02*
X025726Y027436D01*
X025499Y027663D01*
X025499Y027719D01*
X025556Y027776D01*
X025669Y027776D01*
X025726Y027719D01*
X026235Y027776D02*
X026235Y027549D01*
X026349Y027436D01*
X026462Y027549D01*
X026462Y027776D01*
X026972Y027776D02*
X026972Y027436D01*
X027142Y027436D01*
X027199Y027493D01*
X027199Y027606D01*
X027142Y027663D01*
X026972Y027663D01*
X027336Y027663D02*
X027392Y027663D01*
X027506Y027549D01*
X027506Y027436D02*
X027506Y027663D01*
X027647Y027606D02*
X027647Y027436D01*
X027817Y027436D01*
X027874Y027493D01*
X027817Y027549D01*
X027647Y027549D01*
X027647Y027606D02*
X027704Y027663D01*
X027817Y027663D01*
X028016Y027606D02*
X028072Y027663D01*
X028186Y027663D01*
X028242Y027606D01*
X028242Y027493D01*
X028186Y027436D01*
X028072Y027436D01*
X028016Y027493D01*
X028016Y027606D01*
X028384Y027663D02*
X028441Y027606D01*
X028611Y027606D01*
X028611Y027436D02*
X028611Y027776D01*
X028441Y027776D01*
X028384Y027719D01*
X028384Y027663D01*
X028441Y027606D02*
X028384Y027549D01*
X028384Y027493D01*
X028441Y027436D01*
X028611Y027436D01*
X028748Y027098D02*
X028691Y027042D01*
X028691Y026871D01*
X028861Y026871D01*
X028918Y026928D01*
X028861Y026985D01*
X028691Y026985D01*
X028748Y027098D02*
X028861Y027098D01*
X029050Y027098D02*
X029163Y027098D01*
X029107Y027155D02*
X029107Y026928D01*
X029050Y026871D01*
X029305Y026871D02*
X029305Y027042D01*
X029361Y027098D01*
X029475Y027098D01*
X029475Y026985D02*
X029305Y026985D01*
X029305Y026871D02*
X029475Y026871D01*
X029532Y026928D01*
X029475Y026985D01*
X029673Y026928D02*
X029673Y027155D01*
X029730Y027212D01*
X029900Y027212D01*
X029900Y026871D01*
X029730Y026871D01*
X029673Y026928D01*
X029621Y026659D02*
X029735Y026659D01*
X029792Y026602D01*
X029792Y026376D01*
X029735Y026319D01*
X029621Y026319D01*
X029565Y026376D01*
X029423Y026376D02*
X029423Y026489D01*
X029366Y026546D01*
X029253Y026546D01*
X029196Y026489D01*
X029196Y026376D01*
X029253Y026319D01*
X029366Y026319D01*
X029423Y026376D01*
X029390Y026184D02*
X029504Y026184D01*
X029560Y026127D01*
X029560Y026071D01*
X029504Y026014D01*
X029390Y026014D01*
X029333Y025957D01*
X029333Y025901D01*
X029390Y025844D01*
X029504Y025844D01*
X029560Y025901D01*
X029702Y026014D02*
X029929Y026014D01*
X030061Y025844D02*
X030174Y025844D01*
X030117Y025844D02*
X030117Y026184D01*
X030174Y026184D01*
X030316Y026014D02*
X030316Y025844D01*
X030486Y025844D01*
X030543Y025901D01*
X030486Y025957D01*
X030316Y025957D01*
X030316Y026014D02*
X030372Y026071D01*
X030486Y026071D01*
X030731Y026071D02*
X030731Y025844D01*
X030675Y025844D02*
X030788Y025844D01*
X030929Y025844D02*
X031100Y025844D01*
X031156Y025901D01*
X031156Y026014D01*
X031100Y026071D01*
X030929Y026071D01*
X030788Y026071D02*
X030731Y026071D01*
X030731Y026184D02*
X030731Y026241D01*
X030783Y026319D02*
X030670Y026546D01*
X030528Y026489D02*
X030471Y026546D01*
X030358Y026546D01*
X030301Y026489D01*
X030301Y026432D01*
X030528Y026432D01*
X030528Y026376D02*
X030528Y026489D01*
X030528Y026376D02*
X030471Y026319D01*
X030358Y026319D01*
X029621Y026659D02*
X029565Y026602D01*
X029390Y026184D02*
X029333Y026127D01*
X029192Y026184D02*
X029192Y025844D01*
X029192Y026014D02*
X029135Y026071D01*
X029022Y026071D01*
X028965Y026014D01*
X028965Y025844D01*
X028824Y025901D02*
X028767Y025957D01*
X028597Y025957D01*
X028597Y026014D02*
X028597Y025844D01*
X028767Y025844D01*
X028824Y025901D01*
X028767Y026071D02*
X028654Y026071D01*
X028597Y026014D01*
X028455Y025957D02*
X028342Y026071D01*
X028285Y026071D01*
X028148Y026014D02*
X028092Y026071D01*
X027978Y026071D01*
X027922Y026014D01*
X027922Y025957D01*
X028148Y025957D01*
X028148Y025901D02*
X028148Y026014D01*
X028148Y025901D02*
X028092Y025844D01*
X027978Y025844D01*
X027780Y025844D02*
X027780Y026071D01*
X027667Y026184D01*
X027553Y026071D01*
X027553Y025844D01*
X027412Y025844D02*
X027298Y025844D01*
X027355Y025844D02*
X027355Y026184D01*
X027412Y026184D01*
X027411Y026319D02*
X027355Y026376D01*
X027411Y026432D01*
X027525Y026432D01*
X027582Y026489D01*
X027525Y026546D01*
X027355Y026546D01*
X027411Y026319D02*
X027582Y026319D01*
X027723Y026319D02*
X027723Y026489D01*
X027780Y026546D01*
X027950Y026546D01*
X027950Y026319D01*
X028091Y026376D02*
X028091Y026489D01*
X028148Y026546D01*
X028262Y026546D01*
X028318Y026489D01*
X028318Y026376D01*
X028262Y026319D01*
X028148Y026319D01*
X028091Y026376D01*
X028460Y026319D02*
X028460Y026489D01*
X028516Y026546D01*
X028573Y026489D01*
X028573Y026319D01*
X028687Y026319D02*
X028687Y026546D01*
X028630Y026546D01*
X028573Y026489D01*
X028828Y026489D02*
X028828Y026319D01*
X028941Y026319D02*
X028941Y026489D01*
X028885Y026546D01*
X028828Y026489D01*
X028941Y026489D02*
X028998Y026546D01*
X029055Y026546D01*
X029055Y026319D01*
X028455Y026071D02*
X028455Y025844D01*
X027780Y026014D02*
X027553Y026014D01*
X027166Y026071D02*
X027110Y026071D01*
X027110Y025844D01*
X027166Y025844D02*
X027053Y025844D01*
X026921Y025844D02*
X026921Y026184D01*
X026845Y026319D02*
X026618Y026319D01*
X026477Y026319D02*
X026363Y026319D01*
X026420Y026319D02*
X026420Y026546D01*
X026477Y026546D01*
X026420Y026659D02*
X026420Y026716D01*
X026401Y026871D02*
X026401Y027098D01*
X026401Y026985D02*
X026287Y027098D01*
X026231Y027098D01*
X026037Y027098D02*
X025924Y027098D01*
X025867Y027042D01*
X025867Y026871D01*
X026037Y026871D01*
X026094Y026928D01*
X026037Y026985D01*
X025867Y026985D01*
X025726Y027098D02*
X025612Y027098D01*
X025669Y027155D02*
X025669Y026928D01*
X025612Y026871D01*
X026004Y026546D02*
X026174Y026546D01*
X026231Y026489D01*
X026231Y026376D01*
X026174Y026319D01*
X026004Y026319D01*
X026387Y026014D02*
X026387Y025957D01*
X026614Y025957D01*
X026614Y025901D02*
X026614Y026014D01*
X026557Y026071D01*
X026444Y026071D01*
X026387Y026014D01*
X026444Y025844D02*
X026557Y025844D01*
X026614Y025901D01*
X026751Y025844D02*
X026921Y025957D01*
X026751Y026071D01*
X026845Y026319D02*
X026845Y026659D01*
X026967Y026871D02*
X027138Y026871D01*
X027138Y026758D02*
X027138Y027098D01*
X026967Y027098D01*
X026911Y027042D01*
X026911Y026928D01*
X026967Y026871D01*
X026769Y026928D02*
X026713Y026871D01*
X026599Y026871D01*
X026542Y026928D01*
X026542Y027042D01*
X026599Y027098D01*
X026713Y027098D01*
X026769Y027042D01*
X026769Y026928D01*
X027274Y027098D02*
X027331Y027098D01*
X027444Y026985D01*
X027444Y027098D02*
X027444Y026871D01*
X027586Y026928D02*
X027586Y027042D01*
X027643Y027098D01*
X027756Y027098D01*
X027813Y027042D01*
X027813Y026928D01*
X027756Y026871D01*
X027643Y026871D01*
X027586Y026928D01*
X027954Y026928D02*
X028011Y026871D01*
X028124Y026871D01*
X028181Y026928D01*
X028181Y027155D01*
X028124Y027212D01*
X028011Y027212D01*
X027954Y027155D01*
X029107Y027436D02*
X029163Y027436D01*
X029163Y027493D01*
X029107Y027493D01*
X029107Y027436D01*
X029305Y027663D02*
X029418Y027436D01*
X029532Y027663D01*
X029673Y027606D02*
X029673Y027549D01*
X029900Y027549D01*
X029900Y027493D02*
X029900Y027606D01*
X029843Y027663D01*
X029730Y027663D01*
X029673Y027606D01*
X029730Y027436D02*
X029843Y027436D01*
X029900Y027493D01*
X030041Y027493D02*
X030041Y027719D01*
X030098Y027776D01*
X030268Y027776D01*
X030268Y027436D01*
X030098Y027436D01*
X030041Y027493D01*
X030037Y027098D02*
X030093Y027098D01*
X030207Y026985D01*
X030207Y027098D02*
X030207Y026871D01*
X030348Y026985D02*
X030575Y026985D01*
X030575Y026928D02*
X030575Y027042D01*
X030518Y027098D01*
X030405Y027098D01*
X030348Y027042D01*
X030348Y026985D01*
X030405Y026871D02*
X030518Y026871D01*
X030575Y026928D01*
X030717Y026928D02*
X030717Y027042D01*
X030773Y027098D01*
X030943Y027098D01*
X030943Y027212D02*
X030943Y026871D01*
X030773Y026871D01*
X030717Y026928D01*
X031085Y026871D02*
X031255Y026871D01*
X031312Y026928D01*
X031312Y027098D01*
X031453Y027155D02*
X031510Y027212D01*
X031623Y027212D01*
X031680Y027155D01*
X031680Y026928D01*
X031623Y026871D01*
X031510Y026871D01*
X031453Y026928D01*
X031198Y026758D02*
X031142Y026758D01*
X031085Y026815D01*
X031085Y027098D01*
X031250Y027436D02*
X031250Y027776D01*
X031080Y027776D01*
X031024Y027719D01*
X031024Y027606D01*
X031080Y027549D01*
X031250Y027549D01*
X030882Y027436D02*
X030769Y027436D01*
X030825Y027436D02*
X030825Y027663D01*
X030882Y027663D01*
X030825Y027776D02*
X030825Y027833D01*
X031760Y027663D02*
X031760Y027379D01*
X031817Y027322D01*
X031874Y027322D01*
X031930Y027436D02*
X031760Y027436D01*
X031930Y027436D02*
X031987Y027493D01*
X031987Y027663D01*
X032124Y027663D02*
X032181Y027663D01*
X032294Y027549D01*
X032294Y027436D02*
X032294Y027663D01*
X032431Y027663D02*
X032487Y027663D01*
X032601Y027549D01*
X032601Y027436D02*
X032601Y027663D01*
X032742Y027606D02*
X032799Y027663D01*
X032912Y027663D01*
X032969Y027606D01*
X032969Y027493D01*
X032912Y027436D01*
X032799Y027436D01*
X032742Y027549D02*
X032969Y027549D01*
X033111Y027493D02*
X033111Y027606D01*
X033167Y027663D01*
X033338Y027663D01*
X033338Y027776D02*
X033338Y027436D01*
X033167Y027436D01*
X033111Y027493D01*
X033097Y027212D02*
X032983Y027212D01*
X032926Y027155D01*
X033153Y026928D01*
X033097Y026871D01*
X032983Y026871D01*
X032926Y026928D01*
X032926Y027155D01*
X032785Y027098D02*
X032672Y027212D01*
X032672Y026871D01*
X032785Y026871D02*
X032558Y026871D01*
X032417Y027042D02*
X032190Y027042D01*
X032247Y027212D02*
X032417Y027042D01*
X032247Y027212D02*
X032247Y026871D01*
X032261Y026546D02*
X032318Y026546D01*
X032431Y026432D01*
X032431Y026319D02*
X032431Y026546D01*
X032573Y026602D02*
X032629Y026659D01*
X032743Y026659D01*
X032799Y026602D01*
X032799Y026376D01*
X032743Y026319D01*
X032629Y026319D01*
X032573Y026376D01*
X032568Y026071D02*
X032512Y026071D01*
X032455Y026014D01*
X032398Y026071D01*
X032341Y026014D01*
X032341Y025844D01*
X032455Y025844D02*
X032455Y026014D01*
X032568Y026071D02*
X032568Y025844D01*
X032710Y025901D02*
X032710Y026014D01*
X032766Y026071D01*
X032880Y026071D01*
X032937Y026014D01*
X032937Y025901D01*
X032880Y025844D01*
X032766Y025844D01*
X032710Y025901D01*
X033078Y025901D02*
X033135Y025844D01*
X033248Y025844D01*
X033305Y025901D01*
X033305Y026127D01*
X033248Y026184D01*
X033135Y026184D01*
X033078Y026127D01*
X033446Y026014D02*
X033446Y025844D01*
X033446Y026014D02*
X033503Y026071D01*
X033673Y026071D01*
X033673Y025844D01*
X033815Y025901D02*
X033815Y026014D01*
X033871Y026071D01*
X033985Y026071D01*
X034041Y026014D01*
X034041Y025901D01*
X033985Y025844D01*
X033871Y025844D01*
X033815Y025901D01*
X034183Y025844D02*
X034183Y026184D01*
X034155Y026319D02*
X034211Y026376D01*
X034211Y026489D01*
X034155Y026546D01*
X033984Y026546D01*
X033984Y026659D02*
X033984Y026319D01*
X034155Y026319D01*
X034353Y026319D02*
X034353Y026489D01*
X034409Y026546D01*
X034580Y026546D01*
X034580Y026319D01*
X034721Y026376D02*
X034721Y026659D01*
X034948Y026659D02*
X034948Y026376D01*
X034891Y026319D01*
X034778Y026319D01*
X034721Y026376D01*
X034410Y026184D02*
X034183Y025844D01*
X034410Y025844D02*
X034410Y026184D01*
X034551Y026014D02*
X034778Y026014D01*
X034920Y026014D02*
X034920Y025844D01*
X034920Y026014D02*
X034976Y026071D01*
X035146Y026071D01*
X035146Y025844D01*
X035288Y025901D02*
X035288Y026014D01*
X035345Y026071D01*
X035458Y026071D01*
X035515Y026014D01*
X035515Y025901D01*
X035458Y025844D01*
X035345Y025844D01*
X035288Y025901D01*
X035647Y025844D02*
X035760Y025844D01*
X035704Y025844D02*
X035704Y026071D01*
X035760Y026071D01*
X035704Y026184D02*
X035704Y026241D01*
X035628Y026319D02*
X035685Y026376D01*
X035685Y026489D01*
X035628Y026546D01*
X035458Y026546D01*
X035458Y026659D02*
X035458Y026319D01*
X035628Y026319D01*
X035826Y026432D02*
X036053Y026432D01*
X036053Y026376D02*
X036053Y026489D01*
X035996Y026546D01*
X035883Y026546D01*
X035826Y026489D01*
X035826Y026432D01*
X035883Y026319D02*
X035996Y026319D01*
X036053Y026376D01*
X036194Y026376D02*
X036251Y026432D01*
X036364Y026432D01*
X036421Y026489D01*
X036364Y026546D01*
X036194Y026546D01*
X036194Y026376D02*
X036251Y026319D01*
X036421Y026319D01*
X036563Y026319D02*
X036563Y026489D01*
X036619Y026546D01*
X036733Y026546D01*
X036733Y026432D02*
X036563Y026432D01*
X036563Y026319D02*
X036733Y026319D01*
X036789Y026376D01*
X036733Y026432D01*
X036931Y026432D02*
X037158Y026432D01*
X037158Y026376D02*
X037158Y026489D01*
X037101Y026546D01*
X036988Y026546D01*
X036931Y026489D01*
X036931Y026432D01*
X036988Y026319D02*
X037101Y026319D01*
X037158Y026376D01*
X037290Y026319D02*
X037403Y026319D01*
X037347Y026319D02*
X037347Y026659D01*
X037403Y026659D01*
X037389Y026758D02*
X037389Y027098D01*
X037219Y027098D01*
X037162Y027042D01*
X037162Y026928D01*
X037219Y026871D01*
X037389Y026871D01*
X037530Y026928D02*
X037530Y027042D01*
X037587Y027098D01*
X037701Y027098D01*
X037757Y027042D01*
X037757Y026928D01*
X037701Y026871D01*
X037587Y026871D01*
X037530Y026928D01*
X037899Y026928D02*
X037955Y026871D01*
X038069Y026871D01*
X038126Y026928D01*
X038126Y027155D01*
X038069Y027212D01*
X037955Y027212D01*
X037899Y027155D01*
X037701Y027436D02*
X037587Y027436D01*
X037530Y027493D01*
X037530Y027549D01*
X037587Y027606D01*
X037701Y027606D01*
X037757Y027663D01*
X037757Y027719D01*
X037701Y027776D01*
X037587Y027776D01*
X037530Y027719D01*
X037389Y027606D02*
X037332Y027663D01*
X037219Y027663D01*
X037162Y027606D01*
X037162Y027493D01*
X037219Y027436D01*
X037332Y027436D01*
X037389Y027493D01*
X037389Y027606D01*
X037701Y027436D02*
X037757Y027493D01*
X037899Y027606D02*
X037955Y027549D01*
X038126Y027549D01*
X038126Y027436D02*
X038126Y027776D01*
X037955Y027776D01*
X037899Y027719D01*
X037899Y027606D01*
X037021Y027719D02*
X037021Y027493D01*
X036964Y027436D01*
X036851Y027436D01*
X036794Y027493D01*
X036794Y027719D02*
X036851Y027776D01*
X036964Y027776D01*
X037021Y027719D01*
X037021Y027098D02*
X037021Y026928D01*
X036964Y026871D01*
X036794Y026871D01*
X036794Y026815D02*
X036851Y026758D01*
X036907Y026758D01*
X036794Y026815D02*
X036794Y027098D01*
X036652Y027098D02*
X036652Y026871D01*
X036652Y026985D02*
X036539Y027098D01*
X036482Y027098D01*
X036345Y027098D02*
X036289Y027098D01*
X036289Y026871D01*
X036345Y026871D02*
X036232Y026871D01*
X036100Y026928D02*
X036043Y026871D01*
X035873Y026871D01*
X035873Y026815D02*
X035873Y027098D01*
X036043Y027098D01*
X036100Y027042D01*
X036100Y026928D01*
X035986Y026758D02*
X035930Y026758D01*
X035873Y026815D01*
X035732Y026871D02*
X035732Y027212D01*
X035675Y027098D02*
X035561Y027098D01*
X035505Y027042D01*
X035505Y026871D01*
X035307Y026928D02*
X035250Y026871D01*
X035307Y026928D02*
X035307Y027155D01*
X035363Y027098D02*
X035250Y027098D01*
X035675Y027098D02*
X035732Y027042D01*
X035547Y027436D02*
X035321Y027606D01*
X035547Y027776D01*
X035689Y027606D02*
X035916Y027606D01*
X036057Y027776D02*
X036284Y027606D01*
X036057Y027436D01*
X036289Y027268D02*
X036289Y027212D01*
X036742Y026184D02*
X036742Y025844D01*
X036572Y025844D01*
X036516Y025901D01*
X036516Y026014D01*
X036572Y026071D01*
X036742Y026071D01*
X036931Y026071D02*
X036931Y025844D01*
X036875Y025844D02*
X036988Y025844D01*
X036988Y026071D02*
X036931Y026071D01*
X036931Y026184D02*
X036931Y026241D01*
X037125Y026071D02*
X037182Y026071D01*
X037295Y025957D01*
X037295Y025844D02*
X037295Y026071D01*
X037427Y026071D02*
X037540Y026071D01*
X037484Y026127D02*
X037484Y025901D01*
X037427Y025844D01*
X037673Y025844D02*
X037729Y025901D01*
X037729Y026127D01*
X037786Y026071D02*
X037673Y026071D01*
X037715Y026319D02*
X037602Y026319D01*
X037715Y026319D02*
X037772Y026376D01*
X037772Y026489D01*
X037715Y026546D01*
X037602Y026546D01*
X037545Y026489D01*
X037545Y026432D01*
X037772Y026432D01*
X037913Y026489D02*
X037970Y026432D01*
X038140Y026432D01*
X038140Y026319D02*
X038140Y026659D01*
X037970Y026659D01*
X037913Y026602D01*
X037913Y026489D01*
X038027Y026432D02*
X037913Y026319D01*
X038041Y026184D02*
X037927Y026071D01*
X037927Y025844D01*
X037927Y026014D02*
X038154Y026014D01*
X038154Y026071D02*
X038041Y026184D01*
X038154Y026071D02*
X038154Y025844D01*
X036374Y025901D02*
X036317Y025844D01*
X036147Y025844D01*
X036147Y026071D01*
X036006Y026071D02*
X035892Y026071D01*
X035949Y026127D02*
X035949Y025901D01*
X035892Y025844D01*
X036374Y025901D02*
X036374Y026071D01*
X034749Y026985D02*
X034749Y027098D01*
X034636Y027212D01*
X034504Y027155D02*
X034504Y026928D01*
X034447Y026871D01*
X034334Y026871D01*
X034277Y026928D01*
X034136Y026871D02*
X034022Y026985D01*
X034022Y027098D01*
X034136Y027212D01*
X034277Y027155D02*
X034334Y027212D01*
X034447Y027212D01*
X034504Y027155D01*
X034584Y027436D02*
X034697Y027549D01*
X034641Y027549D02*
X034811Y027549D01*
X034811Y027436D02*
X034811Y027776D01*
X034641Y027776D01*
X034584Y027719D01*
X034584Y027606D01*
X034641Y027549D01*
X034442Y027493D02*
X034386Y027549D01*
X034216Y027549D01*
X034216Y027606D02*
X034216Y027436D01*
X034386Y027436D01*
X034442Y027493D01*
X034386Y027663D02*
X034272Y027663D01*
X034216Y027606D01*
X034074Y027606D02*
X034017Y027663D01*
X033847Y027663D01*
X033904Y027549D02*
X034017Y027549D01*
X034074Y027606D01*
X034074Y027436D02*
X033904Y027436D01*
X033847Y027493D01*
X033904Y027549D01*
X033706Y027436D02*
X033536Y027436D01*
X033479Y027493D01*
X033479Y027606D01*
X033536Y027663D01*
X033706Y027663D01*
X033706Y027322D01*
X033522Y027155D02*
X033465Y027212D01*
X033352Y027212D01*
X033295Y027155D01*
X033295Y027098D01*
X033522Y026871D01*
X033295Y026871D01*
X033153Y026928D02*
X033153Y027155D01*
X033097Y027212D01*
X032742Y027549D02*
X032742Y027606D01*
X033304Y026546D02*
X033361Y026546D01*
X033475Y026432D01*
X033475Y026319D02*
X033475Y026546D01*
X033616Y026489D02*
X033616Y026432D01*
X033843Y026432D01*
X033843Y026376D02*
X033843Y026489D01*
X033786Y026546D01*
X033673Y026546D01*
X033616Y026489D01*
X033673Y026319D02*
X033786Y026319D01*
X033843Y026376D01*
X034636Y026871D02*
X034749Y026985D01*
X032124Y026489D02*
X032124Y026376D01*
X032067Y026319D01*
X031954Y026319D01*
X031897Y026432D02*
X032124Y026432D01*
X032124Y026489D02*
X032067Y026546D01*
X031954Y026546D01*
X031897Y026489D01*
X031897Y026432D01*
X031756Y026376D02*
X031699Y026432D01*
X031529Y026432D01*
X031529Y026489D02*
X031529Y026319D01*
X031699Y026319D01*
X031756Y026376D01*
X031699Y026546D02*
X031586Y026546D01*
X031529Y026489D01*
X031388Y026546D02*
X031274Y026546D01*
X031331Y026602D02*
X031331Y026376D01*
X031274Y026319D01*
X031142Y026319D02*
X031029Y026319D01*
X031085Y026319D02*
X031085Y026546D01*
X031142Y026546D01*
X031085Y026659D02*
X031085Y026716D01*
X030896Y026546D02*
X030783Y026319D01*
X031293Y026071D02*
X031350Y026071D01*
X031463Y025957D01*
X031463Y025844D02*
X031463Y026071D01*
X031605Y026014D02*
X031605Y025957D01*
X031832Y025957D01*
X031832Y025901D02*
X031832Y026014D01*
X031775Y026071D01*
X031661Y026071D01*
X031605Y026014D01*
X031661Y025844D02*
X031775Y025844D01*
X031832Y025901D01*
X031973Y025844D02*
X031973Y026014D01*
X032030Y026071D01*
X032086Y026014D01*
X032086Y025844D01*
X032200Y025844D02*
X032200Y026071D01*
X032143Y026071D01*
X032086Y026014D01*
X027110Y026184D02*
X027110Y026241D01*
X025173Y027436D02*
X024946Y027663D01*
X024946Y027719D01*
X025003Y027776D01*
X025116Y027776D01*
X025173Y027719D01*
X025173Y027436D02*
X024946Y027436D01*
X024866Y027098D02*
X024696Y027098D01*
X024639Y027042D01*
X024639Y026871D01*
X024866Y026871D02*
X024866Y027098D01*
X023952Y027093D02*
X023896Y027150D01*
X023782Y027150D01*
X023726Y027093D01*
X023726Y026923D01*
X023527Y026979D02*
X023471Y026923D01*
X023527Y026979D02*
X023527Y027206D01*
X023584Y027150D02*
X023471Y027150D01*
X023339Y027150D02*
X023225Y027150D01*
X023282Y027206D02*
X023282Y026979D01*
X023225Y026923D01*
X023093Y026923D02*
X022923Y026923D01*
X022866Y026979D01*
X022866Y027093D01*
X022923Y027150D01*
X023093Y027150D01*
X023093Y026809D01*
X022725Y026923D02*
X022725Y026979D01*
X022668Y026979D01*
X022668Y026923D01*
X022725Y026923D01*
X022725Y027093D02*
X022668Y027093D01*
X022668Y027150D01*
X022725Y027150D01*
X022725Y027093D01*
X022540Y026923D02*
X022314Y027263D01*
X022172Y026923D02*
X021945Y027263D01*
X021804Y027150D02*
X021804Y026979D01*
X021747Y026923D01*
X021690Y026979D01*
X021634Y026923D01*
X021577Y026979D01*
X021577Y027150D01*
X021436Y027150D02*
X021436Y026979D01*
X021379Y026923D01*
X021322Y026979D01*
X021265Y026923D01*
X021209Y026979D01*
X021209Y027150D01*
X021067Y027150D02*
X021067Y026979D01*
X021011Y026923D01*
X020954Y026979D01*
X020897Y026923D01*
X020840Y026979D01*
X020840Y027150D01*
X020699Y026979D02*
X020642Y026979D01*
X020642Y026923D01*
X020699Y026923D01*
X020699Y026979D01*
X020515Y026979D02*
X020515Y027206D01*
X020458Y027263D01*
X020345Y027263D01*
X020288Y027206D01*
X020146Y027150D02*
X020146Y026979D01*
X020090Y026923D01*
X019920Y026923D01*
X019920Y026866D02*
X019976Y026809D01*
X020033Y026809D01*
X019920Y026866D02*
X019920Y027150D01*
X019778Y027150D02*
X019608Y027150D01*
X019551Y027093D01*
X019551Y026979D01*
X019608Y026923D01*
X019778Y026923D01*
X019778Y027263D01*
X019410Y027093D02*
X019410Y026979D01*
X019353Y026923D01*
X019240Y026923D01*
X019183Y027036D02*
X019410Y027036D01*
X019410Y027093D02*
X019353Y027150D01*
X019240Y027150D01*
X019183Y027093D01*
X019183Y027036D01*
X019042Y027036D02*
X018928Y027150D01*
X018871Y027150D01*
X019042Y027150D02*
X019042Y026923D01*
X018735Y026923D02*
X018735Y027263D01*
X018564Y027263D01*
X018508Y027206D01*
X018508Y026979D01*
X018564Y026923D01*
X018735Y026923D01*
X018366Y026979D02*
X018310Y027036D01*
X018139Y027036D01*
X018139Y027093D02*
X018139Y026923D01*
X018310Y026923D01*
X018366Y026979D01*
X018310Y027150D02*
X018196Y027150D01*
X018139Y027093D01*
X017998Y027150D02*
X017885Y027150D01*
X017941Y027206D02*
X017941Y026979D01*
X017885Y026923D01*
X017752Y026979D02*
X017696Y027036D01*
X017526Y027036D01*
X017526Y027093D02*
X017526Y026923D01*
X017696Y026923D01*
X017752Y026979D01*
X017696Y027150D02*
X017582Y027150D01*
X017526Y027093D01*
X017384Y027093D02*
X017157Y027093D01*
X017016Y027036D02*
X016846Y027036D01*
X016789Y027093D01*
X016789Y027206D01*
X016846Y027263D01*
X017016Y027263D01*
X017016Y026923D01*
X016902Y027036D02*
X016789Y026923D01*
X016647Y026979D02*
X016591Y026923D01*
X016477Y026923D01*
X016421Y026979D01*
X016421Y027093D01*
X016477Y027150D01*
X016591Y027150D01*
X016647Y027093D01*
X016647Y026979D01*
X016279Y026923D02*
X016279Y027263D01*
X016279Y027150D02*
X016109Y027150D01*
X016052Y027093D01*
X016052Y026979D01*
X016109Y026923D01*
X016279Y026923D01*
X015911Y026979D02*
X015911Y027093D01*
X015854Y027150D01*
X015741Y027150D01*
X015684Y027093D01*
X015684Y026979D01*
X015741Y026923D01*
X015854Y026923D01*
X015911Y026979D01*
X015543Y027150D02*
X015429Y027150D01*
X015486Y027206D02*
X015486Y026979D01*
X015429Y026923D01*
X015297Y026923D02*
X015184Y026923D01*
X015240Y026923D02*
X015240Y027150D01*
X015297Y027150D01*
X015240Y027263D02*
X015240Y027320D01*
X015051Y027093D02*
X015051Y026979D01*
X014995Y026923D01*
X014825Y026923D01*
X014683Y026923D02*
X014513Y026923D01*
X014456Y026979D01*
X014513Y027036D01*
X014626Y027036D01*
X014683Y027093D01*
X014626Y027150D01*
X014456Y027150D01*
X014315Y026979D02*
X014258Y026979D01*
X014258Y026923D01*
X014315Y026923D01*
X014315Y026979D01*
X014131Y026979D02*
X014131Y027093D01*
X014074Y027150D01*
X013904Y027150D01*
X013762Y027093D02*
X013762Y026979D01*
X013706Y026923D01*
X013592Y026923D01*
X013535Y026979D01*
X013535Y027093D01*
X013592Y027150D01*
X013706Y027150D01*
X013762Y027093D01*
X013904Y026923D02*
X014074Y026923D01*
X014131Y026979D01*
X013394Y026923D02*
X013394Y027150D01*
X013337Y027150D01*
X013281Y027093D01*
X013224Y027150D01*
X013167Y027093D01*
X013167Y026923D01*
X013281Y026923D02*
X013281Y027093D01*
X014825Y027150D02*
X014995Y027150D01*
X015051Y027093D01*
X020288Y026979D02*
X020345Y026923D01*
X020458Y026923D01*
X020515Y026979D01*
X021967Y026184D02*
X021967Y025844D01*
X022137Y025844D01*
X022194Y025901D01*
X022194Y026014D01*
X022137Y026071D01*
X021967Y026071D01*
X022335Y026014D02*
X022335Y025957D01*
X022562Y025957D01*
X022562Y025901D02*
X022562Y026014D01*
X022506Y026071D01*
X022392Y026071D01*
X022335Y026014D01*
X022392Y025844D02*
X022506Y025844D01*
X022562Y025901D01*
X022694Y025844D02*
X022751Y025901D01*
X022751Y026127D01*
X022808Y026071D02*
X022694Y026071D01*
X022945Y026071D02*
X023001Y026071D01*
X023115Y025957D01*
X023115Y025844D02*
X023115Y026071D01*
X023256Y026014D02*
X023313Y026071D01*
X023426Y026071D01*
X023483Y026014D01*
X023483Y025901D01*
X023426Y025844D01*
X023313Y025844D01*
X023256Y025901D01*
X023256Y026014D01*
X023952Y026923D02*
X023952Y027263D01*
D12*
X013005Y027941D02*
X013005Y025628D01*
X038331Y025628D01*
X038331Y027902D01*
X038306Y027941D02*
X013005Y027941D01*
M02*
