G75*
%MOIN*%
%OFA0B0*%
%FSLAX24Y24*%
%IPPOS*%
%LPD*%
%AMOC8*
5,1,8,0,0,1.08239X$1,22.5*
%
%ADD10C,0.1182*%
%ADD11R,0.0434X0.0198*%
%ADD12R,0.0198X0.0434*%
%ADD13R,0.1080X0.2080*%
%ADD14R,0.1080X0.0580*%
%ADD15R,0.0671X0.0592*%
%ADD16C,0.0640*%
%ADD17OC8,0.0640*%
%ADD18R,0.0592X0.0671*%
%ADD19C,0.0680*%
%ADD20R,0.1064X0.0277*%
%ADD21R,0.1064X0.0867*%
%ADD22C,0.0434*%
%ADD23R,0.0671X0.0907*%
%ADD24R,0.1180X0.0380*%
%ADD25OC8,0.0680*%
%ADD26R,0.0237X0.0395*%
%ADD27R,0.0330X0.0680*%
%ADD28R,0.0820X0.0820*%
%ADD29C,0.0820*%
%ADD30C,0.2080*%
%ADD31R,0.0570X0.0200*%
%ADD32R,0.0380X0.0680*%
%ADD33C,0.0600*%
%ADD34OC8,0.0476*%
%ADD35R,0.0476X0.0476*%
D10*
X001180Y001474D03*
X001180Y021874D03*
X039155Y027174D03*
X039155Y001474D03*
D11*
X025249Y010711D03*
X025249Y010908D03*
X025249Y011105D03*
X025249Y011302D03*
X025249Y011499D03*
X025249Y011696D03*
X025249Y011892D03*
X025249Y012089D03*
X025249Y012286D03*
X025249Y012483D03*
X025249Y012680D03*
X025249Y012877D03*
X025249Y013074D03*
X025249Y013270D03*
X025249Y013467D03*
X025249Y013664D03*
X025249Y013861D03*
X025249Y014058D03*
X025249Y014255D03*
X025249Y014452D03*
X025249Y014648D03*
X025249Y014845D03*
X025249Y015042D03*
X025249Y015239D03*
X025249Y015436D03*
X018911Y015436D03*
X018911Y015239D03*
X018911Y015042D03*
X018911Y014845D03*
X018911Y014648D03*
X018911Y014452D03*
X018911Y014255D03*
X018911Y014058D03*
X018911Y013861D03*
X018911Y013664D03*
X018911Y013467D03*
X018911Y013270D03*
X018911Y013074D03*
X018911Y012877D03*
X018911Y012680D03*
X018911Y012483D03*
X018911Y012286D03*
X018911Y012089D03*
X018911Y011892D03*
X018911Y011696D03*
X018911Y011499D03*
X018911Y011302D03*
X018911Y011105D03*
X018911Y010908D03*
X018911Y010711D03*
D12*
X019718Y009904D03*
X019915Y009904D03*
X020111Y009904D03*
X020308Y009904D03*
X020505Y009904D03*
X020702Y009904D03*
X020899Y009904D03*
X021096Y009904D03*
X021293Y009904D03*
X021489Y009904D03*
X021686Y009904D03*
X021883Y009904D03*
X022080Y009904D03*
X022277Y009904D03*
X022474Y009904D03*
X022671Y009904D03*
X022867Y009904D03*
X023064Y009904D03*
X023261Y009904D03*
X023458Y009904D03*
X023655Y009904D03*
X023852Y009904D03*
X024049Y009904D03*
X024245Y009904D03*
X024442Y009904D03*
X024442Y016243D03*
X024245Y016243D03*
X024049Y016243D03*
X023852Y016243D03*
X023655Y016243D03*
X023458Y016243D03*
X023261Y016243D03*
X023064Y016243D03*
X022867Y016243D03*
X022671Y016243D03*
X022474Y016243D03*
X022277Y016243D03*
X022080Y016243D03*
X021883Y016243D03*
X021686Y016243D03*
X021489Y016243D03*
X021293Y016243D03*
X021096Y016243D03*
X020899Y016243D03*
X020702Y016243D03*
X020505Y016243D03*
X020308Y016243D03*
X020111Y016243D03*
X019915Y016243D03*
X019718Y016243D03*
D13*
X008886Y011597D03*
X007255Y011569D03*
X007270Y008424D03*
X009505Y007774D03*
X026696Y003369D03*
D14*
X029215Y003369D03*
X029215Y004273D03*
X029235Y002445D03*
X012044Y006850D03*
X012025Y007774D03*
X012025Y008678D03*
X011425Y010673D03*
X011405Y011597D03*
X011405Y012501D03*
X004716Y012493D03*
X004736Y011569D03*
X004736Y010665D03*
X004730Y009347D03*
X004750Y008424D03*
X004750Y007520D03*
D15*
X014105Y010325D03*
X014105Y011073D03*
X021556Y008018D03*
X021556Y007270D03*
X022706Y007270D03*
X022706Y008018D03*
X025475Y008153D03*
X026297Y008432D03*
X026297Y007684D03*
X027119Y007669D03*
X027119Y008417D03*
X025475Y008902D03*
X026705Y012400D03*
X026705Y013148D03*
X027505Y013148D03*
X027505Y012400D03*
X028305Y012400D03*
X028305Y013148D03*
X030499Y004416D03*
X030499Y003747D03*
X030499Y002935D03*
X030499Y002265D03*
X016071Y018760D03*
X016071Y019508D03*
X014680Y019548D03*
X014680Y018800D03*
X013880Y018800D03*
X013880Y019548D03*
X013080Y019548D03*
X013080Y018800D03*
D16*
X004180Y001617D03*
D17*
X005180Y001617D03*
X005180Y002617D03*
X004180Y002617D03*
X006180Y002617D03*
X007180Y002617D03*
X008180Y002617D03*
X009180Y002617D03*
X010180Y002617D03*
X011180Y002617D03*
X012180Y002617D03*
X013180Y002617D03*
X014180Y002617D03*
X015180Y002617D03*
X016180Y002617D03*
X016180Y001617D03*
X015180Y001617D03*
X014180Y001617D03*
X013180Y001617D03*
X012180Y001617D03*
X011180Y001617D03*
X010180Y001617D03*
X009180Y001617D03*
X008180Y001617D03*
X007180Y001617D03*
X006180Y001617D03*
X022974Y023630D03*
X023974Y023630D03*
X024974Y023630D03*
X025974Y023630D03*
X026974Y023630D03*
X027974Y023630D03*
X027974Y024630D03*
X026974Y024630D03*
X025974Y024630D03*
X024974Y024630D03*
X023974Y024630D03*
X022974Y024630D03*
X018561Y024647D03*
X017561Y024647D03*
X017561Y023647D03*
X018561Y023647D03*
X016561Y023647D03*
X015561Y023647D03*
X015561Y024647D03*
X016561Y024647D03*
X014561Y024647D03*
X013561Y024647D03*
X013561Y023647D03*
X014561Y023647D03*
X032448Y023645D03*
X033448Y023645D03*
X033448Y024645D03*
X032448Y024645D03*
X034448Y024645D03*
X035448Y024645D03*
X036448Y024645D03*
X037448Y024645D03*
X037448Y023645D03*
X036448Y023645D03*
X035448Y023645D03*
X034448Y023645D03*
D18*
X026979Y015699D03*
X026231Y015699D03*
X022840Y018181D03*
X022092Y018181D03*
X022113Y018942D03*
X022861Y018942D03*
X018654Y016549D03*
X017906Y016549D03*
X015490Y014774D03*
X014742Y014774D03*
X017542Y018539D03*
X018290Y018539D03*
X018190Y019677D03*
X017442Y019677D03*
X027598Y011574D03*
X028267Y011574D03*
X028171Y009476D03*
X027501Y009476D03*
X033429Y005909D03*
X034177Y005909D03*
X034202Y005170D03*
X033454Y005170D03*
X035806Y008899D03*
X036554Y008899D03*
X036529Y009924D03*
X035781Y009924D03*
X035781Y010899D03*
X036529Y010899D03*
X036483Y011834D03*
X035735Y011834D03*
X019437Y009169D03*
X018689Y009169D03*
D19*
X026837Y006442D02*
X026837Y005842D01*
X027837Y005842D02*
X027837Y006442D01*
X028837Y006442D02*
X028837Y005842D01*
X033080Y001899D02*
X033080Y001299D01*
X034080Y001299D02*
X034080Y001899D01*
X035080Y001899D02*
X035080Y001299D01*
X001880Y008174D02*
X001280Y008174D01*
X001280Y009174D02*
X001880Y009174D01*
X001880Y010174D02*
X001280Y010174D01*
X001280Y011174D02*
X001880Y011174D01*
X001880Y012174D02*
X001280Y012174D01*
X001280Y013174D02*
X001880Y013174D01*
X001880Y014774D02*
X001280Y014774D01*
X001280Y015774D02*
X001880Y015774D01*
X001880Y016774D02*
X001280Y016774D01*
X001280Y017774D02*
X001880Y017774D01*
X001880Y018774D02*
X001280Y018774D01*
X001280Y019774D02*
X001880Y019774D01*
D20*
X037046Y005953D03*
X037046Y005639D03*
X037046Y005324D03*
X037046Y005009D03*
X037046Y004694D03*
D21*
X037046Y003552D03*
X039211Y003552D03*
X039211Y007095D03*
X037046Y007095D03*
D22*
X038030Y006190D03*
X038030Y004457D03*
D23*
X033416Y003478D03*
X031998Y003478D03*
D24*
X016866Y009584D03*
X016866Y010084D03*
X016866Y010584D03*
X016866Y011084D03*
X016866Y011584D03*
X015266Y011584D03*
X015266Y011084D03*
X015266Y010584D03*
X015266Y010084D03*
X015266Y009584D03*
D25*
X002580Y006174D03*
X001580Y006174D03*
X001580Y005174D03*
X002580Y005174D03*
X002580Y004174D03*
X001580Y004174D03*
X001580Y003174D03*
X002580Y003174D03*
X037980Y008874D03*
X038980Y008874D03*
X038980Y009874D03*
X038980Y010874D03*
X038980Y011874D03*
X037980Y011874D03*
X037980Y010874D03*
X037980Y009874D03*
X037980Y013974D03*
X037980Y014974D03*
X038980Y014974D03*
X038980Y013974D03*
X038980Y015974D03*
X038980Y016974D03*
X038980Y017974D03*
X038980Y018974D03*
X037980Y018974D03*
X037980Y017974D03*
X037980Y016974D03*
X037980Y015974D03*
X037980Y019974D03*
X037980Y020974D03*
X038980Y020974D03*
X038980Y019974D03*
D26*
X034211Y011714D03*
X033955Y011714D03*
X033699Y011714D03*
X033699Y011084D03*
X033955Y011084D03*
X034211Y011084D03*
X034311Y009764D03*
X034055Y009764D03*
X033799Y009764D03*
X033799Y009134D03*
X034055Y009134D03*
X034311Y009134D03*
D27*
X008895Y014342D03*
X008395Y014342D03*
X007895Y014342D03*
X007395Y014342D03*
X006170Y014342D03*
X005670Y014342D03*
X005170Y014342D03*
X004670Y014342D03*
X004670Y016464D03*
X005170Y016464D03*
X005670Y016464D03*
X006170Y016464D03*
X007395Y016464D03*
X007895Y016464D03*
X008395Y016464D03*
X008895Y016464D03*
X008820Y018542D03*
X008320Y018542D03*
X007820Y018542D03*
X007320Y018542D03*
X006195Y018517D03*
X005695Y018517D03*
X005195Y018517D03*
X004695Y018517D03*
X004695Y020639D03*
X005195Y020639D03*
X005695Y020639D03*
X006195Y020639D03*
X007320Y020664D03*
X007820Y020664D03*
X008320Y020664D03*
X008820Y020664D03*
D28*
X004359Y023768D03*
D29*
X005449Y023768D03*
X006540Y023768D03*
X007630Y023768D03*
X008721Y023768D03*
X008174Y024886D03*
X007083Y024886D03*
X005997Y024886D03*
X004906Y024886D03*
D30*
X001619Y024327D03*
X011461Y024327D03*
D31*
X012880Y017998D03*
X012880Y017748D03*
X012880Y017498D03*
X012880Y017248D03*
X012880Y016998D03*
X012880Y016748D03*
X012880Y016498D03*
X012880Y016248D03*
X012880Y015998D03*
X012880Y015748D03*
X015480Y015748D03*
X015480Y015998D03*
X015480Y016248D03*
X015480Y016498D03*
X015480Y016748D03*
X015480Y016998D03*
X015480Y017248D03*
X015480Y017498D03*
X015480Y017748D03*
X015480Y017998D03*
D32*
X015400Y008475D03*
X016900Y008475D03*
X016900Y006475D03*
X015400Y006475D03*
D33*
X026873Y010052D03*
X026873Y011052D03*
D34*
X025889Y010395D03*
X025377Y010119D03*
X024274Y011103D03*
X024550Y011576D03*
X021912Y011064D03*
X021440Y011576D03*
X020456Y012403D03*
X020889Y012836D03*
X021086Y014726D03*
X020534Y015119D03*
X021991Y015474D03*
X023015Y014883D03*
X023645Y014804D03*
X024589Y013505D03*
X027582Y015710D03*
X031164Y013190D03*
X031794Y012836D03*
X032267Y012481D03*
X033330Y010828D03*
X034708Y011694D03*
X034747Y012324D03*
X035219Y010899D03*
X034747Y009568D03*
X035219Y008899D03*
X033487Y008781D03*
X030377Y008387D03*
X028172Y010552D03*
X025456Y007600D03*
X025298Y005080D03*
X025889Y005080D03*
X026479Y005080D03*
X027070Y005080D03*
X027660Y005080D03*
X028251Y005080D03*
X028251Y004489D03*
X028251Y003977D03*
X028251Y002875D03*
X028251Y002285D03*
X028251Y001733D03*
X027660Y001733D03*
X027030Y001733D03*
X026400Y001733D03*
X025849Y001733D03*
X025298Y001733D03*
X025298Y002324D03*
X025298Y002915D03*
X025298Y003466D03*
X025298Y004017D03*
X025298Y004568D03*
X026715Y003977D03*
X026715Y003387D03*
X026755Y002757D03*
X032385Y005159D03*
X032857Y005946D03*
X035967Y006064D03*
X022109Y007245D03*
X021479Y008820D03*
X021243Y009332D03*
X019511Y008663D03*
X019038Y008348D03*
X017975Y011064D03*
X017975Y013308D03*
X015928Y015395D03*
X016479Y017127D03*
X017621Y017757D03*
X018211Y017757D03*
X017880Y015846D03*
X018380Y015674D03*
X018880Y015774D03*
X014747Y016970D03*
X013802Y016930D03*
X012030Y016143D03*
X011597Y015749D03*
X012542Y015040D03*
X013448Y014017D03*
X013448Y013269D03*
X012227Y010592D03*
X014117Y009607D03*
X012818Y006773D03*
X006676Y004726D03*
X005810Y009135D03*
X003881Y012600D03*
X004196Y014332D03*
X006873Y014332D03*
X011007Y017442D03*
X010613Y017915D03*
X007795Y017928D03*
X007188Y017915D03*
X005195Y017928D03*
X004668Y017915D03*
X012936Y020907D03*
X013526Y022403D03*
X014432Y022403D03*
X015574Y022127D03*
X015692Y022954D03*
X020810Y023544D03*
X021164Y022915D03*
X025219Y021497D03*
X025810Y021064D03*
X026322Y020513D03*
X026834Y020119D03*
X032463Y017796D03*
X033448Y018151D03*
X034471Y018584D03*
X035259Y019017D03*
X017109Y001773D03*
D35*
X010652Y009804D03*
X009826Y009529D03*
X008684Y009529D03*
X006125Y010316D03*
X005377Y007324D03*
X010771Y012600D03*
M02*
