%
M48
M72
T01C0.0236
T02C0.0320
T03C0.0354
T04C0.0360
T05C0.0400
T06C0.1102
T07C0.1300
%
T01
X6676Y4726
X5377Y7324
X5810Y9135
X6125Y10316
X8684Y9529
X9826Y9529
X10652Y9804
X12227Y10592
X14117Y9607
X12818Y6773
X17975Y11064
X20456Y12403
X20889Y12836
X21440Y11576
X21912Y11064
X24274Y11103
X24550Y11576
X25889Y10395
X25377Y10119
X28172Y10552
X30377Y8387
X33487Y8781
X34747Y9568
X35219Y8899
X35219Y10899
X34708Y11694
X34747Y12324
X33330Y10828
X32267Y12481
X31794Y12836
X31164Y13190
X27582Y15710
X24589Y13505
X23645Y14804
X23015Y14883
X21991Y15474
X21086Y14726
X20534Y15119
X18880Y15774
X18380Y15674
X17880Y15846
X16479Y17127
X17621Y17757
X18211Y17757
X15928Y15395
X14747Y16970
X13802Y16930
X12030Y16143
X11597Y15749
X12542Y15040
X13448Y14017
X13448Y13269
X10771Y12600
X6873Y14332
X4196Y14332
X3881Y12600
X4668Y17915
X5195Y17928
X7188Y17915
X7795Y17928
X10613Y17915
X11007Y17442
X12936Y20907
X13526Y22403
X14432Y22403
X15574Y22127
X15692Y22954
X20810Y23544
X21164Y22915
X25219Y21497
X25810Y21064
X26322Y20513
X26834Y20119
X32463Y17796
X33448Y18151
X34471Y18584
X35259Y19017
X21479Y8820
X21243Y9332
X19511Y8663
X19038Y8348
X22109Y7245
X25456Y7600
X25298Y5080
X25889Y5080
X26479Y5080
X27070Y5080
X27660Y5080
X28251Y5080
X28251Y4489
X28251Y3977
X28251Y2875
X28251Y2285
X28251Y1733
X27660Y1733
X27030Y1733
X26400Y1733
X25849Y1733
X25298Y1733
X25298Y2324
X25298Y2915
X25298Y3466
X25298Y4017
X25298Y4568
X26715Y3977
X26715Y3387
X26755Y2757
X32385Y5159
X32857Y5946
X35967Y6064
X17975Y13308
X17109Y1773
T02
X26873Y10052
X26873Y11052
T03
X38030Y6190
X38030Y4457
T04
X16180Y2617
X15180Y2617
X14180Y2617
X13180Y2617
X12180Y2617
X11180Y2617
X10180Y2617
X9180Y2617
X8180Y2617
X7180Y2617
X6180Y2617
X5180Y2617
X4180Y2617
X4180Y1617
X5180Y1617
X6180Y1617
X7180Y1617
X8180Y1617
X9180Y1617
X10180Y1617
X11180Y1617
X12180Y1617
X13180Y1617
X14180Y1617
X15180Y1617
X16180Y1617
X22974Y23630
X23974Y23630
X24974Y23630
X25974Y23630
X26974Y23630
X27974Y23630
X27974Y24630
X26974Y24630
X25974Y24630
X24974Y24630
X23974Y24630
X22974Y24630
X18561Y24647
X17561Y24647
X17561Y23647
X18561Y23647
X16561Y23647
X15561Y23647
X15561Y24647
X16561Y24647
X14561Y24647
X13561Y24647
X13561Y23647
X14561Y23647
X32448Y23645
X33448Y23645
X33448Y24645
X32448Y24645
X34448Y24645
X35448Y24645
X36448Y24645
X37448Y24645
X37448Y23645
X36448Y23645
X35448Y23645
X34448Y23645
T05
X37980Y20974
X38980Y20974
X38980Y19974
X37980Y19974
X37980Y18974
X38980Y18974
X38980Y17974
X37980Y17974
X37980Y16974
X38980Y16974
X38980Y15974
X37980Y15974
X37980Y14974
X38980Y14974
X38980Y13974
X37980Y13974
X37980Y11874
X38980Y11874
X38980Y10874
X37980Y10874
X37980Y9874
X38980Y9874
X38980Y8874
X37980Y8874
X28837Y6142
X27837Y6142
X26837Y6142
X33080Y1599
X34080Y1599
X35080Y1599
X8721Y23768
X7630Y23768
X6540Y23768
X5449Y23768
X4359Y23768
X4906Y24886
X5997Y24886
X7083Y24886
X8174Y24886
X1580Y19774
X1580Y18774
X1580Y17774
X1580Y16774
X1580Y15774
X1580Y14774
X1580Y13174
X1580Y12174
X1580Y11174
X1580Y10174
X1580Y9174
X1580Y8174
X1580Y6174
X2580Y6174
X2580Y5174
X1580Y5174
X1580Y4174
X2580Y4174
X2580Y3174
X1580Y3174
T06
X1180Y1474
X1180Y21874
X39155Y27174
X39155Y1474
T07
X11461Y24327
X1619Y24327
M30
