G75*
%MOIN*%
%OFA0B0*%
%FSLAX24Y24*%
%IPPOS*%
%LPD*%
%AMOC8*
5,1,8,0,0,1.08239X$1,22.5*
%
%ADD10C,0.1182*%
%ADD11C,0.0640*%
%ADD12OC8,0.0640*%
%ADD13C,0.0680*%
%ADD14C,0.0434*%
%ADD15OC8,0.0680*%
%ADD16R,0.0820X0.0820*%
%ADD17C,0.0820*%
%ADD18C,0.2080*%
%ADD19C,0.0600*%
%ADD20OC8,0.0476*%
%ADD21R,0.0476X0.0476*%
D10*
X001180Y001474D03*
X001180Y021874D03*
X039155Y027174D03*
X039155Y001474D03*
D11*
X004180Y001617D03*
D12*
X005180Y001617D03*
X005180Y002617D03*
X004180Y002617D03*
X006180Y002617D03*
X007180Y002617D03*
X008180Y002617D03*
X009180Y002617D03*
X010180Y002617D03*
X011180Y002617D03*
X012180Y002617D03*
X013180Y002617D03*
X014180Y002617D03*
X015180Y002617D03*
X016180Y002617D03*
X016180Y001617D03*
X015180Y001617D03*
X014180Y001617D03*
X013180Y001617D03*
X012180Y001617D03*
X011180Y001617D03*
X010180Y001617D03*
X009180Y001617D03*
X008180Y001617D03*
X007180Y001617D03*
X006180Y001617D03*
X022974Y023630D03*
X023974Y023630D03*
X024974Y023630D03*
X025974Y023630D03*
X026974Y023630D03*
X027974Y023630D03*
X027974Y024630D03*
X026974Y024630D03*
X025974Y024630D03*
X024974Y024630D03*
X023974Y024630D03*
X022974Y024630D03*
X018561Y024647D03*
X017561Y024647D03*
X017561Y023647D03*
X018561Y023647D03*
X016561Y023647D03*
X015561Y023647D03*
X015561Y024647D03*
X016561Y024647D03*
X014561Y024647D03*
X013561Y024647D03*
X013561Y023647D03*
X014561Y023647D03*
X032448Y023645D03*
X033448Y023645D03*
X033448Y024645D03*
X032448Y024645D03*
X034448Y024645D03*
X035448Y024645D03*
X036448Y024645D03*
X037448Y024645D03*
X037448Y023645D03*
X036448Y023645D03*
X035448Y023645D03*
X034448Y023645D03*
D13*
X028837Y006442D02*
X028837Y005842D01*
X027837Y005842D02*
X027837Y006442D01*
X026837Y006442D02*
X026837Y005842D01*
X033080Y001899D02*
X033080Y001299D01*
X034080Y001299D02*
X034080Y001899D01*
X035080Y001899D02*
X035080Y001299D01*
X001880Y008174D02*
X001280Y008174D01*
X001280Y009174D02*
X001880Y009174D01*
X001880Y010174D02*
X001280Y010174D01*
X001280Y011174D02*
X001880Y011174D01*
X001880Y012174D02*
X001280Y012174D01*
X001280Y013174D02*
X001880Y013174D01*
X001880Y014774D02*
X001280Y014774D01*
X001280Y015774D02*
X001880Y015774D01*
X001880Y016774D02*
X001280Y016774D01*
X001280Y017774D02*
X001880Y017774D01*
X001880Y018774D02*
X001280Y018774D01*
X001280Y019774D02*
X001880Y019774D01*
D14*
X038030Y006190D03*
X038030Y004457D03*
D15*
X037980Y008874D03*
X038980Y008874D03*
X038980Y009874D03*
X038980Y010874D03*
X038980Y011874D03*
X037980Y011874D03*
X037980Y010874D03*
X037980Y009874D03*
X037980Y013974D03*
X037980Y014974D03*
X038980Y014974D03*
X038980Y013974D03*
X038980Y015974D03*
X038980Y016974D03*
X038980Y017974D03*
X038980Y018974D03*
X037980Y018974D03*
X037980Y017974D03*
X037980Y016974D03*
X037980Y015974D03*
X037980Y019974D03*
X037980Y020974D03*
X038980Y020974D03*
X038980Y019974D03*
X002580Y006174D03*
X001580Y006174D03*
X001580Y005174D03*
X002580Y005174D03*
X002580Y004174D03*
X001580Y004174D03*
X001580Y003174D03*
X002580Y003174D03*
D16*
X004359Y023768D03*
D17*
X005449Y023768D03*
X006540Y023768D03*
X007630Y023768D03*
X008721Y023768D03*
X008174Y024886D03*
X007083Y024886D03*
X005997Y024886D03*
X004906Y024886D03*
D18*
X001619Y024327D03*
X011461Y024327D03*
D19*
X026873Y011052D03*
X026873Y010052D03*
D20*
X025889Y010395D03*
X025377Y010119D03*
X024274Y011103D03*
X024550Y011576D03*
X021912Y011064D03*
X021440Y011576D03*
X020456Y012403D03*
X020889Y012836D03*
X021086Y014726D03*
X020534Y015119D03*
X021991Y015474D03*
X023015Y014883D03*
X023645Y014804D03*
X024589Y013505D03*
X027582Y015710D03*
X031164Y013190D03*
X031794Y012836D03*
X032267Y012481D03*
X033330Y010828D03*
X034708Y011694D03*
X034747Y012324D03*
X035219Y010899D03*
X034747Y009568D03*
X035219Y008899D03*
X033487Y008781D03*
X030377Y008387D03*
X028172Y010552D03*
X025456Y007600D03*
X025298Y005080D03*
X025889Y005080D03*
X026479Y005080D03*
X027070Y005080D03*
X027660Y005080D03*
X028251Y005080D03*
X028251Y004489D03*
X028251Y003977D03*
X028251Y002875D03*
X028251Y002285D03*
X028251Y001733D03*
X027660Y001733D03*
X027030Y001733D03*
X026400Y001733D03*
X025849Y001733D03*
X025298Y001733D03*
X025298Y002324D03*
X025298Y002915D03*
X025298Y003466D03*
X025298Y004017D03*
X025298Y004568D03*
X026715Y003977D03*
X026715Y003387D03*
X026755Y002757D03*
X032385Y005159D03*
X032857Y005946D03*
X035967Y006064D03*
X022109Y007245D03*
X021479Y008820D03*
X021243Y009332D03*
X019511Y008663D03*
X019038Y008348D03*
X017975Y011064D03*
X017975Y013308D03*
X015928Y015395D03*
X016479Y017127D03*
X017621Y017757D03*
X018211Y017757D03*
X017880Y015846D03*
X018380Y015674D03*
X018880Y015774D03*
X014747Y016970D03*
X013802Y016930D03*
X012030Y016143D03*
X011597Y015749D03*
X012542Y015040D03*
X013448Y014017D03*
X013448Y013269D03*
X012227Y010592D03*
X014117Y009607D03*
X012818Y006773D03*
X006676Y004726D03*
X005810Y009135D03*
X003881Y012600D03*
X004196Y014332D03*
X006873Y014332D03*
X011007Y017442D03*
X010613Y017915D03*
X007795Y017928D03*
X007188Y017915D03*
X005195Y017928D03*
X004668Y017915D03*
X012936Y020907D03*
X013526Y022403D03*
X014432Y022403D03*
X015574Y022127D03*
X015692Y022954D03*
X020810Y023544D03*
X021164Y022915D03*
X025219Y021497D03*
X025810Y021064D03*
X026322Y020513D03*
X026834Y020119D03*
X032463Y017796D03*
X033448Y018151D03*
X034471Y018584D03*
X035259Y019017D03*
X017109Y001773D03*
D21*
X010652Y009804D03*
X009826Y009529D03*
X008684Y009529D03*
X006125Y010316D03*
X005377Y007324D03*
X010771Y012600D03*
M02*
